<svg id="a8b69f10-77ce-4b43-b7d8-ae8506b13e12" data-name="a01bd558-632b-4e3e-9b5c-1d013edc7060" xmlns="http://www.w3.org/2000/svg" width="20.63" height="20.41" viewBox="0 0 20.63 20.41"><title>sub</title><path d="M0,0H18V18H0Z" fill="none"/><path d="M2.63,2.41h18v18h-18Z" fill="none"/><path d="M11.17,15.35a6,6,0,0,1-4.34,1.57,4.56,4.56,0,0,1-3.05-1,3.24,3.24,0,0,1-1.15-2.58C2.63,10.44,5.14,9,10.15,9h1A8.42,8.42,0,0,0,11,7a1.57,1.57,0,0,0-.78-1,4.06,4.06,0,0,0-2-.4c-2,0-3,.7-3,2.11H3c.16-2.56,2-3.83,5.37-3.83A6.47,6.47,0,0,1,12,4.86c.89.64,1.34,1.88,1.34,3.73v8H11.17Zm0-2V10.63H9.63q-4.8,0-4.8,2.61a1.69,1.69,0,0,0,.7,1.46,3.12,3.12,0,0,0,1.9.51,4.91,4.91,0,0,0,2.2-.49,4.11,4.11,0,0,0,1.59-1.36Z"  style="isolation:isolate"/><g style="isolation:isolate"><path d="M17.9,18.92l-.08-.73h0a2.17,2.17,0,0,1-1.77.86,1.66,1.66,0,0,1-1.78-1.66c0-1.41,1.25-2.18,3.49-2.16v-.12a1.2,1.2,0,0,0-1.32-1.35,2.84,2.84,0,0,0-1.51.44l-.24-.7A3.64,3.64,0,0,1,16.56,13c1.77,0,2.21,1.22,2.21,2.38v2.17a8.47,8.47,0,0,0,.09,1.39Zm-.15-3c-1.16,0-2.46.18-2.46,1.31a.93.93,0,0,0,1,1,1.45,1.45,0,0,0,1.41-1,1.36,1.36,0,0,0,.06-.33Z" /></g></svg>