<svg id="af3d16fb-8db7-4c7a-a6a0-8fa851acf253" data-name="Layer 1" xmlns="http://www.w3.org/2000/svg" width="18" height="18" viewBox="0 0 18 18"><title>h3</title><path d="M.33,0h18V18H.33Z" transform="translate(-0.33)" fill="none"/><path d="M1.83,3V5.3h4.1v9h2.3v-9h4.1V3Z" transform="translate(-0.33)" fill="gray"/><g style="isolation:isolate"><path d="M14.51,10.69a2,2,0,0,1,1.21.8,2.27,2.27,0,0,1,.43,1.39,2.48,2.48,0,0,1-.82,1.93,2.85,2.85,0,0,1-2,.74,2.88,2.88,0,0,1-2-.66,2.37,2.37,0,0,1-.82-1.75h1.14a1.52,1.52,0,0,0,.43,1.09,1.56,1.56,0,0,0,1.22.46,1.58,1.58,0,0,0,1.23-.5A1.8,1.8,0,0,0,15,12.9a1.58,1.58,0,0,0-.47-1.24,2,2,0,0,0-1.39-.44h-.43v-.86H13c1.07,0,1.6-.49,1.6-1.48a1.38,1.38,0,0,0-.35-1,1.34,1.34,0,0,0-1-.34A1.35,1.35,0,0,0,11.76,8.9H10.63a2.38,2.38,0,0,1,.83-1.66,2.69,2.69,0,0,1,1.75-.57A2.57,2.57,0,0,1,15,7.3a2,2,0,0,1,.68,1.6,1.92,1.92,0,0,1-.29,1A1.85,1.85,0,0,1,14.51,10.69Z" transform="translate(-0.33)" fill="gray"/></g></svg>