<svg id="b98dcf06-bc86-410a-9469-a3ee2576b942" data-name="Layer 1" xmlns="http://www.w3.org/2000/svg" width="18" height="18" viewBox="0 0 18 18"><title>mono</title><path d="M0,0H18V18H0Z" fill="none"/><g style="isolation:isolate"><path d="M7,5.46a1.69,1.69,0,0,1,.59-.73,1.52,1.52,0,0,1,.86-.23,1.36,1.36,0,0,1,1.31.71,6.53,6.53,0,0,1,.37,2.69v4.44H9V8a6.46,6.46,0,0,0-.18-2,.68.68,0,0,0-.66-.39A.75.75,0,0,0,7.44,6a5.69,5.69,0,0,0-.2,2v4.39H6.09V8a6,6,0,0,0-.2-2,.72.72,0,0,0-.7-.38A.7.7,0,0,0,4.5,6a6,6,0,0,0-.2,2v4.39H3.16V4.68H4.3v.66a1.6,1.6,0,0,1,.57-.63,1.41,1.41,0,0,1,.77-.21,1.55,1.55,0,0,1,.86.23A1.59,1.59,0,0,1,7,5.46Z" fill="gray"/><path d="M17.5,5V6.18a4.67,4.67,0,0,0-1.09-.47,3.89,3.89,0,0,0-1.12-.16A2.38,2.38,0,0,0,14,5.82a1,1,0,0,0-.42.85.93.93,0,0,0,.31.77,4.57,4.57,0,0,0,1.57.49L16,8a2.49,2.49,0,0,1,1.41.71,2,2,0,0,1,.49,1.39,2.15,2.15,0,0,1-.81,1.78,3.57,3.57,0,0,1-2.24.64,6.24,6.24,0,0,1-1.19-.12,10.52,10.52,0,0,1-1.35-.36v-1.3a7.3,7.3,0,0,0,1.35.54,4.49,4.49,0,0,0,1.21.18,2.14,2.14,0,0,0,1.3-.34,1.1,1.1,0,0,0,.45-.94c0-.59-.55-1-1.67-1.21l-.06,0-.47-.09a3,3,0,0,1-1.58-.72,1.82,1.82,0,0,1-.5-1.37,2.08,2.08,0,0,1,.74-1.7A3.33,3.33,0,0,1,15.2,4.5a5.69,5.69,0,0,1,1.18.11A5.76,5.76,0,0,1,17.5,5Z" fill="gray"/></g></svg>