<svg id="b8a5cf5a-bfa4-47fc-8c21-89e45e59028f" data-name="Layer 1" xmlns="http://www.w3.org/2000/svg" width="18" height="18" viewBox="0 0 18 18"><title>small</title><path d="M0,0H18V18H0Z" fill="none"/><g style="isolation:isolate"><path d="M9.82,12.09c-2,0-3-.78-3.11-2.34H8c0,.89.61,1.33,1.8,1.33A2,2,0,0,0,11,10.75a1,1,0,0,0,.42-.83.73.73,0,0,0-.41-.7,11.86,11.86,0,0,0-1.7-.52A6,6,0,0,1,7.47,8a1.56,1.56,0,0,1-.59-1.39,1.86,1.86,0,0,1,.73-1.5,3.08,3.08,0,0,1,2-.59c1.9,0,2.87.68,2.91,2H11.21c-.05-.68-.56-1-1.54-1a2.19,2.19,0,0,0-1.08.24.81.81,0,0,0-.43.72.64.64,0,0,0,.33.61,7.74,7.74,0,0,0,1.65.51,6.35,6.35,0,0,1,1.95.74,1.61,1.61,0,0,1,.64,1.46,2,2,0,0,1-.79,1.65A3.25,3.25,0,0,1,9.82,12.09Z" fill="gray"/></g></svg>