<?xml version="1.0" encoding="utf-8"?>
<!-- Generator: Adobe Illustrator 23.0.1, SVG Export Plug-In . SVG Version: 6.00 Build 0)  -->
<svg version="1.1" id="Layer_1" xmlns="http://www.w3.org/2000/svg" x="0px" y="0px"
	 viewBox="0 0 48 48" style="enable-background:new 0 0 48 48;" xml:space="preserve">
<style type="text/css">
	.st0{fill:#E6E6E6;stroke:#888A85;stroke-miterlimit:10;}
</style>
<path id="h" marker-start="none" marker-end="none" marker-mid="none" class="st0" d="M23.6,2.5c-2.2,0-1.1,4.2-3.3,4.7
	c-2.1,0.5-2.9-3.7-4.9-2.9c-2,0.9,0.6,4.3-1.2,5.6c-1.8,1.2-4.1-2.4-5.6-0.8c-1.5,1.6,2.1,3.8,1,5.6c-1.2,1.8-4.8-0.5-5.6,1.5
	c-0.8,2,3.5,2.7,3.1,4.8c-0.4,2.1-4.6,1.3-4.5,3.5c0,2.2,4.2,1.1,4.7,3.3c0.5,2.1-3.7,2.9-2.9,4.9c0.9,2,4.3-0.6,5.6,1.2
	c1.2,1.8-2.4,4.1-0.8,5.6c1.6,1.5,3.8-2.1,5.6-1c1.8,1.2-0.5,4.8,1.5,5.6s2.7-3.5,4.8-3.1c2.1,0.4,1.3,4.6,3.5,4.5
	c2.2,0,1.1-4.2,3.3-4.7c2.1-0.5,2.9,3.7,4.9,2.9s-0.6-4.3,1.2-5.6c1.8-1.2,4.1,2.4,5.6,0.8c1.5-1.6-2.1-3.8-1-5.6
	c1.2-1.8,4.8,0.5,5.6-1.5c0.8-2-3.5-2.7-3.1-4.8c0.4-2.1,4.6-1.3,4.5-3.5c0-2.2-4.2-1.1-4.7-3.3c-0.5-2.1,3.7-2.9,2.9-4.9
	c-0.9-2-4.3,0.6-5.6-1.2s2.4-4.1,0.8-5.6c-1.6-1.5-3.8,2.1-5.6,1s0.5-4.8-1.5-5.6c-2-0.8-2.7,3.5-4.8,3.1
	C24.9,6.7,25.8,2.5,23.6,2.5z M24,12.5c6.2,0,11.5,5.3,11.5,11.5S30.2,35.5,24,35.5c-6.2,0-11.5-5.3-11.5-11.5S17.8,12.5,24,12.5z
	 M3.3,3.2"/>
</svg>
