<svg xmlns="http://www.w3.org/2000/svg" width="512" height="512"><path d="M183.504 53.754c-69.75 0-126.496 56.746-126.496 126.496s56.746 126.496 126.496 126.496S310.001 250 310.001 180.25 253.254 53.754 183.504 53.754z" fill="none"/><path d="M497.368 450.74L390.014 343.387a15.135 15.135 0 00-10.735-4.446 15.135 15.135 0 00-10.735 4.446l-.588.587-53.623-53.623c25.061-29.749 40.171-68.158 40.171-110.101 0-94.441-76.56-171-171-171-94.441 0-171 76.559-171 171 0 94.44 76.559 171 171 171 39.527 0 75.917-13.418 104.877-35.939L342.5 369.43l-.795.795c-5.929 5.931-5.929 15.542 0 21.472L449.057 499.05a15.143 15.143 0 0010.737 4.446c3.885 0 7.771-1.482 10.735-4.446l26.838-26.838c5.93-5.929 5.93-15.544.001-21.472zM183.504 315.25c-74.559 0-135-60.441-135-135s60.441-135 135-135 135 60.441 135 135-60.441 135-135 135z"/><path d="M503.379 444.726L396.028 337.374a23.53 23.53 0 00-16.749-6.938c-3.676 0-7.224.831-10.429 2.405l-43.103-43.103a178.694 178.694 0 0026.039-46.899c7.446-20.004 11.222-41.063 11.222-62.59 0-24.229-4.747-47.738-14.11-69.874-9.041-21.376-21.983-40.572-38.466-57.055-16.482-16.482-35.679-29.424-57.055-38.465C231.242 5.493 207.733.746 183.504.746c-24.229 0-47.738 4.747-69.874 14.11-21.376 9.041-40.572 21.983-57.055 38.465C40.093 69.804 27.151 89 18.11 110.376 8.747 132.512 4 156.021 4 180.25c0 24.229 4.747 47.738 14.11 69.874 9.041 21.376 21.983 40.573 38.465 57.055 16.483 16.482 35.679 29.424 57.055 38.466 22.135 9.362 45.645 14.109 69.874 14.109 20.294 0 40.214-3.364 59.207-10a178.652 178.652 0 0044.854-23.233l43.742 43.742c-4.489 8.887-3.027 20.033 4.385 27.446l107.352 107.353c4.478 4.475 10.426 6.938 16.751 6.938a23.535 23.535 0 0016.747-6.936l26.84-26.84a23.528 23.528 0 006.938-16.748 23.529 23.529 0 00-6.941-16.75zm-43.584 58.769a15.141 15.141 0 01-10.737-4.446L341.706 391.696c-5.929-5.93-5.929-15.541 0-21.472l.795-.795-54.119-54.119c-28.961 22.522-65.351 35.94-104.878 35.94-94.441 0-171-76.56-171-171 0-94.441 76.559-171 171-171 94.44 0 171 76.559 171 171 0 41.943-15.11 80.352-40.172 110.101l53.623 53.623.588-.587a15.135 15.135 0 0110.735-4.446c3.885 0 7.771 1.482 10.735 4.446L497.368 450.74c5.93 5.928 5.93 15.543 0 21.471l-26.838 26.838a15.137 15.137 0 01-10.735 4.446z" fill="#b3b3b3"/><path d="M183.504 45.25c-74.559 0-135 60.441-135 135s60.441 135 135 135 135-60.441 135-135-60.441-135-135-135zm0 261.496c-69.75 0-126.496-56.746-126.496-126.496S113.754 53.754 183.504 53.754 310.001 110.5 310.001 180.25s-56.747 126.496-126.497 126.496z" fill="#b3b3b3"/></svg>