<?xml version="1.0" encoding="utf-8"?>
<!-- Generator: Adobe Illustrator 23.0.1, SVG Export Plug-In . SVG Version: 6.00 Build 0)  -->
<svg version="1.1"
	 xmlns="http://www.w3.org/2000/svg"  x="0px" y="0px" viewBox="0 0 48 48"
	 style="enable-background:new 0 0 48 48;">
<style type="text/css">
	.st0{fill:#BEBEBE;}
	.st1{fill:none;}
	.st2{fill-rule:evenodd;clip-rule:evenodd;fill:#787878;}
	.st3{fill-rule:evenodd;clip-rule:evenodd;fill:#FFFAD4;}
	.st4{fill:#EF2929;}
	.st5{fill:#3465A4;}
</style>
<path id="rect1512" class="st0" d="M21.6,8.2h6c0.8,0,13.9,15.4,13.9,16.3L41,43c0,0.9-0.7,1.6-1.5,1.6H8c-0.8,0-1.5-0.7-1.5-1.6
	l0.1-18.5C6.6,23.6,20.8,8.2,21.6,8.2L21.6,8.2z"/>
<path id="path5" class="st1" d="M47,45.7H1.6l0-45.3l45.3,0L47,45.7L47,45.7z"/>
<path id="path188" class="st2" d="M22,30.6v14.1h-9.8L12,30.6H22z"/>
<path id="path217" class="st3" d="M19.5,35.9c0.7,0,1.2,0.5,1.2,1.1c0,0.6-0.5,1.1-1.2,1.1c-0.7,0-1.2-0.5-1.2-1.1
	C18.2,36.4,18.8,35.9,19.5,35.9z"/>
<path id="path362" class="st4" d="M24.3,2.3L2.4,20.4l-0.6,7.2l2,2.1c0,0,20.4-17.2,20.6-17.3l19.6,17.5l1.9-2.3l-1.6-7.1L24.4,2.2
	L24.3,2.3L24.3,2.3z"/>
<path id="rect3263" class="st5" d="M26.9,28.5h9.2c0.2,0,0.4,0.2,0.4,0.4v9.2c0,0.2-0.2,0.4-0.4,0.4h-9.2c-0.2,0-0.4-0.2-0.4-0.4
	v-9.2C26.5,28.7,26.7,28.5,26.9,28.5z"/>
</svg>
