<?xml version="1.0" encoding="utf-8"?>
<!-- Generator: Adobe Illustrator 23.0.1, SVG Export Plug-In . SVG Version: 6.00 Build 0)  -->
<svg version="1.1"
     xmlns="http://www.w3.org/2000/svg" x="0px" y="0px" viewBox="0 0 48 48"
     style="enable-background:new 0 0 48 48;" >
<style type="text/css">
	.st0{fill:#0098B4;}
	.st1{fill:#FFFFFF;}
</style>
    <path id="path6495" class="st0" d="M45.5,23c0,11.9-9.6,21.5-21.5,21.5C12.1,44.5,2.5,34.9,2.5,23C2.5,11.1,12.1,1.5,24,1.5
		C35.9,1.5,45.5,11.1,45.5,23L45.5,23z"/>
    <path id="text5882" class="st1" d="M25.8,33.5H29V36H19v-2.5h3.3v-13H19V18h6.8V33.5z"/>

    <path id="path8287" class="st1" d="
		M27,12c0,1.7-1.3,3-3,3c-1.7,0-3-1.3-3-3s1.3-3,3-3C25.7,9,27,10.3,27,12z"/>
</svg>
