<?xml version="1.0" encoding="utf-8"?>
<!-- Generator: Adobe Illustrator 23.0.1, SVG Export Plug-In . SVG Version: 6.00 Build 0)  -->
<svg version="1.1"
	 xmlns="http://www.w3.org/2000/svg" x="0px" y="0px" viewBox="0 0 48 48"
	 style="enable-background:new 0 0 48 48;" xml:space="preserve">
<style type="text/css">
	.st0{fill-rule:evenodd;clip-rule:evenodd;fill:#0074BD;}
	.st1{fill-rule:evenodd;clip-rule:evenodd;fill:#EA2D2E;}
</style>
<g>
	<path class="st0" d="M18.3,35.4c0,0-1.7,1,1.2,1.3c3.5,0.4,5.2,0.3,9-0.4c0,0,1,0.6,2.4,1.2C22.4,41.1,11.6,37.2,18.3,35.4
		L18.3,35.4z"/>
	<path class="st0" d="M17.2,30.6c0,0-1.9,1.4,1,1.7c3.7,0.4,6.6,0.4,11.6-0.6c0,0,0.7,0.7,1.8,1.1C21.3,35.8,9.9,33,17.2,30.6
		L17.2,30.6z"/>
	<path class="st1" d="M26,22.5c2.1,2.4-0.6,4.6-0.6,4.6s5.3-2.8,2.9-6.2c-2.3-3.2-4-4.8,5.5-10.3C33.8,10.6,18.9,14.3,26,22.5
		L26,22.5z"/>
	<path class="st0" d="M37.3,38.9c0,0,1.2,1-1.4,1.8c-4.9,1.5-20.5,1.9-24.8,0.1c-1.6-0.7,1.4-1.6,2.3-1.8c1-0.2,1.5-0.2,1.5-0.2
		c-1.7-1.2-11.2,2.4-4.8,3.4C27.5,45,41.8,40.9,37.3,38.9L37.3,38.9z"/>
	<path class="st0" d="M19.1,25.7c0,0-7.9,1.9-2.8,2.6c2.2,0.3,6.5,0.2,10.5-0.1c3.3-0.3,6.6-0.9,6.6-0.9s-1.2,0.5-2,1.1
		c-8,2.1-23.6,1.1-19.1-1C16,25.5,19.1,25.7,19.1,25.7L19.1,25.7z"/>
	<path class="st0" d="M33.3,33.6c8.2-4.2,4.4-8.3,1.8-7.8c-0.6,0.1-0.9,0.3-0.9,0.3s0.2-0.4,0.7-0.5c5.2-1.8,9.2,5.4-1.7,8.3
		C33.1,33.8,33.2,33.7,33.3,33.6L33.3,33.6z"/>
	<path class="st1" d="M28.4,1.7c0,0,4.5,4.5-4.3,11.5c-7.1,5.6-1.6,8.8,0,12.4c-4.1-3.7-7.2-7-5.1-10.1C21.9,11,30.2,8.9,28.4,1.7
		L28.4,1.7z"/>
	<path class="st0" d="M19.9,45.1c7.8,0.5,19.9-0.3,20.2-4c0,0-0.5,1.4-6.5,2.5c-6.7,1.3-15,1.1-19.9,0.3
		C13.7,43.9,14.7,44.8,19.9,45.1L19.9,45.1z"/>
</g>
</svg>
