<?xml version="1.0" encoding="utf-8"?>
<!-- Generator: Adobe Illustrator 23.0.1, SVG Export Plug-In . SVG Version: 6.00 Build 0)  -->
<svg version="1.1" id="Layer_1" xmlns="http://www.w3.org/2000/svg"  x="0px" y="0px"
	 viewBox="0 0 48 48" style="enable-background:new 0 0 48 48;" >
<style type="text/css">
	.st0{fill-rule:evenodd;clip-rule:evenodd;fill:#C9C100;}
	.st1{fill-rule:evenodd;clip-rule:evenodd;fill:#FEFFBF;}
	.st2{fill-rule:evenodd;clip-rule:evenodd;fill:#969696;}
</style>
<path id="rect1314" class="st0" d="M10.7,17.5c9.8-1.4,19.7-1.2,29.7,0c1.2,0,2.2,1,2.2,2.3v23.3c0,1.3-1,2.2-2.2,2.3
	c-10.3,1.2-19.2,1.2-29.7,0c-1.4-0.4-2.2-1-2.2-2.3V19.8C8.5,18.5,9.5,17.5,10.7,17.5z"/>
<path id="rect1460" class="st1" d="M10.6,18c9.9-1.5,19.9-1.2,29.8,0c0.9,0,1.6,0.7,1.6,1.6v2.8c0,0.9-0.7,1.6-1.6,1.6
	c-10.4,0.7-19.9,0.4-29.8,0C9.7,24,9,23.3,9,22.4v-2.8C9,18.7,9.7,18,10.6,18z"/>
<path id="path2086" class="st2" d="M13.5,19.7V14c0-7.9,4.7-11.6,11.9-11.5c7.3,0.1,12,3.5,12,11.5v6c0,2-4.9,2.2-4.9,0v-4
	c0-2,0.5-8.5-7.1-8.5c-7.5,0-7,6.5-6.9,8.5v3.8C18.6,22.1,13.5,22.1,13.5,19.7z"/>
</svg>
