<?xml version="1.0" encoding="utf-8"?>
<!-- Generator: Adobe Illustrator 23.0.1, SVG Export Plug-In . SVG Version: 6.00 Build 0)  -->
<svg version="1.1"
	 xmlns="http://www.w3.org/2000/svg" x="0px" y="0px" viewBox="0 0 48 48"
	 style="enable-background:new 0 0 48 48;">
<style type="text/css">
	.st0{fill:#B4B4B4;}
</style>
<path class="st0" d="M32.1,22c3.4,0,6-2.7,6-6.1s-2.7-6.1-6-6.1c-3.4,0-6.1,2.7-6.1,6.1S28.7,22,32.1,22z M15.9,22
	c3.4,0,6-2.7,6-6.1s-2.7-6.1-6-6.1s-6.1,2.7-6.1,6.1S12.6,22,15.9,22z M15.9,26c-4.7,0-14.2,2.4-14.2,7.1v5.1h28.3v-5.1
	C30.1,28.4,20.6,26,15.9,26z M32.1,26c-0.6,0-1.3,0-2,0.1c2.3,1.7,4,4,4,7v5.1h12.1v-5.1C46.2,28.4,36.8,26,32.1,26z"/>
</svg>
