<?xml version="1.0" encoding="utf-8"?>
<!-- Generator: Adobe Illustrator 23.0.1, SVG Export Plug-In . SVG Version: 6.00 Build 0)  -->
<svg version="1.1"
     xmlns="http://www.w3.org/2000/svg" x="0px" y="0px" viewBox="0 0 48 48"
     style="enable-background:new 0 0 48 48;">
<style type="text/css">
	.st0{fill:#387EB8;}
	.st1{fill:#FFE052;}
</style>

    <g id="layer1" transform="translate(-473.36088,-251.72485)" >
	<g id="g1894" transform="translate(428.42338,184.2561)">
        <path id="path8615" class="st0" d="M68.8,70.6c-10.6,0-10,4.6-10,4.6l0,4.8H69v1.4H54.8c0,0-6.8-0.8-6.8,10
	c0,10.7,5.9,10.3,5.9,10.3h3.5v-5c0,0-0.2-5.9,5.8-5.9s10.1,0,10.1,0s5.7,0.1,5.7-5.5s0-9.2,0-9.2S79.9,70.6,68.8,70.6z
			 M63.2,73.9c1,0,1.8,0.8,1.8,1.8s-0.8,1.8-1.8,1.8s-1.8-0.8-1.8-1.8S62.2,73.9,63.2,73.9z"/>
        <path id="path8620" class="st1" d="M69.1,112.3c10.6,0,10-4.6,10-4.6l0-4.8H68.9v-1.4h14.2c0,0,6.8,0.8,6.8-10s-5.9-10.3-5.9-10.3
			h-3.5v5c0,0,0.2,5.9-5.8,5.9c-6,0-10.1,0-10.1,0s-5.7-0.1-5.7,5.5c0,5.6,0,9.2,0,9.2S58,112.3,69.1,112.3z M74.7,109.1
			c-1,0-1.8-0.8-1.8-1.8c0-1,0.8-1.8,1.8-1.8s1.8,0.8,1.8,1.8C76.5,108.3,75.7,109.1,74.7,109.1z"/>
	</g>
</g>
</svg>
