<svg xmlns="http://www.w3.org/2000/svg"  width="489.309" height="494.244"><defs><linearGradient id="c"><stop offset="0" stop-color="#f0f0ee"/><stop offset="1" stop-color="#dedede"/></linearGradient><linearGradient id="d"><stop offset="0"/><stop offset="1" stop-opacity="0"/></linearGradient><linearGradient id="g"><stop offset="0" stop-color="#babdb6"/><stop offset="1" stop-color="#babdb6" stop-opacity="0"/></linearGradient><linearGradient id="h"><stop offset="0" stop-color="#555753"/><stop offset="1" stop-color="#888a85"/></linearGradient><linearGradient id="i"><stop offset="0"/><stop offset="1" stop-opacity="0"/></linearGradient><linearGradient id="e"><stop offset="0" stop-color="#fff"/><stop offset="1" stop-color="#fff" stop-opacity="0"/></linearGradient><linearGradient id="f"><stop offset="0" stop-color="#fff"/><stop offset="1" stop-color="#fff" stop-opacity="0"/></linearGradient><linearGradient id="n"><stop offset="0"/><stop offset="1" stop-opacity="0"/></linearGradient><linearGradient id="m"><stop offset="0" stop-color="#fff"/><stop offset="1" stop-color="#fff" stop-opacity="0"/></linearGradient><linearGradient id="l"><stop offset="0" stop-color="#fff"/><stop offset="1" stop-color="#ffe0b2"/></linearGradient><linearGradient id="k"><stop offset="0" stop-color="#ffebc9"/><stop offset="1" stop-color="#fda"/></linearGradient><linearGradient id="j"><stop offset="0" stop-color="#fcaf3e"/><stop offset="1" stop-color="#fff"/></linearGradient><linearGradient id="b"><stop offset="0" stop-color="#fff"/><stop offset="1" stop-color="#fff" stop-opacity="0"/></linearGradient><linearGradient id="a"><stop offset="0"/><stop offset="1" stop-opacity="0"/></linearGradient><linearGradient id="r"><stop offset="0" stop-color="#73d216"/><stop offset="1" stop-color="#8ae234"/></linearGradient><linearGradient id="q"><stop offset="0" stop-color="#fff"/><stop offset="1" stop-color="#fff" stop-opacity="0"/></linearGradient><linearGradient id="p"><stop offset="0" stop-color="#fff"/><stop offset="1" stop-color="#fff" stop-opacity="0"/></linearGradient><linearGradient id="o"><stop offset="0"/><stop offset="1" stop-opacity="0"/></linearGradient><linearGradient xlink:href="#b" id="u" gradientUnits="userSpaceOnUse" gradientTransform="matrix(0 13.21365 7.05943 0 -57.623 -92.138)" x1="-.978" y1="15.633" x2="39.162" y2="35.856"/><radialGradient xlink:href="#a" id="t" gradientUnits="userSpaceOnUse" gradientTransform="matrix(1 0 0 .28295 0 13.646)" cx="11.25" cy="19.031" fx="11.25" fy="19.031" r="8.063"/></defs><path d="M280.458 329.534l.079.071c2.18 2.02 6.148 4.706 15.373 4.706 7.502 0 17.22-3.896 28.3-11.314v-70.063c-17.49 10.411-31.12 21.31-40.648 32.516-7.673 9.104-11.404 17.859-11.404 26.761-.002 6.582 2.714 12.249 8.3 17.323z" fill="none"/><path d="M449.231 356.6c-3.036 0-5.72-.797-8.05-2.4-2.335-1.597-4.084-4.048-5.25-7.346-1.171-3.3-1.752-11.346-1.752-24.143V213.84c0-30.189-1.635-49.487-4.9-57.884-5.372-13.197-17.097-25.442-35.182-36.74-18.088-11.293-42.652-16.944-73.686-16.944-25.675 0-50.409 3.501-74.212 10.497-23.804 7-42.357 17.048-55.66 30.142-13.3 13.098-19.953 26.843-19.953 41.239 0 10.197 4.956 19.096 14.877 26.692 9.917 7.6 22.23 11.396 36.931 11.396 13.767 0 24.909-3.45 33.43-10.347 8.518-6.898 12.778-15.244 12.778-25.042 0-7.994-4.436-16.294-13.301-24.893-6.538-6.195-9.801-11.397-9.801-15.596 0-4.798 3.03-8.998 9.1-12.596 9.802-5.796 22.283-8.698 37.458-8.698 9.33 0 17.731 2.053 25.204 6.149 7.465 4.1 12.541 8.9 15.225 14.396 2.682 5.501 4.026 18.848 4.026 40.038v28.192c-72.11 28.392-118.904 51.136-140.372 68.231-21.474 17.095-32.205 36.341-32.205 57.734 0 15.798 6.18 28.94 18.552 39.438 12.366 10.498 27.884 15.747 46.558 15.747 31.734 0 67.561-15.096 107.467-45.288 2.33 15.197 8.751 26.543 19.254 34.04 10.502 7.498 25.084 11.248 43.756 11.248 15.868 0 30.045-3.352 42.532-10.048 12.482-6.696 24.56-17.442 36.23-32.242l-10.5-7.197c-6.3 7.397-12.486 11.095-18.554 11.095zm-112.717-28.792c-15.403 11.2-28.938 16.796-40.606 16.796-10.502 0-18.674-2.7-24.505-8.098-7.701-6.997-11.552-15.095-11.552-24.293 0-10.993 4.553-21.894 13.653-32.691 13.768-16.196 34.77-31.388 63.01-45.587v93.873z" fill="#1a1a1a"/><path d="M273.504 279.52c-9.1 10.798-13.653 21.699-13.653 32.692 0 9.199 3.851 17.296 11.552 24.293 5.83 5.398 14.003 8.098 24.505 8.098 11.668 0 25.203-5.596 40.606-16.797v-93.873c-28.24 14.2-49.242 29.392-63.01 45.588zm50.705 43.477c-11.08 7.418-20.798 11.314-28.3 11.314-9.226 0-13.193-2.686-15.374-4.706l-.078-.071c-5.586-5.074-8.3-10.741-8.3-17.323 0-8.902 3.73-17.657 11.404-26.76 9.527-11.206 23.158-22.107 40.648-32.517v70.063z" fill="#b3b3b3"/><path d="M486.085 344.738l-10.5-7.197c-2.212-1.515-4.973-2.33-7.8-2.33-.541 0-1.085.028-1.628.09-3.379.378-6.418 1.909-8.396 4.23-4.79 5.625-7.947 6.776-8.531 6.776-.074 0-.125-.003-.155-.006a1.12 1.12 0 01-.08-.051c-.18-.14-.738-.818-1.266-2.314-.211-.61-1.246-4.462-1.246-21.226V213.84c0-42.052-3.141-54.992-5.504-61.068-.018-.044-.035-.09-.054-.133-6.161-15.138-19.439-29.157-39.464-41.669-20.183-12.603-47.452-18.991-81.05-18.991-26.937 0-53.278 3.728-78.291 11.08-25.777 7.581-46.286 18.747-60.956 33.186-15.183 14.952-22.881 31.069-22.881 47.905 0 13.161 6.35 24.696 18.873 34.284 12.201 9.352 27.424 14.097 45.24 14.097 17.005 0 31.132-4.456 41.988-13.244 10.965-8.881 16.525-19.795 16.525-32.438 0-10.495-5.48-21.132-16.288-31.616l-.093-.09c-6.488-6.15-6.721-8.775-6.723-8.8 0-.45 0-1.865 3.912-4.183 7.627-4.511 17.84-6.802 30.34-6.802 6.94 0 12.98 1.46 18.46 4.464 5.304 2.912 8.866 6.171 10.581 9.68.726 1.492 3.111 8.533 3.111 36.146v21.675c-69.936 27.813-114.646 49.85-136.552 67.293-23.905 19.03-36.025 40.963-36.025 65.189 0 18.525 7.433 34.225 22.096 46.665 14.706 12.482 33.319 18.812 55.32 18.812 17.734 0 36.645-4.179 56.204-12.423 14.058-5.923 28.79-14.094 43.967-24.371 4.108 9.467 10.314 17.195 18.56 23.082 12.743 9.098 30.153 13.711 51.746 13.711 18.182 0 34.727-3.929 49.172-11.675 13.883-7.447 27.292-19.303 39.861-35.238 3.473-4.402 2.404-10.287-2.473-13.63zm-86.56 50.252c-18.673 0-33.254-3.75-43.757-11.248-10.502-7.497-16.922-18.843-19.254-34.04-39.905 30.192-75.732 45.288-107.467 45.288-18.673 0-34.19-5.25-46.557-15.747-12.372-10.498-18.553-23.64-18.553-39.438 0-21.393 10.731-40.64 32.205-57.734 21.468-17.095 68.262-39.838 140.372-68.231v-28.192c0-21.19-1.345-34.537-4.025-40.038-2.684-5.498-7.76-10.296-15.226-14.396-7.472-4.096-15.873-6.149-25.204-6.149-15.173 0-27.654 2.9-37.457 8.698-6.07 3.6-9.1 7.798-9.1 12.596 0 4.198 3.264 9.4 9.8 15.595 8.866 8.6 13.301 16.898 13.301 24.893 0 9.8-4.26 18.145-12.777 25.043-8.522 6.897-19.664 10.347-33.43 10.347-14.704 0-27.015-3.796-36.931-11.397-9.921-7.596-14.877-16.494-14.877-26.692 0-14.396 6.652-28.14 19.953-41.239 13.302-13.092 31.856-23.14 55.66-30.141 23.803-6.996 48.537-10.498 74.211-10.498 31.034 0 55.599 5.652 73.686 16.945 18.084 11.298 29.81 23.544 35.182 36.74 3.266 8.397 4.9 27.695 4.9 57.883v108.87c0 12.798.581 20.844 1.752 24.143 1.166 3.3 2.915 5.75 5.25 7.347 2.33 1.603 5.016 2.4 8.05 2.4 6.067 0 12.254-3.699 18.554-11.097l10.501 7.196c-11.671 14.8-23.748 25.545-36.23 32.242-12.488 6.7-26.664 10.05-42.532 10.05z" fill="#b3b3b3"/><radialGradient id="s" cx="-777.646" cy="1002.082" r="8.063" gradientTransform="matrix(-17.5116 -.0756 -.0387 8.9723 -13443.815 -8598.451)" gradientUnits="userSpaceOnUse"><stop offset="0"/><stop offset="1" stop-opacity="0"/></radialGradient><path d="M19.313 19.031a8.063 2.281 0 11-16.125 0 8.063 2.281 0 1116.125 0z" transform="translate(-10)" opacity=".163" fill="url(#s)"/><path style="marker:none" d="M19.313 19.031a8.063 2.281 0 11-16.125 0 8.063 2.281 0 1116.125 0z" transform="matrix(17.51176 0 0 31.7105 -71.14 -150.368)" opacity=".163" color="#000" fill="url(#t)" overflow="visible"/><path style="marker:none" d="M9.386 218.636L125.91 467.428l115.94-248.792h-55.557V20.239h-120.4v198.397H9.386z" color="#000" fill="#3465a4" stroke="#204a87" stroke-width="9.636" overflow="visible"/><path style="marker:none" d="M69.447 26.731h56.139l-.17 430.997L17.092 226.05h52.355V26.73z" opacity=".354" color="#000" fill="#729fcf" overflow="visible"/><path style="marker:none" d="M24.5 231.558l101.56 217.237 100.239-217.237h-47.57V33.39H72.992v198.167h-48.49z" opacity=".354" color="#000" fill="none" stroke="url(#u)" stroke-width="9.636" overflow="visible"/></svg>