<svg xmlns="http://www.w3.org/2000/svg"  width="48" height="48" version="1.0"><defs><linearGradient id="m"><stop offset="0" stop-color="#c17d11"/><stop offset="1" stop-color="#e9b96e"/></linearGradient><linearGradient id="n"><stop offset="0" stop-color="#fff"/><stop offset="1" stop-color="#fff" stop-opacity="0"/></linearGradient><linearGradient id="h"><stop offset="0"/><stop offset="1" stop-opacity="0"/></linearGradient><linearGradient id="e"><stop offset="0" stop-color="#fff"/><stop offset="1" stop-color="#fff" stop-opacity=".521"/></linearGradient><linearGradient id="f"><stop offset="0"/><stop offset="1" stop-opacity="0"/></linearGradient><linearGradient id="k"><stop offset="0" stop-color="#eac586"/><stop offset="1" stop-color="#eac586" stop-opacity="0"/></linearGradient><linearGradient id="c"><stop offset="0" stop-color="#8ae234"/><stop offset="1" stop-color="#73d216"/></linearGradient><linearGradient id="d"><stop offset="0"/><stop offset="1" stop-opacity="0"/></linearGradient><linearGradient id="b"><stop offset="0" stop-color="#729fcf"/><stop offset="1" stop-color="#3465a4"/></linearGradient><linearGradient id="a"><stop offset="0" stop-color="#ef2929"/><stop offset="1" stop-color="#c00"/></linearGradient><linearGradient id="l"><stop offset="0" stop-color="#eeeeec"/><stop offset="1" stop-color="#888a85"/></linearGradient><linearGradient id="g"><stop offset="0" stop-color="#e7ce79"/><stop offset="1" stop-color="#c17d11"/></linearGradient><linearGradient id="i"><stop offset="0" stop-color="#fff"/><stop offset="1" stop-color="#fff" stop-opacity=".068"/></linearGradient><linearGradient id="j"><stop offset="0" stop-color="#555753"/><stop offset="1" stop-color="#1f2324"/></linearGradient><linearGradient xlink:href="#e" id="w" gradientUnits="userSpaceOnUse" x1="15.3" y1="9.144" x2="51.568" y2="83.076" gradientTransform="translate(1.064 .025)"/><linearGradient xlink:href="#i" id="D" gradientUnits="userSpaceOnUse" gradientTransform="matrix(.64242 0 0 .71463 3.446 6.787)" x1="9.344" y1="38.812" x2="10.925" y2="46.821"/><linearGradient xlink:href="#j" id="C" gradientUnits="userSpaceOnUse" gradientTransform="matrix(1 0 0 1.26753 -1 -14.854)" x1="10.593" y1="38.582" x2="10.165" y2="43.382"/><linearGradient xlink:href="#i" id="E" gradientUnits="userSpaceOnUse" x1="12.187" y1="38.012" x2="12.187" y2="39.532"/><linearGradient xlink:href="#k" id="G" gradientUnits="userSpaceOnUse" gradientTransform="matrix(.8048 -.08406 -.25878 .8412 10.627 5.876)" x1="38.289" y1="5.254" x2="36.611" y2="7.331"/><linearGradient xlink:href="#l" id="z" gradientUnits="userSpaceOnUse" gradientTransform="matrix(.8048 -.08406 -.25878 .8412 10.723 3.51)" x1="19.635" y1="29.591" x2="23.529" y2="33.485"/><linearGradient xlink:href="#m" id="y" gradientUnits="userSpaceOnUse" gradientTransform="matrix(.8048 -.08406 -.25878 .8412 10.723 3.51)" x1="33.176" y1="18.658" x2="31.181" y2="17.177"/><linearGradient xlink:href="#n" id="A" x1="18.188" y1="28.625" x2="41.438" y2="6.188" gradientUnits="userSpaceOnUse" gradientTransform="translate(0 -1)"/><linearGradient id="o"><stop offset="0" stop-color="#babdb6"/><stop offset="1" stop-color="#eeeeec"/></linearGradient><linearGradient id="p"><stop offset="0"/><stop offset="1" stop-opacity="0"/></linearGradient><linearGradient id="q"><stop offset="0" stop-opacity="0"/><stop offset=".5"/><stop offset="1" stop-opacity="0"/></linearGradient><linearGradient id="r"><stop offset="0" stop-color="#fff"/><stop offset="1" stop-color="#fff" stop-opacity="0"/></linearGradient><radialGradient xlink:href="#a" id="F" cx="32.45" cy="33.609" fx="32.45" fy="33.609" r="5.038" gradientTransform="matrix(.63694 .69684 .55326 -.51013 -5.001 25.288)" gradientUnits="userSpaceOnUse"/><radialGradient xlink:href="#b" id="H" gradientUnits="userSpaceOnUse" gradientTransform="matrix(-.85708 .70369 -.63055 -.63055 89.176 19.04)" cx="33.291" cy="36.07" fx="33.291" fy="36.07" r="5.038"/><radialGradient xlink:href="#c" id="B" cx="23.538" cy="36.025" fx="23.538" fy="36.025" r="4.245" gradientTransform="matrix(.94093 0 0 1.04825 1.682 -3.178)" gradientUnits="userSpaceOnUse"/><radialGradient xlink:href="#d" id="t" gradientUnits="userSpaceOnUse" cx="6.5" cy="23.5" fx="6.5" fy="23.5" r="4.5"/><radialGradient xlink:href="#d" id="u" gradientUnits="userSpaceOnUse" cx="6.5" cy="23.5" fx="6.5" fy="23.5" r="4.5"/><radialGradient xlink:href="#f" id="x" cx="28.469" cy="23.214" fx="28.469" fy="23.214" r="12.367" gradientTransform="matrix(.16754 .13407 -.93936 1.1739 43.938 -7.587)" gradientUnits="userSpaceOnUse"/><radialGradient xlink:href="#g" id="v" cx="28.658" cy="33.987" fx="28.658" fy="33.987" r="18.572" gradientTransform="matrix(6.04299 0 0 5.53708 -142.794 -152.238)" gradientUnits="userSpaceOnUse"/><radialGradient xlink:href="#h" id="s" cx="10.563" cy="46.063" fx="10.563" fy="46.063" r="8.563" gradientTransform="matrix(1 0 0 .53285 0 21.518)" gradientUnits="userSpaceOnUse"/><radialGradient r="17" fy="5.3" fx="4" cy="5.3" cx="4" gradientTransform="matrix(1.88603 0 0 1.17647 -3.544 -4.235)" gradientUnits="userSpaceOnUse" id="I" xlink:href="#r"/></defs><path d="M19.125 46.063a8.563 4.563 0 11-17.125 0 8.563 4.563 0 1117.125 0z" transform="matrix(1.10949 0 0 .54795 -1.719 16.635)" opacity=".1" fill="url(#s)"/><g opacity=".303" fill-rule="evenodd"><path transform="matrix(0 -1.11132 7.2704 0 -139.822 48.192)" d="M2 23.5A4.5 4.5 0 016.5 19a4.5 4.5 0 014.5 4.5H6.5z" fill="url(#t)"/><path transform="matrix(0 -1.11132 -3.7038 0 118.072 48.192)" d="M2 23.5A4.5 4.5 0 016.5 19a4.5 4.5 0 014.5 4.5H6.5z" fill="url(#u)"/></g><path d="M23.031 4.5c-5.867.077-13.726 2.085-13.593 8.531.141 6.877 8.495 4.164 8.812 7.219.513 4.938-10.174 19.961 6.063 22.906C35.151 45.122 46.656 38.372 45.5 24.75 44.46 12.5 34.325 4.812 24.187 4.5c-.37-.011-.765-.005-1.156 0zm-2.531 4c2.76 0 5 1.568 5 3.5s-2.24 3.5-5 3.5-5-1.568-5-3.5 2.24-3.5 5-3.5z" fill="url(#v)" fill-rule="evenodd" stroke="#c17d11"/><path d="M23.095 5.525c-2.824.037-6.123.567-8.593 1.78-2.471 1.215-4.058 2.908-4 5.72.03 1.513.48 2.328 1.093 2.906.614.578 1.496.924 2.5 1.187 1.005.264 2.092.42 3.063.75.485.166.96.38 1.375.75.414.37.717.947.781 1.563.17 1.645-.479 3.503-1.156 5.656-.678 2.153-1.446 4.514-1.719 6.75-.273 2.237-.041 4.28 1.063 5.906 1.103 1.627 3.17 2.982 7.062 3.688 5.159.936 10.449-.207 14.281-3.156 3.833-2.95 6.272-7.64 5.719-14.157C43.568 13.133 33.869 5.821 24.22 5.525c-.337-.01-.732-.006-1.125 0z" opacity=".67" fill="none" stroke="url(#w)"/><path d="M35.5 8.313a.494.494 0 00-.219.124C26.294 15.46 21.664 20.793 19.094 24.22c-1.712 2.113-3.604 5.271-5.157 8.218a.494.494 0 00-.062.157c-.219 1.997-.077 4.013.781 5.781a.494.494 0 00.688.219c4.016-2.311 9.158-7.188 10.531-8.782 2.936-3.355 7.649-9.29 12.594-18.687a.494.494 0 00-.094-.563c-.779-.762-1.619-1.512-2.5-2.156a.494.494 0 00-.375-.094z" transform="translate(.438 -.875)" opacity=".165" fill="url(#x)" fill-rule="evenodd"/><path d="M24.378 26.217C28.122 22.66 34.668 15.824 42.5 5c.315-.349-.21-.649-.5-.5-11.832 8.286-17.782 14.476-21.157 18.015" fill="url(#y)" fill-rule="evenodd" stroke="#8f5902" stroke-linejoin="round"/><path d="M21.436 21.922c1.482.593 2.798 1.536 3.535 3.701-1.5 1.44-7.463 6.425-11.181 8.496l-1.092-1.515c2.112-3.07 5.973-7.922 8.738-10.682z" opacity=".15" fill-rule="evenodd" stroke="#000" stroke-linejoin="round"/><path d="M20.843 22.515c1.481.594 2.798 1.536 3.535 3.702-1.5 1.44-7.464 6.425-11.182 8.495l-1.092-1.514c2.113-3.07 5.973-7.922 8.739-10.683z" fill="url(#z)" fill-rule="evenodd" stroke="#888a85"/><g opacity=".13" fill-rule="evenodd" stroke="#000" stroke-linejoin="round" stroke-miterlimit="5"><path d="M28.045 37.922c-.98.593.072 1.274.545 1.67.376.315-.188 1.836-.86 1.164-.775-.775-1.274-1.852-1.578-1.88-1.747-.158-.402 2.148-1.808 1.64-.841-.303.206-1.577-.918-1.968-.892-.31-.804.644-1.32.179-2.429-2.19-1.152-4.093-.028-5.579 1.125-1.485 3.345-1.645 4.992-.327 1.647 1.317 2.084 3.603.975 5.101zM36.696 34.909c.894 0 2.395.151 2.79.616.924 1.086 1.744-.343 1.041-.96-.81-.71-1.886-1.12-1.94-1.422-.303-1.736 2.025-.583 1.417-1.948-.364-.817-1.495.338-1.968-.754-.375-.867.548-.859.057-1.336-2.311-2.25-4.024-.811-5.351.44-1.327 1.25-1.287 3.487.12 5.026.577.632.86 2.15 1.597 2.333 1.057.262-.016-1.995 2.237-1.995zM38.242 23.926c-.881 0-1.058.608-1.473 1-.33.31-1.717-.305-1.025-.853.798-.632.973-1.378 1.025-1.646.3-1.543-2.656-.793-2.048-2.002.443-.88 2.052-.042 2.048-.497-.007-.703-.42-1.765.46-1.939 1.854-.365 3.987.912 4.992 1.936.96.98.428 2.692-.14 3.908-.347.743-1.143 2.255-2.065 2.073-1.046-.206.444-1.98-1.774-1.98z"/></g><path d="M12.938 33.438C18.547 24.934 36.614 9.233 40.5 6.625c-8.265 8.802-18.608 18.642-27.563 26.813z" opacity=".68" fill="url(#A)" fill-rule="evenodd"/><path d="M27.824 37.496c-.98.593.072 1.274.545 1.671.376.315-.188 1.835-.86 1.163-.775-.774-1.274-1.852-1.578-1.88-1.747-.158-.402 2.149-1.808 1.641-.841-.303.206-1.577-.918-1.969-.892-.31-.804.645-1.32.18-2.429-2.19-1.152-4.093-.028-5.579 1.125-1.486 3.346-1.645 4.992-.328 1.647 1.318 2.084 3.603.975 5.101z" fill="url(#B)" fill-rule="evenodd" stroke="#4e9a06" stroke-linejoin="round" stroke-miterlimit="5"/><path d="M25.719 32.75c-1.334-.778-2.84.048-3.375.719-.535.67-1.261 1.982-.688 3.218.377-1.189.919-1.98 1.469-2.593.551-.615 1.193-1.277 2.594-1.344z" opacity=".77" fill="#eeeeec" fill-rule="evenodd"/><path d="M2.5 39.534c4.693.002 4.221-4.892 6.5-6.392 2.64-1.739 4.955.415 5.417 2.188C15 37.567 14 40.026 11 41.01c-3.364 1.102-8.11.475-8.5-1.476z" fill="url(#C)" fill-rule="evenodd" stroke="#000"/><path d="M4 40.119c2.035-.026 3.436-2.445 3.966-3.98 1.6-4.625 6.415-2.426 5.534.794-1.048 5.181-6.455 3.194-9.5 3.186z" opacity=".291" fill="none" stroke="url(#D)" stroke-linejoin="round" stroke-miterlimit="5"/><path d="M13.325 38.708a1.138.917 0 11-2.276 0 1.138.917 0 112.276 0z" transform="matrix(2.6362 0 0 2.18096 -21.126 -49.42)" opacity=".5" fill="url(#E)" fill-rule="evenodd"/><path d="M36.475 34.484c.894 0 2.395.15 2.79.615.924 1.087 1.744-.342 1.041-.96-.81-.71-1.886-1.12-1.94-1.422-.303-1.736 2.025-.582 1.417-1.947-.364-.817-1.495.338-1.968-.754-.375-.868.548-.86.057-1.337-2.31-2.249-4.024-.81-5.351.44s-1.287 3.488.12 5.026c.577.632.86 2.151 1.597 2.334 1.057.262-.016-1.995 2.237-1.995z" fill="url(#F)" fill-rule="evenodd" stroke="#a40000" stroke-linejoin="round" stroke-miterlimit="5"/><path d="M41.51 5.5L38.5 8.509" fill="none" stroke="url(#G)" stroke-linecap="round"/><path d="M38.02 23.5c-.88 0-1.057.608-1.472 1-.33.31-1.717-.304-1.025-.853.798-.631.973-1.378 1.025-1.646.3-1.542-2.656-.793-2.048-2.001.443-.88 2.052-.042 2.048-.498-.007-.703-.42-1.765.46-1.938 1.854-.366 3.987.912 4.992 1.936.96.98.428 2.691-.14 3.907-.347.744-1.143 2.256-2.065 2.074-1.046-.207.444-1.98-1.774-1.98z" fill="url(#H)" fill-rule="evenodd" stroke="#204a87" stroke-linejoin="round" stroke-miterlimit="5"/><path d="M38 18.5c-.855.387-1 1.5-.5 2.5.533-1.447 2-1 3.5-1-.5-1-2.404-1.7-3-1.5zM36.768 28.732c-1.333-.778-2.84.048-3.375.719-.535.67-1.261 1.982-.687 3.219.376-1.19.918-1.98 1.468-2.594.551-.615 1.193-1.277 2.594-1.344z" opacity=".77" fill="#eeeeec" fill-rule="evenodd"/><path transform="translate(-150)" d="M8.531 3.986c-.858 0-1.545.687-1.545 1.545V42.47c0 .858.687 1.545 1.545 1.545H39.47c.858 0 1.545-.687 1.545-1.545V17.5c0-1.392-.501-4.3-2.358-6.156l-5-5C31.8 4.487 28.892 3.986 27.5 3.986H8.531z" opacity=".68" fill="url(#I)"/><path d="M7.192 20.212c0 .879.316 1.581.967 2.148.63.549 1.322.815 2.114.815.787 0 2.226-.322 4.66-1.825v-6.274c-2.09.667-3.48 1.153-4.138 1.448l-.006.002c-1.324.582-2.272 1.185-2.817 1.792-.525.584-.78 1.204-.78 1.894z" fill="none"/><path d="M6.81 17.676c0 .919.34 1.653 1.041 2.245.68.574 1.424.853 2.278.853.847 0 2.398-.337 5.02-1.908v-6.559c-2.252.697-3.748 1.206-4.458 1.514l-.006.002c-1.426.608-2.447 1.238-3.034 1.873-.566.61-.841 1.259-.841 1.98z" fill="none"/><path d="M22.237 21.175c-.293 0-.552-.075-.776-.224-.225-.15-.387-.445-.484-.886-.098-.441-.147-1.641-.147-3.6V9.489c0-1.989-.176-3.305-.528-3.948-.547-.987-1.397-1.712-2.55-2.175-1.525-.613-3.48-.92-5.864-.92-3.108 0-5.522.538-7.242 1.615-1.72 1.077-2.58 2.258-2.58 3.544 0 .673.23 1.204.689 1.592.46.39 1.05.584 1.774.584.742 0 1.344-.187 1.803-.561.459-.374.689-.905.689-1.593l-.059-1.3c0-.658.371-1.242 1.114-1.75.723-.508 1.7-.763 2.932-.763 1.622 0 2.859.382 3.71 1.144.85.763 1.274 2.169 1.274 4.217v.807c-4.613 1.287-7.911 2.378-9.895 3.275-1.984.897-3.376 1.855-4.178 2.871-.586.733-.88 1.6-.88 2.602 0 1.585.602 2.864 1.804 3.836s2.731 1.458 4.588 1.458c1.192 0 2.317-.188 3.372-.561.704-.254 2.434-1.196 5.19-2.826.019 1.226.312 2.093.879 2.602.567.508 1.329.762 2.287.762 1.994 0 4.085-1.121 6.274-3.364V19.38c-1.173.897-1.964 1.443-2.375 1.637a1.998 1.998 0 01-.82.157zm-6.244-1.996c-2.424 1.495-4.379 2.243-5.864 2.243a4.364 4.364 0 01-2.903-1.066c-.84-.71-1.26-1.604-1.26-2.68 0-.852.332-1.637.996-2.355.665-.718 1.77-1.406 3.313-2.064.86-.373 2.766-1.01 5.718-1.906v7.828z" fill="#00f"/><path d="M10.275 13.257c-1.544.658-2.648 1.346-3.313 2.064-.664.718-.996 1.502-.996 2.355 0 1.077.42 1.97 1.26 2.68a4.364 4.364 0 002.903 1.066c1.485 0 3.44-.748 5.864-2.243V11.35c-2.952.897-4.858 1.533-5.718 1.906zm4.873 5.609c-2.621 1.57-4.172 1.908-5.02 1.908-.853 0-1.598-.279-2.277-.853-.7-.592-1.041-1.326-1.041-2.245 0-.722.275-1.37.84-1.98.588-.635 1.609-1.265 3.035-1.873l.006-.002c.71-.308 2.206-.817 4.457-1.514v6.559z" fill="#b3b3b3"/><path d="M25.757 18.782a1.068 1.068 0 00-.324-.05.99.99 0 00-.596.19c-1.448 1.107-2.006 1.44-2.212 1.54a.982.982 0 01-.388.065.364.364 0 01-.22-.063c-.013-.013-.124-.127-.208-.508-.062-.276-.135-1.106-.135-3.491V9.489c0-2.095-.194-3.468-.593-4.198-.625-1.127-1.613-1.966-2.937-2.5-1.64-.658-3.745-.993-6.256-.993-3.293 0-5.91.593-7.775 1.761-1.918 1.2-2.891 2.562-2.891 4.046 0 .836.306 1.518.908 2.028.623.527 1.43.795 2.4.795.98 0 1.793-.257 2.416-.764.61-.496.92-1.182.92-2.037l-.001-.022-.058-1.289c.004-.465.276-.876.832-1.256l.008-.006c.567-.398 1.34-.592 2.362-.592 1.375 0 2.379.3 3.067.917.49.439 1.073 1.454 1.073 3.796v.354c-4.356 1.229-7.544 2.294-9.48 3.17-2.095.947-3.599 1.988-4.47 3.092-.666.832-1.003 1.821-1.003 2.939 0 1.75.685 3.19 2.035 4.281 1.362 1.102 3.112 1.66 5.2 1.66 1.31 0 2.563-.209 3.726-.62l.006-.002c.43-.156 1.326-.557 4.112-2.176.162.769.478 1.359.956 1.787.732.656 1.717.989 2.928.989 1.169 0 2.362-.323 3.548-.958 1.114-.598 2.259-1.495 3.402-2.666a.556.556 0 00.169-.388V19.38c0-.261-.206-.497-.521-.598zm-6.598 5.22c-.958 0-1.72-.255-2.287-.764-.567-.508-.86-1.375-.88-2.601-2.755 1.63-4.485 2.572-5.189 2.826-1.055.373-2.18.56-3.372.56-1.857 0-3.386-.485-4.588-1.458-1.202-.971-1.803-2.25-1.803-3.835 0-1.002.293-1.869.88-2.602.8-1.017 2.193-1.974 4.178-2.87 1.983-.898 5.281-1.99 9.895-3.276v-.807c0-2.049-.426-3.454-1.276-4.217-.85-.762-2.086-1.144-3.709-1.144-1.231 0-2.209.255-2.931.763-.743.508-1.115 1.092-1.115 1.75l.06 1.3c0 .688-.23 1.22-.69 1.593-.46.374-1.06.56-1.803.56-.723 0-1.315-.194-1.774-.583-.46-.388-.689-.92-.689-1.592 0-1.286.86-2.468 2.58-3.544 1.72-1.077 4.134-1.615 7.242-1.615 2.384 0 4.34.307 5.864.92 1.153.463 2.003 1.188 2.55 2.175.352.643.528 1.96.528 3.948v6.975c0 1.96.049 3.16.147 3.6.097.442.259.737.484.887.224.15.483.224.777.224.312 0 .586-.052.82-.157.411-.194 1.203-.74 2.375-1.638v1.256c-2.189 2.244-4.28 3.365-6.274 3.365z" fill="#b3b3b3"/></svg>