<svg xmlns="http://www.w3.org/2000/svg" viewBox="0 0 48 48" version="1.0"><defs><radialGradient id="b" gradientUnits="userSpaceOnUse" cy="23.071" cx="21.762" gradientTransform="matrix(.97728 0 0 .65138 -.794 15.829)" r="15.571"><stop offset="0"/><stop stop-opacity="0" offset="1"/></radialGradient><linearGradient id="a" y2="29.859" gradientUnits="userSpaceOnUse" y1="5.775" x2="20.605" x1="23.506"><stop stop-color="#d3d7cf" offset="0"/><stop stop-color="#f5f5f5" offset=".5"/><stop stop-color="#bebebe" offset="1"/></linearGradient></defs><g fill="none" stroke-linecap="round" stroke-linejoin="round"><path transform="matrix(1.28276 0 0 1.22447 -6.837 -4.719)" d="M21.326 9.328L10.449 27.942c-1.922 3.292-.771 7.539 2.559 9.44l2.094 1.197c3.332 1.9 7.63.763 9.554-2.53l11.756-20.12c1.923-3.293 1.213-7.288-1.577-8.881s-6.647-.203-8.57 3.09L18.11 24.1c-1.924 3.29-2.131 6.77-.462 7.737 1.669.962 4.609-.943 6.532-4.234l3.962-6.783" stroke="#888a85" stroke-width="3"/><path transform="matrix(1.28276 0 0 1.22447 -6.837 -4.581)" d="M21.326 9.216L10.449 27.83c-1.922 3.29-.771 7.539 2.559 9.44l2.094 1.196c3.332 1.902 7.63.763 9.554-2.528l11.756-20.123c1.923-3.291 1.213-7.287-1.577-8.88-2.79-1.593-6.647-.203-8.57 3.09L18.11 23.986c-1.924 3.292-2.131 6.772-.462 7.737 1.669.964 4.609-.941 6.532-4.233l3.962-6.783" stroke="url(#a)"/></g><path d="M38.143 30.857a15.572 10.143 0 11-31.143 0 15.572 10.143 0 1131.143 0z" transform="matrix(1.68876 0 0 .3018 -10.313 35.49)" opacity=".25" color="#000" fill="url(#b)"/></svg>