<svg xmlns="http://www.w3.org/2000/svg" width="489.309" height="494.244"><path d="M87.85 379.934c0 12.989 3.896 23.37 11.914 31.74 7.765 8.114 16.284 12.058 26.049 12.058 9.694 0 27.431-4.77 57.415-26.978v-92.717c-25.754 9.86-42.875 17.047-50.98 21.399l-.07.036c-16.317 8.594-27.995 17.501-34.712 26.472-6.472 8.637-9.617 17.793-9.617 27.99z" fill="none"/><path d="M474.094 413.208c-5.31-6.204-12.624-10.933-21.945-14.186-9.323-3.251-25.773-7.431-49.354-12.535-16.297-3.603-26.112-5.903-29.445-6.905-5.805-1.899-10.064-4.302-12.778-7.205-2.718-2.801-4.074-5.953-4.074-9.458 0-5.503 3.27-10.307 9.815-14.411 6.542-4.103 17.469-6.154 32.778-6.154 12.964 0 22.993 2.303 30.094 6.905 7.099 4.604 11.39 11.01 12.871 19.215l32.594-3.603c-2.101-10.307-5.926-18.54-11.481-24.694-5.556-6.155-14.167-11.034-25.835-14.637-11.667-3.603-25.218-5.404-40.649-5.404-10.249 0-19.848 1.077-28.798 3.228-8.952 2.153-16.019 4.78-21.204 7.882-6.916 4.004-12.379 9.032-16.39 15.086-4.014 6.057-6.019 12.636-6.019 19.74 0 7.807 2.437 14.937 7.315 21.392 4.875 6.455 12.037 11.51 21.482 15.162 9.444 3.654 26.39 7.981 50.835 12.985 18.148 3.703 29.507 6.755 34.075 9.156 6.543 3.505 9.815 8.309 9.815 14.411 0 6.808-3.704 12.736-11.111 17.789-7.408 5.055-18.769 7.581-34.076 7.581-15.186 0-27.009-2.853-35.464-8.557-8.458-5.704-13.611-13.909-15.464-24.619l-32.964 4.203c3.704 16.914 12.252 29.674 25.649 38.279 13.395 8.608 32.871 12.91 58.428 12.91 15.432 0 29.261-2.177 41.483-6.53 12.223-4.353 21.575-10.508 28.057-18.464 6.482-7.956 9.723-16.438 9.723-25.444.001-9.207-2.655-16.912-7.963-23.118z" fill="#1a1a1a"/><path d="M480.557 407.681c-6.277-7.334-14.892-12.948-25.606-16.688-9.755-3.401-26.226-7.594-50.356-12.817-19.642-4.342-26.466-6.047-28.701-6.709-5.41-1.783-7.939-3.646-9.109-4.896a3.912 3.912 0 00-.109-.115c-1.474-1.52-1.673-2.641-1.673-3.536 0-2.356 1.961-4.781 5.829-7.206 3.532-2.216 11.302-4.855 28.261-4.855 11.231 0 19.8 1.863 25.468 5.537 5.157 3.345 8.059 7.664 9.129 13.59a8.505 8.505 0 009.302 6.941l32.594-3.603a8.503 8.503 0 007.399-10.15c-2.4-11.774-6.942-21.428-13.502-28.694-6.57-7.279-16.542-13.021-29.639-17.063-12.427-3.838-26.947-5.783-43.158-5.783-10.863 0-21.221 1.165-30.784 3.463-9.856 2.371-17.554 5.256-23.529 8.82-8.006 4.645-14.454 10.605-19.167 17.719-4.933 7.443-7.434 15.665-7.434 24.438 0 9.665 3.04 18.587 9.035 26.52 5.819 7.705 14.298 13.75 25.199 17.966 9.971 3.858 27.045 8.236 52.197 13.385 22.565 4.604 29.605 7.196 31.796 8.338 5.296 2.848 5.296 5.583 5.296 6.898 0 2.454-.768 6.239-7.399 10.764-5.935 4.05-15.787 6.103-29.284 6.103-13.391 0-23.723-2.39-30.708-7.103-6.514-4.393-10.387-10.613-11.84-19.019a8.508 8.508 0 00-9.455-6.987l-32.964 4.203a8.506 8.506 0 00-7.232 10.255c4.187 19.116 14.065 33.79 29.361 43.615 14.929 9.595 35.545 14.259 63.023 14.259 16.336 0 31.253-2.363 44.337-7.023 13.65-4.86 24.349-11.961 31.796-21.104 7.72-9.476 11.634-19.844 11.634-30.815-.002-11.248-3.368-20.886-10.007-28.648zm-77.762 79.084c-25.557 0-45.033-4.302-58.428-12.91-13.397-8.605-21.945-21.365-25.649-38.279l32.964-4.203c1.853 10.71 7.006 18.915 15.464 24.619 8.455 5.704 20.278 8.557 35.464 8.557 15.308 0 26.668-2.526 34.076-7.581 7.407-5.053 11.111-10.981 11.111-17.789 0-6.103-3.272-10.906-9.815-14.411-4.568-2.401-15.927-5.453-34.075-9.156-24.445-5.004-41.391-9.331-50.835-12.985-9.445-3.652-16.607-8.707-21.482-15.162-4.879-6.455-7.315-13.585-7.315-21.392 0-7.104 2.005-13.684 6.019-19.74 4.011-6.054 9.474-11.082 16.39-15.086 5.186-3.102 12.252-5.729 21.204-7.882 8.95-2.15 18.549-3.228 28.798-3.228 15.432 0 28.982 1.802 40.649 5.404 11.668 3.603 20.279 8.481 25.835 14.637 5.556 6.154 9.381 14.388 11.481 24.694l-32.594 3.603c-1.481-8.205-5.772-14.61-12.871-19.215-7.101-4.603-17.13-6.905-30.094-6.905-15.31 0-26.236 2.052-32.778 6.154-6.546 4.104-9.815 8.908-9.815 14.411 0 3.505 1.356 6.657 4.074 9.458 2.714 2.903 6.974 5.306 12.778 7.205 3.333 1.002 13.148 3.303 29.445 6.905 23.58 5.104 40.03 9.284 49.354 12.535 9.321 3.253 16.636 7.981 21.945 14.186 5.308 6.206 7.964 13.911 7.964 23.118 0 9.007-3.241 17.488-9.723 25.444-6.482 7.956-15.834 14.111-28.057 18.464-12.223 4.353-26.052 6.53-41.484 6.53z" fill="#b3b3b3"/><path d="M83.14 342.46c0 13.577 4.198 24.427 12.835 33.178 8.364 8.482 17.542 12.605 28.06 12.605 10.442 0 29.55-4.985 61.848-28.201v-96.92c-27.736 10.305-46.176 17.814-54.916 22.368l-.074.037c-17.577 8.984-30.156 18.295-37.392 27.671-6.973 9.03-10.361 18.6-10.361 29.262z" fill="none"/><path d="M273.23 394.167c-3.613 0-6.806-1.103-9.573-3.314-2.77-2.206-4.758-6.572-5.96-13.092-1.208-6.516-1.807-24.25-1.807-53.202V221.475c0-29.386-2.168-48.834-6.503-58.338-6.745-14.585-17.221-25.3-31.429-32.152-18.784-9.058-42.87-13.59-72.25-13.59-38.291 0-68.038 7.956-89.228 23.866-21.195 15.91-31.79 33.37-31.79 52.372 0 9.944 2.829 17.79 8.49 23.533 5.656 5.75 12.942 8.619 21.856 8.619 9.15 0 16.556-2.761 22.217-8.287 5.656-5.52 8.489-13.366 8.489-23.533l-.722-19.225c0-9.721 4.572-18.34 13.727-25.855 8.907-7.51 20.952-11.27 36.124-11.27 19.987 0 35.222 5.635 45.698 16.906 10.476 11.27 15.714 32.042 15.714 62.315v11.932c-56.84 19.007-97.48 35.135-121.92 48.393-24.448 13.259-41.607 27.403-51.48 42.428-7.223 10.83-10.837 23.648-10.837 38.45 0 23.425 7.406 42.319 22.217 56.68 14.81 14.367 33.653 21.545 56.535 21.545 14.687 0 28.539-2.765 41.544-8.286 8.67-3.756 29.984-17.676 63.941-41.765.237 18.123 3.85 30.94 10.838 38.45 6.982 7.51 16.375 11.27 28.177 11.27 24.566 0 50.332-16.573 77.308-49.72v-18.56c-14.45 13.257-24.204 21.327-29.262 24.196-2.889 1.547-6.264 2.318-10.114 2.318zm-76.946-29.5c-29.865 22.1-53.95 33.146-72.249 33.146-13.49 0-25.41-5.246-35.764-15.744-10.358-10.492-15.533-23.7-15.533-39.61 0-12.595 4.093-24.196 12.283-34.804 8.184-10.607 21.793-20.768 40.82-30.495 10.596-5.52 34.076-14.915 70.445-28.174v115.681z" fill="#1a1a1a"/><path d="M125.842 277.16c-19.028 9.727-32.637 19.888-40.82 30.495-8.191 10.608-12.284 22.208-12.284 34.805 0 15.91 5.175 29.117 15.533 39.61 10.352 10.497 22.273 15.743 35.764 15.743 18.299 0 42.385-11.046 72.25-33.146v-115.68c-36.368 13.258-59.85 22.654-70.443 28.173zm60.04 82.881c-32.298 23.217-51.406 28.202-61.848 28.202-10.519 0-19.696-4.123-28.06-12.605-8.639-8.75-12.835-19.601-12.835-33.178 0-10.661 3.39-20.233 10.36-29.262 7.236-9.376 19.816-18.687 37.392-27.67l.073-.038c8.74-4.554 27.181-12.063 54.917-22.368v96.92z" fill="#b3b3b3"/><path d="M316.593 358.81a11.155 11.155 0 00-3.985-.73c-2.702 0-5.358.968-7.348 2.793-17.839 16.368-24.712 21.284-27.253 22.757-1.262.65-2.828.966-4.777.966-1.092 0-1.856-.263-2.711-.938-.166-.186-1.529-1.87-2.568-7.499-.758-4.089-1.658-16.352-1.658-51.6V221.475c0-30.96-2.393-51.254-7.314-62.042-7.696-16.643-19.867-29.052-36.19-36.925-20.206-9.744-46.14-14.684-77.079-14.684-40.576 0-72.808 8.754-95.804 26.021-23.633 17.74-35.615 37.856-35.615 59.788 0 12.352 3.764 22.434 11.186 29.965 7.674 7.8 17.621 11.758 29.561 11.758 12.088 0 22.11-3.799 29.786-11.292 7.513-7.335 11.322-17.462 11.322-30.1 0-.11-.002-.22-.006-.331l-.716-19.046c.05-6.868 3.403-12.94 10.25-18.56a7.32 7.32 0 00.102-.086c6.987-5.89 16.506-8.755 29.098-8.755 16.952 0 29.315 4.433 37.793 13.555 6.03 6.486 13.218 21.482 13.218 56.093v5.24c-53.672 18.151-92.945 33.9-116.802 46.842-25.812 13.999-44.342 29.371-55.075 45.686-8.201 12.305-12.36 26.918-12.36 43.436 0 25.851 8.435 47.137 25.074 63.27 16.779 16.274 38.339 24.528 64.081 24.528 16.13 0 31.573-3.084 45.9-9.168l.074-.03c5.309-2.3 16.332-8.228 50.666-32.154 1.991 11.363 5.893 20.077 11.78 26.405 9.017 9.696 21.156 14.615 36.079 14.615 14.398 0 29.103-4.762 43.708-14.156 13.732-8.832 27.838-22.087 41.924-39.398 1.348-1.657 2.076-3.67 2.076-5.738v-18.56c-.002-3.87-2.533-7.357-6.417-8.842zM235.3 435.932c-11.802 0-21.195-3.76-28.177-11.27-6.988-7.51-10.6-20.328-10.838-38.45-33.957 24.089-55.271 38.01-63.941 41.765-13.005 5.52-26.857 8.286-41.544 8.286-22.883 0-41.724-7.179-56.535-21.546-14.811-14.362-22.216-33.255-22.216-56.68 0-14.8 3.613-27.62 10.837-38.45 9.873-15.025 27.032-29.168 51.478-42.427 24.441-13.257 65.082-29.385 121.921-48.393v-11.933c0-30.272-5.237-51.045-15.714-62.314-10.476-11.27-25.71-16.906-45.698-16.906-15.172 0-27.217 3.76-36.124 11.27-9.155 7.515-13.727 16.134-13.727 25.855l.722 19.225c0 10.167-2.833 18.013-8.49 23.533-5.66 5.527-13.067 8.286-22.216 8.286-8.914 0-16.2-2.869-21.856-8.618-5.661-5.743-8.49-13.59-8.49-23.533 0-19.002 10.595-36.462 31.79-52.372 21.19-15.91 50.937-23.866 89.229-23.866 29.38 0 53.465 4.532 72.25 13.59 14.207 6.852 24.684 17.567 31.428 32.152 4.335 9.504 6.503 28.95 6.503 58.338v103.084c0 28.952.598 46.686 1.806 53.201 1.203 6.52 3.19 10.887 5.961 13.093 2.767 2.211 5.96 3.314 9.573 3.314 3.85 0 7.225-.772 10.116-2.32 5.058-2.87 14.81-10.94 29.261-24.197v18.56c-26.976 33.15-52.744 49.723-77.309 49.723z" fill="#b3b3b3"/></svg>