<svg xmlns="http://www.w3.org/2000/svg" width="489.309" height="494.244"><path fill="#1A1A1A" d="M251.395 190.363c-5.979-9.876-14.865-17.992-26.667-24.343-11.802-6.35-25.043-9.525-39.718-9.525-28.597 0-53.187 14.024-73.763 42.071V55.949H47.47v387.896h63.776V303.081c0-23.636 1.929-41.496 5.788-53.581 3.858-12.08 9.947-21.122 18.271-27.121 8.32-5.995 17.777-8.996 28.37-8.996 9.228 0 16.909 2.34 23.037 7.012 6.128 4.676 10.401 10.981 12.824 18.918 2.418 7.938 3.631 26.637 3.631 56.094v148.438h63.776V279.003c0-25.224-1.1-43.832-3.291-55.83-2.195-11.993-6.28-22.928-12.257-32.81z"/><path fill="#B3B3B3" d="M272.017 221.646c-2.372-12.958-6.861-24.963-13.346-35.684-6.752-11.154-16.816-20.382-29.915-27.43-12.999-6.994-27.718-10.541-43.748-10.541-24.426 0-46.297 9.316-65.259 27.75V55.949a8.504 8.504 0 00-8.504-8.504H47.47a8.504 8.504 0 00-8.504 8.504v387.896a8.504 8.504 0 008.504 8.504h63.776a8.504 8.504 0 008.504-8.504V303.081c0-22.646 1.812-39.804 5.385-50.994 3.275-10.253 8.369-17.927 15.142-22.809 6.902-4.973 14.556-7.391 23.398-7.391 7.38 0 13.229 1.724 17.881 5.271 4.717 3.599 7.938 8.388 9.846 14.638 1.487 4.88 3.261 18.147 3.261 53.611v148.438a8.504 8.504 0 008.504 8.504h63.776a8.505 8.505 0 008.504-8.504V279.003c0-25.962-1.122-44.724-3.43-57.357zm-72.482 17.667c-2.422-7.938-6.696-14.243-12.824-18.918-6.128-4.672-13.809-7.012-23.037-7.012-10.593 0-20.05 3.001-28.37 8.996-8.323 5.999-14.412 15.041-18.271 27.121-3.858 12.085-5.788 29.945-5.788 53.581v140.765H47.47V55.949h63.776v142.617c20.576-28.047 45.166-42.071 73.763-42.071 14.675 0 27.917 3.175 39.718 9.525 11.802 6.351 20.689 14.466 26.667 24.343 5.977 9.881 10.062 20.816 12.257 32.81 2.191 11.998 3.291 30.606 3.291 55.83v164.843h-63.776V295.407c.001-29.457-1.212-48.156-3.631-56.094z"/><path fill="#1A1A1A" d="M379.842 278.166c-11.192 8.945-21.562 15.021-31.105 18.225v34.048c18.134-6.143 33.882-15.622 47.244-28.44v141.397h36.571V246.855h-29.674c-4.164 11.929-11.842 22.365-23.036 31.311z"/><path fill="#B3B3B3" d="M432.552 238.351h-29.674a8.502 8.502 0 00-8.028 5.701c-3.609 10.337-10.444 19.581-20.317 27.471-10.359 8.28-19.949 13.934-28.503 16.806a8.504 8.504 0 00-5.797 8.062v34.048a8.504 8.504 0 0011.233 8.055c13.113-4.442 25.167-10.603 36.012-18.389v123.291a8.505 8.505 0 008.504 8.504h36.571a8.505 8.505 0 008.504-8.504V246.855a8.505 8.505 0 00-8.505-8.504zm-83.815 92.087V296.39c9.544-3.204 19.913-9.279 31.105-18.225 11.193-8.946 18.872-19.382 23.036-31.311h29.674v196.541h-36.571V301.998c-13.362 12.818-29.11 22.298-47.244 28.44z"/></svg>