<?xml version="1.0" encoding="utf-8"?>
<!-- Generator: Adobe Illustrator 23.0.1, SVG Export Plug-In . SVG Version: 6.00 Build 0)  -->
<svg version="1.1" id="Layer_1" xmlns="http://www.w3.org/2000/svg" xmlns:xlink="http://www.w3.org/1999/xlink" x="0px" y="0px"
	 viewBox="0 0 48 48" style="enable-background:new 0 0 48 48;" xml:space="preserve">
<style type="text/css">
	.st0{fill:#0098B4;}
	.st1{fill:#FFFFFF;}
</style>
<path id="path6495" class="st0" d="M45.5,24c0,11.9-9.6,21.5-21.5,21.5S2.5,35.9,2.5,24S12.1,2.5,24,2.5S45.5,12.1,45.5,24L45.5,24z
	"/>
<path id="path3298" class="st1" d="M24.8,29.2c-0.1-2.4,0.5-4.6,2.7-6.3c2.4-1.8,4.6-4.1,4.4-6.8c-0.1-2.6-3.1-4.7-6.4-4.9
	c-3.7-0.5-8.1,0.8-9.4,3.6c-0.6,1.4,0,3.9,2.1,3.9c1.2,0,1.8-0.8,1.9-1.5c0.1-0.5-0.2-1-0.3-1.5c-0.2-0.5,0.5-1.5,1.2-1.9
	c0.6-0.3,1.2-0.5,1.3-0.5c2.1-0.5,4.2,0.6,5.1,2s-0.1,3.4-1.5,5.5c-1.4,2-2.9,4.3-2.9,6.7c0,0.9-0.1,1.2,0,1.6
	C23.1,29.3,24.1,29.3,24.8,29.2z M23.8,32.3c-2-0.1-3.4,2.2-2.2,3.6c1.1,1.6,4.1,1.2,4.7-0.6C26.8,34,25.5,32.3,23.8,32.3L23.8,32.3
	z"/>
</svg>
