<?xml version="1.0" encoding="utf-8"?>
<!-- Generator: Adobe Illustrator 23.0.1, SVG Export Plug-In . SVG Version: 6.00 Build 0)  -->
<svg version="1.1"
     xmlns="http://www.w3.org/2000/svg" x="0px" y="0px" viewBox="0 0 48 48"
     style="enable-background:new 0 0 48 48;" xml:space="preserve">
<style type="text/css">
	.st0{fill:#0077D4;}
	.st1{fill:#47D400;}
</style>
    <path id="path6495" class="st0" d="M43.5,23.5c0,11-9,20-20,20c-11,0-20-9-20-20c0-11,9-20,20-20C34.5,3.5,43.5,12.5,43.5,23.5
	L43.5,23.5z"/>
    <g id="g8936" transform="matrix(1.284706,0,0,1.284706,-63.89629,19.96894)">
        <g id="g6608" transform="matrix(0.468894,0,0,0.468894,50.96494,-14.52946)">
		<path id="path6534" class="st1" d="M39.3,12.4l-0.1,0.8l0.9,0.6l1.5-1L40.7,12l-1,0.6L39.3,12.4"/>
            <path id="path6550" class="st1" d="M43,18.3l-0.5-1.2l-0.9,0.3l0.2,1.5L43,18.3"/>
            <path id="path6558" class="st1"
                  d="M43.7,18.1l-0.2,1.7l1.3-0.3l1-1L45,17.7c-0.3-0.8-0.6-1.5-1-2.2h-0.7v0.8l0.5,0.6V18.1"/>
            <path id="path6574" class="st1" d="M23.7,13l1.2,0.8h1v-1l-1.2-0.6L23.7,13"/>
            <path id="path6610" class="st1" d="M25.7,10.2l0.6-0.5l1.2-0.3c0.8-0.4,1.7-0.7,2.6-1l-0.5-0.8l-1.6,0.2l-0.7,0.7l-1.2,0.2L25,9.3
			l-0.5,0.3L24.2,10L25.7,10.2"/>
            <path id="path6618" class="st1" d="M27.2,21.9l0.7-1.1L26.9,20L27.2,21.9"/>
            <path id="path6566" class="st1" d="M26.2,43.4l-0.9-1.7l-1.6-0.4L22.8,39l-2.2,0.2l-1.8-1.3l-2,1.7v0.3c-0.6-0.2-1.3-0.2-1.8-0.5
			l-0.4-1.2v-1.3l-1.3,0.1c0.1-0.9,0.2-1.7,0.3-2.6h-0.8l-0.8,1l-0.8,0.4L10.2,35l-0.1-1.3l0.2-1.5L12,31h1.3l0.2-0.7l1.6,0.4
			l1.2,1.5l0.2-2.5l2.1-1.7l0.8-1.8l1.5-0.6l0.9-1.2l2-0.4l1-1.5c-1,0-2,0-2.9,0l1.8-0.9h1.3l1.8-0.6l0.2-0.7l-0.7-0.6l-0.8-0.2
			l0.2-0.7l-0.5-1.1L23.9,18l0.2-1l-1.5-0.9l-1.2,2.1l0.1,0.7l-1.2,0.5L19.6,21l-0.3-1.5l-2.1-0.9l-0.3-1.1l2.7-1.6l1.2-1.1l0.1-1.3
			l-0.7-0.4l-0.9-0.1l-0.5,1.3c0,0-0.9,0.2-1.1,0.2c-3,2.7-9,8.7-10.4,19.8c0.1,0.3,1,1.8,1,1.8l2.3,1.3l2.3,0.6l1,1.2l1.5,1.1
			l0.9-0.1l0.7,0.3v0.2L16,43.2l-0.7,1l0.2,0.5L15,46.6l2,3.6l2,1.7l0.9,1.2l-0.1,2.6l0.7,1.5l-0.7,2.8c0,0-0.1,0,0,0.3
			c0.1,0.3,3.5,2.2,3.7,2c0.2-0.2,0.4-0.3,0.4-0.3l-0.2-0.6l0.9-0.9l0.3-0.9l1.4-0.5l1.1-2.7l-0.3-0.7l0.8-1.1l1.6-0.4l0.9-2
			L30,49.8l1.3-1.8l0.2-1.8C29.7,45.2,27.9,44.3,26.2,43.4"/>
            <path id="path6542" class="st1" d="M40.8,8.4l-3.2-1.2L34,7.5l-4.5,1.2l-0.9,0.8l2.8,1.9v1.1l-1.1,1.1l1.5,2.9l1-0.6l1.2-1.9
			c1.9-0.6,3.6-1.2,5.4-2.1L40.8,8.4"/>
            <path id="path6582" class="st1" d="M21.7,12.8l-0.6,1.5h1.2l0.6-1.4c0.5-0.4,1-0.7,1.6-1.1l1.2,0.4c0.8,0.6,1.6,1.1,2.4,1.7
			l1.2-1.1L28,12.3L27.4,11l-2.3-0.3L25,10.1l-1.1,0.3l-0.5,1l-0.6-1.2l-0.2,0.6l0.1,1.4L21.7,12.8"/>
            <path id="path6628" class="st1" d="M67,31.8C67,32.2,67,31.8,67,31.8l-0.8,0.9c-0.5-0.6-1.1-1.1-1.7-1.6l-1.3,0.2l-1.2-1.3v1.6
			l1,0.8l0.7,0.8l0.9-1c0.2,0.4,0.4,0.8,0.7,1.3v1.3l-1,1.1L62.5,37l-1.4,1.4l-0.9-1l0.4-1.1l-0.9-1L58.2,32l-1.3-1.5L56.6,31
			l0.5,1.8l0.9,1.1c0.5,1.6,1.1,3.1,1.8,4.6c1.1,0,2.1-0.1,3.2-0.3V39l-1.3,3.3l-1.2,1.4l-1,2.2c0,1.2,0,2.4,0,3.5l0.3,1.4l-0.6,0.6
			l-1.2,0.8l-1.3,1.1l1.1,1.2l-1.5,1.3l0.3,0.8L54.5,59H53l-1.2,0.8H51v-1l-0.3-2c-0.4-1.3-0.9-2.5-1.3-3.8c0-0.9,0.1-1.9,0.1-2.8
			l0.6-1.3l-0.8-1.5l0.1-2.1l-1.1-1.2l0.5-1.7l-0.9-1h-1.5l-0.5-0.6l-1.5,0.9l-0.6-0.7l-1.4,1.2c-0.9-1.1-1.9-2.1-2.8-3.2l-1.1-2.7
			l1-1.5l-0.6-0.6l1.2-2.9c1-1.3,2.1-2.5,3.1-3.7l1.9-0.5l2.1-0.3l1.5,0.4l2.1,2.1l0.7-0.8l1-0.1l1.9,0.6h1.5l1-0.9l0.4-0.6l-1-0.6
			l-1.7-0.1c-0.5-0.6-0.9-1.3-1.4-1.9l-0.6,0.3l-0.2,1.6l-1-1.1l-0.2-1.3L50,23.5h-0.4l1.1,1.3l-0.4,1.1l-0.9,0.3l0.6-1.1l-1-0.5
			l-0.9-1l-1.7,0.4l-0.2,0.5l-1,0.6l-0.6,1.4l-1.4,0.7l-0.6-0.7h-0.7v-2.3l1.5-0.8h1.1l-0.2-0.9l-0.9-0.9l1.5-0.3l0.8-0.9l0.7-1.1
			h1.2l-0.3-0.9l0.8-0.5v1l1.7,0.4l1.7-1.4l0.1-0.6l1.5-1c-0.5,0.1-1.1,0.1-1.6,0.3v-1.1l0.6-1.3h-0.6l-1.2,1.1l-0.3,0.6l0.3,0.9
			l-0.6,1.5l-0.9-0.5l-0.8-0.9l-1.2,0.9l-0.4-2l2.1-1.4v-0.8l1.3-0.9l2.1-0.5l1.5,0.5l2.7,0.5l-0.7,0.8h-1.5l1.5,1.5l1.1-1.3
			l0.3-0.6c0,0,4.3,3.8,6.7,8C65.9,25.8,67,30.8,67,31.8z"/>
	</g>
</g>
</svg>
