<?xml version="1.0" encoding="utf-8"?>
<!-- Generator: Adobe Illustrator 23.0.1, SVG Export Plug-In . SVG Version: 6.00 Build 0)  -->
<svg version="1.1"
	 xmlns="http://www.w3.org/2000/svg" x="0px" y="0px" viewBox="0 0 489.3 494.2"
	 style="enable-background:new 0 0 489.3 494.2;">
<style type="text/css">
	.st0{fill:#FFFFFF;stroke:#000000;stroke-width:13.1283;stroke-miterlimit:10;}
</style>
<path class="st0" d="M417.9,272.1l-118.2-60.4c-5.3-2.6-10.5-2.6-15.8-2.6h-18.4V51.5c0-21-18.4-39.4-39.4-39.4
	s-39.4,18.4-39.4,39.4v280.9c-94.5-18.4-94.5-18.4-97.1-18.4c-7.9,0-15.8,2.6-21,7.9l-21,21l128.7,128.7
	c7.9,7.9,15.8,10.5,28.9,10.5h178.5c21,0,34.1-13.1,36.8-34.1l21-139.2c0-2.6,0-2.6,0-5.3C441.6,290.4,431.1,277.3,417.9,272.1z"/>
</svg>
