<?xml version="1.0" encoding="utf-8"?>
<!-- Generator: Adobe Illustrator 23.0.1, SVG Export Plug-In . SVG Version: 6.00 Build 0)  -->
<svg version="1.1" xmlns="http://www.w3.org/2000/svg" x="0px" y="0px"
     viewBox="0 0 48 48" style="enable-background:new 0 0 48 48;" xml:space="preserve">
<style type="text/css">
	.st5{fill:#FFFF99;stroke:#550200;stroke-width:0.5;stroke-linecap:round;stroke-linejoin:round;}
	.st6{fill-rule:evenodd;clip-rule:evenodd;fill:#AA6E00;}
	.st7{fill-rule:evenodd;clip-rule:evenodd;fill:#F4C000;}
	.st8{fill-rule:evenodd;clip-rule:evenodd;}
	.st9{fill:#BEBEBE;}
	.st10{fill:#FF356D;}
</style>
    <rect x="3.5" y="7.4" class="st5" width="36" height="36"/>
    <path id="path2273" class="st6" d="M23.9,27.2l19-19c2.2,0.4,3.1,1.7,3.5,3.5l-19,19l-4.6,0.7
					L23.9,27.2L23.9,27.2L23.9,27.2z"/>
    <path id="path2298" class="st7" d="M22.1,32l1.8-4.5c0,0,1.3,0.3,2.1,1.1c0.8,0.8,1.1,2.1,1.1,2.1
					L22.1,32z"/>
    <path id="path2283" class="st8" d="M23.1,29.7L22.1,32l2.3-0.7c0,0,0-0.1,0-0.1
					C24.5,30.4,23.8,29.8,23.1,29.7z"/>
    <path id="path4095-8" class="st9" d="M38.9,12.2c1.9-0.5,3.9,1.7,3.5,3.5l2.2-2.2
		c0.7-1.5-2-4.1-3.5-3.5L38.9,12.2L38.9,12.2z"/>
    <path id="path4113-1" class="st10" d="M41.1,10c1.8-0.5,3.9,1.7,3.4,3.4l2.2-2.2
		c1.1-2.5-1.1-4.4-3.5-3.5L41.1,10L41.1,10z"/>
</svg>
