<svg xmlns="http://www.w3.org/2000/svg"  viewBox="0 0 60 60" version="1.0"><defs><linearGradient xlink:href="#a" id="e" gradientUnits="userSpaceOnUse" x1="35.198" y1="46.094" x2="33.666" y2="50.416"/><linearGradient id="a"><stop offset="0" stop-color="#d3d7cf"/><stop offset="1" stop-color="#d3d7cf" stop-opacity="0"/></linearGradient><linearGradient xlink:href="#b" id="f" gradientUnits="userSpaceOnUse" x1="38.046" y1="44.886" x2="33.233" y2="51.47"/><linearGradient id="b"><stop offset="0" stop-color="#6f716c"/><stop offset="1" stop-color="#888a85" stop-opacity="0"/></linearGradient><linearGradient xlink:href="#c" id="g" gradientUnits="userSpaceOnUse" x1="33.358" y1="37.386" x2="33.358" y2="52.806"/><linearGradient id="c"><stop offset="0" stop-color="#fff"/><stop offset="1" stop-color="#fff" stop-opacity="0"/></linearGradient><linearGradient xlink:href="#d" id="h" gradientUnits="userSpaceOnUse" x1="36.202" y1="37.667" x2="30.035" y2="41.842"/><linearGradient id="d"><stop offset="0" stop-color="#888a85"/><stop offset="1" stop-color="#888a85" stop-opacity="0"/></linearGradient></defs><g transform="matrix(1.24887 0 0 1.57945 -15.946 -7.764)"><rect x="18.676" y="11.336" width="36.425" height="26.289" rx="1.893" fill="#ccc" fill-rule="evenodd"/><path d="M18.881 20.182h36.053M36.721 11.712v25.692M18.881 28.798h36.053" fill="none" stroke="#333" stroke-width="1.875" stroke-linecap="round" stroke-linejoin="round"/><rect x="18.676" y="11.336" width="36.425" height="26.289" rx="1.988" fill="none" stroke="#333" stroke-width="2.5" stroke-linecap="round" stroke-linejoin="round"/></g><g transform="scale(1.47176 1.39688) rotate(-45 1.078 38.432)" color="#000" stroke-linecap="round" stroke-dashoffset="1.4"><path d="M32.5 24.188a6.988 6.988 0 00-4 6.312 6.988 6.988 0 004 6.313V55.35h6.031V36.812A7.001 7.001 0 0042.5 30.5c0-2.78-1.62-5.183-3.969-6.313V30.5l-3.015 1-3.016-1v-6.313z" style="marker:none" overflow="visible" fill="url(#e)" stroke="url(#f)" stroke-linejoin="round"/><path d="M31.5 26.344c-1.14 1.088-2 2.448-2 4.156 0 2.4 1.409 4.44 3.438 5.406.347.168.566.52.562.907v18.93h4.031v-18.93a.994.994 0 01.563-.907A5.986 5.986 0 0041.5 30.5c0-1.698-.843-3.066-1.969-4.156V30.5a.994.994 0 01-.687.938l-3.032 1a.994.994 0 01-.624 0l-3-1a.994.994 0 01-.688-.938v-4.156z" style="marker:none" overflow="visible" fill="none" stroke="url(#g)"/><rect ry="1" rx="1" y="37.5" x="34.5" height="15" width="2" style="marker:none" overflow="visible" opacity=".4" fill="none" stroke="url(#h)"/></g></svg>