<?xml version="1.0" encoding="utf-8"?>
<!-- Generator: Adobe Illustrator 23.0.1, SVG Export Plug-In . SVG Version: 6.00 Build 0)  -->
<svg version="1.1" id="Layer_1" xmlns="http://www.w3.org/2000/svg" x="0px" y="0px"
	 viewBox="0 0 48 48" style="enable-background:new 0 0 48 48;" xml:space="preserve">
<style type="text/css">
	.st0{fill:#DCDCDC;stroke:#150000;}
	.st1{opacity:0.5;fill:none;stroke:#000000;stroke-linecap:round;enable-background:new    ;}
	.st2{opacity:0.6;fill:none;stroke:#000000;stroke-linecap:round;enable-background:new    ;}
	.st3{opacity:0.4;fill:none;stroke:#000000;stroke-linecap:round;enable-background:new    ;}
	.st4{fill:none;stroke:#000000;stroke-width:0.9;stroke-linecap:round;}
	.st5{fill-rule:evenodd;clip-rule:evenodd;fill:#FF0000;stroke:#FF0000;stroke-width:0.9;stroke-linecap:round;}
</style>
<path class="st0" d="M41.5,24c0,9.7-7.8,17.5-17.5,17.5c-9.7,0-17.5-7.8-17.5-17.5c0-9.7,7.8-17.5,17.5-17.5
	C33.7,6.5,41.5,14.3,41.5,24z"/>
<path class="st1" d="M9.9,24.5c2.8,0,3.1-0.1,3.1-0.1 M35,24.5c2.8,0,3.1-0.1,3.1-0.1"/>
<path class="st2" d="M23.5,38c0-2.8-0.1-3.1-0.1-3.1"/>
<path class="st3" d="M23.5,13.1c0-2.8-0.1-3.1-0.1-3.1"/>
<path class="st4" d="M23.1,25.5l10.8-11 M24.8,25.5l-7.3-7.3"/>
<path class="st5" d="M24.7,24.7l11-3.1"/>
</svg>
