<?xml version="1.0" encoding="utf-8"?>
<!-- Generator: Adobe Illustrator 23.0.1, SVG Export Plug-In . SVG Version: 6.00 Build 0)  -->
<svg version="1.1" id="Layer_1" xmlns="http://www.w3.org/2000/svg" xmlns:xlink="http://www.w3.org/1999/xlink" x="0px" y="0px"
	 viewBox="0 0 48 48" style="enable-background:new 0 0 48 48;" xml:space="preserve">
<style type="text/css">
	.st0{fill:#F57900;}
	.st1{fill:#F5AE00;}
	.st2{font-family:'ArialMT';}
	.st3{font-size:32.3037px;}
</style>
<path class="st0" d="M45.3,39.6L26.5,4.5C26,3.5,25,3,23.9,3s-2.1,0.7-2.6,1.6L2.7,39.8c-0.4,0.9-0.4,2.1,0.1,2.9
	C3.4,43.6,4.2,44,5.3,44h37.3c1.1,0,2.1-0.5,2.5-1.4C45.7,41.7,45.7,40.6,45.3,39.6L45.3,39.6z"/>
<path class="st1" d="M40.5,37L26,9.8c-0.4-0.8-1.2-1.2-2-1.2s-1.6,0.5-2,1.3L7.6,37.1c-0.3,0.7-0.3,1.6,0.1,2.3c0.4,0.7,1.1,1,1.9,1
	h28.9c0.8,0,1.6-0.4,1.9-1.1C40.8,38.6,40.8,37.7,40.5,37L40.5,37z"/>
<text transform="matrix(-1 0 0 1 28.1992 37.5121)" class="st2 st3">!</text>
</svg>
