<svg width="22" height="16" viewBox="0 0 22 16" xmlns="http://www.w3.org/2000/svg">
    <path d="M15.1169 0C13.5591 2.12279e-08 12.0652 0.565912 10.9637 1.57324C9.8622 2.58057 11.8196 1.29149 11.8196 2.71607C12.007 3.79649 12 8.67796 12 9C12 9.32204 13.5 11 15 11C15.27 11 15.6792 10.8465 15.8701 10.6719C16.061 10.4973 16.1348 10.0588 16.1348 9.81186C16.1358 9.7015 16.1129 9.59206 16.0675 9.48982C16.022 9.38757 15.955 9.29454 15.8701 9.21607C15.7075 9.03356 15.6266 8.80148 15.6436 8.56656C15.6606 8.33165 15.7743 8.11135 15.9618 7.95002C16.1435 7.80788 16.3741 7.72879 16.6132 7.7266H17.7737C18.6395 7.72415 19.469 7.40853 20.0812 6.84866C20.6934 6.28878 21.0386 5.53014 21.0412 4.73836C20.9904 2.14111 18.3234 0 15.1169 0ZM11.5002 5.5C11.2989 5.5 12.0426 4.54276 11.8752 4.44047C11.7078 4.33818 11.5773 4.1701 11.5002 4C11.4232 3.8299 11.4766 3.96279 11.5158 3.78221C11.5551 3.60163 11.3579 4.13019 11.5002 4C11.6426 3.86981 11.1682 3.56336 11.3657 3.52744C11.5631 3.49152 11.7678 3.50996 11.9538 3.58042C12.1398 3.65087 12.2988 3.77019 12.4107 3.92328C12.5225 4.07637 12.5822 4.25635 12.5822 4.44047C12.5822 4.68736 12.475 4.92415 12.2841 5.09873C12.0932 5.27331 11.7702 5.5 11.5002 5.5ZM13.5289 2.97893C13.3276 2.97893 13.1308 2.92433 12.9634 2.82204C12.796 2.71975 12.6655 2.57436 12.5884 2.40426C12.5114 2.23416 12.4912 2.04698 12.5305 1.8664C12.5698 1.68582 12.6667 1.51995 12.8091 1.38976C12.9515 1.25957 13.1328 1.17091 13.3303 1.13499C13.5278 1.09907 13.7324 1.1175 13.9184 1.18796C14.1044 1.25842 14.2634 1.37774 14.3753 1.53083C14.4871 1.68391 14.5468 1.8639 14.5468 2.04802C14.5468 2.17027 14.5205 2.29132 14.4693 2.40426C14.4182 2.51721 14.3432 2.61983 14.2487 2.70627C14.1542 2.79272 14.0419 2.86129 13.9184 2.90807C13.7949 2.95485 13.6626 2.97893 13.5289 2.97893ZM16.7863 2.97893C16.585 2.97893 16.3881 2.92433 16.2207 2.82204C16.0534 2.71975 15.9229 2.57436 15.8458 2.40426C15.7688 2.23416 15.7486 2.04698 15.7879 1.8664C15.8272 1.68582 15.9241 1.51995 16.0665 1.38976C16.2089 1.25957 16.3902 1.17091 16.5877 1.13499C16.7852 1.09907 16.9898 1.1175 17.1758 1.18796C17.3618 1.25842 17.5208 1.37774 17.6327 1.53083C17.7445 1.68391 17.8042 1.8639 17.8042 2.04802C17.8042 2.29491 17.697 2.53169 17.5061 2.70627C17.3152 2.88085 17.0563 2.97893 16.7863 2.97893ZM18.7102 5.37139C18.5088 5.37139 18.312 5.31679 18.1446 5.2145C17.9772 5.11221 17.8468 4.96682 17.7697 4.79672C17.6927 4.62661 17.6725 4.43944 17.7118 4.25886C17.7511 4.07828 17.848 3.9124 17.9904 3.78221C18.1328 3.65202 18.3141 3.56336 18.5116 3.52744C18.709 3.49152 18.9137 3.50996 19.0997 3.58042C19.2857 3.65087 19.4447 3.77019 19.5566 3.92328C19.6684 4.07637 19.7281 4.25635 19.7281 4.44047C19.7281 4.68736 19.6209 4.92415 19.43 5.09873C19.2391 5.27331 18.9802 5.37139 18.7102 5.37139Z"
          opacity="0.3"/>
    <path fill-rule="evenodd" clip-rule="evenodd"
          d="M0 2H12V16H0V2ZM7.1606 15.3087C7.94745 15.0355 8.67016 14.6156 9.28701 14.073V15.2895H11.6215V7.17941C11.6215 5.30395 11.1462 4.04689 10.206 3.39809C9.0267 2.70644 7.65658 2.37418 6.27645 2.44516C2.71659 2.44516 0.772927 3.73263 0.603913 6.32785H2.98067C3.03349 4.89845 4.08983 4.18882 6.2025 4.18882C6.93121 4.14926 7.65838 4.28883 8.31518 4.59432C8.51843 4.69902 8.69669 4.84325 8.83856 5.01781C8.98043 5.19236 9.0828 5.3934 9.13912 5.60808C9.26531 6.27667 9.30787 6.95732 9.26588 7.6356H8.20955C2.91729 7.6356 0.265885 9.09541 0.265885 12.0353C0.249482 12.531 0.350255 13.0238 0.560644 13.4768C0.771033 13.9298 1.08557 14.3311 1.48067 14.6508C2.39111 15.3523 3.53603 15.7125 4.7025 15.6646C5.53831 15.7028 6.37374 15.5819 7.1606 15.3087ZM9.28701 9.28802V12.0454L9.33983 12.0556C8.91328 12.6465 8.33467 13.1215 7.66025 13.4343C6.93622 13.7706 6.14061 13.9406 5.33631 13.931C4.6267 13.9709 3.92268 13.7896 3.32926 13.414C3.08678 13.2464 2.89202 13.0231 2.76283 12.7645C2.63364 12.5059 2.57415 12.2203 2.58983 11.9339C2.58983 10.17 4.27997 9.28802 7.66025 9.28802H9.28701Z"
          opacity="0.9"
    />
</svg>
