<svg width="21" height="16" viewBox="0 0 21 16" xmlns="http://www.w3.org/2000/svg">
        <path fill-rule="evenodd" clip-rule="evenodd"
              d="M9.28701 14.073C8.67016 14.6156 7.94745 15.0355 7.1606 15.3087C6.37374 15.5819 5.53831 15.7028 4.7025 15.6646C3.53603 15.7125 2.39111 15.3523 1.48067 14.6508C1.08557 14.3311 0.771033 13.9298 0.560644 13.4768C0.350255 13.0238 0.249482 12.531 0.265885 12.0353C0.265885 9.09541 2.91729 7.6356 8.20955 7.6356H9.26588C9.30787 6.95732 9.26531 6.27667 9.13912 5.60808C9.0828 5.3934 8.98043 5.19236 8.83856 5.01781C8.69669 4.84325 8.51843 4.69902 8.31518 4.59432C7.65838 4.28883 6.93121 4.14926 6.2025 4.18882C4.08983 4.18882 3.03349 4.89845 2.98067 6.32785H0.603913C0.772927 3.73263 2.71659 2.44516 6.27645 2.44516C7.65658 2.37418 9.0267 2.70644 10.206 3.39809C11.1462 4.04689 11.6215 5.30395 11.6215 7.17941V15.2895H9.28701V14.073ZM9.28701 9.28802V12.0454L9.33983 12.0556C8.91328 12.6465 8.33467 13.1215 7.66025 13.4343C6.93622 13.7706 6.14061 13.9406 5.33631 13.931C4.6267 13.9709 3.92268 13.7896 3.32926 13.414C3.08678 13.2464 2.89202 13.0231 2.76283 12.7645C2.63364 12.5059 2.57415 12.2203 2.58983 11.9339C2.58983 10.17 4.27997 9.28802 7.66025 9.28802H9.28701Z"
              opacity="0.9"/>
        <path d="M15.17 0C13.6397 2.28032e-08 12.1721 0.607909 11.09 1.68999C10.0079 2.77208 9.4 4.2397 9.4 5.77C9.4 7.3003 10.0079 8.76792 11.09 9.85001C12.1721 10.9321 13.6397 11.54 15.17 11.54C15.4352 11.54 15.6896 11.4346 15.8771 11.2471C16.0646 11.0596 16.17 10.8052 16.17 10.54C16.1709 10.4215 16.1485 10.3039 16.1038 10.1941C16.0592 10.0842 15.9934 9.9843 15.91 9.9C15.7502 9.70394 15.6707 9.45464 15.6874 9.20229C15.7041 8.94994 15.8158 8.7133 16 8.54C16.1785 8.38731 16.4051 8.30234 16.64 8.3H17.78C18.6305 8.29736 19.4455 7.95832 20.0469 7.3569C20.6483 6.75548 20.9874 5.94053 20.99 5.09C20.94 2.3 18.32 0 15.17 0ZM11.68 5.77C11.4822 5.77 11.2889 5.71135 11.1244 5.60147C10.96 5.49159 10.8318 5.33541 10.7561 5.15268C10.6804 4.96996 10.6606 4.76889 10.6992 4.57491C10.7378 4.38093 10.833 4.20275 10.9729 4.06289C11.1127 3.92304 11.2909 3.8278 11.4849 3.78921C11.6789 3.75063 11.88 3.77043 12.0627 3.84612C12.2454 3.92181 12.4016 4.04998 12.5115 4.21443C12.6214 4.37888 12.68 4.57222 12.68 4.77C12.68 5.03522 12.5746 5.28957 12.3871 5.47711C12.1996 5.66464 11.9452 5.77 11.68 5.77ZM13.61 3.2C13.4122 3.2 13.2189 3.14135 13.0544 3.03147C12.89 2.92159 12.7618 2.76541 12.6861 2.58268C12.6104 2.39996 12.5906 2.19889 12.6292 2.00491C12.6678 1.81093 12.763 1.63275 12.9029 1.49289C13.0427 1.35304 13.2209 1.2578 13.4149 1.21921C13.6089 1.18063 13.81 1.20043 13.9927 1.27612C14.1754 1.35181 14.3316 1.47998 14.4415 1.64443C14.5514 1.80888 14.61 2.00222 14.61 2.2C14.61 2.33132 14.5841 2.46136 14.5339 2.58268C14.4836 2.70401 14.41 2.81425 14.3171 2.90711C14.2242 2.99997 14.114 3.07362 13.9927 3.12388C13.8714 3.17413 13.7413 3.2 13.61 3.2ZM16.81 3.2C16.6122 3.2 16.4189 3.14135 16.2544 3.03147C16.09 2.92159 15.9618 2.76541 15.8861 2.58268C15.8104 2.39996 15.7906 2.19889 15.8292 2.00491C15.8678 1.81093 15.963 1.63275 16.1029 1.49289C16.2427 1.35304 16.4209 1.2578 16.6149 1.21921C16.8089 1.18063 17.01 1.20043 17.1927 1.27612C17.3754 1.35181 17.5316 1.47998 17.6415 1.64443C17.7514 1.80888 17.81 2.00222 17.81 2.2C17.81 2.46522 17.7046 2.71957 17.5171 2.90711C17.3296 3.09464 17.0752 3.2 16.81 3.2ZM18.7 5.77C18.5022 5.77 18.3089 5.71135 18.1444 5.60147C17.98 5.49159 17.8518 5.33541 17.7761 5.15268C17.7004 4.96996 17.6806 4.76889 17.7192 4.57491C17.7578 4.38093 17.853 4.20275 17.9929 4.06289C18.1327 3.92304 18.3109 3.8278 18.5049 3.78921C18.6989 3.75063 18.9 3.77043 19.0827 3.84612C19.2654 3.92181 19.4216 4.04998 19.5315 4.21443C19.6414 4.37888 19.7 4.57222 19.7 4.77C19.7 5.03522 19.5946 5.28957 19.4071 5.47711C19.2196 5.66464 18.9652 5.77 18.7 5.77Z"
              opacity="0.3"
        />
</svg>
