<svg id="b0ec3ccf-aca7-45cb-84fc-0b0e693778e8" data-name="b86775db-4783-4b57-8a7c-752876291483" xmlns="http://www.w3.org/2000/svg" width="20.63" height="20.41" viewBox="0 0 20.63 20.41"><title>foreground</title><path d="M0,0H18V18H0Z" fill="none"/><path d="M2.63,2.41h18v18h-18Z" fill="none"/><path d="M14.85,1.33a5.77,5.77,0,0,0,0,11.54,1,1,0,0,0,1-1,.9.9,0,0,0-.26-.64,1,1,0,0,1,.09-1.36,1,1,0,0,1,.64-.24h1.14a3.22,3.22,0,0,0,3.21-3.21C20.62,3.63,18,1.33,14.85,1.33ZM11.36,7.1a1,1,0,1,1,1-1A1,1,0,0,1,11.36,7.1Zm1.93-2.57a1,1,0,1,1,1-1A1,1,0,0,1,13.29,4.53Zm3.2,0a1,1,0,1,1,1-1,1,1,0,0,1-1,1ZM18.38,7.1a1,1,0,1,1,1-1,1,1,0,0,1-1,1Z"  opacity="0.47" style="isolation:isolate"/><path d="M8.54,15.35A6,6,0,0,1,4.2,16.92a4.56,4.56,0,0,1-3.05-1A3.24,3.24,0,0,1,0,13.34C0,10.44,2.51,9,7.52,9h1A8.42,8.42,0,0,0,8.4,7a1.57,1.57,0,0,0-.78-1,4.06,4.06,0,0,0-2-.4c-2,0-3,.7-3.05,2.11H.32c.16-2.56,2-3.83,5.37-3.83a6.47,6.47,0,0,1,3.72.94c.89.64,1.34,1.88,1.34,3.73v8H8.54Zm0-2V10.63H7q-4.8,0-4.8,2.61a1.69,1.69,0,0,0,.7,1.46,3.12,3.12,0,0,0,1.9.51A4.91,4.91,0,0,0,7,14.72a4.11,4.11,0,0,0,1.59-1.36Z" /></svg>