<svg id="b66be073-9171-4204-a49b-3b2599703d86" data-name="Layer 1" xmlns="http://www.w3.org/2000/svg" width="18" height="18" viewBox="0 0 18 18"><title>h2</title><path d="M.33,0h18V18H.33Z" transform="translate(-0.33)" fill="none"/><path d="M1.83,3V5.3h4.1v9h2.3v-9h4.1V3Z" transform="translate(-0.33)" fill="gray"/><g style="isolation:isolate"><path d="M16.05,15.41H10.36a2.62,2.62,0,0,1,.48-1.5,9,9,0,0,1,1.79-1.76,12.18,12.18,0,0,0,1.78-1.67,2.28,2.28,0,0,0,.48-1.42A1.5,1.5,0,0,0,14.48,8a1.55,1.55,0,0,0-1.16-.41,1.61,1.61,0,0,0-1.1.41,1.74,1.74,0,0,0-.51,1.21H10.56a2.64,2.64,0,0,1,.84-1.81,2.77,2.77,0,0,1,1.95-.68,2.71,2.71,0,0,1,2,.69A2.34,2.34,0,0,1,16,9.09a2.78,2.78,0,0,1-.51,1.65,13,13,0,0,1-2,2Q11.93,14,11.9,14.39h4.15Z" transform="translate(-0.33)" fill="gray"/></g></svg>