<svg xmlns="http://www.w3.org/2000/svg" xmlns:xlink="http://www.w3.org/1999/xlink" width="250" height="250"><defs><linearGradient id="l"><stop offset="0"/><stop offset="1" stop-opacity="0"/></linearGradient><linearGradient id="m"><stop offset="0" stop-opacity="0"/><stop offset=".5"/><stop offset="1" stop-opacity="0"/></linearGradient><linearGradient id="n"><stop offset="0"/><stop offset="1" stop-opacity="0"/></linearGradient><linearGradient id="o"><stop offset="0" stop-color="#fff"/><stop offset="1" stop-color="#ccc"/></linearGradient><linearGradient id="j"><stop offset="0" stop-color="#de9523"/><stop offset="1" stop-color="#a36d18"/></linearGradient><linearGradient id="g"><stop offset="0" stop-color="#a0670c"/><stop offset="1" stop-color="#a0670c" stop-opacity="0"/></linearGradient><linearGradient id="k"><stop offset="0" stop-color="#fbf0e0"/><stop offset="1" stop-color="#f0ce99"/></linearGradient><linearGradient id="f"><stop offset="0" stop-color="#fff"/><stop offset="1" stop-color="#fff" stop-opacity=".686"/></linearGradient><linearGradient id="e"><stop offset="0" stop-color="#eaba6f"/><stop offset="1" stop-color="#b97a1b"/></linearGradient><linearGradient id="i"><stop offset="0" stop-color="#e9b96e"/><stop offset="1" stop-color="#f1d19e"/></linearGradient><linearGradient id="h"><stop offset="0" stop-color="#a36d18"/><stop offset="1" stop-color="#d79020"/></linearGradient><linearGradient id="z"><stop offset="0"/><stop offset="1" stop-opacity="0"/></linearGradient><linearGradient id="y"><stop offset="0" stop-color="#fd0000"/><stop offset="1" stop-color="#6a0000"/></linearGradient><linearGradient id="t"><stop offset="0" stop-color="#e40000"/><stop offset="1" stop-color="#490000"/></linearGradient><linearGradient id="p"><stop offset="0" stop-color="#fff"/><stop offset="1" stop-color="#fff" stop-opacity="0"/></linearGradient><linearGradient id="s"><stop offset="0" stop-color="#373737"/><stop offset="1" stop-color="#fff"/></linearGradient><linearGradient id="q"><stop offset="0" stop-color="#373737"/><stop offset="1" stop-color="#cfcfcf" stop-opacity=".678"/></linearGradient><linearGradient id="r"><stop offset="0" stop-color="#737373"/><stop offset="1" stop-opacity="0"/></linearGradient><linearGradient id="w"><stop offset="0"/><stop offset="1" stop-color="#373737" stop-opacity="0"/></linearGradient><linearGradient id="v"><stop offset="0"/><stop offset="1" stop-opacity="0"/></linearGradient><linearGradient id="u"><stop offset="0" stop-color="#fff"/><stop offset="1" stop-color="#fff" stop-opacity="0"/></linearGradient><linearGradient id="x"><stop offset="0" stop-color="#e80000"/><stop offset="1" stop-color="#490000"/></linearGradient><linearGradient id="A"><stop offset="0" stop-color="#fff"/><stop offset=".25" stop-color="#fefede" stop-opacity=".918"/><stop offset=".5" stop-color="#f5f328"/><stop offset="1" stop-color="#f5f32d" stop-opacity=".122"/></linearGradient><linearGradient id="B"><stop offset="0"/><stop offset="1" stop-opacity="0"/></linearGradient><linearGradient id="C"><stop offset="0" stop-opacity="0"/><stop offset=".5"/><stop offset="1" stop-opacity="0"/></linearGradient><linearGradient id="D"><stop offset="0" stop-color="#f6f6f5"/><stop offset="1" stop-color="#d3d7cf"/></linearGradient><linearGradient id="E"><stop offset="0" stop-color="#888a85"/><stop offset="1" stop-color="#babdb6"/></linearGradient><linearGradient id="F"><stop offset="0" stop-color="#fff"/><stop offset="1" stop-color="#fff" stop-opacity="0"/></linearGradient><linearGradient id="G"><stop offset="0" stop-color="#fff"/><stop offset=".475" stop-color="#fff"/><stop offset="1" stop-color="#fff" stop-opacity="0"/></linearGradient><linearGradient id="H"><stop offset="0" stop-opacity=".413"/><stop offset="1" stop-opacity="0"/></linearGradient><linearGradient id="I"><stop offset="0" stop-color="#fff"/><stop offset="1" stop-color="#fff" stop-opacity="0"/></linearGradient><linearGradient id="K"><stop offset="0" stop-color="#729fcf"/><stop offset="1" stop-color="#ddd" stop-opacity="0"/></linearGradient><linearGradient id="L"><stop offset="0" stop-color="#9e9e9e"/><stop offset="1" stop-color="#ddd" stop-opacity="0"/></linearGradient><linearGradient id="J"><stop offset="0" stop-color="#fff"/><stop offset="1" stop-color="#ddd"/></linearGradient><linearGradient id="N"><stop offset="0" stop-opacity="0"/><stop offset=".5"/><stop offset="1" stop-opacity="0"/></linearGradient><linearGradient id="M"><stop offset="0"/><stop offset="1" stop-opacity="0"/></linearGradient><linearGradient id="c"><stop offset="0" stop-color="#6f716c"/><stop offset="1" stop-color="#888a85" stop-opacity="0"/></linearGradient><linearGradient id="d"><stop offset="0" stop-color="#d3d7cf"/><stop offset="1" stop-color="#d3d7cf" stop-opacity="0"/></linearGradient><linearGradient id="b"><stop offset="0" stop-color="#fff"/><stop offset="1" stop-color="#fff" stop-opacity="0"/></linearGradient><linearGradient id="a"><stop offset="0" stop-color="#888a85"/><stop offset="1" stop-color="#888a85" stop-opacity="0"/></linearGradient><linearGradient id="W"><stop offset="0"/><stop offset="1" stop-opacity="0"/></linearGradient><linearGradient id="X"><stop offset="0" stop-opacity="0"/><stop offset=".5"/><stop offset="1" stop-opacity="0"/></linearGradient><linearGradient id="Y"><stop offset="0"/><stop offset="1" stop-opacity="0"/></linearGradient><linearGradient id="Z"><stop offset="0" stop-color="#fff"/><stop offset="1" stop-color="#ccc"/></linearGradient><linearGradient id="U"><stop offset="0" stop-color="#de9523"/><stop offset="1" stop-color="#a36d18"/></linearGradient><linearGradient id="R"><stop offset="0" stop-color="#a0670c"/><stop offset="1" stop-color="#a0670c" stop-opacity="0"/></linearGradient><linearGradient id="V"><stop offset="0" stop-color="#fbf0e0"/><stop offset="1" stop-color="#f0ce99"/></linearGradient><linearGradient id="Q"><stop offset="0" stop-color="#fff"/><stop offset="1" stop-color="#fff" stop-opacity=".686"/></linearGradient><linearGradient id="P"><stop offset="0" stop-color="#eaba6f"/><stop offset="1" stop-color="#b97a1b"/></linearGradient><linearGradient id="T"><stop offset="0" stop-color="#e9b96e"/><stop offset="1" stop-color="#f1d19e"/></linearGradient><linearGradient id="S"><stop offset="0" stop-color="#a36d18"/><stop offset="1" stop-color="#d79020"/></linearGradient><linearGradient id="ak"><stop offset="0"/><stop offset="1" stop-opacity="0"/></linearGradient><linearGradient id="aj"><stop offset="0" stop-color="#fd0000"/><stop offset="1" stop-color="#6a0000"/></linearGradient><linearGradient id="ae"><stop offset="0" stop-color="#e40000"/><stop offset="1" stop-color="#490000"/></linearGradient><linearGradient id="aa"><stop offset="0" stop-color="#fff"/><stop offset="1" stop-color="#fff" stop-opacity="0"/></linearGradient><linearGradient id="ad"><stop offset="0" stop-color="#373737"/><stop offset="1" stop-color="#fff"/></linearGradient><linearGradient id="ab"><stop offset="0" stop-color="#373737"/><stop offset="1" stop-color="#cfcfcf" stop-opacity=".678"/></linearGradient><linearGradient id="ac"><stop offset="0" stop-color="#737373"/><stop offset="1" stop-opacity="0"/></linearGradient><linearGradient id="ah"><stop offset="0"/><stop offset="1" stop-color="#373737" stop-opacity="0"/></linearGradient><linearGradient id="ag"><stop offset="0"/><stop offset="1" stop-opacity="0"/></linearGradient><linearGradient id="af"><stop offset="0" stop-color="#fff"/><stop offset="1" stop-color="#fff" stop-opacity="0"/></linearGradient><linearGradient id="ai"><stop offset="0" stop-color="#e80000"/><stop offset="1" stop-color="#490000"/></linearGradient><linearGradient id="O"><stop offset="0" stop-color="#fff"/><stop offset=".25" stop-color="#fefede" stop-opacity=".918"/><stop offset=".5" stop-color="#f5f328"/><stop offset="1" stop-color="#f5f32d" stop-opacity=".122"/></linearGradient><linearGradient id="al"><stop offset="0"/><stop offset="1" stop-opacity="0"/></linearGradient><linearGradient id="am"><stop offset="0" stop-opacity="0"/><stop offset=".5"/><stop offset="1" stop-opacity="0"/></linearGradient><linearGradient id="an"><stop offset="0" stop-color="#f6f6f5"/><stop offset="1" stop-color="#d3d7cf"/></linearGradient><linearGradient id="ao"><stop offset="0" stop-color="#888a85"/><stop offset="1" stop-color="#babdb6"/></linearGradient><linearGradient id="ap"><stop offset="0" stop-color="#fff"/><stop offset="1" stop-color="#fff" stop-opacity="0"/></linearGradient><linearGradient id="aq"><stop offset="0" stop-color="#fff"/><stop offset=".475" stop-color="#fff"/><stop offset="1" stop-color="#fff" stop-opacity="0"/></linearGradient><linearGradient id="ar"><stop offset="0" stop-opacity=".413"/><stop offset="1" stop-opacity="0"/></linearGradient><linearGradient id="as"><stop offset="0" stop-color="#fff"/><stop offset="1" stop-color="#fff" stop-opacity="0"/></linearGradient><linearGradient id="aw"><stop offset="0" stop-color="#555753"/><stop offset="1" stop-color="#fcaf3e"/></linearGradient><linearGradient id="ax"><stop offset="0" stop-color="#fce94f"/><stop offset="1" stop-color="#fce94f" stop-opacity="0"/></linearGradient><linearGradient id="ay"><stop offset="0" stop-color="#2e3436"/><stop offset="1" stop-color="#2e3436" stop-opacity="0"/></linearGradient><linearGradient id="az"><stop offset="0"/><stop offset="1" stop-opacity="0"/></linearGradient><linearGradient id="av"><stop offset="0" stop-color="#fecb81"/><stop offset="1" stop-color="#fcaf3e"/></linearGradient><linearGradient id="at"><stop offset="0" stop-color="#fff"/><stop offset="1" stop-color="#fff" stop-opacity="0"/></linearGradient><linearGradient id="au"><stop offset="0" stop-color="#ce5c00"/><stop offset="1" stop-color="#f57900"/></linearGradient><linearGradient id="aH"><stop offset="0"/><stop offset="1" stop-opacity="0"/></linearGradient><linearGradient id="aI"><stop offset="0" stop-opacity="0"/><stop offset=".5"/><stop offset="1" stop-opacity="0"/></linearGradient><linearGradient id="aJ"><stop offset="0"/><stop offset="1" stop-opacity="0"/></linearGradient><linearGradient id="aK"><stop offset="0" stop-color="#fff"/><stop offset="1" stop-color="#ccc"/></linearGradient><linearGradient id="aF"><stop offset="0" stop-color="#de9523"/><stop offset="1" stop-color="#a36d18"/></linearGradient><linearGradient id="aC"><stop offset="0" stop-color="#a0670c"/><stop offset="1" stop-color="#a0670c" stop-opacity="0"/></linearGradient><linearGradient id="aG"><stop offset="0" stop-color="#fbf0e0"/><stop offset="1" stop-color="#f0ce99"/></linearGradient><linearGradient id="aB"><stop offset="0" stop-color="#fff"/><stop offset="1" stop-color="#fff" stop-opacity=".686"/></linearGradient><linearGradient id="aA"><stop offset="0" stop-color="#eaba6f"/><stop offset="1" stop-color="#b97a1b"/></linearGradient><linearGradient id="aE"><stop offset="0" stop-color="#e9b96e"/><stop offset="1" stop-color="#f1d19e"/></linearGradient><linearGradient id="aD"><stop offset="0" stop-color="#a36d18"/><stop offset="1" stop-color="#d79020"/></linearGradient><linearGradient id="aV"><stop offset="0"/><stop offset="1" stop-opacity="0"/></linearGradient><linearGradient id="aU"><stop offset="0" stop-color="#fd0000"/><stop offset="1" stop-color="#6a0000"/></linearGradient><linearGradient id="aP"><stop offset="0" stop-color="#e40000"/><stop offset="1" stop-color="#490000"/></linearGradient><linearGradient id="aL"><stop offset="0" stop-color="#fff"/><stop offset="1" stop-color="#fff" stop-opacity="0"/></linearGradient><linearGradient id="aO"><stop offset="0" stop-color="#373737"/><stop offset="1" stop-color="#fff"/></linearGradient><linearGradient id="aM"><stop offset="0" stop-color="#373737"/><stop offset="1" stop-color="#cfcfcf" stop-opacity=".678"/></linearGradient><linearGradient id="aN"><stop offset="0" stop-color="#737373"/><stop offset="1" stop-opacity="0"/></linearGradient><linearGradient id="aS"><stop offset="0"/><stop offset="1" stop-color="#373737" stop-opacity="0"/></linearGradient><linearGradient id="aR"><stop offset="0"/><stop offset="1" stop-opacity="0"/></linearGradient><linearGradient id="aQ"><stop offset="0" stop-color="#fff"/><stop offset="1" stop-color="#fff" stop-opacity="0"/></linearGradient><linearGradient id="aT"><stop offset="0" stop-color="#e80000"/><stop offset="1" stop-color="#490000"/></linearGradient><linearGradient id="aW"><stop offset="0" stop-color="#fff"/><stop offset=".25" stop-color="#fefede" stop-opacity=".918"/><stop offset=".5" stop-color="#f5f328"/><stop offset="1" stop-color="#f5f32d" stop-opacity=".122"/></linearGradient><linearGradient id="aX"><stop offset="0"/><stop offset="1" stop-opacity="0"/></linearGradient><linearGradient id="aY"><stop offset="0" stop-opacity="0"/><stop offset=".5"/><stop offset="1" stop-opacity="0"/></linearGradient><linearGradient id="aZ"><stop offset="0" stop-color="#f6f6f5"/><stop offset="1" stop-color="#d3d7cf"/></linearGradient><linearGradient id="ba"><stop offset="0" stop-color="#888a85"/><stop offset="1" stop-color="#babdb6"/></linearGradient><linearGradient id="bb"><stop offset="0" stop-color="#fff"/><stop offset="1" stop-color="#fff" stop-opacity="0"/></linearGradient><linearGradient id="bc"><stop offset="0" stop-color="#fff"/><stop offset=".475" stop-color="#fff"/><stop offset="1" stop-color="#fff" stop-opacity="0"/></linearGradient><linearGradient id="bd"><stop offset="0" stop-opacity=".413"/><stop offset="1" stop-opacity="0"/></linearGradient><linearGradient id="be"><stop offset="0" stop-color="#fff"/><stop offset="1" stop-color="#fff" stop-opacity="0"/></linearGradient><linearGradient id="bf"><stop offset="0"/><stop offset="1" stop-opacity="0"/></linearGradient><linearGradient id="bg"><stop offset="0" stop-opacity="0"/><stop offset=".5"/><stop offset="1" stop-opacity="0"/></linearGradient><linearGradient id="bo"><stop offset="0"/><stop offset="1" stop-opacity="0"/></linearGradient><linearGradient id="bp"><stop offset="0" stop-color="#fff"/><stop offset="1" stop-color="#ccc"/></linearGradient><linearGradient id="bi"><stop offset="0" stop-color="#de9523"/><stop offset="1" stop-color="#a36d18"/></linearGradient><linearGradient id="bl"><stop offset="0" stop-color="#a0670c"/><stop offset="1" stop-color="#a0670c" stop-opacity="0"/></linearGradient><linearGradient id="bh"><stop offset="0" stop-color="#fbf0e0"/><stop offset="1" stop-color="#f0ce99"/></linearGradient><linearGradient id="bm"><stop offset="0" stop-color="#fff"/><stop offset="1" stop-color="#fff" stop-opacity=".686"/></linearGradient><linearGradient id="bn"><stop offset="0" stop-color="#eaba6f"/><stop offset="1" stop-color="#b97a1b"/></linearGradient><linearGradient id="bj"><stop offset="0" stop-color="#e9b96e"/><stop offset="1" stop-color="#f1d19e"/></linearGradient><linearGradient id="bk"><stop offset="0" stop-color="#a36d18"/><stop offset="1" stop-color="#d79020"/></linearGradient><linearGradient id="bA"><stop offset="0"/><stop offset="1" stop-opacity="0"/></linearGradient><linearGradient id="bz"><stop offset="0" stop-color="#fd0000"/><stop offset="1" stop-color="#6a0000"/></linearGradient><linearGradient id="bu"><stop offset="0" stop-color="#e40000"/><stop offset="1" stop-color="#490000"/></linearGradient><linearGradient id="bq"><stop offset="0" stop-color="#fff"/><stop offset="1" stop-color="#fff" stop-opacity="0"/></linearGradient><linearGradient id="bt"><stop offset="0" stop-color="#373737"/><stop offset="1" stop-color="#fff"/></linearGradient><linearGradient id="br"><stop offset="0" stop-color="#373737"/><stop offset="1" stop-color="#cfcfcf" stop-opacity=".678"/></linearGradient><linearGradient id="bs"><stop offset="0" stop-color="#737373"/><stop offset="1" stop-opacity="0"/></linearGradient><linearGradient id="bx"><stop offset="0"/><stop offset="1" stop-color="#373737" stop-opacity="0"/></linearGradient><linearGradient id="bw"><stop offset="0"/><stop offset="1" stop-opacity="0"/></linearGradient><linearGradient id="bv"><stop offset="0" stop-color="#fff"/><stop offset="1" stop-color="#fff" stop-opacity="0"/></linearGradient><linearGradient id="by"><stop offset="0" stop-color="#e80000"/><stop offset="1" stop-color="#490000"/></linearGradient><linearGradient id="bB"><stop offset="0" stop-color="#fff"/><stop offset=".25" stop-color="#fefede" stop-opacity=".918"/><stop offset=".5" stop-color="#f5f328"/><stop offset="1" stop-color="#f5f32d" stop-opacity=".122"/></linearGradient><linearGradient id="bC"><stop offset="0"/><stop offset="1" stop-opacity="0"/></linearGradient><linearGradient id="bD"><stop offset="0" stop-opacity="0"/><stop offset=".5"/><stop offset="1" stop-opacity="0"/></linearGradient><linearGradient id="bE"><stop offset="0" stop-color="#f6f6f5"/><stop offset="1" stop-color="#d3d7cf"/></linearGradient><linearGradient id="bF"><stop offset="0" stop-color="#888a85"/><stop offset="1" stop-color="#babdb6"/></linearGradient><linearGradient id="bG"><stop offset="0" stop-color="#fff"/><stop offset="1" stop-color="#fff" stop-opacity="0"/></linearGradient><linearGradient id="bH"><stop offset="0" stop-color="#fff"/><stop offset=".475" stop-color="#fff"/><stop offset="1" stop-color="#fff" stop-opacity="0"/></linearGradient><linearGradient id="bI"><stop offset="0" stop-opacity=".413"/><stop offset="1" stop-opacity="0"/></linearGradient><linearGradient id="bJ"><stop offset="0" stop-color="#fff"/><stop offset="1" stop-color="#fff" stop-opacity="0"/></linearGradient><linearGradient xlink:href="#d" id="bK" gradientUnits="userSpaceOnUse" x1="35.198" y1="46.094" x2="33.666" y2="50.416"/><linearGradient xlink:href="#c" id="bL" gradientUnits="userSpaceOnUse" x1="38.046" y1="44.886" x2="33.233" y2="51.47"/><linearGradient xlink:href="#b" id="bM" gradientUnits="userSpaceOnUse" x1="33.358" y1="37.386" x2="33.358" y2="52.806"/><linearGradient xlink:href="#a" id="bN" gradientUnits="userSpaceOnUse" x1="36.202" y1="37.667" x2="30.035" y2="41.842"/></defs><path fill="none" d="M126.406 21.463c-1.434 0-2.771.525-3.764 1.478-.93.892-1.442 2.06-1.441 3.292 0 1.229.511 2.396 1.441 3.289.994.953 2.331 1.478 3.764 1.478s2.771-.525 3.765-1.478c.93-.892 1.441-2.06 1.441-3.292 0-1.229-.512-2.396-1.441-3.289-.994-.953-2.331-1.478-3.765-1.478z"/><path d="M224.611 141.169c-.58-.311-1.029-.484-1.428-.484-.765 0-1.34.641-2.292 2.178-2.519 4.065-6.036 7.262-12.812 11.642-8.113 5.243-13.01 10.649-14.516 16.025-1.134 4.051-.979 6.09.452 6.09.403 0 .909-.162 1.516-.487 1.176-.629 2.192-.945 3.063-.945 1.357 0 2.361.769 3.067 2.319 1.633 3.583-.819 6.465-10.299 12.104-16.191 9.631-37.9 17.519-48.216 17.519-4.868 0-9.438-1.883-10.171-4.189-.353-1.111-.371-14.236-.04-29.166s.866-42.664 1.189-61.633.739-34.734.925-35.034c.143-.231 6.309-.374 14.815-.374 2.526 0 5.258.013 8.101.039 4.644.043 8.408.095 11.456.095 13.858 0 12.914-1.059 12.739-8.738l-.125-5.5c-3.722-.261-7.465-.341-11.218-.341-5.875 0-11.775.195-17.656.195-5.896 0-11.771-.196-17.586-.981-.289-.29-.592-3.854-.672-7.92l-.105-6.578c8.464-3.072 14.484-10.936 14.481-20.148.004-11.885-10.015-21.531-22.375-21.531s-22.379 9.646-22.375 21.531c-.003 8.917 5.637 16.575 13.675 19.842.138 1.419.331 3.514.331 6.515v9.084l-21.881-.306a758.514 758.514 0 00-10.302-.088c-9.076 0-12.228.32-13.198 1.126-2.036 1.689-2.356 13.078-.369 13.135l44.75-.104c.05 10.689.189 21.379.053 32.069-.504 22.08-.892 44.162-1.097 66.247-.09 11.961-.545 23.436-1.011 25.5-1.092 4.843-3.405 7.081-8.644 7.081-3.177 0-7.431-.824-13.141-2.389-15.728-4.313-35.264-13.896-38.552-18.914-2.614-3.99-3.022-7.41-1.133-9.498.781-.863 1.877-1.43 2.668-1.43.163 0 .313.023.444.074.137.053.276.078.414.078.717 0 1.419-.694 1.87-1.895 1.893-5.041-4.426-12.49-16.872-19.891-3.025-1.799-7.975-5.662-11-8.584-2.889-2.791-5.468-4.652-6.394-4.652a.414.414 0 00-.225.055c-2.009 1.287-6.12 10.584-7.383 16.697-2.54 12.289.682 30.422 6.668 37.535 1.595 1.896 2.833 2.843 3.764 2.843.914 0 1.53-.913 1.895-2.737.521-2.605 2.136-3.863 4.452-3.863 3.45 0 8.457 2.791 13.723 8.075 6.964 6.987 20.225 17.118 26 19.861 2.2 1.046 5.35 2.745 7 3.776s6.6 3.107 11 4.612c9.218 3.152 20.013 8.734 24.287 12.559 1.624 1.453 4.076 3.378 5.45 4.278 1.053.689 1.675 1.07 2.179 1.07.646 0 1.098-.625 2.016-2.025 3.398-5.188 9.263-9.729 18.145-14.049 4.993-2.429 9.828-4.416 10.744-4.416 1.949 0 18.395-7.275 28.301-12.52 7.764-4.111 11.26-6.588 19.934-14.122 5.735-4.981 9.812-7.376 13.237-7.376 2.422 0 4.518 1.196 6.646 3.521l3.208 3.503 2.061-2.253c3.727-4.075 5.098-8.173 5.818-17.384.551-7.043.316-10.867-1.037-16.979-2.139-9.659-5.728-17.913-8.412-19.349zm-98.205-104.5c-6 0-10.877-4.668-10.875-10.438-.002-5.77 4.875-10.438 10.875-10.438s10.877 4.668 10.875 10.438c.002 5.77-4.875 10.438-10.875 10.438z"/><path d="M238.561 159.293c-1.009-4.55-4.802-19.658-11.273-23.122-1.006-.538-2.38-1.155-4.104-1.155-4.101 0-6.134 3.283-7.111 4.861-2.042 3.295-5.042 5.969-11.07 9.866-9.319 6.022-15.004 12.502-16.896 19.257-1.004 3.586-1.723 7.654.552 10.652a6.609 6.609 0 003.941 2.49 88.398 88.398 0 01-4.134 2.596c-16.816 10.002-37.009 16.722-45.317 16.722-2.154 0-3.799-.492-4.687-.891-.134-3.616-.153-13.297.144-26.67.332-14.954.865-42.616 1.189-61.662.236-13.839.487-24.167.667-29.758 2.236-.044 5.344-.077 9.405-.077 2.581 0 5.289.013 8.048.039l3.688.037c3.003.031 5.597.058 7.821.058 7.818 0 12.771-.165 15.926-3.418 2.731-2.816 2.623-6.373 2.518-9.813-.013-.411-.025-.845-.036-1.304l-.125-5.5-.117-5.165-5.154-.361c-3.449-.242-7.14-.354-11.614-.354-2.983 0-6 .05-8.918.098-2.873.047-5.845.097-8.738.097-4.856 0-8.872-.143-12.491-.454a99.87 99.87 0 01-.099-2.89l-.045-2.84c8.771-4.747 14.426-13.858 14.422-23.776.003-7.301-2.941-14.159-8.288-19.305-5.289-5.09-12.305-7.894-19.756-7.894-7.451 0-14.467 2.803-19.755 7.894-5.348 5.146-8.292 12.004-8.289 19.309-.003 9.797 5.365 18.689 13.939 23.516.04.824.067 1.769.067 2.839v3.335l-16.132-.226a756.79 756.79 0 00-10.381-.088c-11.422 0-14.408.432-16.819 2.433-4.417 3.666-4.219 14.684-2.954 18.354 1.499 4.347 5.005 4.781 6.044 4.811l.087.002h.084l39.101-.091.014 2.155c.053 7.917.108 16.104.006 24.129-.546 23.906-.905 45.591-1.098 66.296-.096 12.63-.576 22.657-.88 24.34-.572 2.526-.886 2.624-3.105 2.624-2.465 0-6.274-.715-11.643-2.187-16.585-4.547-33.283-13.714-35.317-16.567-.567-.866-.91-1.569-1.11-2.096 2.613-.48 4.828-2.48 5.947-5.458 2.142-5.705.536-14.976-19.281-26.759-2.673-1.59-7.233-5.156-9.959-7.789-6.462-6.243-9.075-6.244-10.331-6.244h-.003a6.07 6.07 0 00-3.279.949c-4.664 2.987-8.898 15.578-9.879 20.326-2.913 14.098.77 33.88 7.882 42.332 1.904 2.263 4.546 4.861 8.102 4.861 1.343 0 5.687-.48 7.252-6.421 1.579.483 4.661 2.074 8.801 6.229 7.525 7.551 21.188 17.942 27.583 20.98 2.008.954 4.952 2.54 6.428 3.463 2.335 1.459 7.89 3.705 12.17 5.169 9.274 3.172 19.04 8.465 22.341 11.419 1.832 1.64 4.521 3.746 6.122 4.795 1.43.938 3.05 1.998 5.287 1.998 3.75 0 5.633-2.871 6.757-4.586 2.804-4.28 7.999-8.224 15.883-12.059 4.481-2.181 7.864-3.531 8.94-3.871 1.271-.121 3.877-.812 12.784-4.752 6.19-2.738 12.73-5.879 17.493-8.4 8.124-4.302 12.049-7.078 20.999-14.853 5.996-5.209 8.538-5.986 9.52-5.986.229 0 .927 0 2.466 1.68l3.208 3.503 4.184 4.568 4.181-4.571 2.061-2.253c5.205-5.692 6.576-11.69 7.287-20.768.596-7.611.326-11.967-1.153-18.648zm-15.585 34.339c-2.129-2.324-4.225-3.521-6.646-3.521-3.426 0-7.502 2.395-13.237 7.376-8.674 7.534-12.17 10.011-19.934 14.122-9.906 5.244-26.352 12.52-28.301 12.52-.916 0-5.751 1.987-10.744 4.416-8.882 4.32-14.746 8.861-18.145 14.049-.918 1.4-1.37 2.025-2.016 2.025-.504 0-1.126-.381-2.179-1.07-1.374-.9-3.826-2.825-5.45-4.278-4.274-3.824-15.069-9.406-24.287-12.559-4.4-1.505-9.35-3.581-11-4.612-1.65-1.031-4.8-2.73-7-3.776-5.775-2.743-19.036-12.874-26-19.861-5.266-5.284-10.272-8.075-13.723-8.075-2.315 0-3.931 1.258-4.452 3.863-.365 1.824-.981 2.737-1.895 2.737-.931 0-2.169-.947-3.764-2.843-5.986-7.113-9.208-25.246-6.668-37.535 1.263-6.113 5.374-15.41 7.383-16.697a.412.412 0 01.225-.055c.926 0 3.505 1.861 6.394 4.652 3.025 2.922 7.975 6.785 11 8.584 12.446 7.4 18.765 14.85 16.872 19.891-.451 1.2-1.153 1.895-1.87 1.895-.138 0-.277-.025-.414-.078a1.224 1.224 0 00-.444-.074c-.791 0-1.887.566-2.668 1.43-1.889 2.088-1.481 5.508 1.133 9.498 3.288 5.018 22.824 14.602 38.552 18.914 5.71 1.564 9.964 2.389 13.141 2.389 5.238 0 7.552-2.238 8.644-7.081.465-2.064.92-13.539 1.011-25.5.206-22.085.593-44.167 1.097-66.247.136-10.689-.002-21.379-.053-32.069l-44.75.104c-1.988-.058-1.667-11.446.368-13.136.971-.806 4.123-1.126 13.198-1.126 2.823 0 6.221.031 10.302.088l21.881.306v-9.084c0-3.001-.193-5.096-.331-6.515-8.038-3.268-13.678-10.925-13.675-19.842-.004-11.885 10.015-21.531 22.375-21.531s22.379 9.646 22.375 21.531c.003 9.212-6.018 17.076-14.481 20.148l.105 6.578c.08 4.067.383 7.631.672 7.92 5.815.785 11.69.981 17.586.981 5.881 0 11.781-.195 17.656-.195 3.753 0 7.496.08 11.218.341l.125 5.5c.175 7.679 1.119 8.738-12.739 8.738-3.048 0-6.813-.051-11.456-.095a892.92 892.92 0 00-8.101-.039c-8.507 0-14.673.143-14.815.374-.186.3-.602 16.065-.925 35.034-.323 18.969-.858 46.703-1.189 61.633-.331 14.93-.313 28.055.04 29.166.732 2.307 5.303 4.189 10.171 4.189 10.315 0 32.024-7.888 48.216-17.519 9.479-5.64 11.932-8.521 10.299-12.104-.706-1.551-1.71-2.319-3.067-2.319-.87 0-1.887.316-3.063.945-.606.325-1.112.487-1.516.487-1.432 0-1.586-2.039-.452-6.09 1.506-5.376 6.402-10.782 14.516-16.025 6.775-4.38 10.293-7.576 12.812-11.642.952-1.537 1.527-2.178 2.292-2.178.398 0 .848.174 1.428.484 2.684 1.437 6.272 9.69 8.414 19.35 1.354 6.112 1.588 9.937 1.037 16.979-.721 9.211-2.092 13.309-5.818 17.384l-2.061 2.253-3.209-3.503z" fill="#b3b3b3"/><path fill="#b3b3b3" d="M126.406 15.794c-6 0-10.877 4.668-10.875 10.438-.002 5.77 4.875 10.438 10.875 10.438s10.877-4.668 10.875-10.438c.002-5.77-4.875-10.438-10.875-10.438zm3.765 13.728c-.994.953-2.331 1.478-3.765 1.478s-2.771-.525-3.764-1.478c-.93-.892-1.442-2.06-1.441-3.289 0-1.233.511-2.4 1.441-3.292.994-.953 2.331-1.478 3.764-1.478s2.771.525 3.765 1.478c.93.892 1.441 2.06 1.441 3.289 0 1.232-.511 2.4-1.441 3.292z"/><g transform="scale(8.29692 8.95992) rotate(-45 -1.55 51.537)" color="#000" stroke-linecap="round" stroke-dashoffset="1.4"><path d="M32.5 24.188a6.988 6.988 0 00-4 6.312 6.988 6.988 0 004 6.313V55.35h6.031V36.812A7.001 7.001 0 0042.5 30.5c0-2.78-1.62-5.183-3.969-6.313V30.5l-3.015 1-3.016-1v-6.313z" style="marker:none" fill="url(#bK)" stroke="url(#bL)" stroke-linejoin="round" overflow="visible"/><path d="M31.5 26.344c-1.14 1.088-2 2.448-2 4.156 0 2.4 1.409 4.44 3.438 5.406.347.168.566.52.562.907v18.93h4.031v-18.93a.994.994 0 01.563-.907A5.986 5.986 0 0041.5 30.5c0-1.698-.843-3.066-1.969-4.156V30.5a.994.994 0 01-.687.938l-3.032 1a.994.994 0 01-.624 0l-3-1a.994.994 0 01-.688-.938v-4.156z" style="marker:none" fill="none" stroke="url(#bM)" overflow="visible"/><rect ry="1" rx="1" y="37.5" x="34.5" height="15" width="2" style="marker:none" opacity=".4" fill="none" stroke="url(#bN)" overflow="visible"/></g></svg>