<svg xmlns="http://www.w3.org/2000/svg" width="74.9" height="74.9"><path d="M49.263 29.029c-.656-2.119-1.913-6.11-8.692-6.11-3.936 0-9.731 2.365-9.731 12.368 0 6.356 2.788 12.072 9.731 12.072 4.537 0 7.708-2.316 8.692-6.65h8.2c-1.64 7.686-7.216 13.057-17.056 13.057-10.442 0-17.931-6.357-17.931-18.577 0-12.367 7.927-18.674 18.04-18.674 11.754 0 16.51 7.292 16.947 12.515h-8.2z" fill="#dbe2e3"/><path d="M46.398 28.973c-.656-2.12-1.913-6.11-8.692-6.11-3.936 0-9.73 2.365-9.73 12.367 0 6.357 2.787 12.072 9.73 12.072 4.538 0 7.708-2.315 8.692-6.65h8.2c-1.64 7.686-7.216 13.057-17.056 13.057-10.441 0-17.931-6.356-17.931-18.576 0-12.368 7.927-18.675 18.04-18.675 11.754 0 16.51 7.293 16.948 12.516h-8.2v-.001z" fill="#00112b"/><path d="M41.696 28.894c-.656-2.12-1.913-6.11-8.692-6.11-3.936 0-9.731 2.365-9.731 12.367 0 6.357 2.788 12.072 9.73 12.072 4.538 0 7.709-2.315 8.693-6.65h8.2C48.256 48.259 42.68 53.63 32.84 53.63c-10.442 0-17.931-6.356-17.931-18.576 0-12.368 7.926-18.675 18.04-18.675 11.754 0 16.51 7.293 16.947 12.516h-8.2v-.001z" fill="#06f"/></svg>