<?xml version="1.0" encoding="utf-8"?>
<!-- Generator: Adobe Illustrator 23.0.1, SVG Export Plug-In . SVG Version: 6.00 Build 0)  -->
<svg version="1.1" id="Layer_1" xmlns="http://www.w3.org/2000/svg" xmlns:xlink="http://www.w3.org/1999/xlink" x="0px" y="0px"
	 viewBox="0 0 74.9 74.9" style="enable-background:new 0 0 74.9 74.9;" xml:space="preserve">
<style type="text/css">
	.st0{fill:#0066FF;}
</style>
<path class="st0" d="M49.9,29.3c-0.9-2.8-2.6-8.2-11.6-8.2c-5.3,0-13,3.2-13,16.5c0,8.5,3.7,16.1,13,16.1c6.1,0,10.3-3.1,11.6-8.9
	h11C58.6,55.2,51.2,62.3,38,62.3c-13.9,0-23.9-8.5-23.9-24.8c0-16.5,10.6-24.9,24.1-24.9c15.7,0,22.1,9.7,22.6,16.7L49.9,29.3
	C49.9,29.3,49.9,29.3,49.9,29.3z"/>
</svg>
