<svg xmlns="http://www.w3.org/2000/svg" height="48" width="48" version="1.0" xmlns:xlink="http://www.w3.org/1999/xlink"><defs><linearGradient id="e" y2="39.999" gradientUnits="userSpaceOnUse" x2="25.058" y1="47.028" x1="25.058"><stop offset="0" stop-opacity="0"/><stop offset=".5"/><stop offset="1" stop-opacity="0"/></linearGradient><linearGradient id="a"><stop offset="0"/><stop offset="1" stop-opacity="0"/></linearGradient><linearGradient id="f" y2="3.89" gradientUnits="userSpaceOnUse" x2="24" gradientTransform="translate(0 .967)" y1="44" x1="24"><stop offset="0" stop-color="#787878"/><stop offset="1" stop-color="#aaa"/></linearGradient><linearGradient id="g" y2="44.984" gradientUnits="userSpaceOnUse" x2="19.36" y1="16.138" x1="19.36"><stop offset="0" stop-color="#f4f4f4"/><stop offset="1" stop-color="#dbdbdb"/></linearGradient><linearGradient id="h" y2="3.899" gradientUnits="userSpaceOnUse" x2="24" gradientTransform="translate(0 .967)" y1="44" x1="24"><stop offset="0" stop-color="#791235"/><stop offset="1" stop-color="#dd3b27"/></linearGradient><linearGradient id="j" y2="43" gradientUnits="userSpaceOnUse" x2="24" gradientTransform="translate(0 .967)" y1="5" x1="24"><stop offset="0" stop-color="#fff"/><stop offset="1" stop-color="#fff" stop-opacity="0"/></linearGradient><linearGradient id="k" y2="20" gradientUnits="userSpaceOnUse" x2="23.415" gradientTransform="matrix(1 0 0 .75 0 4)" y1="16" x1="23.415"><stop offset="0"/><stop offset="1" stop-opacity="0"/></linearGradient><linearGradient id="b"><stop offset="0" stop-color="#f2f2f2"/><stop offset="1" stop-color="#999"/></linearGradient><radialGradient id="d" xlink:href="#a" gradientUnits="userSpaceOnUse" cy="43.5" cx="4.993" gradientTransform="matrix(2.0038 0 0 1.4 -20.012 -104.4)" r="2.5"/><radialGradient id="c" xlink:href="#a" gradientUnits="userSpaceOnUse" cy="43.5" cx="4.993" gradientTransform="matrix(2.0038 0 0 1.4 27.988 -17.4)" r="2.5"/><radialGradient id="i" gradientUnits="userSpaceOnUse" cy="11.394" cx="12.063" gradientTransform="matrix(0 1.1116 -1.5963 0 35.053 .932)" r="20"><stop offset="0" stop-color="#f89b7e"/><stop offset=".397" stop-color="#e35d4f"/><stop offset="1" stop-color="#c6262e"/></radialGradient><radialGradient id="l" xlink:href="#b" spreadMethod="reflect" gradientUnits="userSpaceOnUse" cy="4.918" cx="14" gradientTransform="matrix(1.455 0 0 2.2747 -6.37 -6.839)" r="2"/><radialGradient id="m" xlink:href="#b" spreadMethod="reflect" gradientUnits="userSpaceOnUse" cy="4.918" cx="14" gradientTransform="matrix(1.455 0 0 2.2747 13.63 -6.839)" r="2"/></defs><g opacity=".4"><path fill="url(#c)" d="M38 40h5v7h-5z" transform="matrix(1.15786 0 0 .57142 -3.79 19.143)"/><path transform="matrix(-1.15786 0 0 -.57142 -3.79 19.143)" fill="url(#d)" d="M-10-47h5v7h-5z"/><path fill="url(#e)" d="M10 40h28v7H10z" transform="matrix(1.15786 0 0 .57142 -3.79 19.143)"/></g><rect rx="2.232" ry="2.232" height="39" width="39" y="5.467" x="4.5" stroke-linejoin="round" stroke="url(#f)" stroke-linecap="round" fill="url(#g)"/><path d="M6.719 5.469A2.204 2.204 0 004.5 7.687V15.5h39V7.687a2.205 2.205 0 00-2.219-2.218H6.72z" stroke="url(#h)" fill="url(#i)"/><rect rx="1.365" ry="1.365" height="37" width="37" y="6.467" x="5.5" opacity=".4" stroke-linejoin="round" stroke="url(#j)" stroke-linecap="round" fill="none"/><rect rx="0" ry="0" height="3" width="40" y="16" x="4" opacity=".3" fill="url(#k)"/><rect rx="1.809" ry="1.53" height="11" width="4" y="2" x="12" opacity=".4" fill="#fff"/><rect rx="1.587" ry="1.587" height="4.308" width="4" y="7.692" x="12" fill="#cc3429"/><rect rx="1.809" ry="1.391" height="10" width="4" y="1" x="12" fill="url(#l)"/><g><rect rx="1.809" ry="1.53" height="11" width="4" y="2" x="32" opacity=".4" fill="#fff"/><rect rx="1.587" ry="1.587" height="4.308" width="4" y="7.692" x="32" fill="#cc3429"/><rect rx="1.809" ry="1.391" height="10" width="4" y="1" x="32" fill="url(#m)"/></g><text transform="scale(1.0065 .99356)" y="39.945" x="10.312" font-size="24.768" font-family="Arial" font-weight="700" fill="#4d4d4d"><tspan y="39.945" x="10.312">28</tspan></text></svg>