<svg xmlns="http://www.w3.org/2000/svg" xmlns:xlink="http://www.w3.org/1999/xlink" width="48" height="48"><defs><linearGradient id="a"><stop offset="0" stop-color="#fff"/><stop offset="1" stop-color="#fff" stop-opacity="0"/></linearGradient><linearGradient xlink:href="#a" id="h" gradientUnits="userSpaceOnUse" gradientTransform="scale(1.48418) rotate(-45 9.769 29.715)" x1="31.972" y1="17.042" x2="12.718" y2="36.297"/><linearGradient id="b"><stop offset="0" stop-color="#c22f2f"/><stop offset="1" stop-color="#a40000"/></linearGradient><linearGradient xlink:href="#b" id="g" x1="23.173" y1="6" x2="23.1" y2="43" gradientUnits="userSpaceOnUse"/><linearGradient id="c"><stop offset="0" stop-color="#e78181"/><stop offset=".25" stop-color="#e15f5f"/><stop offset=".68" stop-color="#c22f2f"/><stop offset="1" stop-color="#a40000"/></linearGradient><linearGradient id="d"><stop offset="0"/><stop offset="1" stop-opacity="0"/></linearGradient><radialGradient xlink:href="#c" id="f" cx="6.573" cy="24.5" fx="6.573" fy="24.5" r="18.5" gradientTransform="matrix(0 2.54791 -4.88416 0 144.164 -10.748)" gradientUnits="userSpaceOnUse"/><radialGradient xlink:href="#d" id="e" gradientUnits="userSpaceOnUse" gradientTransform="matrix(.91481 .01265 -.00822 .21356 2.254 27.189)" cx="23.071" cy="35.127" fx="23.071" fy="35.127" r="10.319"/></defs><path d="M33.278 34.94a10.32 2.32 0 11-20.638 0 10.32 2.32 0 1120.638 0z" transform="matrix(2.22882 0 0 1.91905 -27.171 -25.505)" opacity=".256" fill="url(#e)"/><path style="text-align:start;line-height:125%" d="M42.5 35L32 24l10.5-10L35 6.5 24.5 17 14 6.5 6.5 14 17 24 6.5 35l7.5 7.5L24.5 32 34 42.5l8.5-7.5z" font-size="59.901" font-weight="700" fill="url(#f)" stroke="url(#g)" stroke-linejoin="round" font-family="Bitstream Vera Sans"/><path style="text-align:start;line-height:125%" d="M41 35L30.5 24 41 14l-6-6-10.5 10.5L14 8l-6 6 10.5 10L8 35l6 6 10.5-10.5L34 41l7-6z" font-size="59.901" font-weight="700" opacity=".4" fill="none" stroke="url(#h)" stroke-linejoin="round" font-family="Bitstream Vera Sans"/></svg>