<svg xmlns="http://www.w3.org/2000/svg" xmlns:xlink="http://www.w3.org/1999/xlink" width="48" height="48"><defs><linearGradient id="a"><stop offset="0"/><stop offset="1" stop-opacity="0"/></linearGradient><linearGradient id="b"><stop offset="0" stop-color="#59a40f"/><stop offset="1" stop-color="#306102"/></linearGradient><linearGradient id="c"><stop offset="0" stop-color="#fff"/><stop offset="1" stop-color="#fff" stop-opacity="0"/></linearGradient><linearGradient id="d"><stop offset="0" stop-color="#d491fa"/><stop offset="1" stop-color="#600261"/></linearGradient><linearGradient id="e"><stop offset="0" stop-color="#fff"/><stop offset="1" stop-color="#fff" stop-opacity="0"/></linearGradient><linearGradient xlink:href="#d" id="j" gradientUnits="userSpaceOnUse" gradientTransform="matrix(.89263 .03866 -.03953 .8996 31.468 30.846)" x1="42.551" y1="46.026" x2="22.734" y2="23.323"/><radialGradient xlink:href="#a" id="g" gradientUnits="userSpaceOnUse" gradientTransform="matrix(1.15623 .05007 -.03238 .7369 5.71 995.06)" cx="15.116" cy="63.965" fx="13.292" fy="60.044" r="12.289"/><radialGradient r="12.289" fy="63.965" fx="15.116" cy="63.965" cx="15.116" gradientTransform="matrix(1.13465 .04914 -.03238 .7369 2.406 994.13)" gradientUnits="userSpaceOnUse" id="f" xlink:href="#a"/><radialGradient xlink:href="#d" id="h" gradientUnits="userSpaceOnUse" gradientTransform="matrix(.98176 -.01192 .01113 .96706 27.201 30.355)" cx="33.921" cy="32.026" fx="33.921" fy="32.026" r="12.011"/><radialGradient xlink:href="#e" id="i" gradientUnits="userSpaceOnUse" gradientTransform="matrix(.68507 .47409 -.24825 .36395 43.233 36.223)" cx="25.346" cy="30.31" fx="22.506" fy="25.064" r="12.011"/></defs><path d="M31.43 1042.614c-.22 5.002-6.64 8.787-14.343 8.454-7.702-.334-13.767-4.66-13.545-9.662.218-5.002 6.64-8.787 14.341-8.453 7.702.333 13.767 4.659 13.546 9.661z" fill="url(#f)" transform="translate(0 -1004.362)"/><path d="M35.326 1043.568c-.219 5.002-6.759 8.782-14.607 8.442-7.849-.34-14.033-4.67-13.811-9.673.218-5.002 6.758-8.782 14.607-8.442 7.848.34 14.032 4.671 13.81 9.673z" fill="url(#g)" transform="translate(0 -1004.362)"/><g stroke-width=".897"><path d="M67.255 65.975c-2.284 5.57-8.17 10.165-13.74 7.887-5.961-.836-8.722-7.769-7.88-13.727.946-6.693 6.338-9.114 13.545-7.167 7.207 1.947 10.64 6.752 8.075 13.007z" fill="url(#h)" stroke="#600261" transform="matrix(1.4931 0 0 1.4931 -64.174 -67.26)"/><path d="M67.376 66.071c-2.282 5.576-8.163 10.177-13.727 7.898-5.954-.838-8.712-7.777-7.87-13.742.946-6.7 6.333-9.125 13.532-7.176 7.198 1.948 10.627 6.758 8.065 13.02z" opacity=".66" fill="url(#i)" stroke="#600261" transform="matrix(1.4931 0 0 1.4931 -64.174 -67.26)"/><g fill="none"><path d="M54.254 53.192c-2.749.02-5.227 1.148-6.561 3.549-2.464 4.432-.933 10.343.958 12.929 2.257 3.094 4.284 2.929 5.425 3.279 3.833 1.446 7.958-.62 10.69-4.589 4.569-6.638 2.078-11.34-3.402-13.746-2.19-.961-4.647-1.442-7.11-1.422z" stroke="url(#j)" transform="matrix(1.4931 0 0 1.4931 -64.174 -67.26)"/><path d="M18.754 16.081c-.999 4.446 6.207 7.285 8.326 3.053" stroke="#600261" stroke-width="1.33931967"/></g></g><path d="M38.31 1.573c-.242-.016-.518-.037-.795-.032-4.953 5.884-10.589 11.126-16.251 16.342.426.91 1.247 1.083 2.352 1.13l6.536-6.543c3.163-2.87 6.022-5.14 7.279-6.921a28.768 28.768 0 012.506-3.03c-.36-.662-.903-.882-1.627-.945h0z" fill="#4e9a06" stroke="#275000" stroke-width=".771"/></svg>