<svg xmlns="http://www.w3.org/2000/svg"  width="48" height="48"><defs><linearGradient id="a"><stop offset="0" stop-color="#d50f0f"/><stop offset="1" stop-color="#860000"/></linearGradient><linearGradient id="b"><stop offset="0" stop-color="#fff"/><stop offset="1" stop-color="#fff" stop-opacity="0"/></linearGradient><linearGradient xlink:href="#a" id="aH" gradientUnits="userSpaceOnUse" gradientTransform="translate(.284 1.58)" x1="42.551" y1="46.026" x2="22.734" y2="23.323"/><linearGradient id="c"><stop offset="0"/><stop offset="1" stop-opacity="0"/></linearGradient><linearGradient id="m"><stop offset="0" stop-color="#ce5c00"/><stop offset="1" stop-color="#f57900"/></linearGradient><linearGradient id="n"><stop offset="0" stop-color="#fff"/><stop offset="1" stop-color="#fff" stop-opacity="0"/></linearGradient><linearGradient id="l"><stop offset="0" stop-color="#fecb81"/><stop offset="1" stop-color="#fcaf3e"/></linearGradient><linearGradient id="k"><stop offset="0"/><stop offset="1" stop-opacity="0"/></linearGradient><linearGradient id="d"><stop offset="0" stop-color="#2e3436"/><stop offset="1" stop-color="#2e3436" stop-opacity="0"/></linearGradient><linearGradient id="e"><stop offset="0" stop-color="#fce94f"/><stop offset="1" stop-color="#fce94f" stop-opacity="0"/></linearGradient><linearGradient id="f"><stop offset="0" stop-color="#555753"/><stop offset="1" stop-color="#fcaf3e"/></linearGradient><linearGradient id="p"><stop offset="0" stop-color="#fff"/><stop offset="1" stop-color="#fff" stop-opacity="0"/></linearGradient><linearGradient id="q"><stop offset="0" stop-opacity=".413"/><stop offset="1" stop-opacity="0"/></linearGradient><linearGradient id="r"><stop offset="0" stop-color="#fff"/><stop offset=".475" stop-color="#fff"/><stop offset="1" stop-color="#fff" stop-opacity="0"/></linearGradient><linearGradient id="s"><stop offset="0" stop-color="#fff"/><stop offset="1" stop-color="#fff" stop-opacity="0"/></linearGradient><linearGradient id="t"><stop offset="0" stop-color="#888a85"/><stop offset="1" stop-color="#babdb6"/></linearGradient><linearGradient id="u"><stop offset="0" stop-color="#f6f6f5"/><stop offset="1" stop-color="#d3d7cf"/></linearGradient><linearGradient id="v"><stop offset="0" stop-opacity="0"/><stop offset=".5"/><stop offset="1" stop-opacity="0"/></linearGradient><linearGradient id="w"><stop offset="0"/><stop offset="1" stop-opacity="0"/></linearGradient><linearGradient id="o"><stop offset="0" stop-color="#fff"/><stop offset=".25" stop-color="#fefede" stop-opacity=".918"/><stop offset=".5" stop-color="#f5f328"/><stop offset="1" stop-color="#f5f32d" stop-opacity=".122"/></linearGradient><linearGradient id="G"><stop offset="0" stop-color="#e80000"/><stop offset="1" stop-color="#490000"/></linearGradient><linearGradient id="J"><stop offset="0" stop-color="#fff"/><stop offset="1" stop-color="#fff" stop-opacity="0"/></linearGradient><linearGradient id="I"><stop offset="0"/><stop offset="1" stop-opacity="0"/></linearGradient><linearGradient id="H"><stop offset="0"/><stop offset="1" stop-color="#373737" stop-opacity="0"/></linearGradient><linearGradient id="N"><stop offset="0" stop-color="#737373"/><stop offset="1" stop-opacity="0"/></linearGradient><linearGradient id="O"><stop offset="0" stop-color="#373737"/><stop offset="1" stop-color="#cfcfcf" stop-opacity=".678"/></linearGradient><linearGradient id="M"><stop offset="0" stop-color="#373737"/><stop offset="1" stop-color="#fff"/></linearGradient><linearGradient id="K"><stop offset="0" stop-color="#fff"/><stop offset="1" stop-color="#fff" stop-opacity="0"/></linearGradient><linearGradient id="L"><stop offset="0" stop-color="#e40000"/><stop offset="1" stop-color="#490000"/></linearGradient><linearGradient id="F"><stop offset="0" stop-color="#fd0000"/><stop offset="1" stop-color="#6a0000"/></linearGradient><linearGradient id="E"><stop offset="0"/><stop offset="1" stop-opacity="0"/></linearGradient><linearGradient id="A"><stop offset="0" stop-color="#a36d18"/><stop offset="1" stop-color="#d79020"/></linearGradient><linearGradient id="B"><stop offset="0" stop-color="#e9b96e"/><stop offset="1" stop-color="#f1d19e"/></linearGradient><linearGradient id="x"><stop offset="0" stop-color="#eaba6f"/><stop offset="1" stop-color="#b97a1b"/></linearGradient><linearGradient id="y"><stop offset="0" stop-color="#fff"/><stop offset="1" stop-color="#fff" stop-opacity=".686"/></linearGradient><linearGradient id="D"><stop offset="0" stop-color="#fbf0e0"/><stop offset="1" stop-color="#f0ce99"/></linearGradient><linearGradient id="z"><stop offset="0" stop-color="#a0670c"/><stop offset="1" stop-color="#a0670c" stop-opacity="0"/></linearGradient><linearGradient id="C"><stop offset="0" stop-color="#de9523"/><stop offset="1" stop-color="#a36d18"/></linearGradient><linearGradient id="P"><stop offset="0" stop-color="#fff"/><stop offset="1" stop-color="#ccc"/></linearGradient><linearGradient id="Q"><stop offset="0"/><stop offset="1" stop-opacity="0"/></linearGradient><linearGradient id="R"><stop offset="0" stop-opacity="0"/><stop offset=".5"/><stop offset="1" stop-opacity="0"/></linearGradient><linearGradient id="S"><stop offset="0"/><stop offset="1" stop-opacity="0"/></linearGradient><linearGradient id="g"><stop offset="0" stop-color="#888a85"/><stop offset="1" stop-color="#888a85" stop-opacity="0"/></linearGradient><linearGradient id="h"><stop offset="0" stop-color="#fff"/><stop offset="1" stop-color="#fff" stop-opacity="0"/></linearGradient><linearGradient id="j"><stop offset="0" stop-color="#d3d7cf"/><stop offset="1" stop-color="#d3d7cf" stop-opacity="0"/></linearGradient><linearGradient id="i"><stop offset="0" stop-color="#6f716c"/><stop offset="1" stop-color="#888a85" stop-opacity="0"/></linearGradient><linearGradient id="X"><stop offset="0"/><stop offset="1" stop-opacity="0"/></linearGradient><linearGradient id="W"><stop offset="0" stop-opacity="0"/><stop offset=".5"/><stop offset="1" stop-opacity="0"/></linearGradient><linearGradient id="T"><stop offset="0" stop-color="#fff"/><stop offset="1" stop-color="#ddd"/></linearGradient><linearGradient id="V"><stop offset="0" stop-color="#9e9e9e"/><stop offset="1" stop-color="#ddd" stop-opacity="0"/></linearGradient><linearGradient id="U"><stop offset="0" stop-color="#729fcf"/><stop offset="1" stop-color="#ddd" stop-opacity="0"/></linearGradient><linearGradient id="Z"><stop offset="0" stop-color="#fff"/><stop offset="1" stop-color="#fff" stop-opacity="0"/></linearGradient><linearGradient id="aa"><stop offset="0" stop-opacity=".413"/><stop offset="1" stop-opacity="0"/></linearGradient><linearGradient id="ab"><stop offset="0" stop-color="#fff"/><stop offset=".475" stop-color="#fff"/><stop offset="1" stop-color="#fff" stop-opacity="0"/></linearGradient><linearGradient id="ac"><stop offset="0" stop-color="#fff"/><stop offset="1" stop-color="#fff" stop-opacity="0"/></linearGradient><linearGradient id="ad"><stop offset="0" stop-color="#888a85"/><stop offset="1" stop-color="#babdb6"/></linearGradient><linearGradient id="ae"><stop offset="0" stop-color="#f6f6f5"/><stop offset="1" stop-color="#d3d7cf"/></linearGradient><linearGradient id="af"><stop offset="0" stop-opacity="0"/><stop offset=".5"/><stop offset="1" stop-opacity="0"/></linearGradient><linearGradient id="ag"><stop offset="0"/><stop offset="1" stop-opacity="0"/></linearGradient><linearGradient id="Y"><stop offset="0" stop-color="#fff"/><stop offset=".25" stop-color="#fefede" stop-opacity=".918"/><stop offset=".5" stop-color="#f5f328"/><stop offset="1" stop-color="#f5f32d" stop-opacity=".122"/></linearGradient><linearGradient id="aq"><stop offset="0" stop-color="#e80000"/><stop offset="1" stop-color="#490000"/></linearGradient><linearGradient id="at"><stop offset="0" stop-color="#fff"/><stop offset="1" stop-color="#fff" stop-opacity="0"/></linearGradient><linearGradient id="as"><stop offset="0"/><stop offset="1" stop-opacity="0"/></linearGradient><linearGradient id="ar"><stop offset="0"/><stop offset="1" stop-color="#373737" stop-opacity="0"/></linearGradient><linearGradient id="ax"><stop offset="0" stop-color="#737373"/><stop offset="1" stop-opacity="0"/></linearGradient><linearGradient id="ay"><stop offset="0" stop-color="#373737"/><stop offset="1" stop-color="#cfcfcf" stop-opacity=".678"/></linearGradient><linearGradient id="aw"><stop offset="0" stop-color="#373737"/><stop offset="1" stop-color="#fff"/></linearGradient><linearGradient id="au"><stop offset="0" stop-color="#fff"/><stop offset="1" stop-color="#fff" stop-opacity="0"/></linearGradient><linearGradient id="av"><stop offset="0" stop-color="#e40000"/><stop offset="1" stop-color="#490000"/></linearGradient><linearGradient id="ap"><stop offset="0" stop-color="#fd0000"/><stop offset="1" stop-color="#6a0000"/></linearGradient><linearGradient id="ao"><stop offset="0"/><stop offset="1" stop-opacity="0"/></linearGradient><linearGradient id="ak"><stop offset="0" stop-color="#a36d18"/><stop offset="1" stop-color="#d79020"/></linearGradient><linearGradient id="al"><stop offset="0" stop-color="#e9b96e"/><stop offset="1" stop-color="#f1d19e"/></linearGradient><linearGradient id="ah"><stop offset="0" stop-color="#eaba6f"/><stop offset="1" stop-color="#b97a1b"/></linearGradient><linearGradient id="ai"><stop offset="0" stop-color="#fff"/><stop offset="1" stop-color="#fff" stop-opacity=".686"/></linearGradient><linearGradient id="an"><stop offset="0" stop-color="#fbf0e0"/><stop offset="1" stop-color="#f0ce99"/></linearGradient><linearGradient id="aj"><stop offset="0" stop-color="#a0670c"/><stop offset="1" stop-color="#a0670c" stop-opacity="0"/></linearGradient><linearGradient id="am"><stop offset="0" stop-color="#de9523"/><stop offset="1" stop-color="#a36d18"/></linearGradient><linearGradient id="az"><stop offset="0" stop-color="#fff"/><stop offset="1" stop-color="#ccc"/></linearGradient><linearGradient id="aA"><stop offset="0"/><stop offset="1" stop-opacity="0"/></linearGradient><linearGradient id="aB"><stop offset="0" stop-opacity="0"/><stop offset=".5"/><stop offset="1" stop-opacity="0"/></linearGradient><linearGradient id="aC"><stop offset="0"/><stop offset="1" stop-opacity="0"/></linearGradient><linearGradient xlink:href="#j" id="aI" gradientUnits="userSpaceOnUse" x1="35.198" y1="46.094" x2="33.666" y2="50.416"/><linearGradient xlink:href="#i" id="aJ" gradientUnits="userSpaceOnUse" x1="38.046" y1="44.886" x2="33.233" y2="51.47"/><linearGradient xlink:href="#h" id="aK" gradientUnits="userSpaceOnUse" x1="33.358" y1="37.386" x2="33.358" y2="52.806"/><linearGradient xlink:href="#g" id="aL" gradientUnits="userSpaceOnUse" x1="36.202" y1="37.667" x2="30.035" y2="41.842"/><radialGradient xlink:href="#a" id="aF" gradientUnits="userSpaceOnUse" gradientTransform="matrix(1.09718 -.0604 .05996 1.07242 -4.515 1.14)" cx="33.921" cy="32.026" fx="33.921" fy="32.026" r="12.011"/><radialGradient xlink:href="#b" id="aG" gradientUnits="userSpaceOnUse" gradientTransform="matrix(.7893 .49308 -.2597 .41573 13.533 6.768)" cx="25.346" cy="30.31" fx="22.506" fy="25.064" r="12.011"/><radialGradient xlink:href="#c" id="aE" gradientUnits="userSpaceOnUse" gradientTransform="matrix(1.15623 .05007 -.03238 .7369 5.71 995.06)" cx="15.116" cy="63.965" fx="13.292" fy="60.044" r="12.289"/><radialGradient r="12.289" fy="63.965" fx="15.116" cy="63.965" cx="15.116" gradientTransform="matrix(1.13465 .04914 -.03238 .7369 2.406 994.13)" gradientUnits="userSpaceOnUse" id="aD" xlink:href="#c"/></defs><path d="M31.43 1042.614c-.22 5.002-6.64 8.787-14.343 8.454-7.702-.334-13.767-4.66-13.545-9.662.218-5.002 6.64-8.787 14.341-8.453 7.702.333 13.767 4.659 13.546 9.661z" fill="url(#aD)" transform="translate(0 -1004.362)"/><path d="M35.326 1043.568c-.219 5.002-6.759 8.782-14.607 8.442-7.849-.34-14.033-4.67-13.811-9.673.218-5.002 6.758-8.782 14.607-8.442 7.848.34 14.032 4.671 13.81 9.673z" fill="url(#aE)" transform="translate(0 -1004.362)"/><path d="M42.021 38.735c-2.28 6.29-8.636 11.671-14.976 9.411-6.706-.642-10.134-8.2-9.485-14.852.729-7.47 6.64-10.416 14.793-8.602 8.154 1.813 12.229 6.98 9.668 14.043z" fill="url(#aF)" stroke="#520000" transform="matrix(1.28467 .05564 -.05689 1.2947 -15.323 -19.42)"/><path d="M41.995 38.724c-2.277 6.296-8.627 11.684-14.96 9.422-6.7-.643-10.124-8.21-9.475-14.869.728-7.479 6.632-10.427 14.777-8.612 8.145 1.816 12.216 6.988 9.658 14.06z" opacity=".66" fill="url(#aG)" stroke="#520000" transform="matrix(1.28467 .05564 -.05689 1.2947 -15.323 -19.42)"/><path d="M26.86 25.277c-3.072.156-5.788 1.525-7.161 4.253-2.537 5.036-.535 11.521 1.706 14.299 2.676 3.324 4.934 3.044 6.227 3.377 4.357 1.42 8.868-1.071 11.727-5.605 4.784-7.584 1.767-12.681-4.479-15.087-2.496-.962-5.267-1.377-8.02-1.237z" fill="none" stroke="url(#aH)" transform="matrix(1.28467 .05564 -.05689 1.2947 -15.323 -19.42)"/><path d="M28.224 26.012c-.601 3.336 4.889 5.213 6.336 2" fill="none" stroke="#520000" transform="matrix(1.28467 .05564 -.05689 1.2947 -15.323 -19.42)"/><path d="M38.31 1.573c-.242-.016-.518-.037-.795-.032-4.953 5.884-10.589 11.126-16.251 16.342.426.91 1.247 1.083 2.352 1.13l6.536-6.543c3.163-2.87 6.022-5.14 7.279-6.921a28.768 28.768 0 012.506-3.03c-.36-.662-.903-.882-1.627-.945h0z" fill="#4e9a06" stroke="#275000" stroke-width=".771"/><g transform="scale(1.66798 1.66837) rotate(-45 -1.047 53.374)" color="#000" stroke-linecap="round" stroke-dashoffset="1.4"><path d="M32.5 24.188a6.988 6.988 0 00-4 6.312 6.988 6.988 0 004 6.313V55.35h6.031V36.812A7.001 7.001 0 0042.5 30.5c0-2.78-1.62-5.183-3.969-6.313V30.5l-3.015 1-3.016-1v-6.313z" style="marker:none" fill="url(#aI)" stroke="url(#aJ)" stroke-linejoin="round" overflow="visible"/><path d="M31.5 26.344c-1.14 1.088-2 2.448-2 4.156 0 2.4 1.409 4.44 3.438 5.406.347.168.566.52.562.907v18.93h4.031v-18.93a.994.994 0 01.563-.907A5.986 5.986 0 0041.5 30.5c0-1.698-.843-3.066-1.969-4.156V30.5a.994.994 0 01-.687.938l-3.032 1a.994.994 0 01-.624 0l-3-1a.994.994 0 01-.688-.938v-4.156z" style="marker:none" fill="none" stroke="url(#aK)" overflow="visible"/><rect ry="1" rx="1" y="37.5" x="34.5" height="15" width="2" style="marker:none" opacity=".4" fill="none" stroke="url(#aL)" overflow="visible"/></g></svg>