<svg xmlns="http://www.w3.org/2000/svg" xmlns:xlink="http://www.w3.org/1999/xlink" width="48" height="48"><defs><linearGradient id="a"><stop offset="0"/><stop offset="1" stop-opacity="0"/></linearGradient><linearGradient id="b"><stop offset="0" stop-color="#59a40f"/><stop offset="1" stop-color="#306102"/></linearGradient><linearGradient id="c"><stop offset="0" stop-color="#fff"/><stop offset="1" stop-color="#fff" stop-opacity="0"/></linearGradient><linearGradient id="d"><stop offset="0" stop-color="#e67352"/><stop offset="1" stop-color="#da4b1b"/></linearGradient><linearGradient id="e"><stop offset="0" stop-color="#fff"/><stop offset="1" stop-color="#fff" stop-opacity="0"/></linearGradient><radialGradient xlink:href="#a" id="g" gradientUnits="userSpaceOnUse" gradientTransform="matrix(1.15623 .05007 -.03238 .7369 5.71 995.06)" cx="15.116" cy="63.965" fx="13.292" fy="60.044" r="12.289"/><radialGradient r="12.289" fy="63.965" fx="15.116" cy="63.965" cx="15.116" gradientTransform="matrix(1.13465 .04914 -.03238 .7369 2.406 994.13)" gradientUnits="userSpaceOnUse" id="f" xlink:href="#a"/><radialGradient xlink:href="#e" id="i" gradientUnits="userSpaceOnUse" gradientTransform="matrix(.68507 .47409 -.24825 .36395 33.494 13.482)" cx="25.346" cy="30.31" fx="22.506" fy="25.064" r="12.011"/><radialGradient xlink:href="#d" id="h" gradientUnits="userSpaceOnUse" gradientTransform="matrix(.98176 -.01192 .01113 .96706 17.487 7.818)" cx="33.921" cy="32.026" fx="33.921" fy="32.026" r="12.011"/></defs><path d="M31.43 1042.614c-.22 5.002-6.64 8.787-14.343 8.454-7.702-.334-13.767-4.66-13.545-9.662.218-5.002 6.64-8.787 14.341-8.453 7.702.333 13.767 4.659 13.546 9.661z" fill="url(#f)" transform="translate(0 -1004.362)"/><path d="M35.326 1043.568c-.219 5.002-6.759 8.782-14.607 8.442-7.849-.34-14.033-4.67-13.811-9.673.218-5.002 6.758-8.782 14.607-8.442 7.848.34 14.032 4.671 13.81 9.673z" fill="url(#g)" transform="translate(0 -1004.362)"/><g stroke="#da4b1b"><path d="M57.54 43.438c-2.283 5.57-8.17 10.165-13.74 7.887-5.96-.837-8.722-7.769-7.88-13.727.946-6.693 6.339-9.114 13.546-7.167 7.206 1.947 10.64 6.752 8.075 13.007z" fill="url(#h)" stroke-width=".897" transform="matrix(1.49125 0 0 1.49125 -49.136 -33.854)"/><path d="M57.637 43.33c-2.281 5.576-8.162 10.178-13.726 7.898-5.954-.838-8.712-7.777-7.87-13.742.945-6.7 6.332-9.124 13.531-7.176 7.199 1.948 10.628 6.758 8.065 13.02z" opacity=".66" fill="url(#i)" stroke-width=".897" transform="matrix(1.49125 0 0 1.49125 -49.136 -33.854)"/><path d="M17.537 11.659c-4.153.032-7.897 1.735-9.913 5.362C3.9 23.72 6.214 32.652 9.07 36.56c3.411 4.675 6.473 4.426 8.197 4.955 5.792 2.185 12.026-.938 16.153-6.935 6.905-10.03 3.141-17.135-5.14-20.77-3.31-1.454-7.022-2.18-10.744-2.15z" fill="none" stroke-width="1.35554625"/><path d="M19.417 15.774c-.997 4.44 6.2 7.276 8.316 3.05" fill="none" stroke-width="1.33765125"/></g><path d="M38.31 1.573c-.242-.016-.518-.037-.795-.032-4.953 5.884-10.589 11.126-16.251 16.342.426.91 1.247 1.083 2.352 1.13l6.536-6.543c3.163-2.87 6.022-5.14 7.279-6.921a28.768 28.768 0 012.506-3.03c-.36-.662-.903-.882-1.627-.945h0z" fill="#4e9a06" stroke="#275000" stroke-width=".771"/></svg>