<svg viewBox="0 0 489.31 494.24" xmlns="http://www.w3.org/2000/svg" ><defs><radialGradient id="d" cx="15.116" cy="63.965" r="12.289" gradientTransform="matrix(1.1346 .04914 -.03238 .73691 2.406 994.13)" gradientUnits="userSpaceOnUse" xlink:href="#a"/><radialGradient id="e" cx="15.116" cy="63.965" r="12.289" fx="13.292" fy="60.044" gradientTransform="matrix(1.1562 .05007 -.03238 .73691 5.71 995.06)" gradientUnits="userSpaceOnUse" xlink:href="#a"/><radialGradient id="g" cx="25.346" cy="30.31" r="12.011" fx="22.506" fy="25.064" gradientTransform="matrix(.78931 .49308 -.25971 .41573 13.533 6.768)" gradientUnits="userSpaceOnUse"><stop stop-color="#fff" offset="0"/><stop stop-color="#fff" stop-opacity="0" offset="1"/></radialGradient><radialGradient id="f" cx="33.921" cy="32.026" r="12.011" gradientTransform="matrix(1.0972 -.0604 .05996 1.0724 -4.515 1.14)" gradientUnits="userSpaceOnUse" xlink:href="#b"/><radialGradient id="j" cx="25.346" cy="30.31" r="12.011" fx="22.506" fy="25.064" gradientTransform="matrix(.78931 .49308 -.25971 .41573 7.088 40.768)" gradientUnits="userSpaceOnUse"><stop stop-color="#fff" offset="0"/><stop stop-color="#fff" stop-opacity="0" offset="1"/></radialGradient><radialGradient id="i" cx="33.921" cy="32.026" r="12.011" gradientTransform="matrix(1.0972 -.0604 .05996 1.0724 -10.98 34.702)" gradientUnits="userSpaceOnUse" xlink:href="#c"/><linearGradient id="a"><stop offset="0"/><stop stop-opacity="0" offset="1"/></linearGradient><linearGradient id="h" x1="42.551" x2="22.734" y1="46.026" y2="23.323" gradientTransform="translate(.284 1.58)" gradientUnits="userSpaceOnUse" xlink:href="#b"/><linearGradient id="b"><stop stop-color="#d50f0f" offset="0"/><stop stop-color="#860000" offset="1"/></linearGradient><linearGradient id="k" x1="42.551" x2="22.734" y1="46.026" y2="23.323" gradientTransform="translate(-6.171 35.361)" gradientUnits="userSpaceOnUse" xlink:href="#c"/><linearGradient id="c"><stop stop-color="#59a40f" offset="0"/><stop stop-color="#306102" offset="1"/></linearGradient></defs><path d="M31.429 1042.6c-.218 5.002-6.64 8.787-14.342 8.454-7.702-.334-13.767-4.66-13.546-9.662.218-5.002 6.64-8.787 14.342-8.454 7.702.334 13.767 4.66 13.546 9.662z" fill="url(#d)" transform="matrix(5.0414 0 0 4.3772 43.08 -4393.8)"/><path d="M35.326 1043.6c-.218 5.002-6.758 8.782-14.607 8.442-7.848-.34-14.032-4.67-13.811-9.673.218-5.002 6.758-8.782 14.607-8.442 7.848.34 14.032 4.671 13.811 9.673z" fill="url(#e)" transform="matrix(5.0414 0 0 4.3772 43.08 -4393.8)"/><path d="M42.021 38.735c-2.28 6.289-8.636 11.671-14.976 9.411-6.706-.642-10.134-8.2-9.485-14.852.729-7.47 6.64-10.416 14.793-8.602 8.154 1.813 12.229 6.98 9.668 14.043z" fill="url(#f)" stroke="#520000" transform="matrix(6.47669 .24353 -.2868 5.66716 -34.17 -82.52)"/><path d="M41.995 38.724c-2.277 6.296-8.627 11.684-14.96 9.422-6.699-.643-10.123-8.21-9.475-14.868.728-7.48 6.632-10.428 14.778-8.612 8.145 1.815 12.216 6.987 9.658 14.059z" fill="url(#g)" opacity=".66" stroke="#520000" transform="matrix(6.47669 .24353 -.2868 5.66716 -34.17 -82.52)"/><path d="M26.86 25.277c-3.072.156-5.788 1.526-7.162 4.253-2.536 5.036-.534 11.52 1.706 14.299 2.677 3.324 4.935 3.044 6.227 3.377 4.358 1.421 8.869-1.07 11.728-5.605 4.784-7.584 1.767-12.682-4.479-15.088-2.496-.961-5.266-1.376-8.02-1.236z" fill="none" stroke="url(#h)" transform="matrix(6.47669 .24353 -.2868 5.66716 -34.17 -82.52)"/><path d="M28.224 26.012c-.601 3.336 4.888 5.213 6.335 2" fill="none" stroke="#520000" transform="matrix(6.47669 .24353 -.2868 5.66716 -34.17 -82.52)"/><path d="M38.31 1005.9c-.242-.016-.518-.037-.795-.032-4.953 5.883-10.589 11.126-16.25 16.342.425.91 1.247 1.083 2.352 1.13l6.536-6.543c3.162-2.87 6.022-5.14 7.278-6.921a28.77 28.77 0 012.507-3.03c-.36-.662-.903-.882-1.628-.946h0z" fill="#4e9a06" stroke="#275000" stroke-width=".771" transform="matrix(5.0414 0 0 4.3772 43.08 -4393.8)"/><g><path d="M31.429 1042.6c-.218 5.002-6.64 8.787-14.342 8.454-7.702-.334-13.767-4.66-13.546-9.662.218-5.002 6.64-8.787 14.342-8.454 7.702.334 13.767 4.66 13.546 9.662z" fill="url(#d)" transform="matrix(4.9841 0 0 4.4672 219.54 -4370.4)"/><path d="M35.326 1043.6c-.218 5.002-6.758 8.782-14.607 8.442-7.848-.34-14.032-4.67-13.811-9.673.218-5.002 6.758-8.782 14.607-8.442 7.848.34 14.032 4.671 13.811 9.673z" fill="url(#e)" transform="matrix(4.9841 0 0 4.4672 219.54 -4370.4)"/><path d="M35.557 72.297c-2.28 6.289-8.636 11.671-14.976 9.411-6.706-.642-10.134-8.2-9.485-14.852.729-7.47 6.64-10.416 14.793-8.602 8.154 1.813 12.229 6.98 9.668 14.043z" fill="url(#i)" stroke="#00520e" transform="matrix(6.43447 .24977 -.28494 5.81227 190.003 -169.088)"/><path d="M35.55 72.724c-2.277 6.296-8.627 11.684-14.96 9.422-6.699-.643-10.123-8.21-9.475-14.868.728-7.48 6.632-10.428 14.778-8.612 8.145 1.815 12.216 6.987 9.658 14.059z" fill="url(#j)" opacity=".66" stroke="#00520e" transform="matrix(6.43447 .24977 -.28494 5.81227 190.003 -169.088)"/><path d="M20.405 59.058c-3.072.156-5.788 1.526-7.162 4.253-2.536 5.036-.534 11.52 1.706 14.299 2.677 3.324 4.935 3.044 6.228 3.377 4.357 1.421 8.868-1.07 11.728-5.605 4.783-7.584 1.766-12.682-4.48-15.088-2.496-.961-5.266-1.376-8.02-1.236z" fill="none" stroke="url(#k)" transform="matrix(6.43447 .24977 -.28494 5.81227 190.003 -169.088)"/><path d="M22.399 60.612c-.601 3.336 4.888 5.213 6.335 2" fill="none" stroke="#00520e" transform="matrix(6.43447 .24977 -.28494 5.81227 190.003 -169.088)"/><path d="M38.31 1005.9c-.242-.016-.518-.037-.795-.032-4.953 5.883-10.589 11.126-16.25 16.342.425.91 1.247 1.083 2.352 1.13l6.536-6.543c3.162-2.87 6.022-5.14 7.278-6.921a28.77 28.77 0 012.507-3.03c-.36-.662-.903-.882-1.628-.946h0z" fill="#4e9a06" stroke="#275000" stroke-width=".771" transform="matrix(4.9841 0 0 4.4672 219.54 -4370.4)"/></g><g><path d="M31.429 1042.6c-.218 5.002-6.64 8.787-14.342 8.454-7.702-.334-13.767-4.66-13.546-9.662.218-5.002 6.64-8.787 14.342-8.454 7.702.334 13.767 4.66 13.546 9.662z" fill="url(#d)" transform="matrix(5.0414 0 0 4.3772 220.88 -4122.3)"/><path d="M35.326 1043.6c-.218 5.002-6.758 8.782-14.607 8.442-7.848-.34-14.032-4.67-13.811-9.673.218-5.002 6.758-8.782 14.607-8.442 7.848.34 14.032 4.671 13.811 9.673z" fill="url(#e)" transform="matrix(5.0414 0 0 4.3772 220.88 -4122.3)"/><path d="M42.021 38.735c-2.28 6.289-8.636 11.671-14.976 9.411-6.706-.642-10.134-8.2-9.485-14.852.729-7.47 6.64-10.416 14.793-8.602 8.154 1.813 12.229 6.98 9.668 14.043z" fill="url(#f)" stroke="#520000" transform="matrix(6.47669 .24353 -.2868 5.66716 143.63 188.98)"/><path d="M41.995 38.724c-2.277 6.296-8.627 11.684-14.96 9.422-6.699-.643-10.123-8.21-9.475-14.868.728-7.48 6.632-10.428 14.778-8.612 8.145 1.815 12.216 6.987 9.658 14.059z" fill="url(#g)" opacity=".66" stroke="#520000" transform="matrix(6.47669 .24353 -.2868 5.66716 143.63 188.98)"/><path d="M26.86 25.277c-3.072.156-5.788 1.526-7.162 4.253-2.536 5.036-.534 11.52 1.706 14.299 2.677 3.324 4.935 3.044 6.227 3.377 4.358 1.421 8.869-1.07 11.728-5.605 4.784-7.584 1.767-12.682-4.479-15.088-2.496-.961-5.266-1.376-8.02-1.236z" fill="none" stroke="url(#h)" transform="matrix(6.47669 .24353 -.2868 5.66716 143.63 188.98)"/><path d="M28.224 26.012c-.601 3.336 4.888 5.213 6.335 2" fill="none" stroke="#520000" transform="matrix(6.47669 .24353 -.2868 5.66716 143.63 188.98)"/><path d="M38.31 1005.9c-.242-.016-.518-.037-.795-.032-4.953 5.883-10.589 11.126-16.25 16.342.425.91 1.247 1.083 2.352 1.13l6.536-6.543c3.162-2.87 6.022-5.14 7.278-6.921a28.77 28.77 0 012.507-3.03c-.36-.662-.903-.882-1.628-.946h0z" fill="#4e9a06" stroke="#275000" stroke-width=".771" transform="matrix(5.0414 0 0 4.3772 220.88 -4122.3)"/></g></svg>