<svg xmlns="http://www.w3.org/2000/svg"  version="1.0" width="48" height="48"><defs><radialGradient cx="33.921" cy="32.026" r="12.011" fx="33.921" fy="32.026" id="l" xlink:href="#a" gradientUnits="userSpaceOnUse" gradientTransform="matrix(1.09718 -.0604 .05996 1.07242 -4.799 -.44)"/><radialGradient cx="25.346" cy="30.31" r="12.011" fx="22.506" fy="25.064" id="m" xlink:href="#b" gradientUnits="userSpaceOnUse" gradientTransform="matrix(.7893 .49308 -.2597 .41573 13.25 5.189)"/><radialGradient cx="41.247" cy="11.365" r="4.918" fx="41.772" fy="11.681" id="p" xlink:href="#c" gradientUnits="userSpaceOnUse" gradientTransform="matrix(.36505 -.56094 1.44215 .93854 10.519 23.383)"/><radialGradient cx="15.116" cy="63.965" r="12.289" fx="13.292" fy="60.044" id="g" xlink:href="#d" gradientUnits="userSpaceOnUse" gradientTransform="matrix(1.1014 .0477 -.03084 .70196 15.085 -6.77)"/><radialGradient cx="15.116" cy="63.965" r="12.289" fx="15.116" fy="63.965" id="f" xlink:href="#d" gradientUnits="userSpaceOnUse" gradientTransform="matrix(1.08085 .04681 -.03084 .70196 .423 -14.35)"/><radialGradient cx="23.261" cy="33.479" r="11.057" fx="23.261" fy="33.479" id="k" xlink:href="#e" gradientUnits="userSpaceOnUse" gradientTransform="matrix(1.09454 .00512 -.00497 .94337 -.772 -1.48)"/><radialGradient cx="9.796" cy="24.748" r="11.057" fx="9.623" fy="19.022" id="i" xlink:href="#b" gradientUnits="userSpaceOnUse" gradientTransform="matrix(.60566 .55109 -.31326 .34954 13.582 6.089)"/><radialGradient cx="16.357" cy="27.468" r="11.057" fx="16.357" fy="27.468" id="h" xlink:href="#a" gradientUnits="userSpaceOnUse" gradientTransform="matrix(1.02496 .00839 -.00872 .9898 1.275 -3.434)"/><radialGradient cx="29.496" cy="-3.597" r="9.75" fx="29.496" fy="-3.597" id="o" xlink:href="#c" gradientUnits="userSpaceOnUse" gradientTransform="matrix(-.79883 .07668 -.032 -.33344 53.947 1.611)"/><linearGradient id="c"><stop offset="0" stop-color="#59a40f"/><stop offset="1" stop-color="#306102"/></linearGradient><linearGradient id="b"><stop offset="0" stop-color="#fff"/><stop offset="1" stop-color="#fff" stop-opacity="0"/></linearGradient><linearGradient id="e"><stop offset="0"/><stop offset="1" stop-opacity="0"/></linearGradient><linearGradient id="a"><stop offset="0" stop-color="#d50f0f"/><stop offset="1" stop-color="#860000"/></linearGradient><linearGradient id="d"><stop offset="0"/><stop offset="1" stop-opacity="0"/></linearGradient><linearGradient x1="42.551" y1="46.026" x2="22.734" y2="23.323" id="n" xlink:href="#a" gradientUnits="userSpaceOnUse"/><linearGradient x1="25.128" y1="38.802" x2="7.213" y2="18.548" id="j" xlink:href="#a" gradientUnits="userSpaceOnUse" gradientTransform="matrix(.94565 .04095 -.04171 .94937 3.271 -2.809)"/></defs><path d="M28.07 31.834c-.207 4.765-6.324 8.37-13.661 8.053-7.337-.318-13.114-4.439-12.903-9.204.207-4.765 6.324-8.37 13.661-8.053 7.337.318 13.114 4.439 12.904 9.204z" fill="url(#f)"/><path d="M43.296 39.44c-.208 4.765-6.438 8.365-13.915 8.042-7.476-.324-13.366-4.45-13.156-9.215.208-4.765 6.438-8.366 13.915-8.042 7.476.324 13.367 4.45 13.156 9.215z" fill="url(#g)"/><path d="M23.836 30.313c-3.51 4.432-10.086 7.114-14.631 3.714-5.27-2.203-6.055-9.086-3.773-14.219 2.564-5.764 8.135-6.618 14.27-3.116 6.134 3.502 8.075 8.643 4.134 13.621z" fill="url(#h)" stroke="#520000"/><path d="M23.836 30.313c-3.51 4.432-10.086 7.114-14.631 3.714-5.27-2.203-6.055-9.086-3.773-14.219 2.564-5.764 8.135-6.618 14.27-3.116 6.134 3.502 8.075 8.643 4.134 13.621z" opacity=".66" fill="url(#i)" stroke="#520000"/><path d="M12.678 15.596c-4.296.128-6.404 3.738-7.133 6.981-1.058 4.704.464 9.229 4.227 10.624 3.364 2.686 8.691 1.057 11.903-2.018 3.106-2.974 4.225-6.053 2.266-9.345-1.656-2.908-6.897-6.262-11.263-6.242z" fill="none" stroke="url(#j)"/><path d="M15.81 16.255c-.41 2.183 2.73 4.455 5.521 3.06" fill="none" stroke="#520000"/><path d="M24.555 30.152c-4.224 5.64-11.132 7.647-15.678 4.248-5.27-2.204-5.727-9.46-3.445-14.592 2.564-5.764 8.373-7.016 14.53-3.555 6.465 3.625 8.163 9.154 4.593 13.899z" fill="url(#k)"/><g><path d="M41.738 37.156c-2.28 6.289-8.637 11.67-14.977 9.41-6.706-.641-10.134-8.2-9.485-14.851.729-7.471 6.64-10.416 14.793-8.603 8.154 1.814 12.229 6.98 9.669 14.044z" fill="url(#l)" stroke="#520000" transform="matrix(.92007 .03985 -.04074 .92726 3.8 -2.293)"/><path d="M41.711 37.145c-2.277 6.296-8.627 11.684-14.96 9.421-6.7-.642-10.123-8.21-9.475-14.868.728-7.48 6.632-10.428 14.777-8.612 8.145 1.816 12.216 6.987 9.658 14.059z" opacity=".66" fill="url(#m)" stroke="#520000" transform="matrix(.92007 .03985 -.04074 .92726 3.8 -2.293)"/><path d="M26.576 23.697c-3.072.156-5.787 1.526-7.161 4.253-2.537 5.036-.535 11.522 1.706 14.3 2.677 3.323 4.934 3.043 6.227 3.377 4.357 1.42 8.868-1.072 11.727-5.605 4.784-7.585 1.767-12.682-4.479-15.088-2.496-.962-5.266-1.376-8.02-1.237z" fill="none" stroke="url(#n)" transform="matrix(.92007 .03985 -.04074 .92726 3.8 -2.293)"/><path d="M27.84 23.747c-.6 3.336 4.889 5.213 6.336 2" fill="none" stroke="#520000" transform="matrix(.92007 .03985 -.04074 .92726 3.8 -2.293)"/></g><g><path d="M24.613 3.422c4.38-2.747 13.961.236 13.961.236s-7.194 6.715-10.797 5.984c-3.083-.63-11.581-5.233-11.581-5.233s4.59 1.403 8.417-.987z" fill="url(#o)" stroke="#2d5a00" transform="matrix(.92007 .03985 -.04663 1.06115 3.813 -2.573)"/><path d="M20.414 5.558c3.252 1.651 6.39 2.92 6.97 3.112 2.692.892 7.756-3.333 9.324-4.625-2.066-.512-8.082-1.651-11.075-.16-1.05.523-3.02 1.552-5.22 1.673z" fill="none" stroke="#59aa0a" stroke-miterlimit="9" transform="matrix(.92007 .03985 -.04663 1.06115 3.813 -2.573)"/></g><path d="M39.493 2.287l-1.664 1.148C20.797 9.195 19.073 17.52 16.79 17.462c.574 1.14 1.701 1.363 3.205 1.462-1.85-2.01 5.446-9.717 16.533-13.84-4.263 6.055-5.303 17.437-6.801 17.56 1.201.812 1.917 1.134 3.176.486-1.201-1.32.916-12.05 4.912-18.075l2.724-1.648-1.045-1.12z" fill="#4e9a06" stroke="#275000"/><g><path d="M39.15 3.43c-.23 1.172-.737 2.146 5.652 5.621 2.957 1.608.965 5.096.41 9.718-5.077-4.748-10.408-10.07-6.061-15.34z" fill="url(#p)" stroke="#2d5a00" transform="matrix(.92007 .03985 -.04079 .92824 3.803 -2.34)"/><path d="M38.776 5.96c-.125.25-.788 2.06.715 4.79.988 1.946 3.284 4.337 5.05 6.02.726-3.732 1.518-5.79-.051-6.75-.667-.408-2.44-1.33-3.675-2.197-1.65-1.159-2.04-1.862-2.04-1.862z" fill="none" stroke="#59aa0a" transform="matrix(.92007 .03985 -.04079 .92824 3.803 -2.34)"/></g></svg>