<svg xmlns="http://www.w3.org/2000/svg" xmlns:xlink="http://www.w3.org/1999/xlink" width="48" height="48"><defs><linearGradient id="a"><stop offset="0" stop-color="#d50f0f"/><stop offset="1" stop-color="#860000"/></linearGradient><linearGradient id="b"><stop offset="0" stop-color="#fff"/><stop offset="1" stop-color="#fff" stop-opacity="0"/></linearGradient><linearGradient id="c"><stop offset="0"/><stop offset="1" stop-opacity="0"/></linearGradient><linearGradient id="d"><stop offset="0" stop-color="#59a40f"/><stop offset="1" stop-color="#306102"/></linearGradient><linearGradient id="e"><stop offset="0" stop-color="#fff"/><stop offset="1" stop-color="#fff" stop-opacity="0"/></linearGradient><linearGradient xlink:href="#d" id="j" gradientUnits="userSpaceOnUse" gradientTransform="translate(-6.171 35.36)" x1="42.551" y1="46.026" x2="22.734" y2="23.323"/><radialGradient xlink:href="#c" id="g" gradientUnits="userSpaceOnUse" gradientTransform="matrix(1.15623 .05007 -.03238 .7369 5.71 995.06)" cx="15.116" cy="63.965" fx="13.292" fy="60.044" r="12.289"/><radialGradient r="12.289" fy="63.965" fx="15.116" cy="63.965" cx="15.116" gradientTransform="matrix(1.13465 .04914 -.03238 .7369 2.406 994.13)" gradientUnits="userSpaceOnUse" id="f" xlink:href="#c"/><radialGradient xlink:href="#d" id="h" gradientUnits="userSpaceOnUse" gradientTransform="matrix(1.09718 -.0604 .05996 1.07242 -10.98 34.702)" cx="33.921" cy="32.026" fx="33.921" fy="32.026" r="12.011"/><radialGradient xlink:href="#e" id="i" gradientUnits="userSpaceOnUse" gradientTransform="matrix(.7893 .49308 -.2597 .41573 7.088 40.768)" cx="25.346" cy="30.31" fx="22.506" fy="25.064" r="12.011"/></defs><path d="M31.43 1042.614c-.22 5.002-6.64 8.787-14.343 8.454-7.702-.334-13.767-4.66-13.545-9.662.218-5.002 6.64-8.787 14.341-8.453 7.702.333 13.767 4.659 13.546 9.661z" fill="url(#f)" transform="translate(0 -1004.362)"/><path d="M35.326 1043.568c-.219 5.002-6.759 8.782-14.607 8.442-7.849-.34-14.033-4.67-13.811-9.673.218-5.002 6.758-8.782 14.607-8.442 7.848.34 14.032 4.671 13.81 9.673z" fill="url(#g)" transform="translate(0 -1004.362)"/><path d="M35.557 72.297c-2.28 6.29-8.637 11.671-14.977 9.412-6.706-.643-10.134-8.201-9.485-14.853.729-7.47 6.64-10.416 14.793-8.602 8.154 1.814 12.23 6.98 9.669 14.043z" fill="url(#h)" stroke="#00520e" transform="matrix(1.29101 .05591 -.05717 1.3011 -5.926 -63.882)"/><path d="M35.55 72.724c-2.278 6.296-8.627 11.684-14.96 9.422-6.7-.643-10.124-8.21-9.476-14.869.728-7.479 6.633-10.427 14.778-8.612 8.145 1.816 12.215 6.988 9.658 14.06z" opacity=".66" fill="url(#i)" stroke="#00520e" transform="matrix(1.29101 .05591 -.05717 1.3011 -5.926 -63.882)"/><path d="M20.405 59.058c-3.072.156-5.788 1.525-7.161 4.253-2.537 5.036-.535 11.521 1.706 14.299 2.676 3.324 4.934 3.044 6.227 3.377 4.357 1.42 8.868-1.071 11.727-5.605 4.784-7.584 1.767-12.681-4.479-15.087-2.496-.962-5.267-1.377-8.02-1.237z" fill="none" stroke="url(#j)" transform="matrix(1.29101 .05591 -.05717 1.3011 -5.926 -63.882)"/><path d="M22.4 60.612c-.602 3.336 4.888 5.213 6.335 2" fill="none" stroke="#00520e" transform="matrix(1.29101 .05591 -.05717 1.3011 -5.926 -63.882)"/><path d="M38.31 1.573c-.242-.016-.518-.037-.795-.032-4.953 5.884-10.589 11.126-16.251 16.342.426.91 1.247 1.083 2.352 1.13l6.536-6.543c3.163-2.87 6.022-5.14 7.279-6.921a28.768 28.768 0 012.506-3.03c-.36-.662-.903-.882-1.627-.945h0z" fill="#4e9a06" stroke="#275000" stroke-width=".771"/></svg>