<svg xmlns="http://www.w3.org/2000/svg" xmlns:xlink="http://www.w3.org/1999/xlink" width="48" height="48" version="1.0"><defs><linearGradient id="a"><stop offset="0" stop-color="#f57900"/><stop offset="1" stop-color="#833a00"/></linearGradient><linearGradient xlink:href="#a" id="f" gradientUnits="userSpaceOnUse" x1="6.294" y1="4.769" x2="8.533" y2="16.167"/><linearGradient id="b"><stop offset="0" stop-color="#fff"/><stop offset="1" stop-color="#fff" stop-opacity="0"/></linearGradient><linearGradient xlink:href="#b" id="h" gradientUnits="userSpaceOnUse" x1="-.615" y1="-3.835" x2="27.721" y2="26.762"/><linearGradient id="c"><stop offset="0" stop-color="#fff"/><stop offset="1" stop-color="#fff" stop-opacity="0"/></linearGradient><linearGradient xlink:href="#c" id="g" gradientUnits="userSpaceOnUse" x1="-.615" y1="1.038" x2="9.871" y2="8"/><linearGradient id="d"><stop offset="0" stop-color="#fff"/><stop offset="1" stop-color="#fff" stop-opacity="0"/></linearGradient><radialGradient xlink:href="#d" id="i" gradientUnits="userSpaceOnUse" gradientTransform="matrix(1.02344 0 0 .88709 -.271 .706)" cx="11.736" cy="7.369" fx="11.801" fy="1.173" r="9.975"/><filter id="e" x="-.129" width="1.259" y="-.296" height="1.591"><feGaussianBlur stdDeviation=".863"/></filter></defs><path d="M52 144.5c0 1.932-3.584 3.5-8 3.5s-8-1.568-8-3.5 3.584-3.5 8-3.5 8 1.568 8 3.5z" transform="matrix(2.1 0 0 2.09981 -67.913 -266.223)" opacity=".75" fill="#2e3436" fill-rule="evenodd" filter="url(#e)" enable-background="new"/><path style="marker:none" d="M16 8A8 8 0 110 8a8 8 0 1116 0z" transform="translate(2.51 1.5) scale(2.625)" fill="#edd400" stroke="url(#f)" stroke-width=".381" stroke-linecap="square" overflow="visible" enable-background="accumulate"/><path style="marker:none" d="M16 8A8 8 0 110 8a8 8 0 1116 0z" transform="matrix(2.5 0 0 2.49972 3.51 2.504)" fill="url(#g)" stroke="url(#h)" stroke-width=".4" stroke-linecap="square" overflow="visible" enable-background="accumulate"/><path transform="matrix(1.69285 -.97737 .97737 1.69285 -7.21 15.446)" d="M21.781 10.983a9.975 9.975 0 11-19.95 0 9.975 9.975 0 1119.95 0z" fill="url(#i)" enable-background="new"/></svg>