<svg xmlns="http://www.w3.org/2000/svg" xmlns:xlink="http://www.w3.org/1999/xlink" width="48" height="48" version="1.0"><defs><linearGradient id="b"><stop offset="0" stop-color="#459000"/><stop offset="1" stop-color="#204300"/></linearGradient><linearGradient id="d"><stop offset="0" stop-color="#fff"/><stop offset="1" stop-color="#fff" stop-opacity="0"/></linearGradient><linearGradient id="a"><stop offset="0" stop-color="#73d216"/><stop offset="1" stop-color="#5ca911"/></linearGradient><linearGradient id="c"><stop offset="0" stop-color="#eeeeec"/><stop offset="1" stop-color="#eeeeec" stop-opacity="0"/></linearGradient><linearGradient xlink:href="#a" id="f" gradientUnits="userSpaceOnUse" gradientTransform="matrix(1.50723 0 0 1.5071 -3.527 -3.982)" x1="6.878" y1="11.789" x2="12.233" y2="27.778"/><linearGradient xlink:href="#b" id="g" gradientUnits="userSpaceOnUse" gradientTransform="matrix(1.50723 0 0 1.5071 -3.527 -3.982)" x1="15.893" y1="15.214" x2="26.534" y2="28.579"/><linearGradient xlink:href="#c" id="h" gradientUnits="userSpaceOnUse" gradientTransform="matrix(1.43546 0 0 1.43546 -2.243 -2.721)" x1="11.128" y1="10.823" x2="30.341" y2="31.325"/><radialGradient xlink:href="#d" id="i" gradientUnits="userSpaceOnUse" gradientTransform="matrix(1.02344 0 0 .88709 -.271 .706)" cx="11.736" cy="7.369" fx="11.801" fy="1.173" r="9.975"/><filter id="e" x="-.129" width="1.259" y="-.296" height="1.591"><feGaussianBlur stdDeviation=".863"/></filter></defs><path d="M52 144.5c0 1.932-3.584 3.5-8 3.5s-8-1.568-8-3.5 3.584-3.5 8-3.5 8 1.568 8 3.5z" transform="matrix(2.1 0 0 2.09981 -67.912 -266.223)" opacity=".75" fill="#2e3436" fill-rule="evenodd" filter="url(#e)" enable-background="new"/><path d="M44.437 22.502c0 11.59-9.408 20.998-21 20.998s-21-9.407-21-20.998c0-11.591 9.408-20.998 21-20.998s21 9.407 21 20.998z" fill="url(#f)" fill-rule="evenodd" stroke="url(#g)" enable-background="new"/><path d="M43.438 22.504c0 11.04-8.96 20-20 20s-20-8.96-20-20 8.96-20 20-20 20 8.96 20 20z" opacity=".6" fill="url(#h)" fill-rule="evenodd" stroke="#fff" enable-background="new"/><path transform="scale(1.95483) rotate(-30 12.896 10.845)" d="M21.781 10.983a9.975 9.975 0 11-19.95 0 9.975 9.975 0 1119.95 0z" fill="url(#i)" enable-background="new"/></svg>