<svg xmlns="http://www.w3.org/2000/svg" xmlns:xlink="http://www.w3.org/1999/xlink" width="48" height="48" version="1.0"><defs><linearGradient id="a"><stop offset="0" stop-color="#2e3436"/><stop offset="1" stop-color="#61635f"/></linearGradient><linearGradient xlink:href="#a" id="h" gradientUnits="userSpaceOnUse" gradientTransform="matrix(2.79814 0 0 2.79814 1.115 .115)" x1="14.346" y1="14.694" x2="6.81" y2="4.345"/><linearGradient id="b"><stop offset="0" stop-color="#babdb6"/><stop offset="1" stop-color="#888a85"/></linearGradient><linearGradient xlink:href="#b" id="g" gradientUnits="userSpaceOnUse" gradientTransform="matrix(2.79814 0 0 2.79814 1.115 .115)" x1="4.837" y1="3.566" x2="12.06" y2="13.822"/><linearGradient id="c"><stop offset="0" stop-color="#fff"/><stop offset="1" stop-color="#fff" stop-opacity="0"/></linearGradient><linearGradient xlink:href="#c" id="i" gradientUnits="userSpaceOnUse" gradientTransform="matrix(-3.0771 0 0 -3.07701 48.117 47.115)" x1="6.849" y1="8.68" x2="-3.385" y2="-4.135"/><linearGradient id="d"><stop offset="0" stop-color="#fff"/><stop offset="1" stop-color="#fff" stop-opacity="0"/></linearGradient><filter id="e" x="-.129" width="1.259" y="-.296" height="1.591"><feGaussianBlur stdDeviation=".863"/></filter><filter id="f" x="-.294" width="1.588" y="-.247" height="1.493"><feGaussianBlur stdDeviation=".433"/></filter><radialGradient xlink:href="#d" id="j" gradientUnits="userSpaceOnUse" gradientTransform="matrix(1.02344 0 0 .88709 -.271 .706)" cx="11.736" cy="7.369" fx="11.801" fy="1.173" r="9.975"/></defs><path d="M52 144.5c0 1.932-3.584 3.5-8 3.5s-8-1.568-8-3.5 3.584-3.5 8-3.5 8 1.568 8 3.5z" transform="matrix(2.1 0 0 2.09981 -67.912 -266.223)" opacity=".75" fill="#2e3436" fill-rule="evenodd" filter="url(#e)" enable-background="new"/><path d="M13.35 4.747a1.866 1.943 0 11-3.732 0 1.866 1.943 0 113.732 0z" transform="matrix(6.16435 -3.58942 2.64537 4.6211 -64.045 36.188)" opacity=".2" fill="#fff" filter="url(#f)" enable-background="new"/><path d="M38.35 37.35c-8.199 8.199-21.506 8.2-29.703.003S.45 15.849 8.65 7.65c8.199-8.199 21.506-8.2 29.703-.003s8.196 21.504-.003 29.703z" fill="url(#g)" stroke="url(#h)" enable-background="new"/><path d="M23.5 42.5c5.13 0 10.231-1.962 14.135-5.866 7.82-7.82 7.819-20.451 0-28.27-7.818-7.818-20.45-7.82-28.27 0s-7.819 20.452 0 28.27A19.915 19.915 0 0023.5 42.5z" opacity=".4" fill="none" stroke="url(#i)" enable-background="new"/><path transform="scale(1.95483) rotate(-30 12.896 10.845)" d="M21.781 10.983a9.975 9.975 0 11-19.95 0 9.975 9.975 0 1119.95 0z" fill="url(#j)" enable-background="new"/></svg>