<svg xmlns="http://www.w3.org/2000/svg" xmlns:xlink="http://www.w3.org/1999/xlink" width="48" height="48" version="1.0"><defs><linearGradient id="a"><stop offset="0" stop-color="#c00"/><stop offset="1" stop-color="#7b0000"/></linearGradient><linearGradient xlink:href="#a" id="f" gradientUnits="userSpaceOnUse" x1="6.545" y1="5.836" x2="21.422" y2="26.886"/><linearGradient xlink:href="#b" id="h" gradientUnits="userSpaceOnUse" gradientTransform="matrix(0 1.48284 -1.47709 0 47.114 -1.278)" x1="-1.542" y1="-6.283" x2="63.127" y2="59.184"/><linearGradient id="c"><stop offset="0" stop-color="#fff"/><stop offset="1" stop-color="#fff" stop-opacity="0"/></linearGradient><linearGradient xlink:href="#c" id="g" gradientUnits="userSpaceOnUse" gradientTransform="matrix(0 3.0708 -3.05895 0 644.584 -511.78)" x1="166.974" y1="203.038" x2="181" y2="203.038"/><linearGradient id="d"><stop offset="0" stop-color="#fff"/><stop offset="1" stop-color="#fff" stop-opacity="0"/></linearGradient><linearGradient id="b"><stop offset="0" stop-color="#fff"/><stop offset="1" stop-color="#fff" stop-opacity="0"/></linearGradient><radialGradient xlink:href="#d" id="i" gradientUnits="userSpaceOnUse" gradientTransform="matrix(1.02344 0 0 .88709 -.271 .706)" cx="11.736" cy="7.369" fx="11.801" fy="1.173" r="9.975"/><filter id="e" x="-.129" width="1.259" y="-.296" height="1.591"><feGaussianBlur stdDeviation=".863"/></filter></defs><path d="M52 144.5c0 1.932-3.584 3.5-8 3.5s-8-1.568-8-3.5 3.584-3.5 8-3.5 8 1.568 8 3.5z" transform="matrix(2.1 0 0 2.09981 -67.912 -266.223)" opacity=".75" fill="#2e3436" fill-rule="evenodd" filter="url(#e)" enable-background="new"/><path style="marker:none" d="M29.935 16.572a14.345 14.345 0 11-28.69 0 14.345 14.345 0 1128.69 0z" transform="matrix(1.46371 0 0 1.4639 .68 -1.76)" fill="#f13d3d" fill-rule="evenodd" stroke="url(#f)" stroke-width=".683" overflow="visible" enable-background="new"/><path style="marker:none" d="M23.5 42.5c-11.04 0-20-8.96-20-20s8.96-20 20-20 20 8.96 20 20-8.96 20-20 20h0z" opacity=".75" fill="url(#g)" fill-rule="evenodd" stroke="url(#h)" overflow="visible" enable-background="new"/><path transform="scale(1.95483) rotate(-30 12.896 10.845)" d="M21.781 10.983a9.975 9.975 0 11-19.95 0 9.975 9.975 0 1119.95 0z" fill="url(#i)" enable-background="new"/></svg>