<svg xmlns="http://www.w3.org/2000/svg"  viewBox="0 0 60 60" version="1.0"><defs><linearGradient xlink:href="#a" id="e" gradientUnits="userSpaceOnUse" x1="35.198" y1="46.094" x2="33.666" y2="50.416"/><linearGradient id="a"><stop offset="0" stop-color="#d3d7cf"/><stop offset="1" stop-color="#d3d7cf" stop-opacity="0"/></linearGradient><linearGradient xlink:href="#b" id="f" gradientUnits="userSpaceOnUse" x1="38.046" y1="44.886" x2="33.233" y2="51.47"/><linearGradient id="b"><stop offset="0" stop-color="#6f716c"/><stop offset="1" stop-color="#888a85" stop-opacity="0"/></linearGradient><linearGradient xlink:href="#c" id="g" gradientUnits="userSpaceOnUse" x1="33.358" y1="37.386" x2="33.358" y2="52.806"/><linearGradient id="c"><stop offset="0" stop-color="#fff"/><stop offset="1" stop-color="#fff" stop-opacity="0"/></linearGradient><linearGradient xlink:href="#d" id="h" gradientUnits="userSpaceOnUse" x1="36.202" y1="37.667" x2="30.035" y2="41.842"/><linearGradient id="d"><stop offset="0" stop-color="#888a85"/><stop offset="1" stop-color="#888a85" stop-opacity="0"/></linearGradient></defs><rect rx="2.376" height="36.157" width="45.717" y="12.016" x="7.264" fill="#ccc" fill-rule="evenodd"/><rect rx="2.495" height="36.157" width="45.717" y="12.016" x="7.264" fill="none" stroke="#333" stroke-width="3.285" stroke-linecap="round" stroke-linejoin="round"/><text style="line-height:125%" x="19.29" y="4.865" font-weight="400" font-size="30" font-family="Sans" letter-spacing="0" word-spacing="0"/><g fill="#d45500"><path d="M10.685 32.513c-.565-.545-.943-1.634-.943-2.589 0-.953.283-1.838.99-2.315h-.047c3.349-2.861 8.018-6.676 11.13-9.333v6.336c-1.226 1.021-2.876 2.18-7.027 5.381l.047.068c2.217 1.431 4.764 3.61 6.98 5.518v6.404l-11.13-9.47zM49.057 27.745c.565.545.943 1.635.943 2.589 0 .953-.283 1.838-.99 2.315h.047c-3.349 2.861-8.018 6.676-11.13 9.333v-6.336c1.226-1.02 2.876-2.18 7.027-5.38l-.047-.068c-2.217-1.432-4.764-3.611-6.98-5.518v-6.404l11.13 9.469zM28.422 42.832H25.6l5.672-25.406h2.87l-5.72 25.406z"/></g><g transform="scale(1.47176 1.39688) rotate(-45 3.59 29.868)" color="#000" stroke-linecap="round" stroke-dashoffset="1.4"><path d="M32.5 24.188a6.988 6.988 0 00-4 6.312 6.988 6.988 0 004 6.313V55.35h6.031V36.812A7.001 7.001 0 0042.5 30.5c0-2.78-1.62-5.183-3.969-6.313V30.5l-3.015 1-3.016-1v-6.313z" style="marker:none" overflow="visible" fill="url(#e)" stroke="url(#f)" stroke-linejoin="round"/><path d="M31.5 26.344c-1.14 1.088-2 2.448-2 4.156 0 2.4 1.409 4.44 3.438 5.406.347.168.566.52.562.907v18.93h4.031v-18.93a.994.994 0 01.563-.907A5.986 5.986 0 0041.5 30.5c0-1.698-.843-3.066-1.969-4.156V30.5a.994.994 0 01-.687.938l-3.032 1a.994.994 0 01-.624 0l-3-1a.994.994 0 01-.688-.938v-4.156z" style="marker:none" overflow="visible" fill="none" stroke="url(#g)"/><rect ry="1" rx="1" y="37.5" x="34.5" height="15" width="2" style="marker:none" overflow="visible" opacity=".4" fill="none" stroke="url(#h)"/></g></svg>