<svg xmlns="http://www.w3.org/2000/svg" xmlns:xlink="http://www.w3.org/1999/xlink" viewBox="0 0 60 60" version="1.0"><defs><radialGradient xlink:href="#a" id="b" gradientUnits="userSpaceOnUse" cx="38.659" cy="9.341" fx="38.659" fy="9.341" r="8.342"/><linearGradient id="a"><stop offset="0" stop-color="#fff"/><stop offset=".25" stop-color="#fefede" stop-opacity=".918"/><stop offset=".5" stop-color="#f5f328"/><stop offset="1" stop-color="#f5f32d" stop-opacity=".122"/></linearGradient></defs><rect rx="2.376" height="36.157" width="45.717" y="12.016" x="7.264" fill="#ccc" fill-rule="evenodd"/><rect rx="2.495" height="36.157" width="45.717" y="12.016" x="7.264" fill="none" stroke="#333" stroke-width="3.285" stroke-linecap="round" stroke-linejoin="round"/><text style="line-height:125%" x="19.29" y="4.865" font-weight="400" font-size="30" font-family="Sans" letter-spacing="0" word-spacing="0"/><g fill="#d45500"><path d="M10.685 32.513c-.565-.545-.943-1.634-.943-2.589 0-.953.283-1.838.99-2.315h-.047c3.349-2.861 8.018-6.676 11.13-9.333v6.336c-1.226 1.021-2.876 2.18-7.027 5.381l.047.068c2.217 1.431 4.764 3.61 6.98 5.518v6.404l-11.13-9.47zM49.057 27.745c.565.545.943 1.635.943 2.589 0 .953-.283 1.838-.99 2.315h.047c-3.349 2.861-8.018 6.676-11.13 9.333v-6.336c1.226-1.02 2.876-2.18 7.027-5.38l-.047-.068c-2.217-1.432-4.764-3.611-6.98-5.518v-6.404l11.13 9.469zM28.422 42.832H25.6l5.672-25.406h2.87l-5.72 25.406z"/></g><g transform="matrix(1.44995 0 0 1.44876 -10.253 -4.354)" fill-rule="evenodd"><circle r="8.342" cy="9.341" cx="38.659" transform="translate(-7.595 .49) scale(1.14985)" fill="url(#b)"/><path style="marker:none" d="M40.832 16.595c-.606.44-3.05-1.484-3.798-1.484-.748 0-3.19 1.929-3.795 1.49-.606-.44.47-3.36.238-4.07-.232-.712-2.82-2.438-2.59-3.15.231-.712 3.34-.59 3.945-1.031.605-.44 1.447-3.436 2.195-3.436.748 0 1.594 2.993 2.2 3.433.605.44 3.714.314 3.946 1.026.232.711-2.355 2.44-2.585 3.152-.231.712.849 3.63.244 4.07z" color="#000" overflow="visible" fill="#fff"/></g></svg>