<svg xmlns="http://www.w3.org/2000/svg"  width="48" height="48"><defs><linearGradient id="a"><stop offset="0" stop-color="#fff"/><stop offset="1" stop-color="#fff" stop-opacity=".1"/></linearGradient><linearGradient xlink:href="#a" id="i" x1="24" y1="4.929" x2="24" y2="32.95" gradientUnits="userSpaceOnUse"/><linearGradient id="b"><stop offset="0" stop-color="#fff"/><stop offset="1" stop-color="#fff" stop-opacity="0"/></linearGradient><linearGradient xlink:href="#b" id="g" x1="11.344" y1="15.724" x2="11.283" y2="9.095" gradientUnits="userSpaceOnUse"/><linearGradient id="c"><stop offset="0" stop-color="#eeeeec"/><stop offset="1" stop-color="#b0b0b0"/></linearGradient><linearGradient xlink:href="#c" id="f" gradientUnits="userSpaceOnUse" gradientTransform="matrix(.13554 0 0 -.15134 19.015 90.536)" x1="16.008" y1="521.358" x2="117.838" y2="333.099"/><linearGradient id="d"><stop offset="0"/><stop offset="1" stop-opacity="0"/></linearGradient><radialGradient xlink:href="#d" id="e" cx="11.314" cy="19.083" fx="11.314" fy="19.083" r="9.899" gradientTransform="matrix(1 0 0 .27679 0 13.801)" gradientUnits="userSpaceOnUse"/></defs><path style="marker:none" d="M21.213 19.083a9.9 2.74 0 11-19.799 0 9.9 2.74 0 1119.8 0z" transform="matrix(2.12132 0 0 2.28099 0 -3.279)" opacity=".4" fill="url(#e)" display="block" overflow="visible"/><path style="marker:none" d="M23.616 2.5c-2.172.036-1.14 4.213-3.264 4.672-2.123.458-2.933-3.744-4.926-2.88-1.994.864.57 4.33-1.216 5.567-1.786 1.236-4.12-2.393-5.631-.832-1.51 1.561 2.137 3.805.96 5.631s-4.769-.549-5.567 1.472c-.798 2.02 3.46 2.661 3.071 4.799-.388 2.137-4.578 1.283-4.543 3.455.036 2.172 4.212 1.14 4.671 3.263.459 2.124-3.743 2.934-2.88 4.927.865 1.993 4.331-.57 5.568 1.216 1.236 1.786-2.393 4.12-.832 5.63 1.561 1.511 3.805-2.136 5.63-.959 1.827 1.177-.548 4.769 1.472 5.567s2.662-3.46 4.8-3.072c2.137.39 1.283 4.58 3.455 4.544 2.172-.036 1.14-4.213 3.263-4.672 2.123-.458 2.934 3.744 4.927 2.88 1.993-.864-.57-4.33 1.216-5.567 1.786-1.236 4.12 2.393 5.63.832 1.511-1.561-2.136-3.805-.96-5.63 1.178-1.827 4.77.548 5.568-1.473.798-2.02-3.46-2.661-3.072-4.799.389-2.137 4.579-1.283 4.543-3.455-.035-2.172-4.212-1.14-4.67-3.263-.46-2.124 3.743-2.934 2.879-4.927-.865-1.993-4.33.57-5.567-1.216s2.393-4.12.832-5.63c-1.562-1.511-3.805 2.136-5.631.959s.549-4.769-1.472-5.567c-2.02-.798-2.662 3.46-4.799 3.072-2.137-.39-1.283-4.58-3.455-4.544zm.384 10c6.216 0 11.5 5.284 11.5 11.5S30.216 35.5 24 35.5c-6.217 0-11.5-5.284-11.5-11.5S17.783 12.5 24 12.5z" id="h" opacity="1" fill="url(#f)" fill-opacity="1" fill-rule="nonzero" stroke="#888a85" stroke-width="1" stroke-linecap="butt" stroke-linejoin="miter" marker-start="none" marker-mid="none" marker-end="none" stroke-miterlimit="10" stroke-dasharray="none" stroke-dashoffset="0" stroke-opacity="1" visibility="visible" display="block" overflow="visible"/><path style="marker:none" d="M17.324 10.863a6.54 6.54 0 11-13.081 0 6.54 6.54 0 1113.081 0z" transform="matrix(1.91597 0 0 1.91597 3.34 3.187)" fill="none" stroke="url(#g)" stroke-width=".489" stroke-miterlimit="10" display="block" overflow="visible"/><path xlink:href="#h" style="marker:none" d="M23.656 3.563c-.204.003-.127-.047-.25.156-.122.202-.266.673-.406 1.219-.14.545-.3 1.16-.625 1.78-.324.622-.942 1.281-1.813 1.47-.869.187-1.698-.132-2.25-.563-.551-.431-.928-.969-1.28-1.406-.353-.438-.681-.774-.876-.907-.194-.132-.124-.144-.312-.062-.186.08-.091.017-.125.25-.034.233-.02.723.062 1.281.083.559.214 1.175.156 1.875-.057.7-.391 1.555-1.124 2.063-.733.507-1.638.504-2.313.312-.675-.192-1.227-.507-1.719-.781s-.927-.482-1.156-.531c-.229-.05-.14-.084-.281.062-.143.148-.118.05-.063.281.055.232.28.67.563 1.157.282.486.638 1.018.844 1.687.205.67.2 1.566-.282 2.313-.483.75-1.302 1.098-2 1.187-.697.089-1.34.025-1.906-.031-.566-.056-1.04-.077-1.281-.031-.24.046-.207-.032-.282.156-.074.189-.078.122.063.313.141.19.516.505.969.843.452.338.985.682 1.437 1.219.452.537.816 1.373.657 2.25-.16.875-.766 1.53-1.376 1.875-.609.345-1.242.498-1.78.656-.54.159-.991.309-1.188.438-.197.129-.16.044-.156.25.003.204-.047.127.156.25.202.122.673.266 1.219.406.545.14 1.16.3 1.78.625.622.324 1.281.942 1.47 1.813.187.869-.132 1.698-.563 2.25-.431.551-.969.928-1.406 1.28-.438.353-.774.681-.907.876-.132.194-.144.124-.062.312.08.186.017.091.25.125.233.034.723.02 1.281-.062.559-.083 1.175-.214 1.875-.157.7.058 1.555.392 2.063 1.126.507.732.504 1.637.312 2.312-.192.675-.507 1.227-.781 1.719s-.482.927-.531 1.156c-.05.229-.084.14.062.281.148.143.05.118.281.063.232-.055.67-.28 1.157-.563.486-.282 1.018-.638 1.687-.843.67-.206 1.566-.2 2.313.28.75.484 1.098 1.303 1.187 2 .089.698.025 1.341-.031 1.907-.056.566-.077 1.04-.031 1.281.046.24-.032.207.156.282.189.074.122.078.313-.063.19-.141.505-.516.843-.969.338-.452.682-.985 1.219-1.437.537-.452 1.373-.816 2.25-.657.875.16 1.53.766 1.875 1.376.345.609.498 1.242.656 1.78.159.54.309.991.438 1.188.129.197.044.16.25.157.204-.004.127.046.25-.157.122-.202.266-.673.406-1.218.14-.546.3-1.16.625-1.782.324-.621.942-1.28 1.813-1.468.869-.188 1.698.13 2.25.562.551.431.928.969 1.28 1.406.353.438.681.774.876.907.194.132.124.144.312.062.186-.08.091-.017.125-.25.034-.233.02-.723-.062-1.281-.083-.559-.214-1.175-.157-1.875.058-.7.392-1.555 1.126-2.063.732-.507 1.637-.504 2.312-.312.675.192 1.227.507 1.719.781s.927.482 1.156.531c.229.05.14.084.281-.062.143-.148.118-.05.063-.282-.055-.231-.28-.67-.563-1.156-.282-.486-.638-1.018-.843-1.687-.206-.67-.2-1.566.28-2.313.484-.75 1.303-1.098 2-1.187.698-.089 1.341-.025 1.907.031.566.056 1.04.077 1.281.031.24-.046.207.032.282-.156.074-.189.078-.122-.063-.313-.141-.19-.516-.505-.969-.843-.452-.338-.985-.682-1.437-1.219-.452-.537-.816-1.373-.657-2.25.16-.875.766-1.53 1.376-1.875.609-.345 1.242-.498 1.78-.656.54-.159.991-.309 1.188-.438.197-.129.16-.044.157-.25-.004-.204.046-.127-.157-.25-.202-.122-.673-.266-1.218-.406-.546-.14-1.16-.3-1.782-.625-.621-.324-1.28-.942-1.468-1.813-.188-.869.13-1.698.562-2.25.431-.551.969-.928 1.406-1.28.438-.353.774-.681.907-.876.132-.194.144-.124.062-.312-.08-.186-.017-.091-.25-.125-.233-.034-.723-.02-1.281.062-.559.083-1.175.214-1.875.156-.7-.057-1.555-.391-2.063-1.124-.507-.733-.504-1.638-.312-2.313.192-.675.507-1.227.781-1.719s.482-.927.531-1.156c.05-.229.084-.14-.062-.281-.148-.143-.05-.118-.282-.063-.231.055-.67.28-1.156.563-.486.282-1.018.638-1.687.844-.67.205-1.566.2-2.313-.282-.75-.483-1.098-1.302-1.187-2-.089-.697-.025-1.34.031-1.906.056-.566.077-1.04.031-1.281-.046-.24.032-.207-.156-.282-.189-.074-.122-.078-.313.063-.19.141-.505.516-.843.969-.338.452-.682.985-1.219 1.437-.537.452-1.373.816-2.25.657-.875-.16-1.53-.766-1.875-1.376-.345-.609-.498-1.242-.656-1.78-.159-.54-.309-.991-.438-1.188-.129-.197-.044-.16-.25-.156zM24 11.436c6.815 0 12.563 5.748 12.563 12.563S30.814 36.563 24 36.563 11.437 30.814 11.437 24 17.186 11.437 24 11.437z" fill="none" stroke="url(#i)" stroke-miterlimit="10" display="block" overflow="visible"/></svg>