<svg xmlns="http://www.w3.org/2000/svg"  width="48" height="48" version="1.0"><defs><linearGradient id="n"><stop offset="0" stop-color="#c17d11"/><stop offset="1" stop-color="#e9b96e"/></linearGradient><linearGradient id="o"><stop offset="0" stop-color="#fff"/><stop offset="1" stop-color="#fff" stop-opacity="0"/></linearGradient><linearGradient id="i"><stop offset="0"/><stop offset="1" stop-opacity="0"/></linearGradient><linearGradient id="f"><stop offset="0" stop-color="#fff"/><stop offset="1" stop-color="#fff" stop-opacity=".521"/></linearGradient><linearGradient id="g"><stop offset="0"/><stop offset="1" stop-opacity="0"/></linearGradient><linearGradient id="l"><stop offset="0" stop-color="#eac586"/><stop offset="1" stop-color="#eac586" stop-opacity="0"/></linearGradient><linearGradient id="c"><stop offset="0" stop-color="#8ae234"/><stop offset="1" stop-color="#73d216"/></linearGradient><linearGradient id="d"><stop offset="0"/><stop offset="1" stop-opacity="0"/></linearGradient><linearGradient id="b"><stop offset="0" stop-color="#729fcf"/><stop offset="1" stop-color="#3465a4"/></linearGradient><linearGradient id="a"><stop offset="0" stop-color="#ef2929"/><stop offset="1" stop-color="#c00"/></linearGradient><linearGradient id="m"><stop offset="0" stop-color="#eeeeec"/><stop offset="1" stop-color="#888a85"/></linearGradient><linearGradient id="h"><stop offset="0" stop-color="#e7ce79"/><stop offset="1" stop-color="#c17d11"/></linearGradient><linearGradient id="j"><stop offset="0" stop-color="#fff"/><stop offset="1" stop-color="#fff" stop-opacity=".068"/></linearGradient><linearGradient id="k"><stop offset="0" stop-color="#555753"/><stop offset="1" stop-color="#1f2324"/></linearGradient><linearGradient id="e"><stop offset="0" stop-color="#fff"/><stop offset="1" stop-color="#fff" stop-opacity=".346"/></linearGradient><linearGradient xlink:href="#e" id="E" gradientUnits="userSpaceOnUse" x1="21.425" y1="14.769" x2="16.64" y2="5.5" gradientTransform="matrix(1.071 0 0 1.05604 -4.05 -1.198)"/><linearGradient xlink:href="#f" id="B" gradientUnits="userSpaceOnUse" x1="15.3" y1="9.144" x2="51.568" y2="83.076" gradientTransform="translate(1.064 .025)"/><linearGradient xlink:href="#j" id="J" gradientUnits="userSpaceOnUse" gradientTransform="matrix(.64242 0 0 .71463 3.446 6.787)" x1="9.344" y1="38.812" x2="10.925" y2="46.821"/><linearGradient xlink:href="#k" id="I" gradientUnits="userSpaceOnUse" gradientTransform="matrix(1 0 0 1.26753 -1 -14.854)" x1="10.593" y1="38.582" x2="10.165" y2="43.382"/><linearGradient xlink:href="#j" id="K" gradientUnits="userSpaceOnUse" x1="12.187" y1="38.012" x2="12.187" y2="39.532"/><linearGradient xlink:href="#l" id="M" gradientUnits="userSpaceOnUse" gradientTransform="matrix(.8048 -.08406 -.25878 .8412 10.627 5.876)" x1="38.289" y1="5.254" x2="36.611" y2="7.331"/><linearGradient xlink:href="#m" id="F" gradientUnits="userSpaceOnUse" gradientTransform="matrix(.8048 -.08406 -.25878 .8412 10.723 3.51)" x1="19.635" y1="29.591" x2="23.529" y2="33.485"/><linearGradient xlink:href="#n" id="D" gradientUnits="userSpaceOnUse" gradientTransform="matrix(.8048 -.08406 -.25878 .8412 10.723 3.51)" x1="33.176" y1="18.658" x2="31.181" y2="17.177"/><linearGradient xlink:href="#o" id="G" x1="18.188" y1="28.625" x2="41.438" y2="6.188" gradientUnits="userSpaceOnUse" gradientTransform="translate(0 -1)"/><linearGradient id="p"><stop offset="0" stop-color="#babdb6"/><stop offset="1" stop-color="#eeeeec"/></linearGradient><linearGradient id="q"><stop offset="0"/><stop offset="1" stop-opacity="0"/></linearGradient><linearGradient id="r"><stop offset="0" stop-opacity="0"/><stop offset=".5"/><stop offset="1" stop-opacity="0"/></linearGradient><linearGradient y2="-22.502" x2="-62.75" y1="49.021" x1="-47.5" gradientTransform="matrix(.79454 0 0 .63928 41.136 -2.434)" gradientUnits="userSpaceOnUse" id="O" xlink:href="#s"/><linearGradient id="s"><stop offset="0" stop-color="#888a85"/><stop offset="1" stop-color="#babdb6"/></linearGradient><linearGradient id="t"><stop offset="0" stop-color="#fff"/><stop offset="1" stop-color="#fff" stop-opacity="0"/></linearGradient><linearGradient y2="7.424" x2="-22.612" y1="9.569" x1="-24.757" gradientTransform="matrix(.7948 0 0 .62936 41.146 -2.285)" gradientUnits="userSpaceOnUse" id="Q" xlink:href="#u"/><linearGradient id="u"><stop offset="0" stop-color="#fff"/><stop offset="1" stop-color="#fff" stop-opacity="0"/></linearGradient><linearGradient id="v"><stop offset="0" stop-color="#fff"/><stop offset=".475" stop-color="#fff"/><stop offset="1" stop-color="#fff" stop-opacity="0"/></linearGradient><linearGradient y2="12.19" x2="-30.559" y1="10.211" x1="-18.619" gradientTransform="matrix(.59468 0 0 .59278 -62.327 -48.726)" gradientUnits="userSpaceOnUse" id="S" xlink:href="#w"/><linearGradient id="w"><stop offset="0" stop-opacity=".413"/><stop offset="1" stop-opacity="0"/></linearGradient><radialGradient xlink:href="#a" id="L" cx="32.45" cy="33.609" fx="32.45" fy="33.609" r="5.038" gradientTransform="matrix(.63694 .69684 .55326 -.51013 -5.001 25.288)" gradientUnits="userSpaceOnUse"/><radialGradient xlink:href="#b" id="N" gradientUnits="userSpaceOnUse" gradientTransform="matrix(-.85708 .70369 -.63055 -.63055 89.176 19.04)" cx="33.291" cy="36.07" fx="33.291" fy="36.07" r="5.038"/><radialGradient xlink:href="#c" id="H" cx="23.538" cy="36.025" fx="23.538" fy="36.025" r="4.245" gradientTransform="matrix(.94093 0 0 1.04825 1.682 -3.178)" gradientUnits="userSpaceOnUse"/><radialGradient xlink:href="#d" id="y" gradientUnits="userSpaceOnUse" cx="6.5" cy="23.5" fx="6.5" fy="23.5" r="4.5"/><radialGradient xlink:href="#d" id="z" gradientUnits="userSpaceOnUse" cx="6.5" cy="23.5" fx="6.5" fy="23.5" r="4.5"/><radialGradient xlink:href="#g" id="C" cx="28.469" cy="23.214" fx="28.469" fy="23.214" r="12.367" gradientTransform="matrix(.16754 .13407 -.93936 1.1739 43.938 -7.587)" gradientUnits="userSpaceOnUse"/><radialGradient xlink:href="#h" id="A" cx="28.658" cy="33.987" fx="28.658" fy="33.987" r="18.572" gradientTransform="matrix(6.04299 0 0 5.53708 -142.794 -152.238)" gradientUnits="userSpaceOnUse"/><radialGradient xlink:href="#i" id="x" cx="10.563" cy="46.063" fx="10.563" fy="46.063" r="8.563" gradientTransform="matrix(1 0 0 .53285 0 21.518)" gradientUnits="userSpaceOnUse"/><radialGradient r="17" fy="5.3" fx="4" cy="5.3" cx="4" gradientTransform="matrix(1.88603 0 0 1.17647 -3.544 -4.235)" gradientUnits="userSpaceOnUse" id="P" xlink:href="#t"/><radialGradient r="7.042" fy="10.108" fx="-26.305" cy="10.108" cx="-26.305" gradientTransform="matrix(.26264 -.18058 .48425 .7055 -76.988 -55.026)" gradientUnits="userSpaceOnUse" id="R" xlink:href="#v"/></defs><path d="M19.125 46.063a8.563 4.563 0 11-17.125 0 8.563 4.563 0 1117.125 0z" transform="matrix(1.10949 0 0 .54795 -1.719 16.635)" opacity=".1" fill="url(#x)"/><g opacity=".303" fill-rule="evenodd"><path transform="matrix(0 -1.11132 7.2704 0 -139.822 48.192)" d="M2 23.5A4.5 4.5 0 016.5 19a4.5 4.5 0 014.5 4.5H6.5z" fill="url(#y)"/><path transform="matrix(0 -1.11132 -3.7038 0 118.072 48.192)" d="M2 23.5A4.5 4.5 0 016.5 19a4.5 4.5 0 014.5 4.5H6.5z" fill="url(#z)"/></g><path d="M23.031 4.5c-5.867.077-13.726 2.085-13.593 8.531.141 6.877 8.495 4.164 8.812 7.219.513 4.938-10.174 19.961 6.063 22.906C35.151 45.122 46.656 38.372 45.5 24.75 44.46 12.5 34.325 4.812 24.187 4.5c-.37-.011-.765-.005-1.156 0zm-2.531 4c2.76 0 5 1.568 5 3.5s-2.24 3.5-5 3.5-5-1.568-5-3.5 2.24-3.5 5-3.5z" fill="url(#A)" fill-rule="evenodd" stroke="#c17d11"/><path d="M23.095 5.525c-2.824.037-6.123.567-8.593 1.78-2.471 1.215-4.058 2.908-4 5.72.03 1.513.48 2.328 1.093 2.906.614.578 1.496.924 2.5 1.187 1.005.264 2.092.42 3.063.75.485.166.96.38 1.375.75.414.37.717.947.781 1.563.17 1.645-.479 3.503-1.156 5.656-.678 2.153-1.446 4.514-1.719 6.75-.273 2.237-.041 4.28 1.063 5.906 1.103 1.627 3.17 2.982 7.062 3.688 5.159.936 10.449-.207 14.281-3.156 3.833-2.95 6.272-7.64 5.719-14.157C43.568 13.133 33.869 5.821 24.22 5.525c-.337-.01-.732-.006-1.125 0z" opacity=".67" fill="none" stroke="url(#B)"/><path d="M35.5 8.313a.494.494 0 00-.219.124C26.294 15.46 21.664 20.793 19.094 24.22c-1.712 2.113-3.604 5.271-5.157 8.218a.494.494 0 00-.062.157c-.219 1.997-.077 4.013.781 5.781a.494.494 0 00.688.219c4.016-2.311 9.158-7.188 10.531-8.782 2.936-3.355 7.649-9.29 12.594-18.687a.494.494 0 00-.094-.563c-.779-.762-1.619-1.512-2.5-2.156a.494.494 0 00-.375-.094z" transform="translate(.438 -.875)" opacity=".165" fill="url(#C)" fill-rule="evenodd"/><path d="M24.378 26.217C28.122 22.66 34.668 15.824 42.5 5c.315-.349-.21-.649-.5-.5-11.832 8.286-17.782 14.476-21.157 18.015" fill="url(#D)" fill-rule="evenodd" stroke="#8f5902" stroke-linejoin="round"/><path d="M21.436 21.922c1.482.593 2.798 1.536 3.535 3.701-1.5 1.44-7.463 6.425-11.181 8.496l-1.092-1.515c2.112-3.07 5.973-7.922 8.738-10.682z" opacity=".15" fill-rule="evenodd" stroke="#000" stroke-linejoin="round"/><path d="M16.834 6.722c1.682 0 3.237.44 4.418 1.254 1.18.815 2.008 2.067 2.008 3.498 0 1.432-.828 2.684-2.008 3.499-1.18.814-2.736 1.254-4.418 1.254-1.683 0-3.237-.44-4.418-1.254-1.18-.815-2.008-2.067-2.008-3.499 0-1.431.828-2.683 2.008-3.498 1.18-.815 2.735-1.254 4.418-1.254z" opacity=".736" fill="none" stroke="url(#E)" stroke-width="1.063"/><path d="M20.843 22.515c1.481.594 2.798 1.536 3.535 3.702-1.5 1.44-7.464 6.425-11.182 8.495l-1.092-1.514c2.113-3.07 5.973-7.922 8.739-10.683z" fill="url(#F)" fill-rule="evenodd" stroke="#888a85"/><g opacity=".13" fill-rule="evenodd" stroke="#000" stroke-linejoin="round" stroke-miterlimit="5"><path d="M28.045 37.922c-.98.593.072 1.274.545 1.67.376.315-.188 1.836-.86 1.164-.775-.775-1.274-1.852-1.578-1.88-1.747-.158-.402 2.148-1.808 1.64-.841-.303.206-1.577-.918-1.968-.892-.31-.804.644-1.32.179-2.429-2.19-1.152-4.093-.028-5.579 1.125-1.485 3.345-1.645 4.992-.327 1.647 1.317 2.084 3.603.975 5.101zM36.696 34.909c.894 0 2.395.151 2.79.616.924 1.086 1.744-.343 1.041-.96-.81-.71-1.886-1.12-1.94-1.422-.303-1.736 2.025-.583 1.417-1.948-.364-.817-1.495.338-1.968-.754-.375-.867.548-.859.057-1.336-2.311-2.25-4.024-.811-5.351.44-1.327 1.25-1.287 3.487.12 5.026.577.632.86 2.15 1.597 2.333 1.057.262-.016-1.995 2.237-1.995zM38.242 23.926c-.881 0-1.058.608-1.473 1-.33.31-1.717-.305-1.025-.853.798-.632.973-1.378 1.025-1.646.3-1.543-2.656-.793-2.048-2.002.443-.88 2.052-.042 2.048-.497-.007-.703-.42-1.765.46-1.939 1.854-.365 3.987.912 4.992 1.936.96.98.428 2.692-.14 3.908-.347.743-1.143 2.255-2.065 2.073-1.046-.206.444-1.98-1.774-1.98z"/></g><path d="M12.938 33.438C18.547 24.934 36.614 9.233 40.5 6.625c-8.265 8.802-18.608 18.642-27.563 26.813z" opacity=".68" fill="url(#G)" fill-rule="evenodd"/><path d="M27.824 37.496c-.98.593.072 1.274.545 1.671.376.315-.188 1.835-.86 1.163-.775-.774-1.274-1.852-1.578-1.88-1.747-.158-.402 2.149-1.808 1.641-.841-.303.206-1.577-.918-1.969-.892-.31-.804.645-1.32.18-2.429-2.19-1.152-4.093-.028-5.579 1.125-1.486 3.346-1.645 4.992-.328 1.647 1.318 2.084 3.603.975 5.101z" fill="url(#H)" fill-rule="evenodd" stroke="#4e9a06" stroke-linejoin="round" stroke-miterlimit="5"/><path d="M25.719 32.75c-1.334-.778-2.84.048-3.375.719-.535.67-1.261 1.982-.688 3.218.377-1.189.919-1.98 1.469-2.593.551-.615 1.193-1.277 2.594-1.344z" opacity=".77" fill="#eeeeec" fill-rule="evenodd"/><path d="M2.5 39.534c4.693.002 4.221-4.892 6.5-6.392 2.64-1.739 4.955.415 5.417 2.188C15 37.567 14 40.026 11 41.01c-3.364 1.102-8.11.475-8.5-1.476z" fill="url(#I)" fill-rule="evenodd" stroke="#000"/><path d="M4 40.119c2.035-.026 3.436-2.445 3.966-3.98 1.6-4.625 6.415-2.426 5.534.794-1.048 5.181-6.455 3.194-9.5 3.186z" opacity=".291" fill="none" stroke="url(#J)" stroke-linejoin="round" stroke-miterlimit="5"/><path d="M13.325 38.708a1.138.917 0 11-2.276 0 1.138.917 0 112.276 0z" transform="matrix(2.6362 0 0 2.18096 -21.126 -49.42)" opacity=".5" fill="url(#K)" fill-rule="evenodd"/><path d="M36.475 34.484c.894 0 2.395.15 2.79.615.924 1.087 1.744-.342 1.041-.96-.81-.71-1.886-1.12-1.94-1.422-.303-1.736 2.025-.582 1.417-1.947-.364-.817-1.495.338-1.968-.754-.375-.868.548-.86.057-1.337-2.31-2.249-4.024-.81-5.351.44s-1.287 3.488.12 5.026c.577.632.86 2.151 1.597 2.334 1.057.262-.016-1.995 2.237-1.995z" fill="url(#L)" fill-rule="evenodd" stroke="#a40000" stroke-linejoin="round" stroke-miterlimit="5"/><path d="M41.51 5.5L38.5 8.509" fill="none" stroke="url(#M)" stroke-linecap="round"/><path d="M38.02 23.5c-.88 0-1.057.608-1.472 1-.33.31-1.717-.304-1.025-.853.798-.631.973-1.378 1.025-1.646.3-1.542-2.656-.793-2.048-2.001.443-.88 2.052-.042 2.048-.498-.007-.703-.42-1.765.46-1.938 1.854-.366 3.987.912 4.992 1.936.96.98.428 2.691-.14 3.907-.347.744-1.143 2.256-2.065 2.074-1.046-.207.444-1.98-1.774-1.98z" fill="url(#N)" fill-rule="evenodd" stroke="#204a87" stroke-linejoin="round" stroke-miterlimit="5"/><path d="M38 18.5c-.855.387-1 1.5-.5 2.5.533-1.447 2-1 3.5-1-.5-1-2.404-1.7-3-1.5zM36.768 28.732c-1.333-.778-2.84.048-3.375.719-.535.67-1.261 1.982-.687 3.219.376-1.19.918-1.98 1.468-2.594.551-.615 1.193-1.277 2.594-1.344z" opacity=".77" fill="#eeeeec" fill-rule="evenodd"/><path d="M.243-.197c-.891 0-1.614.582-1.614 1.299v23.613c0 .717.723 1.299 1.614 1.299h24.58c.891 0 1.615-.582 1.615-1.299V5.697C26.233 4.12 25.136 2.952 23.83 1.9 22.525.849 21.138-.166 19.113-.197H.243z" fill="#ff0" stroke="url(#O)" stroke-width=".713"/><path transform="translate(-150)" d="M8.531 3.986c-.858 0-1.545.687-1.545 1.545V42.47c0 .858.687 1.545 1.545 1.545H39.47c.858 0 1.545-.687 1.545-1.545V17.5c0-1.392-.501-4.3-2.358-6.156l-5-5C31.8 4.487 28.892 3.986 27.5 3.986H8.531z" opacity=".68" fill="url(#P)"/><path d="M.239.547c-.464 0-.82.282-.82.649v23.247c0 .367.356.649.82.649h24.589c.463 0 .82-.282.82-.65V8.73c0-.068-.02-.177-.026-.256V5.719c0-.476-.264-1.585-1.068-2.222-1.045-.828-1.562-1.257-2.607-2.085-.804-.636-2.23-.845-2.832-.845h-3.477c-.1-.005-.238-.02-.323-.02H.239z" fill="none" stroke="url(#Q)" stroke-width=".707"/><path d="M-81.705-47c-.895 0-.027.32.867.726.893.405 2.365 1.912 1.838 4.274 4.57-.707 5.148 2.178 5.355 2.925.207.748.645 1.683.645.787.018-2.456-1.835-4.15-3.123-5.586-1.289-1.436-3.226-2.818-5.582-3.126z" fill="url(#R)" transform="matrix(.79294 0 0 .7465 83.892 35.295)"/><path d="M-80.995-46.345C-80.4-46.345-80-42.5-80-40c3 0 5.704.452 6 1-.207-.748-.539-3.773-5-3 .558-2.5-1.213-4.108-1.995-4.345z" opacity=".879" fill="url(#S)" transform="matrix(.79294 0 0 .7465 83.892 35.295)"/><path d="M9.223 21.215c0 .713.231 1.284.708 1.744.462.446.97.663 1.55.663.577 0 1.632-.262 3.416-1.483v-5.096c-1.532.542-2.55.937-3.033 1.176l-.004.002c-.971.472-1.666.962-2.066 1.455-.385.475-.572.978-.572 1.539z" fill="none"/><path d="M8.942 19.155c0 .746.25 1.342.764 1.823.498.467 1.044.693 1.67.693.62 0 1.758-.274 3.68-1.55v-5.327c-1.651.566-2.748.98-3.268 1.23l-.005.001c-1.045.494-1.794 1.006-2.224 1.521-.415.497-.617 1.023-.617 1.609z" fill="none"/><path d="M20.252 19.85a.934.934 0 01-.57-.181c-.164-.122-.283-.362-.354-.72-.072-.358-.108-1.333-.108-2.924v-5.666c0-1.616-.129-2.685-.387-3.207-.4-.802-1.024-1.39-1.87-1.767-1.117-.498-2.55-.747-4.298-.747-2.278 0-4.048.437-5.309 1.312-1.26.874-1.891 1.834-1.891 2.878 0 .547.168.978.505 1.294.336.316.77.473 1.3.473.545 0 .985-.151 1.322-.455.337-.303.505-.735.505-1.294L9.054 7.79c0-.535.272-1.008.817-1.421.53-.413 1.246-.62 2.15-.62 1.188 0 2.095.31 2.718.93.623.619.935 1.76.935 3.425v.655c-3.382 1.045-5.8 1.932-7.254 2.66-1.454.73-2.475 1.507-3.063 2.332-.43.596-.644 1.3-.644 2.114 0 1.287.44 2.326 1.321 3.115.882.79 2.003 1.185 3.364 1.185a6.71 6.71 0 002.472-.456c.515-.206 1.784-.971 3.804-2.295.014.996.229 1.7.645 2.113.415.413.974.62 1.676.62 1.462 0 2.995-.912 4.6-2.733v-1.02c-.86.728-1.44 1.172-1.741 1.33a1.342 1.342 0 01-.602.127zm-4.578-1.62c-1.777 1.214-3.21 1.821-4.299 1.821-.802 0-1.511-.288-2.127-.865-.617-.577-.925-1.303-.925-2.177 0-.693.244-1.33.731-1.913s1.297-1.142 2.429-1.677c.63-.303 2.027-.82 4.191-1.548v6.358z" fill="#1a1a1a"/><path d="M11.483 13.42c-1.132.534-1.942 1.093-2.429 1.676-.487.583-.73 1.22-.73 1.913 0 .874.307 1.6.924 2.177.616.577 1.325.865 2.127.865 1.09 0 2.522-.607 4.299-1.822v-6.358c-2.164.729-3.56 1.245-4.191 1.548zm3.572 4.555c-1.922 1.276-3.058 1.55-3.68 1.55-.625 0-1.171-.227-1.67-.693-.513-.48-.763-1.077-.763-1.823 0-.586.202-1.113.617-1.609.43-.515 1.179-1.027 2.224-1.52l.005-.003c.52-.25 1.617-.663 3.267-1.23v5.328z" fill="#b3b3b3"/><g><path d="M22.832 17.907a.713.713 0 00-.674.114c-1.062.9-1.47 1.17-1.622 1.25a.657.657 0 01-.284.054.249.249 0 01-.161-.052c-.01-.01-.091-.103-.153-.412-.045-.225-.099-.899-.099-2.836v-5.666c0-1.702-.142-2.818-.435-3.41-.458-.915-1.182-1.597-2.153-2.03-1.202-.536-2.745-.807-4.586-.807-2.414 0-4.332.48-5.7 1.43-1.406.975-2.119 2.08-2.119 3.286 0 .68.224 1.233.666 1.647.456.429 1.048.647 1.758.647.72 0 1.316-.21 1.773-.621.447-.403.673-.96.673-1.655a.47.47 0 000-.018l-.043-1.047c.003-.377.203-.71.61-1.02l.006-.005c.416-.323.982-.48 1.731-.48 1.009 0 1.744.243 2.249.744.359.357.786 1.181.786 3.083v.288c-3.193.998-5.53 1.864-6.949 2.575-1.536.77-2.638 1.615-3.277 2.511-.488.677-.735 1.48-.735 2.388 0 1.42.502 2.59 1.492 3.477.998.895 2.28 1.349 3.812 1.349.96 0 1.879-.17 2.731-.504l.005-.002c.315-.126.971-.452 3.014-1.767.118.624.35 1.103.7 1.451.537.533 1.26.803 2.147.803.857 0 1.732-.261 2.6-.778.818-.485 1.657-1.214 2.495-2.165a.477.477 0 00.124-.316v-1.02c0-.212-.151-.404-.382-.486zm-4.837 4.24c-.702 0-1.26-.207-1.676-.62-.416-.413-.63-1.117-.645-2.114-2.02 1.324-3.288 2.09-3.804 2.296a6.71 6.71 0 01-2.472.456c-1.361 0-2.482-.395-3.364-1.185-.88-.79-1.321-1.828-1.321-3.115 0-.814.215-1.518.644-2.114.588-.825 1.609-1.603 3.063-2.332 1.454-.728 3.872-1.615 7.254-2.66v-.655c0-1.664-.312-2.806-.935-3.426-.623-.62-1.53-.929-2.719-.929-.902 0-1.62.207-2.149.62-.545.413-.817.886-.817 1.42l.043 1.057c0 .56-.168.99-.505 1.294-.337.304-.777.455-1.322.455-.53 0-.963-.157-1.3-.473-.337-.316-.505-.747-.505-1.294 0-1.044.63-2.004 1.891-2.878 1.261-.875 3.03-1.312 5.309-1.312 1.748 0 3.181.249 4.299.747.845.376 1.468.965 1.87 1.767.257.522.386 1.591.386 3.207v5.666c0 1.591.036 2.566.108 2.924.071.358.19.598.354.72a.934.934 0 00.57.182c.229 0 .43-.043.602-.128.3-.158.881-.601 1.74-1.33v1.02c-1.604 1.822-3.137 2.733-4.599 2.733z" fill="#b3b3b3"/></g></svg>