<svg xmlns="http://www.w3.org/2000/svg" width="74.9" height="74.9"><path d="M35.292 33.199c-.656-2.12-1.913-6.11-8.692-6.11-3.936 0-9.731 2.365-9.731 12.367 0 6.357 2.788 12.072 9.73 12.072 4.538 0 7.709-2.315 8.693-6.65h8.2c-1.64 7.686-7.216 13.057-17.056 13.057-10.442 0-17.932-6.356-17.932-18.576 0-12.368 7.927-18.675 18.041-18.675 11.754 0 16.51 7.293 16.947 12.516h-8.2v-.001z" fill="#dbe2e3"/><path d="M32.427 33.142c-.656-2.119-1.913-6.11-8.692-6.11-3.936 0-9.731 2.365-9.731 12.368 0 6.356 2.788 12.072 9.73 12.072 4.538 0 7.71-2.316 8.693-6.65h8.2c-1.64 7.686-7.216 13.057-17.056 13.057-10.442 0-17.931-6.357-17.931-18.576 0-12.368 7.927-18.675 18.04-18.675 11.754 0 16.51 7.292 16.947 12.515h-8.2z" fill="#00112b"/><path d="M27.725 33.063c-.656-2.119-1.914-6.11-8.693-6.11-3.936 0-9.73 2.365-9.73 12.368 0 6.356 2.788 12.072 9.73 12.072 4.538 0 7.709-2.316 8.693-6.65h8.2C34.285 52.428 28.709 57.8 18.868 57.8 8.427 57.8.938 51.443.938 39.224c0-12.368 7.926-18.675 18.04-18.675 11.754 0 16.51 7.292 16.947 12.515h-8.2z" fill="#06f"/><g font-weight="400" font-size="27.5" font-family="Sans" letter-spacing="0" word-spacing="0"><text y="22.459" x="54.588" style="line-height:125%" fill="#dbe2e3" transform="matrix(1.20097 0 0 1.20102 -25.82 22.59)"><tspan style="-inkscape-font-specification:'Sans Bold'" y="22.459" x="54.588" font-weight="700">+</tspan></text><text y="22.459" x="51.319" style="line-height:125%" fill="#00112b" transform="matrix(1.20097 0 0 1.20102 -25.82 22.59)"><tspan style="-inkscape-font-specification:'Sans Bold'" y="22.459" x="51.319" font-weight="700">+</tspan></text><text y="22.333" x="48.115" style="line-height:125%" fill="#06f" transform="matrix(1.20097 0 0 1.20102 -25.82 22.59)"><tspan style="-inkscape-font-specification:'Sans Bold'" y="22.333" x="48.115" font-weight="700">+</tspan></text></g><g font-weight="400" font-size="27.5" font-family="Sans" letter-spacing="0" word-spacing="0"><text y="22.459" x="54.588" style="line-height:125%" fill="#dbe2e3" transform="matrix(1.20097 0 0 1.20102 -11.716 22.81)"><tspan style="-inkscape-font-specification:'Sans Bold'" y="22.459" x="54.588" font-weight="700">+</tspan></text><text y="22.459" x="51.319" style="line-height:125%" fill="#00112b" transform="matrix(1.20097 0 0 1.20102 -11.716 22.81)"><tspan style="-inkscape-font-specification:'Sans Bold'" y="22.459" x="51.319" font-weight="700">+</tspan></text><text y="22.333" x="48.115" style="line-height:125%" fill="#06f" transform="matrix(1.20097 0 0 1.20102 -11.716 22.81)"><tspan style="-inkscape-font-specification:'Sans Bold'" y="22.333" x="48.115" font-weight="700">+</tspan></text></g></svg>