<svg xmlns="http://www.w3.org/2000/svg" xmlns:xlink="http://www.w3.org/1999/xlink" width="48" height="48"><defs><linearGradient id="a"><stop offset="0" stop-color="#fff" stop-opacity="0"/><stop offset="1" stop-color="#fff"/></linearGradient><linearGradient xlink:href="#a" id="f" x1="-81.96" y1="35.302" x2="-91.354" y2="-8.303" gradientUnits="userSpaceOnUse"/><linearGradient id="b"><stop offset="0" stop-color="#b8d67a"/><stop offset="1" stop-color="#789e2d"/></linearGradient><linearGradient xlink:href="#b" id="e" gradientUnits="userSpaceOnUse" x1="-85.335" y1="-6.819" x2="-91.537" y2="27.08" gradientTransform="translate(.527 -.023)"/><linearGradient id="c"><stop offset="0"/><stop offset="1" stop-opacity="0"/></linearGradient><radialGradient xlink:href="#c" id="d" gradientUnits="userSpaceOnUse" gradientTransform="matrix(1 0 0 .53672 0 16.873)" cx="24.837" cy="36.421" fx="24.837" fy="36.421" r="15.645"/></defs><path transform="matrix(1.21447 0 0 .59546 -6.164 20.313)" d="M40.482 36.421a15.645 8.397 0 11-31.29 0 15.645 8.397 0 1131.29 0z" style="marker:none" opacity=".205" fill="url(#d)" fill-rule="evenodd" overflow="visible"/><g stroke-width=".956" stroke-linecap="round" stroke-linejoin="round"><path style="marker:none" d="M-73.882-4.63a1.366 1.366 0 00-1.47.38l-16.383 18.116-5.93-7.578a1.376 1.376 0 00-1.948.09l-4.295 3.43a1.38 1.38 0 00.1 1.95s10.729 14.248 10.743 14.26c.133.12.283.2.44.26a1.376 1.376 0 001.511-.36L-69.02 1.487a1.38 1.38 0 00-.1-1.951l-4.282-3.886a1.414 1.414 0 00-.48-.28z" fill="url(#e)" stroke="#42770c" overflow="visible" transform="rotate(-13.464 21.942 -469.818) scale(1.04605)"/><path style="marker:none" d="M-74.979-3.202l-8.31 9.223-7.384 8.122c-.206.129-.283.674-1.051.685-.532.008-.578-.2-1.024-.666l-5.24-6.653c-.58-.75-.566-.715-1.198-.323l-3.378 2.653c-.878.58-.878 1.058-.14 1.825 0 0 9.759 12.933 9.772 12.945.126.113.058.125.576.706.333.372.895-.423 1.264-.831L-69.85 1.048c.482-.533.454-.531-.082-1.016l-3.849-3.393c-.553-.498-.557-.495-1.198.16z" opacity=".4" fill="none" stroke="url(#f)" overflow="visible" transform="rotate(-13.464 21.942 -469.818) scale(1.04605)"/></g></svg>