<svg xmlns="http://www.w3.org/2000/svg"  width="48" height="48" version="1.0"><defs><linearGradient id="c"><stop offset="0" stop-color="#fff"/><stop offset="1" stop-color="#fff" stop-opacity="0"/></linearGradient><linearGradient id="b"><stop offset="0" stop-color="#e2b369"/><stop offset="1" stop-color="#c79b55"/></linearGradient><linearGradient id="a"><stop offset="0" stop-color="#bfbcb3"/><stop offset="1" stop-color="#9c988a"/></linearGradient><linearGradient xlink:href="#a" id="i" x1="24.635" y1="7.203" x2="24.635" y2="12.381" gradientUnits="userSpaceOnUse"/><linearGradient xlink:href="#b" id="f" gradientUnits="userSpaceOnUse" x1="25.5" y1="-13.625" x2="26" y2="-39.125"/><linearGradient xlink:href="#c" id="h" x1="24.5" y1="-38.5" x2="24.5" y2="-1.625" gradientUnits="userSpaceOnUse"/><linearGradient id="d"><stop offset="0" stop-color="#fff"/><stop offset="1" stop-color="#ddd"/></linearGradient><linearGradient xlink:href="#d" id="k" gradientUnits="userSpaceOnUse" gradientTransform="matrix(.97161 0 0 1.28333 -40.478 -6.131)" x1="37.927" y1="37.669" x2="5.496" y2="10.983"/><filter x="-.085" width="1.171" y="-.737" height="2.474" id="j"><feGaussianBlur stdDeviation=".384"/></filter><filter x="-.091" width="1.181" y="-.319" height="1.638" id="g"><feGaussianBlur stdDeviation=".793"/></filter><filter x="-.084" width="1.167" y="-.452" height="1.904" id="e"><feGaussianBlur stdDeviation="1.469"/></filter></defs><rect ry="7.273" rx="4.486" y="38.438" x="19.515" height="6.5" width="35.125" style="marker:none" transform="matrix(.7245 0 0 .44686 6.172 23.28)" opacity=".353" color="#000" display="block" overflow="visible" filter="url(#e)" enable-background="accumulate"/><rect style="marker:none" width="35.125" height="6.5" x="6.875" y="35.875" rx="3.25" ry="5.281" transform="matrix(1 0 0 .61538 0 15.798)" opacity=".418" color="#000" display="block" overflow="visible" filter="url(#e)" enable-background="accumulate"/><rect style="marker:none" width="30" height="32" x="9.5" y="-40.5" rx="2.75" ry="2.75" transform="scale(1 -1)" color="#000" fill="url(#f)" stroke="#8f5902" display="block" overflow="visible" enable-background="accumulate"/><path d="M16.722 14.507h15.632c.973.044 1.027-1.89 1.027-1.89l-2.884-2.31.01-.754-12.016-.02v.89l-2.6 2.242s-.053 1.798.831 1.842z" style="marker:none" transform="matrix(1.05025 0 0 1.05025 -1.238 -1.666)" opacity=".441" color="#000" display="block" overflow="visible" filter="url(#g)" enable-background="accumulate"/><rect transform="scale(1 -1)" ry="1.25" rx="1.25" y="-39.289" x="10.635" height="29.578" width="27.73" style="marker:none" opacity=".418" color="#000" fill="none" stroke="url(#h)" display="block" overflow="visible" enable-background="accumulate"/><path style="marker:none" d="M16.722 12.507h15.632c.973.044 1.027-1.89 1.027-1.89l-2.884-2.31.01-3.754c0-.823-.693-1.934-1.7-1.934l-8.52-.088c-1.212 0-1.796 1.188-1.796 2.001v3.89l-2.6 2.243s-.053 1.798.831 1.842z" color="#000" fill="url(#i)" stroke="#555753" display="block" overflow="visible" enable-background="accumulate"/><rect style="marker:none" width="15" height="1.042" x="17" y="10" rx=".521" ry=".521" opacity=".465" color="#000" fill="#fff" display="block" overflow="visible" enable-background="accumulate"/><rect ry=".521" rx=".521" y="4" x="20" height="1.042" width="9" style="marker:none" opacity=".535" color="#000" fill="#fff" display="block" overflow="visible" enable-background="accumulate" filter="url(#j)"/><g transform="translate(-64 1.347)"><g color="#000" stroke-width="1.833" transform="matrix(.54545 0 0 .54545 106.46 17.135)"><rect style="marker:none" width="38.5" height="38.5" x="-36.592" y="5.419" rx="2.624" ry="2.624" fill="url(#k)" fill-rule="evenodd" stroke="#939393" overflow="visible"/><rect ry="1.05" rx="1.05" y="7.252" x="-34.758" height="34.833" width="34.833" style="marker:none" fill="none" stroke="#fff" overflow="visible"/></g><rect ry="0" rx="0" y="23.591" x="89" height="2.063" width="16" style="marker:none" color="#000" fill="#adaeab" fill-rule="evenodd" overflow="visible" enable-background="accumulate"/><rect ry="0" rx="0" y="27.591" x="89" height="2.063" width="16" style="marker:none" color="#000" fill="#adaeab" fill-rule="evenodd" overflow="visible" enable-background="accumulate"/><rect ry="0" rx="0" y="31.646" x="89" height="2.007" width="16" style="marker:none" color="#000" fill="#adaeab" fill-rule="evenodd" overflow="visible" enable-background="accumulate"/><rect ry="0" rx="0" y="35.591" x="89" height="2.063" width="9" style="marker:none" color="#000" fill="#adaeab" fill-rule="evenodd" overflow="visible" enable-background="accumulate"/></g></svg>