<?xml version="1.0" encoding="utf-8"?>
<!-- Generator: Adobe Illustrator 23.0.1, SVG Export Plug-In . SVG Version: 6.00 Build 0)  -->
<svg version="1.1" id="Layer_1" xmlns="http://www.w3.org/2000/svg" xmlns:xlink="http://www.w3.org/1999/xlink" x="0px" y="0px"
	 viewBox="0 0 48 48" style="enable-background:new 0 0 48 48;" xml:space="preserve">
<style type="text/css">
	.st16{fill:#BEBEBE;}
	.st17{fill:#B4B4B4;}
	.st19{fill:#D0D0D0;}
	.st20{fill:#DCDCDC;}
	.st21{fill:#D0D0D0;stroke:#FFFFFF;stroke-linecap:round;}
</style>

<path class="st16" d="M22.5,7.5c-6.8,0.2-13,2.3-13,5v27c0,2.8,6.4,5,14.5,5c8,0,14.5-2.2,14.5-5v-27c0-2.8-6.5-5-14.5-5
	c-0.4,0-0.8,0-1.1,0C22.7,7.5,22.6,7.5,22.5,7.5z"/>
<path class="st17" d="M22.4,6.5c-7.8,0.3-13.9,2.9-13.9,6v3c0,3.3,6.9,6,15.5,6s15.5-2.7,15.5-6v-3c0-3.3-7-6-15.5-6
	C23.4,6.5,22.9,6.5,22.4,6.5L22.4,6.5z"/>
<path class="st19" d="M39.5,11.7c0,2.8-6.9,4.8-15.5,4.8s-15.5-2.2-15.5-5s6.9-5,15.5-5S39.5,9.5,39.5,11.7z"/>
<path class="st16" d="M28.3,9H30c0.2,0,0.5,0.2,0.5,0.4l0.4,1.2c0.1,0.2-0.1,0.4-0.3,0.4h-1.7c-0.2,0-0.5-0.2-0.5-0.4L28,9.4
	C27.9,9.2,28.1,9,28.3,9z"/>
<path class="st16" d="M17.4,10.9h1.7c0.2,0,0.5-0.2,0.5-0.4L20,9.4C20.1,9.2,19.9,9,19.7,9H18c-0.2,0-0.5,0.2-0.5,0.4l-0.4,1.2
	C17,10.8,17.1,10.9,17.4,10.9z"/>
<path class="st20" d="M19.5,9L19,11h1c0-1.5,2.3-4,4-4s4,2.5,4,4h1l-0.5-2C28.2,7.2,27,4.5,24,4.5C21,4.5,19.8,7.3,19.5,9z"/>
<path class="st21" d="M17.5,11h2c0,0,0.5-3.5,4.5-3.5c4,0,4.5,3.5,4.5,3.5h2"/>
</svg>
