<svg xmlns="http://www.w3.org/2000/svg" xmlns:xlink="http://www.w3.org/1999/xlink" width="48" height="48" version="1.0"><defs><linearGradient id="a"><stop offset="0" stop-color="#f0f0ee"/><stop offset="1" stop-color="#dedede"/></linearGradient><linearGradient xlink:href="#a" id="d" gradientUnits="userSpaceOnUse" gradientTransform="matrix(.97545 0 0 1.06027 1.262 .903)" x1="11" y1="17" x2="11" y2="-3"/><linearGradient id="b"><stop offset="0"/><stop offset="1" stop-opacity="0"/></linearGradient><radialGradient xlink:href="#b" id="c" gradientUnits="userSpaceOnUse" gradientTransform="matrix(1 0 0 .28492 0 30.09)" cx="24.307" cy="42.078" fx="24.307" fy="42.078" r="15.822"/></defs><g id="e" transform="matrix(1.47368 0 0 1.47368 1.046 .263)" color="#000"><path transform="matrix(.60045 0 0 .4516 -3.095 1.176)" d="M40.128 42.078a15.822 4.508 0 11-31.643 0 15.822 4.508 0 1131.643 0z" style="marker:none" opacity=".473" fill="url(#c)" fill-rule="evenodd" stroke-width="2" stroke-linecap="round" stroke-linejoin="round" overflow="visible"/><rect ry="1.018" rx="1.018" y="3.554" x="3.701" height="16.964" width="15.607" style="marker:none" fill="url(#d)" stroke="#888a85" stroke-width=".679" stroke-miterlimit="10.433" overflow="visible"/><rect style="marker:none" width="14.129" height="15.607" x="4.5" y="4.232" rx=".339" ry=".339" fill="none" stroke="#fff" stroke-width=".679" stroke-miterlimit="10.433" overflow="visible"/><path style="marker:none" fill="#91938e" stroke-miterlimit="10.433" overflow="visible" d="M6.076 5.929h10.857v.679H6.076zM6.076 7.286h10.857v.679H6.076zM6.076 8.643h10.857v.679H6.076zM6.076 10h10.857v.679H6.076zM6.076 11.357h10.857v.679H6.076zM6.076 12.714h10.857v.679H6.076zM6.076 16.786h6.107v.679H6.076zM6.076 14.071h10.857v.679H6.076zM6.076 15.429h10.857v.679H6.076z"/></g><use xlink:href="#e" transform="translate(15 12)" width="32" height="32"/></svg>