<svg xmlns="http://www.w3.org/2000/svg"  width="48" height="48"><defs><radialGradient xlink:href="#a" id="d" cx="16.688" cy="42.063" fx="16.688" fy="42.063" r="7.063" gradientTransform="matrix(1 0 0 .39823 0 25.312)" gradientUnits="userSpaceOnUse"/><radialGradient xlink:href="#a" id="e" cx="16.688" cy="42.063" fx="16.688" fy="42.063" r="7.063" gradientTransform="matrix(1 0 0 .39823 0 25.312)" gradientUnits="userSpaceOnUse"/><radialGradient xlink:href="#b" id="c" cx="25.016" cy="37.813" fx="25.016" fy="37.813" r="7.953" gradientTransform="matrix(1 0 0 .444 0 21.023)" gradientUnits="userSpaceOnUse"/><linearGradient id="b"><stop offset="0"/><stop offset="1" stop-opacity="0"/></linearGradient><linearGradient id="a"><stop offset="0"/><stop offset="1" stop-opacity="0"/></linearGradient></defs><path style="marker:none" d="M32.969 37.813a7.953 3.531 0 11-15.907 0 7.953 3.531 0 1115.907 0z" transform="matrix(1.0059 0 0 .99115 .837 1.022)" opacity=".11" color="#000" fill="url(#c)" overflow="visible"/><g opacity=".3" color="#000"><path transform="matrix(.99115 0 0 1.06667 .46 -4.273)" d="M23.75 42.063a7.063 2.813 0 11-14.125 0 7.063 2.813 0 1114.125 0z" style="marker:none" fill="url(#d)" overflow="visible"/><path transform="matrix(.99115 0 0 1.06667 16.46 -4.273)" d="M23.75 42.063a7.063 2.813 0 11-14.125 0 7.063 2.813 0 1114.125 0z" style="marker:none" fill="url(#e)" overflow="visible"/></g><path d="M16.555 10.843l11.606 19.495-10.75-21.353-.856 1.858z" opacity=".6" fill="#fff" fill-rule="evenodd"/><path d="M16.5 8.064s-1.961 2.263-2 8.002c-.039 5.79 12.045 17.379 12.045 17.379l1.884-1.617L16.5 8.064z" fill="#d9d6d0" fill-rule="evenodd" stroke="#888a85"/><path d="M16.502 10.485s-.868 1.664-1 5.683c-.134 4.055 10.722 16.082 10.722 16.082l.974-.53-10.696-21.235z" opacity=".4" fill="none" stroke="#fff"/><path d="M15.238 12.575l11.305 18.608.699-.572-10.75-21.353-1.254 3.317z" opacity=".6" fill="#fff" fill-rule="evenodd"/><path d="M32.466 41.45c3.564-.052 5-2.672 5-5.965 0-3.088-1.98-5.63-4.5-5.935l-4.687-.031-2.813 2.703c.676 1.303 1.914 2.416 1.938 3.418.047 2.093 1.5 5.863 5.062 5.81zm.031-3.075c-2.058.035-3.109-1.308-3.085-2.704l.072-4.142 3.326.03c1.456.204 2.594 1.93 2.594 3.988 0 2.195-.848 2.793-2.907 2.828z" fill="#ef2929" stroke="#a40000" stroke-width="1.068" stroke-linecap="round"/><path d="M32.494 7.5s2.012 2.56 2 7.977c-.012 5.416-11.743 17.576-11.743 17.576l-2.186-1.864L32.494 7.5z" fill="#d9d6d0" fill-rule="evenodd" stroke="#888a85"/><path d="M32.55 9.754s.868 1.665 1 5.684c.133 4.054-10.722 16.082-10.722 16.082l-.974-.53L32.549 9.753z" opacity=".4" fill="none" stroke="#fff"/><path d="M16.534 41.45c-3.564-.052-5-2.672-5-5.965 0-3.088 1.98-5.63 4.5-5.935l4.687-.031 2.813 2.703c-.676 1.303-1.914 2.416-1.938 3.418-.047 2.093-1.5 5.863-5.062 5.81zm-.031-3.031c2.058.035 2.977-1.352 2.977-2.748v-4.102l-3.29.032c-1.456.203-2.594 1.887-2.594 3.946 0 2.195.848 2.837 2.907 2.872z" fill="#ef2929" stroke="#a40000" stroke-width="1.068" stroke-linecap="round"/><path d="M33.751 11.898L22.446 30.506l-.699-.572 10.75-21.353 1.254 3.317z" opacity=".6" fill="#fff" fill-rule="evenodd"/><path d="M16.672 40.45c-2.95-.043-4.138-2.224-4.138-4.965 0-2.57 1.639-4.686 3.724-4.94l3.88-.026 2.016 1.937c-.59.929-1.491 1.636-1.51 2.47-.04 1.743-1.023 5.568-3.972 5.524zM32.328 40.45c2.95-.043 4.138-2.224 4.138-4.965 0-2.57-1.639-4.686-3.724-4.94l-3.88-.026-2.016 1.938c.59.928 1.491 1.636 1.51 2.47.04 1.742 1.023 5.567 3.972 5.523z" opacity=".2" fill="none" stroke="#fff" stroke-width="1.068" stroke-linecap="round"/><path d="M25.5 28.079a1.219 1.219 0 10-2.438 0 1.219 1.219 0 102.438 0z" style="marker:none" color="#000" fill="#fff" stroke="#888a85" overflow="visible"/><path d="M21.77 27.69l2.078-3.978-.708-1.326-1.37 5.303z" style="marker:none" opacity=".156" color="#000" overflow="visible"/><path d="M27.969 31.492a.493.493 0 10-.985 0 .493.493 0 10.985 0zM15 31.492a.493.493 0 10-.985 0 .493.493 0 10.985 0z" style="marker:none" opacity=".648" color="#000" fill="#fff" overflow="visible"/><path style="marker:none" d="M24.887 27.648a.977.977 0 10-1.954 0 .977.977 0 101.954 0z" color="#000" fill="#fff" overflow="visible"/></svg>