<svg xmlns="http://www.w3.org/2000/svg" xmlns:xlink="http://www.w3.org/1999/xlink" width="48" height="48" version="1.0"><defs><linearGradient id="s"><stop offset="0" stop-color="#fff"/><stop offset="1" stop-color="#fff" stop-opacity="0"/></linearGradient><linearGradient id="r"><stop offset="0" stop-color="#fff"/><stop offset="1" stop-color="#fff" stop-opacity="0"/></linearGradient><linearGradient id="q"><stop offset="0" stop-color="#fff"/><stop offset="1" stop-color="#fff" stop-opacity="0"/></linearGradient><linearGradient id="p"><stop offset="0" stop-color="#fff"/><stop offset="1" stop-color="#fff" stop-opacity="0"/></linearGradient><linearGradient id="n"><stop offset="0" stop-color="#fff"/><stop offset="1" stop-color="#fff" stop-opacity="0"/></linearGradient><linearGradient id="m"><stop offset="0" stop-color="#fff"/><stop offset="1" stop-color="#fff" stop-opacity="0"/></linearGradient><linearGradient id="l"><stop offset="0"/><stop offset="1" stop-opacity="0"/></linearGradient><linearGradient id="k"><stop offset="0"/><stop offset="1" stop-opacity="0"/></linearGradient><linearGradient id="j"><stop offset="0" stop-color="#d3d7cf"/><stop offset="1" stop-color="#eeeeec"/></linearGradient><linearGradient id="i"><stop offset="0" stop-color="#888a85"/><stop offset="1" stop-color="#d3d7cf"/></linearGradient><linearGradient id="g"><stop offset="0"/><stop offset="1" stop-opacity="0"/></linearGradient><linearGradient id="f"><stop offset="0" stop-opacity=".323"/><stop offset="1" stop-opacity="0"/></linearGradient><linearGradient id="h"><stop offset="0" stop-color="#95998e"/><stop offset=".595" stop-color="#fff"/><stop offset="1" stop-color="#dfdfdb"/></linearGradient><linearGradient id="e"><stop offset="0"/><stop offset="1" stop-opacity="0"/></linearGradient><linearGradient id="d"><stop offset="0" stop-color="#babdb6"/><stop offset="1" stop-color="#fff"/></linearGradient><linearGradient id="c"><stop offset="0" stop-color="#fff"/><stop offset="1" stop-color="#fff" stop-opacity="0"/></linearGradient><linearGradient id="b"><stop offset="0" stop-color="#6d6f6a"/><stop offset=".618" stop-color="#e7e8e5"/><stop offset="1" stop-color="#999b96"/></linearGradient><linearGradient id="a"><stop offset="0" stop-color="#555753"/><stop offset=".618" stop-color="#d5d9d2"/><stop offset="1" stop-color="#888a85"/></linearGradient><linearGradient id="o"><stop offset="0"/><stop offset="1" stop-color="#fff"/></linearGradient><linearGradient xlink:href="#a" id="u" x1="45.631" y1="17.86" x2="6.123" y2="17.86" gradientUnits="userSpaceOnUse"/><linearGradient xlink:href="#b" id="J" x1="43.3" y1="11.686" x2="5.254" y2="11.686" gradientUnits="userSpaceOnUse"/><linearGradient xlink:href="#d" id="L" x1="26.965" y1="10.081" x2="15.96" y2="20.609" gradientUnits="userSpaceOnUse"/><linearGradient xlink:href="#f" id="T" x1="6.25" y1="8.242" x2="6.25" y2="10.94" gradientUnits="userSpaceOnUse" gradientTransform="translate(18)"/><linearGradient xlink:href="#h" id="K" gradientUnits="userSpaceOnUse" x1="29" y1="7.75" x2="19" y2="7.75"/><linearGradient xlink:href="#i" id="R" x1="26.464" y1="9.528" x2="26.127" y2="10.809" gradientUnits="userSpaceOnUse"/><linearGradient xlink:href="#j" id="S" x1="21.084" y1="-8.572" x2="21.674" y2="-10.483" gradientUnits="userSpaceOnUse"/><linearGradient xlink:href="#m" id="v" x1="18.871" y1="39.25" x2="42.269" y2="39.25" gradientUnits="userSpaceOnUse"/><linearGradient xlink:href="#n" id="N" x1="18.247" y1="16.375" x2="46.328" y2="16.375" gradientUnits="userSpaceOnUse"/><linearGradient xlink:href="#o" id="A" gradientUnits="userSpaceOnUse" gradientTransform="matrix(1.14286 0 0 1 -3 1)" x1="12.02" y1="25.62" x2="20.114" y2="25.563"/><linearGradient xlink:href="#o" id="z" gradientUnits="userSpaceOnUse" gradientTransform="matrix(.83333 0 0 1 2.25 1)" x1="6.875" y1="24.827" x2="15.672" y2="25"/><linearGradient xlink:href="#o" id="y" gradientUnits="userSpaceOnUse" gradientTransform="matrix(1.25 0 0 1 -8.875 1)" x1="32.699" y1="24.5" x2="37.535" y2="24.5"/><linearGradient xlink:href="#o" id="x" gradientUnits="userSpaceOnUse" gradientTransform="matrix(1.14286 0 0 1 -3.857 1)" x1="26.997" y1="25.188" x2="31.362" y2="25.276"/><linearGradient xlink:href="#o" id="w" gradientUnits="userSpaceOnUse" gradientTransform="matrix(.83333 0 0 1 3.667 1)" x1="21.096" y1="26.125" x2="25.977" y2="26.125"/><linearGradient xlink:href="#p" id="D" x1="20.002" y1="39.688" x2="16.62" y2="38.461" gradientUnits="userSpaceOnUse" gradientTransform="translate(1.005)"/><linearGradient xlink:href="#q" id="B" x1="27.006" y1="41" x2="21.97" y2="39.023" gradientUnits="userSpaceOnUse" gradientTransform="matrix(.61028 0 0 1 9.345 0)"/><linearGradient xlink:href="#r" id="C" x1="33.399" y1="41.207" x2="30" y2="37.973" gradientUnits="userSpaceOnUse" gradientTransform="translate(-.997)"/><linearGradient xlink:href="#s" id="E" x1="36.563" y1="40.76" x2="36.563" y2="32.848" gradientUnits="userSpaceOnUse"/><linearGradient xlink:href="#s" id="F" x1="11.5" y1="38.063" x2="11.5" y2="29.922" gradientUnits="userSpaceOnUse"/><linearGradient xlink:href="#p" id="G" gradientUnits="userSpaceOnUse" gradientTransform="matrix(.69295 0 0 1 2.07 -.978)" x1="21.445" y1="38.813" x2="17.216" y2="38.211"/><linearGradient xlink:href="#r" id="H" gradientUnits="userSpaceOnUse" gradientTransform="matrix(.64642 0 0 1 14.071 -1)" x1="33.399" y1="41.207" x2="30" y2="37.973"/><radialGradient xlink:href="#c" id="O" cx="18.034" cy="27.858" fx="18.034" fy="27.858" r="15.447" gradientTransform="matrix(1.21882 -.17313 .05317 .2095 -4.452 12.172)" gradientUnits="userSpaceOnUse"/><radialGradient xlink:href="#e" id="t" cx="23.969" cy="12.219" fx="23.969" fy="12.219" r="14.969" gradientTransform="matrix(.94564 0 0 .32574 1.303 8.239)" gradientUnits="userSpaceOnUse"/><radialGradient xlink:href="#g" id="M" cx="24" cy="12.5" fx="24" fy="12.5" r="15.5" gradientTransform="matrix(1 0 0 .3871 0 7.661)" gradientUnits="userSpaceOnUse"/><radialGradient xlink:href="#k" id="Q" cx="18.75" cy="10.75" fx="18.75" fy="10.75" r="2.75" gradientTransform="matrix(1 0 0 .63636 0 3.91)" gradientUnits="userSpaceOnUse"/><radialGradient xlink:href="#k" id="P" gradientUnits="userSpaceOnUse" gradientTransform="matrix(1 0 0 .63636 0 3.91)" cx="18.75" cy="10.75" fx="18.75" fy="10.75" r="2.75"/><radialGradient xlink:href="#l" id="I" cx="24" cy="18.468" fx="24" fy="18.468" r="14" gradientTransform="matrix(1 0 0 .30363 0 14.142)" gradientUnits="userSpaceOnUse"/><radialGradient xlink:href="#c" id="U" gradientUnits="userSpaceOnUse" gradientTransform="matrix(1.67982 -.03179 .0072 .21318 -9.223 10.39)" cx="12.143" cy="17.987" fx="12.143" fy="17.987" r="15.447"/></defs><g color="#000"><path style="marker:none" d="M38.938 12.219a14.969 5.156 0 11-29.938 0 14.969 5.156 0 1129.938 0z" transform="matrix(1.35846 0 0 1.37462 -8.56 23.394)" opacity=".8" fill="url(#t)" overflow="visible"/><path style="marker:none" d="M22.5 7.5c-6.757.234-13 2.255-13 5v27c0 2.766 6.44 5 14.469 5 8.028 0 14.531-2.234 14.531-5v-27c0-2.766-6.503-5-14.531-5-.377 0-.756-.01-1.125 0-.118.003-.228-.004-.344 0z" fill="url(#u)" stroke="#555753" stroke-width="1.029" stroke-linecap="round" overflow="visible"/><path style="marker:none" d="M22.938 8.5c-6.58.158-11.837 1.944-12.42 4.016-.016.063-.018 26.919-.018 26.984 0 2 6.41 4 13.469 4 7.291 0 13.531-2 13.531-4 0-.046.005-26.83 0-26.875-.275-2.283-6.24-4.125-13.531-4.125-.35 0-.688-.008-1.032 0z" opacity=".71" fill="none" stroke="url(#v)" stroke-linecap="round" overflow="visible"/><rect style="marker:none" width="4" height="22" x="22" y="19" rx="2" ry="2" opacity=".3" fill="url(#w)" overflow="visible"/><rect style="marker:none" width="4" height="22" x="27" y="18.5" rx="2.286" ry="2" opacity=".3" fill="url(#x)" overflow="visible"/><rect style="marker:none" width="3" height="22" x="32" y="17.5" rx="1.5" ry="1.5" opacity=".3" fill="url(#y)" overflow="visible"/><rect style="marker:none" width="1" height="22" x="36" y="15.5" rx=".5" ry="2" opacity=".3" overflow="visible"/><rect style="marker:none" width="1" height="22" x="11" y="16" rx=".5" ry="2" opacity=".3" fill="#fff" overflow="visible"/><rect style="marker:none" width="3" height="22" x="13" y="17.5" rx="1.5" ry="1.5" opacity=".5" fill="url(#z)" overflow="visible"/><rect style="marker:none" width="4" height="22" x="17" y="18.5" rx="2.286" ry="2" opacity=".5" fill="url(#A)" overflow="visible"/><rect style="marker:none" width="3.063" height="21.023" x="22.459" y="19.478" rx="1.531" ry="1.531" fill="none" stroke="url(#B)" stroke-linecap="round" overflow="visible"/><rect style="marker:none" width="3.006" height="21.001" x="27.5" y="19" rx="1.503" ry="1.492" opacity=".494" fill="none" stroke="url(#C)" stroke-linecap="round" overflow="visible"/><rect style="marker:none" width="3.007" height="21.022" x="17.5" y="18.978" rx="1.718" ry="1.536" fill="none" stroke="url(#D)" stroke-linecap="round" overflow="visible"/><rect style="marker:none" width="1" height="22" x="36" y="15.5" rx=".5" ry="2" opacity=".4" fill="url(#E)" overflow="visible"/><rect style="marker:none" width="1" height="22" x="11" y="16" rx=".5" ry="2" opacity=".3" fill="url(#F)" overflow="visible"/><rect style="marker:none" width="2.084" height="21.022" x="13.5" y="18" rx="1.718" ry="1.536" fill="none" stroke="url(#G)" stroke-linecap="round" overflow="visible"/><rect style="marker:none" width="1.943" height="21.001" x="32.492" y="18" rx=".972" ry=".972" opacity=".494" fill="none" stroke="url(#H)" stroke-linecap="round" overflow="visible"/></g><path style="marker:none" d="M23.188 15.5c-5.683.077-10.586.957-13.188 2.207v4.086C12.727 23.103 17.97 24 24 24s11.273-.897 14-2.207v-4.086c-2.727-1.31-7.97-2.207-14-2.207-.276 0-.54-.004-.813 0z" opacity=".553" color="#000" fill="url(#I)" overflow="visible"/><path style="marker:none" d="M22.42 6.51c-7.815.307-13.922 2.87-13.922 5.976v3.004c0 3.311 6.927 6.007 15.485 6.007S39.5 18.801 39.5 15.49v-3.004c0-3.312-6.959-5.977-15.517-5.977-.535 0-1.043-.02-1.564 0z" color="#000" fill="url(#J)" stroke="#555753" stroke-linecap="round" overflow="visible"/><path style="marker:none" d="M19.5 9l-.5 2h1c0-1.5 2.301-3.996 4-3.996 1.699 0 4 2.496 4 3.996h1l-.5-2C28.23 7.17 27 4.5 24 4.504 21 4.507 19.758 7.255 19.5 9z" color="#000" fill="url(#K)" stroke="#555753" stroke-width="2" stroke-linecap="round" overflow="visible"/><path transform="matrix(.96774 0 0 .83333 .774 1.583)" style="marker:none" d="M39.5 12.712c0 3.312-6.944 5.788-15.5 5.788-8.556 0-15.5-2.688-15.5-6s6.944-6 15.5-6c8.556 0 15.5 3.64 15.5 6.212z" color="#000" fill="url(#L)" overflow="visible"/><path style="marker:none" d="M39.5 12.5a15.5 6 0 11-31 0 15.5 6 0 1131 0z" transform="matrix(.54006 0 0 .46505 11.039 4.687)" opacity=".3" color="#000" fill="url(#M)" overflow="visible"/><path style="marker:none" d="M22.53 7.5C15.216 7.767 9.5 9.997 9.5 12.698v2.612c0 2.88 6.484 5.225 14.494 5.225s14.523-2.344 14.523-5.225v-2.612c0-2.88-6.513-5.198-14.523-5.198-.5 0-.977-.018-1.464 0z" opacity=".565" color="#000" fill="none" stroke="url(#N)" stroke-linecap="round" overflow="visible"/><path style="marker:none" d="M38.5 10.5a15 4 0 11-30 0 15 4 0 1130 0z" transform="matrix(.96774 0 0 1.2936 1.274 -1.908)" color="#000" fill="none" stroke="url(#O)" stroke-width=".894" stroke-linecap="round" overflow="visible"/><g opacity=".557" color="#000"><path transform="matrix(.9091 0 0 .85714 12.455 1.286)" d="M21.5 10.75a2.75 1.75 0 11-5.5 0 2.75 1.75 0 115.5 0z" style="marker:none" fill="url(#P)" overflow="visible"/><path transform="matrix(.9091 0 0 .85714 1.455 1.286)" d="M21.5 10.75a2.75 1.75 0 11-5.5 0 2.75 1.75 0 115.5 0z" style="marker:none" fill="url(#Q)" overflow="visible"/></g><rect style="marker:none" width="2.543" height="2.038" x="24.957" y="9.462" rx=".418" ry=".391" transform="skewX(17.984) scale(1 .95114)" color="#000" fill="url(#R)" overflow="visible"/><path transform="matrix(1 0 .30875 -.95114 0 0)" style="marker:none" d="M20.918-11.5h1.706c.232 0 .418.174.418.391v1.256c0 .216-.186.39-.418.39h-1.706c-.232 0-.418-.174-.418-.39v-1.256c0-.217.186-.391.418-.391z" color="#000" fill="url(#S)" overflow="visible"/><path style="marker:none" d="M19.5 9l-.5 2h1c0-1.5 2.301-3.996 4-3.996 1.699 0 4 2.496 4 3.996h1l-.5-2C28.23 7.17 27 4.5 24 4.504 21 4.507 19.758 7.255 19.5 9z" color="#000" fill="url(#K)" overflow="visible"/><path style="marker:none" d="M17.5 11h2S20 7.5 24 7.504C28.002 7.507 28.5 11 28.5 11h1.97" color="#000" fill="url(#T)" stroke="#fff" stroke-linecap="round" overflow="visible"/><path style="marker:none" d="M38.5 10.5a15 4 0 11-30 0 15 4 0 1130 0z" transform="matrix(.53539 0 0 .71566 11.435 4.16)" color="#000" fill="none" stroke="url(#U)" stroke-width="1.616" stroke-linecap="round" overflow="visible"/><path style="line-height:125%" d="M23.504 10.608h.044l.018.074.047-.074h.046l-.027.14h-.035l.02-.103-.048.076h-.02l-.019-.076-.02.103h-.034l.028-.14m.185.035h.034l-.02.105h-.034l.02-.105m.008-.04h.034l-.006.027h-.033l.005-.028m.143.044l-.006.027a.061.061 0 00-.013-.006.038.038 0 00-.013-.003c-.01 0-.02.004-.026.011a.039.039 0 00-.01.028c0 .008.001.013.006.017.004.004.01.006.018.006a.052.052 0 00.03-.009l-.005.027a.102.102 0 01-.034.006.058.058 0 01-.038-.01.039.039 0 01-.013-.032.066.066 0 01.019-.047.065.065 0 01.023-.015.083.083 0 01.046-.004.09.09 0 01.016.004m.1.025a.03.03 0 00-.007-.003.038.038 0 00-.01 0 .03.03 0 00-.02.008.044.044 0 00-.012.023l-.01.049h-.033l.02-.105h.034l-.004.018a.045.045 0 01.043-.02h.005l-.005.03m.067-.007a.025.025 0 00-.021.012.05.05 0 00-.008.03c0 .007.001.012.004.015.003.004.008.005.013.005a.025.025 0 00.022-.011.05.05 0 00.008-.03c0-.007-.001-.012-.004-.016-.003-.003-.008-.005-.014-.005m.003-.024c.016 0 .028.004.037.012a.041.041 0 01.013.033.065.065 0 01-.039.06.072.072 0 01-.029.005.053.053 0 01-.036-.012.041.041 0 01-.013-.032c0-.008.001-.015.004-.023a.07.07 0 01.012-.02.061.061 0 01.022-.017.072.072 0 01.03-.006m.163.006l-.005.026a.104.104 0 00-.02-.007.076.076 0 00-.018-.002c-.006 0-.011 0-.015.002-.003.002-.005.004-.005.008 0 .001 0 .003.003.004a.048.048 0 00.012.004h.006a.068.068 0 01.028.012c.005.004.008.01.008.019a.033.033 0 01-.014.028.068.068 0 01-.04.01.148.148 0 01-.045-.006l.005-.027a.076.076 0 00.056.008c.004-.001.006-.004.006-.007a.006.006 0 00-.003-.005.044.044 0 00-.013-.004l-.006-.001a.053.053 0 01-.025-.011.027.027 0 01-.008-.02c0-.012.005-.02.013-.027a.065.065 0 01.038-.01.148.148 0 01.042.006m.02.06l.012-.063h.034l-.01.054a.16.16 0 00-.003.015c0 .004.001.007.003.01.002.002.006.003.01.003a.024.024 0 00.017-.008.045.045 0 00.01-.023l.01-.051h.034l-.02.105h-.034l.003-.016a.061.061 0 01-.018.014.046.046 0 01-.02.004.03.03 0 01-.022-.007.028.028 0 01-.007-.022.068.068 0 01.001-.014m.234-.06l-.005.026a.061.061 0 00-.013-.006.038.038 0 00-.013-.003c-.01 0-.02.004-.027.011a.039.039 0 00-.01.028c0 .008.002.013.006.017.005.004.01.006.019.006a.052.052 0 00.03-.009l-.006.027a.102.102 0 01-.033.006.058.058 0 01-.038-.01.039.039 0 01-.014-.032.066.066 0 01.02-.047.065.065 0 01.023-.015.083.083 0 01.046-.004.09.09 0 01.015.004m.037-.044h.034l-.016.079.045-.038h.04l-.061.048.044.057h-.038l-.034-.046-.009.046h-.033l.028-.146m.2.044l-.005.026a.104.104 0 00-.02-.007.076.076 0 00-.017-.002c-.007 0-.012 0-.016.002-.003.002-.005.004-.005.008 0 .001 0 .003.003.004a.048.048 0 00.012.004h.006a.068.068 0 01.028.012c.006.004.008.01.008.019a.033.033 0 01-.014.028.068.068 0 01-.04.01.148.148 0 01-.045-.006l.005-.027a.076.076 0 00.057.008c.003-.001.005-.004.005-.007a.006.006 0 00-.003-.005.044.044 0 00-.012-.004l-.006-.001a.053.053 0 01-.026-.011.027.027 0 01-.008-.02c0-.012.005-.02.013-.027a.065.065 0 01.038-.01.148.148 0 01.042.006" font-size=".574" font-weight="400" opacity=".263" font-family="Bitstream Vera Sans"/></svg>