<svg xmlns="http://www.w3.org/2000/svg" xmlns:xlink="http://www.w3.org/1999/xlink" width="512" height="512"><defs><linearGradient id="f"><stop offset="0" stop-color="#edd400"/><stop offset="1" stop-color="#fce94f"/></linearGradient><linearGradient id="h"><stop offset="0" stop-color="#fff"/><stop offset="1" stop-color="#fff" stop-opacity="0"/></linearGradient><linearGradient id="g"><stop offset="0" stop-color="#fff"/><stop offset="1" stop-color="#fff" stop-opacity="0"/></linearGradient><linearGradient id="e"><stop offset="0"/><stop offset="1" stop-opacity="0"/></linearGradient><linearGradient id="d"><stop offset="0" stop-color="#73d216"/><stop offset="1" stop-color="#8ae234"/></linearGradient><linearGradient id="c"><stop offset="0" stop-color="#fff"/><stop offset="1" stop-color="#fff" stop-opacity="0"/></linearGradient><linearGradient id="b"><stop offset="0" stop-color="#fff"/><stop offset="1" stop-color="#fff" stop-opacity="0"/></linearGradient><linearGradient id="a"><stop offset="0"/><stop offset="1" stop-opacity="0"/></linearGradient><linearGradient xlink:href="#f" id="j" gradientUnits="userSpaceOnUse" x1="25.446" y1="20.688" x2="25.446" y2="16.375"/><linearGradient xlink:href="#g" id="k" gradientUnits="userSpaceOnUse" x1="21.677" y1="29.705" x2="18.072" y2="55.692"/><linearGradient xlink:href="#h" id="l" gradientUnits="userSpaceOnUse" gradientTransform="matrix(-1.43064 0 0 1.43016 50.646 2.355)" x1="15.457" y1="8.734" x2="25.561" y2="13.526"/><radialGradient xlink:href="#e" id="i" gradientUnits="userSpaceOnUse" gradientTransform="matrix(1 0 0 .53672 0 16.873)" cx="24.837" cy="36.421" fx="24.837" fy="36.421" r="15.645"/></defs><path d="M183.504 53.754c-69.75 0-126.496 56.746-126.496 126.496s56.746 126.496 126.496 126.496S310.001 250 310.001 180.25 253.254 53.754 183.504 53.754z" fill="none"/><path d="M497.368 450.74L390.014 343.387a15.135 15.135 0 00-10.735-4.446 15.135 15.135 0 00-10.735 4.446l-.588.587-53.623-53.623c25.061-29.749 40.171-68.158 40.171-110.101 0-94.441-76.56-171-171-171-94.441 0-171 76.559-171 171 0 94.44 76.559 171 171 171 39.527 0 75.917-13.418 104.877-35.939L342.5 369.43l-.795.795c-5.929 5.931-5.929 15.542 0 21.472L449.057 499.05a15.143 15.143 0 0010.737 4.446c3.885 0 7.771-1.482 10.735-4.446l26.838-26.838c5.93-5.929 5.93-15.544.001-21.472zM183.504 315.25c-74.559 0-135-60.441-135-135s60.441-135 135-135 135 60.441 135 135-60.441 135-135 135z"/><path d="M503.379 444.726L396.028 337.374a23.53 23.53 0 00-16.749-6.938c-3.676 0-7.224.831-10.429 2.405l-43.103-43.103a178.694 178.694 0 0026.039-46.899c7.446-20.004 11.222-41.063 11.222-62.59 0-24.229-4.747-47.738-14.11-69.874-9.041-21.376-21.983-40.572-38.466-57.055-16.482-16.482-35.679-29.424-57.055-38.465C231.242 5.493 207.733.746 183.504.746c-24.229 0-47.738 4.747-69.874 14.11-21.376 9.041-40.572 21.983-57.055 38.465C40.093 69.804 27.151 89 18.11 110.376 8.747 132.512 4 156.021 4 180.25c0 24.229 4.747 47.738 14.11 69.874 9.041 21.376 21.983 40.573 38.465 57.055 16.483 16.482 35.679 29.424 57.055 38.466 22.135 9.362 45.645 14.109 69.874 14.109 20.294 0 40.214-3.364 59.207-10a178.652 178.652 0 0044.854-23.233l43.742 43.742c-4.489 8.887-3.027 20.033 4.385 27.446l107.352 107.353c4.478 4.475 10.426 6.938 16.751 6.938a23.535 23.535 0 0016.747-6.936l26.84-26.84a23.528 23.528 0 006.938-16.748 23.529 23.529 0 00-6.941-16.75zm-43.584 58.769a15.141 15.141 0 01-10.737-4.446L341.706 391.696c-5.929-5.93-5.929-15.541 0-21.472l.795-.795-54.119-54.119c-28.961 22.522-65.351 35.94-104.878 35.94-94.441 0-171-76.56-171-171 0-94.441 76.559-171 171-171 94.44 0 171 76.559 171 171 0 41.943-15.11 80.352-40.172 110.101l53.623 53.623.588-.587a15.135 15.135 0 0110.735-4.446c3.885 0 7.771 1.482 10.735 4.446L497.368 450.74c5.93 5.928 5.93 15.543 0 21.471l-26.838 26.838a15.137 15.137 0 01-10.735 4.446z" fill="#b3b3b3"/><path d="M183.504 45.25c-74.559 0-135 60.441-135 135s60.441 135 135 135 135-60.441 135-135-60.441-135-135-135zm0 261.496c-69.75 0-126.496-56.746-126.496-126.496S113.754 53.754 183.504 53.754 310.001 110.5 310.001 180.25s-56.747 126.496-126.497 126.496z" fill="#b3b3b3"/><g transform="matrix(-7.28754 0 0 8.72339 319.701 120.756)"><ellipse transform="matrix(1.47967 0 0 -.87235 -13.551 72.567)" style="marker:none" cx="24.837" cy="36.421" rx="15.645" ry="8.397" color="#000" overflow="visible" opacity=".13" fill="url(#i)" fill-rule="evenodd"/><path style="marker:none" d="M17.425 41.893c-17.141-9.45-7.49-29.484 8.997-29.327V4.5L42.5 18.558 26.422 33.302v-8.73c-10.234-.415-14.741 7.268-5.772 13.364 2.567 1.745.789 6.17-3.225 3.957z" color="#000" display="block" overflow="visible" fill="url(#j)" stroke="#c4a000"/><path style="marker:none" d="M27.438 6.688v5.875a1.016 1.016 0 01-1 1c-7.83-.075-13.983 4.68-16.157 10.437-2.174 5.756-.578 12.491 7.656 17.031.85.469 1.466.516 1.875.438a1.19 1.19 0 00.844-.594c.353-.593.3-1.507-.562-2.094-2.357-1.602-3.91-3.35-4.688-5.156-.778-1.805-.74-3.672.031-5.25 1.543-3.155 5.655-5.03 11.032-4.813.536.025.96.463.968 1V31L41 18.562 27.437 6.688z" color="#000" display="block" overflow="visible" opacity=".618" fill="none" stroke="url(#k)"/><path d="M41.66 18.605c-18.55-3.13-28.895 2.15-32.795 10.436-.154-12.643 12.963-16.32 18.09-15.932l-.016-7.507L41.66 18.605z" opacity=".45" fill="url(#l)" fill-rule="evenodd"/></g></svg>