<svg xmlns="http://www.w3.org/2000/svg" xmlns:xlink="http://www.w3.org/1999/xlink" width="512" height="512"><defs><radialGradient r="12.011" fy="32.026" fx="33.921" cy="32.026" cx="33.921" gradientTransform="matrix(1.09718 -.0604 .05996 1.07242 -4.515 1.14)" gradientUnits="userSpaceOnUse" id="g" xlink:href="#a"/><radialGradient r="12.011" fy="25.064" fx="22.506" cy="30.31" cx="25.346" gradientTransform="matrix(.7893 .49308 -.2597 .41573 13.533 6.768)" gradientUnits="userSpaceOnUse" id="h" xlink:href="#b"/><radialGradient r="12.289" fy="60.044" fx="13.292" cy="63.965" cx="15.116" gradientTransform="matrix(1.15623 .05007 -.03238 .7369 5.71 995.06)" gradientUnits="userSpaceOnUse" id="f" xlink:href="#c"/><radialGradient xlink:href="#c" id="e" gradientUnits="userSpaceOnUse" gradientTransform="matrix(1.13465 .04914 -.03238 .7369 2.406 994.13)" cx="15.116" cy="63.965" fx="15.116" fy="63.965" r="12.289"/><radialGradient r="12.289" fy="60.044" fx="13.292" cy="63.965" cx="15.116" gradientTransform="matrix(1.15623 .05007 -.03238 .7369 5.71 995.06)" gradientUnits="userSpaceOnUse" id="k" xlink:href="#c"/><radialGradient xlink:href="#c" id="j" gradientUnits="userSpaceOnUse" gradientTransform="matrix(1.13465 .04914 -.03238 .7369 2.406 994.13)" cx="15.116" cy="63.965" fx="15.116" fy="63.965" r="12.289"/><radialGradient r="12.011" fy="32.026" fx="33.921" cy="32.026" cx="33.921" gradientTransform="matrix(1.09718 -.0604 .05996 1.07242 -10.98 34.702)" gradientUnits="userSpaceOnUse" id="l" xlink:href="#d"/><radialGradient r="12.011" fy="25.064" fx="22.506" cy="30.31" cx="25.346" gradientTransform="matrix(.7893 .49308 -.2597 .41573 7.088 40.768)" gradientUnits="userSpaceOnUse" id="m" xlink:href="#b"/><linearGradient id="d"><stop offset="0" stop-color="#59a40f"/><stop offset="1" stop-color="#306102"/></linearGradient><linearGradient id="a"><stop offset="0" stop-color="#d50f0f"/><stop offset="1" stop-color="#860000"/></linearGradient><linearGradient id="b"><stop offset="0" stop-color="#fff"/><stop offset="1" stop-color="#fff" stop-opacity="0"/></linearGradient><linearGradient y2="23.323" x2="22.734" y1="46.026" x1="42.551" gradientTransform="translate(.284 1.58)" gradientUnits="userSpaceOnUse" id="i" xlink:href="#a"/><linearGradient id="c"><stop offset="0"/><stop offset="1" stop-opacity="0"/></linearGradient><linearGradient y2="23.323" x2="22.734" y1="46.026" x1="42.551" gradientTransform="translate(-6.171 35.36)" gradientUnits="userSpaceOnUse" id="n" xlink:href="#d"/></defs><path d="M183.504 53.754c-69.75 0-126.496 56.746-126.496 126.496s56.746 126.496 126.496 126.496S310.001 250 310.001 180.25 253.254 53.754 183.504 53.754z" fill="none"/><path d="M497.368 450.74L390.014 343.387a15.135 15.135 0 00-10.735-4.446 15.135 15.135 0 00-10.735 4.446l-.588.587-53.623-53.623c25.061-29.749 40.171-68.158 40.171-110.101 0-94.441-76.56-171-171-171-94.441 0-171 76.559-171 171 0 94.44 76.559 171 171 171 39.527 0 75.917-13.418 104.877-35.939L342.5 369.43l-.795.795c-5.929 5.931-5.929 15.542 0 21.472L449.057 499.05a15.143 15.143 0 0010.737 4.446c3.885 0 7.771-1.482 10.735-4.446l26.838-26.838c5.93-5.929 5.93-15.544.001-21.472zM183.504 315.25c-74.559 0-135-60.441-135-135s60.441-135 135-135 135 60.441 135 135-60.441 135-135 135z"/><path d="M503.379 444.726L396.028 337.374a23.53 23.53 0 00-16.749-6.938c-3.676 0-7.224.831-10.429 2.405l-43.103-43.103a178.694 178.694 0 0026.039-46.899c7.446-20.004 11.222-41.063 11.222-62.59 0-24.229-4.747-47.738-14.11-69.874-9.041-21.376-21.983-40.572-38.466-57.055-16.482-16.482-35.679-29.424-57.055-38.465C231.242 5.493 207.733.746 183.504.746c-24.229 0-47.738 4.747-69.874 14.11-21.376 9.041-40.572 21.983-57.055 38.465C40.093 69.804 27.151 89 18.11 110.376 8.747 132.512 4 156.021 4 180.25c0 24.229 4.747 47.738 14.11 69.874 9.041 21.376 21.983 40.573 38.465 57.055 16.483 16.482 35.679 29.424 57.055 38.466 22.135 9.362 45.645 14.109 69.874 14.109 20.294 0 40.214-3.364 59.207-10a178.652 178.652 0 0044.854-23.233l43.742 43.742c-4.489 8.887-3.027 20.033 4.385 27.446l107.352 107.353c4.478 4.475 10.426 6.938 16.751 6.938a23.535 23.535 0 0016.747-6.936l26.84-26.84a23.528 23.528 0 006.938-16.748 23.529 23.529 0 00-6.941-16.75zm-43.584 58.769a15.141 15.141 0 01-10.737-4.446L341.706 391.696c-5.929-5.93-5.929-15.541 0-21.472l.795-.795-54.119-54.119c-28.961 22.522-65.351 35.94-104.878 35.94-94.441 0-171-76.56-171-171 0-94.441 76.559-171 171-171 94.44 0 171 76.559 171 171 0 41.943-15.11 80.352-40.172 110.101l53.623 53.623.588-.587a15.135 15.135 0 0110.735-4.446c3.885 0 7.771 1.482 10.735 4.446L497.368 450.74c5.93 5.928 5.93 15.543 0 21.471l-26.838 26.838a15.137 15.137 0 01-10.735 4.446z" fill="#b3b3b3"/><path d="M183.504 45.25c-74.559 0-135 60.441-135 135s60.441 135 135 135 135-60.441 135-135-60.441-135-135-135zm0 261.496c-69.75 0-126.496-56.746-126.496-126.496S113.754 53.754 183.504 53.754 310.001 110.5 310.001 180.25s-56.747 126.496-126.497 126.496z" fill="#b3b3b3"/><path d="M31.43 1042.614c-.22 5.002-6.64 8.787-14.343 8.454-7.702-.334-13.767-4.66-13.545-9.662.218-5.002 6.64-8.787 14.341-8.453 7.702.333 13.767 4.659 13.546 9.661z" fill="url(#e)" transform="matrix(3.21706 0 0 2.88945 115.974 -2865.075)"/><path d="M35.326 1043.568c-.219 5.002-6.759 8.782-14.607 8.442-7.849-.34-14.033-4.67-13.811-9.673.218-5.002 6.758-8.782 14.607-8.442 7.848.34 14.032 4.671 13.81 9.673z" fill="url(#f)" transform="matrix(3.21706 0 0 2.88945 115.974 -2865.075)"/><path d="M42.021 38.735c-2.28 6.29-8.636 11.671-14.976 9.411-6.706-.642-10.134-8.2-9.485-14.852.729-7.47 6.64-10.416 14.793-8.602 8.154 1.813 12.229 6.98 9.668 14.043z" fill="url(#g)" stroke="#520000" transform="matrix(4.13285 .16076 -.18301 3.74098 66.68 -19.136)"/><path d="M41.995 38.724c-2.277 6.296-8.627 11.684-14.96 9.422-6.7-.643-10.124-8.21-9.475-14.869.728-7.479 6.632-10.427 14.777-8.612 8.145 1.816 12.216 6.988 9.658 14.06z" opacity=".66" fill="url(#h)" stroke="#520000" transform="matrix(4.13285 .16076 -.18301 3.74098 66.68 -19.136)"/><path d="M26.86 25.277c-3.072.156-5.788 1.525-7.161 4.253-2.537 5.036-.535 11.521 1.706 14.299 2.676 3.324 4.934 3.044 6.227 3.377 4.357 1.42 8.868-1.071 11.727-5.605 4.784-7.584 1.767-12.681-4.479-15.087-2.496-.962-5.267-1.377-8.02-1.237z" fill="none" stroke="url(#i)" transform="matrix(4.13285 .16076 -.18301 3.74098 66.68 -19.136)"/><path d="M28.224 26.012c-.601 3.336 4.889 5.213 6.336 2" fill="none" stroke="#520000" transform="matrix(4.13285 .16076 -.18301 3.74098 66.68 -19.136)"/><path d="M38.31 1005.936c-.242-.016-.518-.037-.795-.032-4.953 5.883-10.589 11.126-16.251 16.341.426.91 1.247 1.083 2.352 1.13l6.536-6.543c3.163-2.87 6.022-5.14 7.279-6.921a28.768 28.768 0 012.506-3.029c-.36-.663-.903-.882-1.627-.946h0z" fill="#4e9a06" stroke="#275000" stroke-width=".771" transform="matrix(3.21706 0 0 2.88945 115.974 -2865.075)"/><g><path d="M31.43 1042.614c-.22 5.002-6.64 8.787-14.343 8.454-7.702-.334-13.767-4.66-13.545-9.662.218-5.002 6.64-8.787 14.341-8.453 7.702.333 13.767 4.659 13.546 9.661z" fill="url(#j)" transform="matrix(3.15997 0 0 2.93478 116.956 -2790.997)"/><path d="M35.326 1043.568c-.219 5.002-6.759 8.782-14.607 8.442-7.849-.34-14.033-4.67-13.811-9.673.218-5.002 6.758-8.782 14.607-8.442 7.848.34 14.032 4.671 13.81 9.673z" fill="url(#k)" transform="matrix(3.15997 0 0 2.93478 116.956 -2790.997)"/><path d="M35.557 72.297c-2.28 6.29-8.637 11.671-14.977 9.412-6.706-.643-10.134-8.201-9.485-14.853.729-7.47 6.64-10.416 14.793-8.602 8.154 1.814 12.23 6.98 9.669 14.043z" fill="url(#l)" stroke="#00520e" transform="matrix(4.07956 .16409 -.18065 3.81843 98.23 -30.896)"/><path d="M35.55 72.724c-2.278 6.296-8.627 11.684-14.96 9.422-6.7-.643-10.124-8.21-9.476-14.869.728-7.479 6.633-10.427 14.778-8.612 8.145 1.816 12.215 6.988 9.658 14.06z" opacity=".66" fill="url(#m)" stroke="#00520e" transform="matrix(4.07956 .16409 -.18065 3.81843 98.23 -30.896)"/><path d="M20.405 59.058c-3.072.156-5.788 1.525-7.161 4.253-2.537 5.036-.535 11.521 1.706 14.299 2.676 3.324 4.934 3.044 6.227 3.377 4.357 1.42 8.868-1.071 11.727-5.605 4.784-7.584 1.767-12.681-4.479-15.087-2.496-.962-5.267-1.377-8.02-1.237z" fill="none" stroke="url(#n)" transform="matrix(4.07956 .16409 -.18065 3.81843 98.23 -30.896)"/><path d="M22.4 60.612c-.602 3.336 4.888 5.213 6.335 2" fill="none" stroke="#00520e" transform="matrix(4.07956 .16409 -.18065 3.81843 98.23 -30.896)"/><path d="M38.31 1005.936c-.242-.016-.518-.037-.795-.032-4.953 5.883-10.589 11.126-16.251 16.341.426.91 1.247 1.083 2.352 1.13l6.536-6.543c3.163-2.87 6.022-5.14 7.279-6.921a28.768 28.768 0 012.506-3.029c-.36-.663-.903-.882-1.627-.946h0z" fill="#4e9a06" stroke="#275000" stroke-width=".771" transform="matrix(3.15997 0 0 2.93478 116.956 -2790.997)"/></g></svg>