<svg xmlns="http://www.w3.org/2000/svg" xmlns:xlink="http://www.w3.org/1999/xlink" width="512" height="512"><defs><linearGradient id="a"><stop offset="0" stop-color="#fcaf3e"/><stop offset="1" stop-color="#fcaf3e" stop-opacity="0"/></linearGradient><linearGradient id="b"><stop offset="0" stop-color="#ce5c00"/><stop offset="1" stop-color="#ce5c00" stop-opacity="0"/></linearGradient><linearGradient id="c"><stop offset="0" stop-color="#fcaf3e"/><stop offset="1" stop-color="#fcaf3e" stop-opacity="0"/></linearGradient><linearGradient id="m"><stop offset="0" stop-color="#f9f9f9"/><stop offset="1" stop-color="#f9f9f9" stop-opacity="0"/></linearGradient><linearGradient id="p"><stop offset="0" stop-color="#fff"/><stop offset="1" stop-color="#fff" stop-opacity="0"/></linearGradient><linearGradient id="o"><stop offset="0" stop-color="#729fcf"/><stop offset="1" stop-color="#3465a4"/></linearGradient><linearGradient id="n"><stop offset="0" stop-color="#fff"/><stop offset="1" stop-color="#fff" stop-opacity="0"/></linearGradient><linearGradient id="l"><stop offset="0" stop-color="#fff"/><stop offset="1" stop-color="#fff" stop-opacity="0"/></linearGradient><linearGradient id="f"><stop offset="0"/><stop offset="1" stop-opacity="0"/></linearGradient><linearGradient id="k"><stop offset="0" stop-color="#fff"/><stop offset="1" stop-color="#fff" stop-opacity="0"/></linearGradient><linearGradient id="j"><stop offset="0" stop-color="#fff"/><stop offset="1" stop-color="#fff" stop-opacity="0"/></linearGradient><linearGradient id="i"><stop offset="0" stop-color="#fff"/><stop offset="1" stop-color="#fff" stop-opacity="0"/></linearGradient><linearGradient id="h"><stop offset="0" stop-color="#888a85"/><stop offset=".34" stop-color="#babdb6"/><stop offset="1" stop-color="#555753"/></linearGradient><linearGradient id="g"><stop offset="0" stop-color="#888a85"/><stop offset="1" stop-color="#555753"/></linearGradient><linearGradient id="d"><stop offset="0" stop-color="#fff"/><stop offset="1" stop-color="#fff" stop-opacity="0"/></linearGradient><linearGradient id="e"><stop offset="0" stop-color="#fff"/><stop offset="1" stop-color="#fff" stop-opacity="0"/></linearGradient><linearGradient xlink:href="#a" id="q" gradientUnits="userSpaceOnUse" x1="18.25" y1="13.591" x2="15.5" y2="22"/><linearGradient xlink:href="#b" id="r" gradientUnits="userSpaceOnUse" x1="15" y1="14.875" x2="13.25" y2="22"/><linearGradient xlink:href="#c" id="s" gradientUnits="userSpaceOnUse" x1="37.625" y1="18.875" x2="37.75" y2="16.25"/><linearGradient xlink:href="#d" id="t" gradientUnits="userSpaceOnUse" gradientTransform="rotate(45 39.027 27.243)" x1="17.819" y1="29.184" x2="19.663" y2="36.954"/><linearGradient xlink:href="#e" id="u" gradientUnits="userSpaceOnUse" gradientTransform="scale(-1 1) rotate(-45 -.407 77.802)" x1="18.313" y1="9.438" x2="22.313" y2="11.625"/><linearGradient xlink:href="#g" id="x" gradientUnits="userSpaceOnUse" gradientTransform="translate(68 -1)" x1="6.276" y1="4.897" x2="7.564" y2="4.897"/><linearGradient xlink:href="#g" id="y" gradientUnits="userSpaceOnUse" gradientTransform="translate(60 -1)" x1="6.276" y1="4.897" x2="7.564" y2="4.897"/><linearGradient xlink:href="#h" id="z" gradientUnits="userSpaceOnUse" gradientTransform="translate(60 -1)" x1=".973" y1="17.531" x2="5.289" y2="17.531"/><linearGradient xlink:href="#i" id="A" gradientUnits="userSpaceOnUse" x1="-.201" y1="17.428" x2="6.346" y2="19.182"/><linearGradient xlink:href="#h" id="B" gradientUnits="userSpaceOnUse" gradientTransform="translate(74 -1)" x1=".973" y1="17.531" x2="5.289" y2="17.531"/><linearGradient xlink:href="#i" id="C" gradientUnits="userSpaceOnUse" x1="-.201" y1="17.428" x2="6.346" y2="19.182"/><linearGradient xlink:href="#j" id="D" gradientUnits="userSpaceOnUse" gradientTransform="translate(60 -1)" x1="1.484" y1="17.453" x2="8.547" y2="17.453"/><linearGradient xlink:href="#j" id="E" gradientUnits="userSpaceOnUse" gradientTransform="translate(74 -1)" x1="1.484" y1="17.453" x2="8.547" y2="17.453"/><linearGradient xlink:href="#h" id="F" gradientUnits="userSpaceOnUse" gradientTransform="translate(60 -1)" x1="2.281" y1="10.531" x2="6.826" y2="10.531"/><linearGradient xlink:href="#k" id="G" gradientUnits="userSpaceOnUse" x1="-6.5" y1="8.625" x2="-.781" y2="15.5"/><linearGradient xlink:href="#h" id="H" gradientUnits="userSpaceOnUse" gradientTransform="translate(71 -1)" x1="2.281" y1="10.531" x2="6.826" y2="10.531"/><linearGradient xlink:href="#k" id="I" gradientUnits="userSpaceOnUse" gradientTransform="matrix(-1 0 0 1 -8.969 0)" x1="-6.5" y1="8.625" x2="-.781" y2="15.5"/><linearGradient xlink:href="#h" id="J" gradientUnits="userSpaceOnUse" gradientTransform="matrix(.6 0 0 1 64.4 -1)" x1="8.516" y1="9.559" x2="12.946" y2="9.559"/><linearGradient xlink:href="#l" id="K" gradientUnits="userSpaceOnUse" x1="-19.406" y1="6.375" x2="-19" y2="10.719"/><linearGradient xlink:href="#g" id="N" gradientUnits="userSpaceOnUse" gradientTransform="translate(68 -1)" x1="6.276" y1="4.897" x2="7.564" y2="4.897"/><linearGradient xlink:href="#g" id="O" gradientUnits="userSpaceOnUse" gradientTransform="translate(60 -1)" x1="6.276" y1="4.897" x2="7.564" y2="4.897"/><linearGradient xlink:href="#h" id="P" gradientUnits="userSpaceOnUse" gradientTransform="translate(60 -1)" x1=".973" y1="17.531" x2="5.289" y2="17.531"/><linearGradient xlink:href="#i" id="Q" gradientUnits="userSpaceOnUse" x1="-.201" y1="17.428" x2="6.346" y2="19.182"/><linearGradient xlink:href="#h" id="R" gradientUnits="userSpaceOnUse" gradientTransform="translate(74 -1)" x1=".973" y1="17.531" x2="5.289" y2="17.531"/><linearGradient xlink:href="#i" id="S" gradientUnits="userSpaceOnUse" x1="-.201" y1="17.428" x2="6.346" y2="19.182"/><linearGradient xlink:href="#j" id="T" gradientUnits="userSpaceOnUse" gradientTransform="translate(60 -1)" x1="1.484" y1="17.453" x2="8.547" y2="17.453"/><linearGradient xlink:href="#j" id="U" gradientUnits="userSpaceOnUse" gradientTransform="translate(74 -1)" x1="1.484" y1="17.453" x2="8.547" y2="17.453"/><linearGradient xlink:href="#h" id="V" gradientUnits="userSpaceOnUse" gradientTransform="translate(60 -1)" x1="2.281" y1="10.531" x2="6.826" y2="10.531"/><linearGradient xlink:href="#k" id="W" gradientUnits="userSpaceOnUse" x1="-6.5" y1="8.625" x2="-.781" y2="15.5"/><linearGradient xlink:href="#h" id="X" gradientUnits="userSpaceOnUse" gradientTransform="translate(71 -1)" x1="2.281" y1="10.531" x2="6.826" y2="10.531"/><linearGradient xlink:href="#k" id="Y" gradientUnits="userSpaceOnUse" gradientTransform="matrix(-1 0 0 1 -8.969 0)" x1="-6.5" y1="8.625" x2="-.781" y2="15.5"/><linearGradient xlink:href="#h" id="Z" gradientUnits="userSpaceOnUse" gradientTransform="matrix(.6 0 0 1 64.4 -1)" x1="8.516" y1="9.559" x2="12.946" y2="9.559"/><linearGradient xlink:href="#l" id="aa" gradientUnits="userSpaceOnUse" x1="-19.406" y1="6.375" x2="-19" y2="10.719"/><linearGradient xlink:href="#h" id="ab" gradientUnits="userSpaceOnUse" x1="16.484" y1="6.192" x2="20.43" y2="6.192"/><linearGradient xlink:href="#h" id="ad" gradientUnits="userSpaceOnUse" gradientTransform="translate(0 90.281)" x1="3.446" y1="81.853" x2="16.234" y2="81.853"/><linearGradient xlink:href="#n" id="ae" gradientUnits="userSpaceOnUse" x1="11.444" y1="17.796" x2="17.465" y2="32.92"/><linearGradient xlink:href="#p" id="ag" gradientUnits="userSpaceOnUse" x1="10.537" y1="20.32" x2="12.72" y2="32.347"/><linearGradient xlink:href="#h" id="ah" gradientUnits="userSpaceOnUse" gradientTransform="translate(29 90.281)" x1="3.446" y1="81.853" x2="16.234" y2="81.853"/><linearGradient xlink:href="#n" id="ai" gradientUnits="userSpaceOnUse" x1="11.444" y1="17.796" x2="17.465" y2="32.92"/><linearGradient xlink:href="#p" id="ak" gradientUnits="userSpaceOnUse" x1="10.537" y1="20.32" x2="12.72" y2="32.347"/><radialGradient xlink:href="#f" id="v" gradientUnits="userSpaceOnUse" gradientTransform="matrix(1 0 0 .82102 0 2.004)" cx="10.607" cy="11.195" fx="10.607" fy="11.195" r="7.778"/><radialGradient xlink:href="#f" id="w" gradientUnits="userSpaceOnUse" gradientTransform="matrix(1 0 0 .82102 0 2.004)" cx="10.607" cy="11.195" fx="10.607" fy="11.195" r="7.778"/><radialGradient xlink:href="#f" id="L" gradientUnits="userSpaceOnUse" gradientTransform="matrix(1 0 0 .82102 0 2.004)" cx="10.607" cy="11.195" fx="10.607" fy="11.195" r="7.778"/><radialGradient xlink:href="#f" id="M" gradientUnits="userSpaceOnUse" gradientTransform="matrix(1 0 0 .82102 0 2.004)" cx="10.607" cy="11.195" fx="10.607" fy="11.195" r="7.778"/><radialGradient xlink:href="#m" id="ac" gradientUnits="userSpaceOnUse" gradientTransform="matrix(2.03765 0 0 2.85271 -17.997 -9.87)" cx="17.344" cy="5.004" fx="17.344" fy="5.004" r="2.5"/><radialGradient xlink:href="#o" id="af" gradientUnits="userSpaceOnUse" gradientTransform="matrix(1.41322 0 0 1.41322 -7.05 -15.819)" cx="16.037" cy="30.995" fx="16.037" fy="30.995" r="8.143"/><radialGradient xlink:href="#o" id="aj" gradientUnits="userSpaceOnUse" gradientTransform="matrix(1.41322 0 0 1.41322 -7.05 -15.819)" cx="16.037" cy="30.995" fx="16.037" fy="30.995" r="8.143"/></defs><path d="M183.504 53.754c-69.75 0-126.496 56.746-126.496 126.496s56.746 126.496 126.496 126.496S310.001 250 310.001 180.25 253.254 53.754 183.504 53.754z" fill="none"/><path d="M497.368 450.74L390.014 343.387a15.135 15.135 0 00-10.735-4.446 15.135 15.135 0 00-10.735 4.446l-.588.587-53.623-53.623c25.061-29.749 40.171-68.158 40.171-110.101 0-94.441-76.56-171-171-171-94.441 0-171 76.559-171 171 0 94.44 76.559 171 171 171 39.527 0 75.917-13.418 104.877-35.939L342.5 369.43l-.795.795c-5.929 5.931-5.929 15.542 0 21.472L449.057 499.05a15.143 15.143 0 0010.737 4.446c3.885 0 7.771-1.482 10.735-4.446l26.838-26.838c5.93-5.929 5.93-15.544.001-21.472zM183.504 315.25c-74.559 0-135-60.441-135-135s60.441-135 135-135 135 60.441 135 135-60.441 135-135 135z"/><path d="M503.379 444.726L396.028 337.374a23.53 23.53 0 00-16.749-6.938c-3.676 0-7.224.831-10.429 2.405l-43.103-43.103a178.694 178.694 0 0026.039-46.899c7.446-20.004 11.222-41.063 11.222-62.59 0-24.229-4.747-47.738-14.11-69.874-9.041-21.376-21.983-40.572-38.466-57.055-16.482-16.482-35.679-29.424-57.055-38.465C231.242 5.493 207.733.746 183.504.746c-24.229 0-47.738 4.747-69.874 14.11-21.376 9.041-40.572 21.983-57.055 38.465C40.093 69.804 27.151 89 18.11 110.376 8.747 132.512 4 156.021 4 180.25c0 24.229 4.747 47.738 14.11 69.874 9.041 21.376 21.983 40.573 38.465 57.055 16.483 16.482 35.679 29.424 57.055 38.466 22.135 9.362 45.645 14.109 69.874 14.109 20.294 0 40.214-3.364 59.207-10a178.652 178.652 0 0044.854-23.233l43.742 43.742c-4.489 8.887-3.027 20.033 4.385 27.446l107.352 107.353c4.478 4.475 10.426 6.938 16.751 6.938a23.535 23.535 0 0016.747-6.936l26.84-26.84a23.528 23.528 0 006.938-16.748 23.529 23.529 0 00-6.941-16.75zm-43.584 58.769a15.141 15.141 0 01-10.737-4.446L341.706 391.696c-5.929-5.93-5.929-15.541 0-21.472l.795-.795-54.119-54.119c-28.961 22.522-65.351 35.94-104.878 35.94-94.441 0-171-76.56-171-171 0-94.441 76.559-171 171-171 94.44 0 171 76.559 171 171 0 41.943-15.11 80.352-40.172 110.101l53.623 53.623.588-.587a15.135 15.135 0 0110.735-4.446c3.885 0 7.771 1.482 10.735 4.446L497.368 450.74c5.93 5.928 5.93 15.543 0 21.471l-26.838 26.838a15.137 15.137 0 01-10.735 4.446z" fill="#b3b3b3"/><path d="M183.504 45.25c-74.559 0-135 60.441-135 135s60.441 135 135 135 135-60.441 135-135-60.441-135-135-135zm0 261.496c-69.75 0-126.496-56.746-126.496-126.496S113.754 53.754 183.504 53.754 310.001 110.5 310.001 180.25s-56.747 126.496-126.497 126.496z" fill="#b3b3b3"/><path d="M13.392 22.328C7.955 3.524 28.945-3.817 40.492 7.952l5.704-5.703 1.428 21.309-21.794-.944 6.172-6.172c-6.943-7.53-15.562-5.285-13.53 5.368.58 3.049-3.807 4.92-5.08.518z" style="marker:none" color="#000" display="block" overflow="visible" fill="url(#q)" stroke="url(#r)" transform="matrix(6.29868 0 0 7.08076 209.002 -4.276)"/><path d="M40.492 7.952l5.704-5.703 1.428 21.309-21.794-.944 6.172-6.172" style="marker:none" color="#000" display="block" overflow="visible" fill="url(#s)" stroke="#ce5c00" transform="matrix(6.29868 0 0 7.08076 209.002 -4.276)"/><path style="marker:none" d="M45.367 4.513l-4.155 4.154a1.016 1.016 0 01-1.414 0c-5.484-5.589-13.197-6.576-18.805-4.043-5.607 2.533-9.24 8.424-6.629 17.456.27.933.672 1.402 1.017 1.636a1.19 1.19 0 001.016.176c.669-.17 1.278-.853 1.083-1.878-.534-2.8-.394-5.133.331-6.96.726-1.828 2.074-3.12 3.735-3.69 3.322-1.141 7.555.44 11.203 4.397a1.016 1.016 0 01-.022 1.392l-4.552 4.552 18.385.795-1.193-17.987z" color="#000" display="block" overflow="visible" opacity=".85" fill="none" stroke="url(#t)" transform="matrix(6.29868 0 0 7.08076 209.002 -4.276)"/><path d="M46.996 22.997C36.093 7.667 25.045 4.085 16.428 7.187c8.83-9.049 20.706-2.374 24.057 1.525l5.297-5.319 1.214 19.604z" opacity=".55" fill="url(#u)" fill-rule="evenodd" transform="matrix(6.29868 0 0 7.08076 209.002 -4.276)"/></svg>