<svg xmlns="http://www.w3.org/2000/svg"  viewBox="0 0 48 48"><defs><linearGradient id="g"><stop stop-color="#2e3436"/><stop offset="1" stop-color="#2e3436" stop-opacity="0"/></linearGradient><linearGradient id="b"><stop stop-color="#fff" stop-opacity=".4"/><stop offset="1" stop-color="#fff" stop-opacity="0"/></linearGradient><linearGradient id="d"><stop stop-color="#8f5902"/><stop offset="1" stop-color="#683f00"/></linearGradient><linearGradient id="f"><stop stop-color="#fff"/><stop offset="1" stop-color="#fff" stop-opacity="0"/></linearGradient><linearGradient id="e"><stop stop-color="#fff" stop-opacity=".8"/><stop offset="1" stop-color="#fff" stop-opacity="0"/></linearGradient><linearGradient id="c"><stop stop-color="#e9b96e"/><stop offset="1" stop-color="#c17d11"/></linearGradient><linearGradient id="a"><stop stop-color="#2e3436"/><stop offset="1" stop-color="#555753"/></linearGradient><linearGradient y1="1.781" x2="0" y2="41.75" id="j" xlink:href="#b" gradientUnits="userSpaceOnUse"/><linearGradient y1="10.144" x2="0" y2="42.775" id="l" xlink:href="#c" gradientUnits="userSpaceOnUse"/><linearGradient y1="10.144" x2="0" y2="42.775" id="m" xlink:href="#d" gradientUnits="userSpaceOnUse"/><linearGradient y1="11.188" x2="0" y2="41.75" id="n" xlink:href="#e" gradientUnits="userSpaceOnUse"/><linearGradient x1="7.935" y1="-28.25" x2="20.05" y2="36.1" id="o" xlink:href="#f" gradientUnits="userSpaceOnUse"/><radialGradient cx="35.488" cy="26.2" r="23" id="i" xlink:href="#a" gradientUnits="userSpaceOnUse" gradientTransform="matrix(1.04344 -1.46437 1.40201 .99901 -62.776 34.47)"/><radialGradient cx="24.919" cy="48.2" r="25.941" id="h" xlink:href="#g" gradientUnits="userSpaceOnUse" gradientTransform="matrix(1 0 0 .1063 0 43.08)"/><filter color-interpolation-filters="sRGB" id="k"><feGaussianBlur stdDeviation=".755"/></filter></defs><path d="M50.86 48.204a25.94 2.757 0 11-51.881 0 25.94 2.757 0 1151.881 0z" transform="matrix(.9653 0 0 .81481 -.055 4.229)" fill="url(#h)"/><path d="M1.5 1.245v41.03h45V7.76H27.665l-5.498-6.516H1.5z" fill="url(#i)" stroke="#2e3436" stroke-linejoin="round" stroke-linecap="square" transform="matrix(.95745 0 0 .95745 1.021 3.166)"/><path d="M2.531 2.281V41.25H45.47V8.781H27.656a1.027 1.027 0 01-.781-.375l-5.188-6.125H2.532z" opacity=".8" fill="none" stroke="url(#j)" stroke-linejoin="round" stroke-linecap="square" transform="matrix(.95745 0 0 .95745 1.021 3.166)"/><path d="M18.656 11.188l-2.875 6.343a.541.541 0 01-.5.313H1.531l.5 23.906H45.97l.5-30.563H18.656z" transform="matrix(.95745 0 0 .95745 1.021 1.538)" filter="url(#k)"/><path d="M18.31 10.644l-3.037 6.654H1l.5 24.977h45l.5-31.631H18.31z" fill="url(#l)" stroke="url(#m)" stroke-linejoin="round" stroke-linecap="square" transform="matrix(.95745 0 0 .95745 1.021 3.166)"/><path d="M18.969 11.688l-2.75 6.062a1.027 1.027 0 01-.938.594H2.062L2.5 41.25h43l.438-29.563h-26.97z" opacity=".8" fill="none" stroke="url(#n)" stroke-linejoin="round" stroke-linecap="square" transform="matrix(.95745 0 0 .95745 1.021 3.166)"/><path d="M18.656 11.156l-2.906 6.375a.513.513 0 01-.469.282H1.5l.313 15.343c12.19-5.184 30.416-10.314 44.53-12.75l.157-9.25H18.656z" opacity=".8" fill="url(#o)" transform="matrix(.95745 0 0 .95745 1.021 3.166)"/></svg>