<svg xmlns="http://www.w3.org/2000/svg" width="489.309" height="494.244"><path d="M285.82 139.542c-14.155 0-29.78 6.304-46.441 18.736-24.956 18.622-47.594 46.842-67.281 83.872-19.61 36.887-29.554 70.464-29.554 99.794 0 13.076 3.366 22.933 10.292 30.137 6.798 7.076 14.237 10.517 22.74 10.517 24.902 0 53.154-17.598 83.988-52.324 42.164-47.242 63.542-96.106 63.542-145.23 0-16.779-3.322-28.712-9.87-35.468-6.55-6.751-15.518-10.034-27.416-10.034z" fill="none"/><path d="M348.099 346.102l75.429-234.833-61.505 8.313-13.924 39.485c-5.416-17.085-13.345-29.32-23.79-36.713-10.444-7.388-23.536-11.084-39.263-11.084-26.303 0-54.288 9.699-83.94 29.094-37.907 24.478-69.18 57.095-93.804 97.847-24.63 40.757-36.94 79.489-36.94 116.204 0 24.477 6.83 43.7 20.5 57.668 13.667 13.968 29.913 20.955 48.74 20.955 19.595 0 39.583-5.661 59.957-16.972 28.365-15.7 59.437-43.295 93.223-82.78l-8.123 25.977c-5.676 18.477-8.51 33.369-8.51 44.68 0 9.471 2.769 16.685 8.316 21.647 5.543 4.962 13.86 7.447 24.95 7.447 15.986 0 33.393-6.295 52.221-18.877 18.822-12.584 37.136-30.88 54.93-54.898l-13.152-8.313c-16.766 21.014-30.173 34.868-40.23 41.562-5.416 3.696-9.804 5.543-13.151 5.543-3.095 0-5.675-1.04-7.737-3.117-2.582-2.772-3.868-6.003-3.868-9.699 0-2.078.386-4.616 1.16-7.62l8.51-31.516zm-80.847-9.006c-33.012 37.18-63.571 55.764-91.676 55.764-11.35 0-21.408-4.557-30.172-13.68-8.77-9.121-13.152-21.53-13.152-37.234 0-31.173 10.25-66.037 30.752-104.6 20.501-38.56 43.904-67.655 70.208-87.283 18.568-13.855 36.101-20.783 52.608-20.783 14.699 0 26.304 4.39 34.814 13.162 8.51 8.778 12.765 22.979 12.765 42.603 0 51.953-22.049 102.641-66.147 152.05z" fill="#1a1a1a"/><path d="M320.634 142.442c-8.51-8.773-20.115-13.162-34.814-13.162-16.507 0-34.04 6.928-52.607 20.783-26.305 19.628-49.707 48.723-70.209 87.282-20.501 38.565-30.752 73.428-30.752 104.6 0 15.706 4.383 28.115 13.152 37.234 8.764 9.124 18.821 13.68 30.172 13.68 28.105 0 58.664-18.583 91.676-55.763 44.098-49.41 66.146-100.098 66.146-152.051 0-19.624-4.254-33.825-12.764-42.603zM175.576 382.598c-8.503 0-15.942-3.44-22.74-10.517-6.928-7.204-10.292-17.06-10.292-30.137 0-29.332 9.943-62.907 29.554-99.794 19.689-37.032 42.326-65.25 67.28-83.872 16.663-12.432 32.287-18.736 46.442-18.736 11.898 0 20.866 3.283 27.416 10.034 6.548 6.756 9.87 18.689 9.87 35.469 0 49.123-21.378 97.987-63.542 145.23-30.834 34.725-59.086 52.323-83.988 52.323z" fill="#b3b3b3"/><path d="M357.973 349.001L433.33 114.4a10.238 10.238 0 00-1.915-9.724 10.306 10.306 0 00-9.27-3.575l-61.505 8.313a10.287 10.287 0 00-8.326 6.765l-5.475 15.526c-4.714-7.32-10.25-13.244-16.574-17.72-12.175-8.612-27.387-12.977-45.219-12.977-28.217 0-58.35 10.35-89.562 30.762-39.048 25.22-71.681 59.249-96.997 101.145-25.492 42.185-38.417 83.063-38.417 121.5 0 27.14 7.882 48.953 23.427 64.837 15.612 15.958 34.49 24.05 56.105 24.05 21.27 0 43.129-6.147 64.963-18.269 20.495-11.342 42.47-28.764 65.616-51.988-2.903 12.035-4.324 22.228-4.324 30.9 0 12.468 3.949 22.322 11.737 29.287 7.462 6.68 18.17 10.07 31.821 10.07 17.985 0 37.482-6.935 57.95-20.613 19.733-13.193 39.07-32.48 57.477-57.326a10.245 10.245 0 001.84-7.982 10.26 10.26 0 00-4.607-6.782l-13.152-8.313a10.282 10.282 0 00-5.504-1.596c-3.044 0-6.04 1.343-8.059 3.875-16.028 20.087-28.776 33.35-37.892 39.417-.033.022-.066.043-.099.067-5.22 3.564-7.36 3.747-7.381 3.748a1.971 1.971 0 01-.32-.025c-.786-.912-.95-1.653-.95-2.53 0-.675.107-2.22.822-5.01l8.433-31.23zm-48.557 84.037c-11.091 0-19.407-2.485-24.95-7.447-5.547-4.962-8.316-12.177-8.316-21.647 0-11.311 2.834-26.204 8.51-44.68l8.123-25.977c-33.786 39.486-64.86 67.081-93.223 82.78-20.374 11.311-40.362 16.972-59.957 16.972-18.827 0-35.073-6.987-48.739-20.955-13.672-13.968-20.501-33.19-20.501-57.668 0-36.715 12.311-75.446 36.94-116.204 24.624-40.751 55.897-73.37 93.805-97.847 29.651-19.395 57.637-29.094 83.94-29.094 15.726 0 28.818 3.697 39.261 11.084 10.446 7.392 18.376 19.629 23.79 36.714l13.926-39.486 61.504-8.313-75.43 234.833-8.51 31.518c-.774 3.004-1.16 5.543-1.16 7.62 0 3.696 1.286 6.926 3.868 9.698 2.06 2.078 4.642 3.117 7.737 3.117 3.348 0 7.737-1.845 13.151-5.543 10.058-6.694 23.464-20.548 40.23-41.562l13.152 8.314c-17.794 24.017-36.108 42.313-54.93 54.897-18.828 12.581-36.235 18.876-52.22 18.876z" fill="#b3b3b3"/></svg>