<svg xmlns="http://www.w3.org/2000/svg" width="489.309" height="494.244"><path d="M184.456 144.548c-10.402 0-19.187 2.766-26.356 8.293-7.169 5.53-17.595 12.904-17.71 25.613.09-9.872-6.467-17.4-14.338-23.905-7.872-6.666-16.587-10-26.145-10.001-9.559 0-18.203 3.171-25.934 9.513-7.731 6.18-13.354 14.635-16.868 25.367v-28.295H12.193v273.193h50.604v-175.38c0-20.327 1.335-33.905 4.006-40.735 2.67-6.83 7.52-10.245 14.548-10.245 7.027 0 11.948 3.497 14.76 10.49 2.81 6.992 4.216 20.49 4.216 40.49v175.38H150.3v-175.38c0-20 1.405-33.498 4.217-40.49 2.81-6.993 7.73-10.49 14.758-10.49 7.028 0 11.877 3.415 14.549 10.245 2.67 6.83 4.005 20.407 4.005 40.735v175.38h50.604V270.412c0-51.387-3.936-85.21-11.808-101.471-7.73-16.262-21.787-24.393-42.168-24.393z" fill="#1a1a1a"/><path d="M234.722 163.845c-9.44-19.827-26.352-29.88-50.266-29.88-12.222 0-22.825 3.397-31.515 10.096l-1.011.777c-3.293 2.526-7.535 5.78-11.327 10.057-2.941-3.545-6.195-6.489-9.102-8.894-9.449-7.986-20.078-12.036-31.593-12.037-11.464 0-21.983 3.853-31.267 11.453a56.73 56.73 0 00-2.77 2.368c-1.222-4.205-4.686-7.236-8.767-7.236h-44.91c-5.104 0-9.24 4.737-9.24 10.583v273.193c0 5.845 4.136 10.583 9.24 10.583h50.603c5.103 0 9.239-4.738 9.239-10.583v-175.38c0-24.558 2.004-33.353 3.199-36.41 1.01-2.584 2.285-3.986 6.116-3.986 3.869 0 5.264 1.59 6.368 4.335 1.258 3.129 3.37 11.98 3.37 36.062v175.38c0 5.846 4.135 10.583 9.238 10.583H150.3c5.103 0 9.239-4.737 9.239-10.583v-175.38c0-24.087 2.111-32.933 3.369-36.062 1.103-2.745 2.5-4.335 6.367-4.335 3.83 0 5.105 1.402 6.116 3.989 1.195 3.054 3.198 11.843 3.198 36.408v175.38c0 5.846 4.136 10.583 9.24 10.583h50.603c5.103 0 9.239-4.737 9.239-10.583V270.412c0-53.674-4.235-88.532-12.948-106.567zm3.71 260.481h-50.604v-175.38c0-20.328-1.334-33.906-4.005-40.735-2.672-6.83-7.521-10.245-14.549-10.245-7.027 0-11.948 3.497-14.758 10.49-2.812 6.992-4.217 20.49-4.217 40.49v175.38h-49.972v-175.38c0-20-1.406-33.498-4.217-40.49-2.811-6.993-7.732-10.49-14.76-10.49-7.027 0-11.876 3.415-14.547 10.245-2.67 6.83-4.006 20.408-4.006 40.735v175.38H12.193V151.133h44.912v28.295c3.514-10.732 9.137-19.188 16.868-25.367 7.73-6.342 16.375-9.513 25.934-9.513 9.558 0 18.273 3.335 26.145 10 7.871 6.506 14.428 14.034 14.337 23.906.116-12.71 10.542-20.083 17.711-25.613 7.169-5.527 15.954-8.293 26.356-8.293 20.38 0 34.437 8.131 42.168 24.393 7.872 16.261 11.808 50.084 11.808 101.47v153.915z" fill="#b3b3b3"/><path d="M463.83 287.034c-10.405-13.821-26.848-23.823-49.34-30.003l-17.712-4.878-2.32-.73c-30.082-8.132-45.121-18.7-45.121-31.71 0-9.106 3.514-15.935 10.543-20.49 7.028-4.715 17.43-7.073 31.205-7.074 12.369 0 24.666 2.196 36.896 6.586 12.37 4.229 24.248 10.57 35.633 19.026v-62.444a199.315 199.315 0 00-38.795-11.22 205.862 205.862 0 00-39.849-3.903c-29.8 0-52.925 7.319-69.37 21.952-16.446 14.636-24.668 35.125-24.668 61.469 0 22.116 5.412 39.76 16.235 52.931 10.823 13.172 28.042 22.848 51.658 29.03l17.079 4.39c19.819 5.527 32.33 10.732 37.531 15.61 5.341 4.877 8.013 11.87 8.013 20.976 0 9.27-3.726 16.341-11.177 21.222-7.448 4.878-18.414 7.318-32.891 7.318-13.213 0-26.92-2.359-41.117-7.074-14.056-4.717-27.901-11.545-41.537-20.49v62.444c15.323 5.693 30.433 9.92 45.333 12.682 14.9 2.928 29.45 4.391 43.646 4.391 32.048 0 56.015-6.99 71.898-20.978 16.024-14.147 24.038-35.288 24.038-63.42.001-23.417-5.27-41.953-15.812-55.613z" fill="#1a1a1a"/><path d="M470.787 280.072c-11.65-15.448-29.865-26.661-54.14-33.332l-17.563-4.838-2.175-.685a8.55 8.55 0 00-.327-.096c-14.012-3.787-24.487-8.076-31.132-12.745-2.567-1.804-6.873-5.328-6.873-8.664 0-5.317 1.696-8.585 5.854-11.28.04-.025.08-.052.12-.08 3.822-2.564 11.527-5.62 26.537-5.621 11.371 0 22.855 2.053 34.133 6.1.04.016.08.029.12.043 11.472 3.921 22.657 9.898 33.249 17.764 1.524 1.132 3.272 1.704 5.026 1.704a8.318 8.318 0 004.41-1.284c2.976-1.852 4.829-5.42 4.829-9.3v-62.444c0-4.49-2.474-8.493-6.173-9.983a208.538 208.538 0 00-40.351-11.678 214.877 214.877 0 00-41.36-4.045c-31.761 0-57.007 8.135-75.038 24.179-18.739 16.675-28.24 40.167-28.24 69.825 0 24.798 6.308 45.046 18.747 60.185 12.05 14.667 31.002 25.464 56.328 32.092l17.032 4.38c24.922 6.957 31.928 11.752 33.782 13.494l.094.086c1.946 1.777 4.533 5.026 4.533 12.701 0 5.441-1.95 9.04-6.523 12.036-6 3.928-15.523 5.92-28.305 5.92-12.279 0-25.247-2.239-38.544-6.654-13.271-4.453-26.576-11.02-39.518-19.51-1.423-.933-3.008-1.399-4.592-1.399-1.601 0-3.2.476-4.633 1.428-2.851 1.892-4.606 5.38-4.606 9.155v62.445c0 4.586 2.58 8.651 6.39 10.067 15.682 5.826 31.381 10.218 46.665 13.056 15.328 3.009 30.522 4.534 45.163 4.534 33.985 0 60.07-7.796 77.53-23.17 18.347-16.199 27.645-40.356 27.645-71.81 0-25.94-6.088-46.992-18.094-62.576zm-87.082 146.973c-14.197 0-28.745-1.463-43.646-4.39-14.9-2.764-30.01-6.99-45.333-12.683v-62.444c13.636 8.944 27.481 15.773 41.537 20.49 14.198 4.715 27.904 7.074 41.117 7.074 14.478 0 25.443-2.439 32.891-7.318 7.45-4.88 11.177-11.951 11.177-21.222 0-9.105-2.672-16.098-8.013-20.977-5.2-4.877-17.712-10.082-37.531-15.61l-17.08-4.39c-23.615-6.181-40.834-15.856-51.657-29.029-10.823-13.172-16.235-30.815-16.235-52.931 0-26.344 8.223-46.833 24.668-61.469 16.446-14.633 39.57-21.952 69.37-21.952 13.352 0 26.636 1.301 39.85 3.903a199.315 199.315 0 0138.794 11.22v62.444c-11.385-8.455-23.263-14.797-35.633-19.026-12.23-4.39-24.528-6.586-36.896-6.586-13.775.001-24.178 2.36-31.205 7.074-7.029 4.555-10.543 11.384-10.543 20.49 0 13.01 15.04 23.58 45.121 31.71l2.32.73 17.712 4.878c22.49 6.18 38.935 16.182 49.34 30.003 10.543 13.66 15.812 32.197 15.811 55.614 0 28.132-8.014 49.272-24.038 63.42-15.883 13.986-39.85 20.977-71.898 20.977z" fill="#b3b3b3"/></svg>