<svg xmlns="http://www.w3.org/2000/svg" xmlns:xlink="http://www.w3.org/1999/xlink" width="489.31" height="494.244"><defs><linearGradient gradientTransform="translate(0 -1)" gradientUnits="userSpaceOnUse" y2="6.188" x2="41.438" y1="28.625" x1="18.188" id="O" xlink:href="#a"/><linearGradient y2="17.177" x2="31.181" y1="18.658" x1="33.176" gradientTransform="matrix(.8048 -.08406 -.25878 .8412 10.723 3.51)" gradientUnits="userSpaceOnUse" id="L" xlink:href="#b"/><linearGradient y2="33.485" x2="23.529" y1="29.591" x1="19.635" gradientTransform="matrix(.8048 -.08406 -.25878 .8412 10.723 3.51)" gradientUnits="userSpaceOnUse" id="N" xlink:href="#c"/><linearGradient y2="7.331" x2="36.611" y1="5.254" x1="38.289" gradientTransform="matrix(.8048 -.08406 -.25878 .8412 10.627 5.876)" gradientUnits="userSpaceOnUse" id="U" xlink:href="#d"/><linearGradient y2="39.532" x2="12.187" y1="38.012" x1="12.187" gradientUnits="userSpaceOnUse" id="S" xlink:href="#e"/><linearGradient y2="43.382" x2="10.165" y1="38.582" x1="10.593" gradientTransform="matrix(1 0 0 1.26753 -1 -14.854)" gradientUnits="userSpaceOnUse" id="Q" xlink:href="#f"/><linearGradient y2="46.821" x2="10.925" y1="38.812" x1="9.344" gradientTransform="matrix(.64242 0 0 .71463 3.446 6.787)" gradientUnits="userSpaceOnUse" id="R" xlink:href="#e"/><linearGradient gradientTransform="translate(1.064 .025)" y2="83.076" x2="51.568" y1="9.144" x1="15.3" gradientUnits="userSpaceOnUse" id="J" xlink:href="#j"/><linearGradient gradientTransform="translate(1.064 .025)" y2="5.5" x2="16.64" y1="14.769" x1="21.425" gradientUnits="userSpaceOnUse" id="M" xlink:href="#k"/><linearGradient id="k"><stop offset="0" stop-color="#fff"/><stop offset="1" stop-color="#fff" stop-opacity=".346"/></linearGradient><linearGradient id="f"><stop offset="0" stop-color="#555753"/><stop offset="1" stop-color="#1f2324"/></linearGradient><linearGradient id="e"><stop offset="0" stop-color="#fff"/><stop offset="1" stop-color="#fff" stop-opacity=".068"/></linearGradient><linearGradient id="h"><stop offset="0" stop-color="#e7ce79"/><stop offset="1" stop-color="#c17d11"/></linearGradient><linearGradient id="c"><stop offset="0" stop-color="#eeeeec"/><stop offset="1" stop-color="#888a85"/></linearGradient><linearGradient id="o"><stop offset="0" stop-color="#ef2929"/><stop offset="1" stop-color="#c00"/></linearGradient><linearGradient id="n"><stop offset="0" stop-color="#729fcf"/><stop offset="1" stop-color="#3465a4"/></linearGradient><linearGradient id="l"><stop offset="0"/><stop offset="1" stop-opacity="0"/></linearGradient><linearGradient id="m"><stop offset="0" stop-color="#8ae234"/><stop offset="1" stop-color="#73d216"/></linearGradient><linearGradient id="d"><stop offset="0" stop-color="#eac586"/><stop offset="1" stop-color="#eac586" stop-opacity="0"/></linearGradient><linearGradient id="i"><stop offset="0"/><stop offset="1" stop-opacity="0"/></linearGradient><linearGradient id="j"><stop offset="0" stop-color="#fff"/><stop offset="1" stop-color="#fff" stop-opacity=".521"/></linearGradient><linearGradient id="g"><stop offset="0"/><stop offset="1" stop-opacity="0"/></linearGradient><linearGradient id="a"><stop offset="0" stop-color="#fff"/><stop offset="1" stop-color="#fff" stop-opacity="0"/></linearGradient><linearGradient id="b"><stop offset="0" stop-color="#c17d11"/><stop offset="1" stop-color="#e9b96e"/></linearGradient><linearGradient id="s"><stop offset="0"/><stop offset="1" stop-opacity="0"/></linearGradient><linearGradient id="r"><stop offset="0" stop-color="#fff"/><stop offset="1" stop-color="#fff" stop-opacity="0"/></linearGradient><linearGradient id="q"><stop offset="0" stop-color="#fff"/><stop offset="1" stop-color="#fff" stop-opacity="0"/></linearGradient><linearGradient id="p"><stop offset="0" stop-color="#73d216"/><stop offset="1" stop-color="#8ae234"/></linearGradient><linearGradient id="w"><stop offset="0" stop-color="#73d216"/><stop offset="1" stop-color="#8ae234"/></linearGradient><linearGradient id="v"><stop offset="0" stop-color="#fff"/><stop offset="1" stop-color="#fff" stop-opacity="0"/></linearGradient><linearGradient id="u"><stop offset="0" stop-color="#fff"/><stop offset="1" stop-color="#fff" stop-opacity="0"/></linearGradient><linearGradient id="t"><stop offset="0"/><stop offset="1" stop-opacity="0"/></linearGradient><linearGradient id="A"><stop offset="0" stop-color="#73d216"/><stop offset="1" stop-color="#8ae234"/></linearGradient><linearGradient id="z"><stop offset="0" stop-color="#fff"/><stop offset="1" stop-color="#fff" stop-opacity="0"/></linearGradient><linearGradient id="y"><stop offset="0" stop-color="#fff"/><stop offset="1" stop-color="#fff" stop-opacity="0"/></linearGradient><linearGradient id="x"><stop offset="0"/><stop offset="1" stop-opacity="0"/></linearGradient><linearGradient id="E"><stop offset="0" stop-color="#73d216"/><stop offset="1" stop-color="#8ae234"/></linearGradient><linearGradient id="D"><stop offset="0" stop-color="#fff"/><stop offset="1" stop-color="#fff" stop-opacity="0"/></linearGradient><linearGradient id="C"><stop offset="0" stop-color="#fff"/><stop offset="1" stop-color="#fff" stop-opacity="0"/></linearGradient><linearGradient id="B"><stop offset="0"/><stop offset="1" stop-opacity="0"/></linearGradient><radialGradient gradientUnits="userSpaceOnUse" gradientTransform="matrix(1 0 0 .53285 0 21.518)" r="8.563" fy="46.063" fx="10.563" cy="46.063" cx="10.563" id="F" xlink:href="#g"/><radialGradient gradientUnits="userSpaceOnUse" gradientTransform="matrix(6.04299 0 0 5.53708 -142.794 -152.238)" r="18.572" fy="33.987" fx="28.658" cy="33.987" cx="28.658" id="I" xlink:href="#h"/><radialGradient gradientUnits="userSpaceOnUse" gradientTransform="matrix(.16754 .13407 -.93936 1.1739 43.938 -7.587)" r="12.367" fy="23.214" fx="28.469" cy="23.214" cx="28.469" id="K" xlink:href="#i"/><radialGradient r="4.5" fy="23.5" fx="6.5" cy="23.5" cx="6.5" gradientUnits="userSpaceOnUse" id="H" xlink:href="#l"/><radialGradient r="4.5" fy="23.5" fx="6.5" cy="23.5" cx="6.5" gradientUnits="userSpaceOnUse" id="G" xlink:href="#l"/><radialGradient gradientUnits="userSpaceOnUse" gradientTransform="matrix(.94093 0 0 1.04825 1.682 -3.178)" r="4.245" fy="36.025" fx="23.538" cy="36.025" cx="23.538" id="P" xlink:href="#m"/><radialGradient r="5.038" fy="36.07" fx="33.291" cy="36.07" cx="33.291" gradientTransform="matrix(-.85708 .70369 -.63055 -.63055 89.176 19.04)" gradientUnits="userSpaceOnUse" id="V" xlink:href="#n"/><radialGradient gradientUnits="userSpaceOnUse" gradientTransform="matrix(.63694 .69684 .55326 -.51013 -5.001 25.288)" r="5.038" fy="33.609" fx="32.45" cy="33.609" cx="32.45" id="T" xlink:href="#o"/></defs><path transform="matrix(10.0021 0 0 5.05509 56.302 238.915)" d="M19.125 46.063c0 2.52-3.834 4.562-8.563 4.562C5.835 50.625 2 48.582 2 46.062c0-2.52 3.834-4.562 8.563-4.562 4.728 0 8.562 2.043 8.562 4.563z" opacity=".1" fill="url(#F)"/><g opacity=".303" fill-rule="evenodd"><path d="M2 23.5a4.5 4.5 0 119 0H6.5z" transform="matrix(0 -10.25249 65.54303 0 -1188.699 530.045)" fill="url(#G)"/><path d="M2 23.5a4.5 4.5 0 119 0H6.5z" transform="matrix(0 -10.25249 -33.38985 0 1136.224 530.045)" fill="url(#H)"/></g><path d="M23.031 4.5c-5.867.077-13.726 2.085-13.593 8.531.141 6.877 8.495 4.164 8.812 7.219.513 4.938-10.174 19.961 6.063 22.906C35.151 45.122 46.656 38.372 45.5 24.75 44.46 12.5 34.325 4.812 24.187 4.5c-.37-.011-.765-.005-1.156 0zm-2.531 4c2.76 0 5 1.568 5 3.5s-2.24 3.5-5 3.5-5-1.568-5-3.5 2.24-3.5 5-3.5z" fill="url(#I)" fill-rule="evenodd" stroke="#c17d11" transform="matrix(9.01505 0 0 9.22554 71.798 85.445)"/><path d="M23.095 5.525c-2.824.037-6.123.567-8.593 1.78-2.471 1.215-4.058 2.908-4 5.72.03 1.513.48 2.328 1.093 2.906.614.578 1.496.924 2.5 1.187 1.005.264 2.092.42 3.063.75.485.166.96.38 1.375.75.414.37.717.947.781 1.563.17 1.645-.479 3.503-1.156 5.656-.678 2.153-1.446 4.514-1.719 6.75-.273 2.237-.041 4.28 1.063 5.906 1.103 1.627 3.17 2.982 7.062 3.688 5.159.936 10.449-.207 14.281-3.156 3.833-2.95 6.272-7.64 5.719-14.157C43.568 13.133 33.869 5.821 24.22 5.525c-.337-.01-.732-.006-1.125 0z" opacity=".67" fill="none" stroke="url(#J)" transform="matrix(9.01505 0 0 9.22554 71.798 85.445)"/><path transform="matrix(9.01505 0 0 9.22554 75.742 77.373)" d="M35.5 8.313a.494.494 0 00-.219.124C26.321 15.44 21.7 20.76 19.125 24.188c-.007.01-.024.022-.031.032-1.706 2.113-3.611 5.285-5.157 8.218a.494.494 0 00-.062.157c-.219 1.997-.077 4.013.781 5.781a.494.494 0 00.688.219c4.016-2.311 9.158-7.188 10.531-8.782 2.936-3.355 7.649-9.29 12.594-18.687a.494.494 0 00-.094-.563c-.779-.762-1.619-1.512-2.5-2.156a.494.494 0 00-.375-.094z" opacity=".165" fill="url(#K)" fill-rule="evenodd"/><path d="M24.378 26.217C28.122 22.66 34.668 15.824 42.5 5c.315-.349-.21-.649-.5-.5-11.832 8.286-17.782 14.476-21.157 18.015" fill="url(#L)" fill-rule="evenodd" stroke="#8f5902" stroke-linejoin="round" transform="matrix(9.01505 0 0 9.22554 71.798 85.445)"/><path d="M21.436 21.922c1.482.593 2.798 1.536 3.535 3.701-1.5 1.44-7.463 6.425-11.181 8.496l-1.092-1.515c2.112-3.07 5.973-7.922 8.738-10.682z" opacity=".15" fill-rule="evenodd" stroke="#000" stroke-linejoin="round" transform="matrix(9.01505 0 0 9.22554 71.798 85.445)"/><path d="M20.564 7.525c1.571 0 3.023.416 4.125 1.187 1.102.772 1.875 1.957 1.875 3.313 0 1.355-.773 2.54-1.875 3.312-1.102.772-2.554 1.188-4.125 1.188-1.57 0-3.023-.416-4.125-1.188-1.102-.771-1.875-1.957-1.875-3.312 0-1.356.773-2.541 1.875-3.313 1.102-.771 2.554-1.187 4.125-1.187z" opacity=".736" fill="none" stroke="url(#M)" transform="matrix(9.01505 0 0 9.22554 71.798 85.445)"/><path d="M20.843 22.515c1.481.594 2.798 1.536 3.535 3.702-1.5 1.44-7.464 6.425-11.182 8.495l-1.092-1.514c2.113-3.07 5.973-7.922 8.739-10.683z" fill="url(#N)" fill-rule="evenodd" stroke="#888a85" transform="matrix(9.01505 0 0 9.22554 71.798 85.445)"/><g opacity=".13" fill-rule="evenodd" stroke="#000" stroke-linejoin="round" stroke-miterlimit="5"><path d="M26.824 37.496c-.98.593.072 1.274.545 1.671.376.315-.188 1.835-.86 1.163-.775-.774-1.274-1.852-1.578-1.88-1.747-.158-.402 2.149-1.808 1.641-.841-.303.206-1.577-.918-1.969-.892-.31-.804.645-1.32.18-2.429-2.19-1.152-4.093-.028-5.579 1.125-1.486 3.346-1.645 4.992-.328 1.647 1.318 2.084 3.603.975 5.101zM35.475 34.484c.894 0 2.395.15 2.79.615.924 1.087 1.744-.342 1.041-.96-.81-.71-1.886-1.12-1.94-1.422-.303-1.736 2.025-.582 1.417-1.947-.364-.817-1.495.338-1.968-.754-.375-.868.548-.86.057-1.337-2.31-2.249-4.024-.81-5.351.44s-1.287 3.488.12 5.026c.577.632.86 2.151 1.597 2.334 1.057.262-.016-1.995 2.237-1.995zM37.02 23.5c-.88 0-1.057.608-1.472 1-.33.31-1.717-.304-1.025-.853.798-.631.973-1.378 1.025-1.646.3-1.542-2.656-.793-2.048-2.001.443-.88 2.052-.042 2.048-.498-.007-.703-.42-1.765.46-1.938 1.854-.366 3.987.912 4.992 1.936.96.98.428 2.691-.14 3.907-.347.744-1.143 2.256-2.065 2.074-1.046-.207.444-1.98-1.774-1.98z" transform="matrix(9.01505 0 0 9.22554 82.805 89.37)"/></g><path d="M12.938 33.438C18.547 24.934 36.614 9.233 40.5 6.625c-8.265 8.802-18.608 18.642-27.563 26.813z" opacity=".68" fill="url(#O)" fill-rule="evenodd" transform="matrix(9.01505 0 0 9.22554 71.798 85.445)"/><path d="M27.824 37.496c-.98.593.072 1.274.545 1.671.376.315-.188 1.835-.86 1.163-.775-.774-1.274-1.852-1.578-1.88-1.747-.158-.402 2.149-1.808 1.641-.841-.303.206-1.577-.918-1.969-.892-.31-.804.645-1.32.18-2.429-2.19-1.152-4.093-.028-5.579 1.125-1.486 3.346-1.645 4.992-.328 1.647 1.318 2.084 3.603.975 5.101z" fill="url(#P)" fill-rule="evenodd" stroke="#4e9a06" stroke-linejoin="round" stroke-miterlimit="5" transform="matrix(9.01505 0 0 9.22554 71.798 85.445)"/><path d="M303.654 387.582c-12.02-7.179-25.603.442-30.426 6.63-4.822 6.19-11.369 18.29-6.198 29.695 3.397-10.972 8.28-18.266 13.241-23.928 4.968-5.672 10.756-11.778 23.383-12.397z" opacity=".77" fill="#eeeeec" fill-rule="evenodd"/><path d="M2.5 39.534c4.693.002 4.221-4.892 6.5-6.392 2.64-1.739 4.955.415 5.417 2.188C15 37.567 14 40.026 11 41.01c-3.364 1.102-8.11.475-8.5-1.476z" fill="url(#Q)" fill-rule="evenodd" stroke="#000" transform="matrix(9.01505 0 0 9.22554 71.798 85.445)"/><path d="M4 40.119c2.035-.026 3.436-2.445 3.966-3.98 1.6-4.625 6.415-2.426 5.534.794-1.048 5.181-6.455 3.194-9.5 3.186z" opacity=".291" fill="none" stroke="url(#R)" stroke-linejoin="round" stroke-miterlimit="5" transform="matrix(9.01505 0 0 9.22554 71.798 85.445)"/><path transform="matrix(23.7655 0 0 20.12052 -118.656 -370.49)" d="M13.325 38.708c0 .507-.51.917-1.138.917-.629 0-1.138-.41-1.138-.917 0-.506.509-.917 1.138-.917.628 0 1.138.41 1.138.917z" opacity=".5" fill="url(#S)" fill-rule="evenodd"/><path d="M36.475 34.484c.894 0 2.395.15 2.79.615.924 1.087 1.744-.342 1.041-.96-.81-.71-1.886-1.12-1.94-1.422-.303-1.736 2.025-.582 1.417-1.947-.364-.817-1.495.338-1.968-.754-.375-.868.548-.86.057-1.337-2.31-2.249-4.024-.81-5.351.44s-1.287 3.488.12 5.026c.577.632.86 2.151 1.597 2.334 1.057.262-.016-1.995 2.237-1.995z" fill="url(#T)" fill-rule="evenodd" stroke="#a40000" stroke-linejoin="round" stroke-miterlimit="5" transform="matrix(9.01505 0 0 9.22554 71.798 85.445)"/><path d="M41.51 5.5L38.5 8.509" fill="none" stroke="url(#U)" stroke-linecap="round" transform="matrix(9.01505 0 0 9.22554 71.798 85.445)"/><path d="M38.02 23.5c-.88 0-1.057.608-1.472 1-.33.31-1.717-.304-1.025-.853.798-.631.973-1.378 1.025-1.646.3-1.542-2.656-.793-2.048-2.001.443-.88 2.052-.042 2.048-.498-.007-.703-.42-1.765.46-1.938 1.854-.366 3.987.912 4.992 1.936.96.98.428 2.691-.14 3.907-.347.744-1.143 2.256-2.065 2.074-1.046-.207.444-1.98-1.774-1.98z" fill="url(#V)" fill-rule="evenodd" stroke="#204a87" stroke-linejoin="round" stroke-miterlimit="5" transform="matrix(9.01505 0 0 9.22554 71.798 85.445)"/><path d="M414.37 256.118c-7.71 3.573-9.015 13.838-4.508 23.064 4.807-13.347 18.03-9.226 31.553-9.226-4.507-9.225-21.67-15.678-27.045-13.838zM403.264 350.515c-12.02-7.179-25.603.442-30.426 6.63-4.823 6.19-11.37 18.29-6.198 29.695 3.397-10.972 8.28-18.266 13.241-23.928 4.968-5.672 10.756-11.778 23.383-12.397z" opacity=".77" fill="#eeeeec" fill-rule="evenodd"/><g><path d="M333.99 181.027l.048.043c3.006 2.802 7.353 4.163 13.288 4.163 6.439 0 14.298-3.158 23.391-9.394v-56.583c-15.026 8.603-26.615 17.678-34.527 27.045-5.858 6.994-8.828 14.016-8.828 20.867 0 5.247 2.168 9.78 6.629 13.859z" fill="none"/><path d="M462.778 200.805c-2.286 0-4.309-.603-6.063-1.818-1.758-1.211-3.077-3.068-3.954-5.569-.882-2.5-1.318-8.597-1.318-18.296V92.621c0-22.877-1.232-37.5-3.69-43.865-4.044-10-12.875-19.279-26.491-27.84-13.62-8.559-32.117-12.842-55.485-12.842-19.333 0-37.957 2.652-55.88 7.955-17.925 5.306-31.895 12.92-41.912 22.841-10.016 9.925-15.024 20.341-15.024 31.25 0 7.728 3.731 14.472 11.202 20.228 7.467 5.76 16.739 8.636 27.81 8.636 10.366 0 18.755-2.614 25.172-7.84 6.412-5.228 9.62-11.553 9.62-18.978 0-6.059-3.34-12.348-10.016-18.864-4.921-4.694-7.38-8.636-7.38-11.818 0-3.636 2.281-6.818 6.853-9.545 7.38-4.394 16.78-6.591 28.204-6.591 7.025 0 13.352 1.555 18.978 4.659 5.621 3.107 9.444 6.744 11.466 10.91 2.019 4.168 3.032 14.282 3.032 30.34v21.365c-54.3 21.516-89.533 38.75-105.699 51.705-16.169 12.956-24.25 27.54-24.25 43.751 0 11.972 4.654 21.932 13.97 29.888 9.313 7.954 20.997 11.931 35.057 11.931 23.896 0 50.873-11.438 80.922-34.318 1.754 11.516 6.59 20.114 14.497 25.796 7.907 5.682 18.888 8.523 32.948 8.523 11.949 0 22.624-2.539 32.026-7.614 9.398-5.074 18.493-13.217 27.282-24.432l-7.908-5.454c-4.744 5.605-9.402 8.407-13.969 8.407zm-84.875-21.818c-11.598 8.487-21.792 12.726-30.577 12.726-7.907 0-14.06-2.045-18.45-6.136-5.8-5.302-8.699-11.439-8.699-18.41 0-8.33 3.428-16.59 10.28-24.773 10.368-12.273 26.182-23.786 47.446-34.546v71.139z" fill="#1a1a1a"/><path d="M330.457 142.394c-6.853 8.182-10.28 16.443-10.28 24.774 0 6.97 2.9 13.107 8.697 18.41 4.39 4.09 10.545 6.135 18.452 6.135 8.784 0 18.978-4.239 30.576-12.726v-71.138c-21.263 10.76-37.078 22.272-47.445 34.545zm40.26 33.445c-9.092 6.236-16.951 9.394-23.39 9.394-5.935 0-10.282-1.362-13.288-4.163a2.347 2.347 0 01-.048-.044c-4.46-4.079-6.628-8.611-6.628-13.86 0-6.851 2.97-13.872 8.828-20.866 7.912-9.368 19.501-18.443 34.527-27.046v56.585z" fill="#b3b3b3"/><path d="M489.021 192.703l-7.907-5.455c-1.26-.87-2.797-1.332-4.365-1.332-.317 0-.636.018-.953.057-1.89.228-3.603 1.125-4.76 2.492-3.15 3.724-6.16 5.86-8.257 5.86-.876 0-1.329-.23-1.688-.478-.551-.38-1.071-1.224-1.479-2.386-.166-.47-.982-3.438-.982-16.338V92.621c0-31.738-2.335-41.453-4.09-45.997l-.035-.088c-4.541-11.228-14.343-21.637-29.133-30.937-14.79-9.293-34.84-14.005-59.594-14.005-19.998 0-39.552 2.784-58.12 8.277-19.033 5.634-34.168 13.923-44.983 24.636-11.213 11.11-16.897 23.093-16.897 35.614 0 9.676 4.616 18.14 13.72 25.154 8.765 6.761 19.692 10.19 32.477 10.19 12.151 0 22.24-3.2 29.989-9.512 7.957-6.486 11.99-14.489 11.99-23.787 0-7.712-4.012-15.539-11.924-23.262-.019-.018-.039-.036-.057-.055-5.354-5.106-5.416-7.276-5.416-7.366 0-.488 0-1.974 3.631-4.14 6.147-3.659 14.305-5.516 24.24-5.516 5.726 0 10.707 1.212 15.229 3.707 4.314 2.384 7.22 5.07 8.633 7.98.728 1.504 2.428 7.23 2.428 27.742v17.14c-53.033 21.184-86.845 37.909-103.286 51.085-17.692 14.176-26.663 30.525-26.663 48.596 0 13.766 5.456 25.405 16.216 34.594 10.646 9.094 24.104 13.706 39.997 13.706 12.957 0 26.823-3.094 41.21-9.196 11.237-4.765 23.071-11.485 35.289-20.033 2.963 8.054 7.797 14.519 14.443 19.294 9.173 6.592 21.765 9.935 37.425 9.935 13.208 0 25.225-2.872 35.717-8.534 10.22-5.518 20.13-14.35 29.459-26.251 2.23-2.846 1.565-6.773-1.504-8.89zm-63.673 37.194c-14.06 0-25.04-2.841-32.948-8.523-7.908-5.682-12.743-14.28-14.497-25.797-30.05 22.88-57.026 34.319-80.922 34.319-14.06 0-25.745-3.977-35.057-11.932-9.316-7.955-13.97-17.916-13.97-29.887 0-16.211 8.08-30.796 24.25-43.751 16.165-12.955 51.4-30.188 105.699-51.706V71.256c0-16.058-1.014-26.173-3.032-30.341-2.022-4.166-5.845-7.803-11.466-10.91-5.626-3.103-11.953-4.659-18.978-4.659-11.425 0-20.824 2.198-28.204 6.591-4.572 2.728-6.853 5.91-6.853 9.545 0 3.182 2.459 7.124 7.38 11.819 6.676 6.516 10.016 12.806 10.016 18.863 0 7.426-3.208 13.75-9.62 18.978-6.417 5.227-14.806 7.84-25.173 7.84-11.07 0-20.341-2.875-27.809-8.636-7.47-5.757-11.202-12.5-11.202-20.227 0-10.91 5.008-21.325 15.024-31.25 10.016-9.923 23.986-17.536 41.911-22.842 17.924-5.302 36.547-7.954 55.88-7.954 23.37 0 41.865 4.283 55.486 12.84 13.615 8.563 22.446 17.842 26.49 27.842 2.46 6.364 3.691 20.988 3.691 43.864v82.502c0 9.7.436 15.797 1.317 18.296.878 2.5 2.196 4.358 3.955 5.569 1.754 1.215 3.777 1.818 6.063 1.818 4.567 0 9.225-2.802 13.97-8.408l7.907 5.454c-8.789 11.215-17.883 19.357-27.281 24.432-9.403 5.075-20.079 7.615-32.027 7.615z" fill="#b3b3b3"/></g><g><path d="M134.54 270.319c10.764 0 25.5-6.103 43.833-18.147V190.37c-19.995 6.774-33.267 11.703-39.513 14.677l-.047.022c-12.367 5.777-21.213 11.755-26.294 17.773-4.811 5.693-7.15 11.7-7.15 18.363 0 8.51 2.905 15.337 8.882 20.87 5.988 5.547 12.624 8.245 20.29 8.245z" fill="none"/><path d="M71.721 287.406c10.364 9.186 23.55 13.776 39.562 13.776 10.278 0 19.97-1.77 29.071-5.298 6.067-2.402 20.982-11.304 44.744-26.705.167 11.586 2.694 19.782 7.584 24.585 4.886 4.802 11.457 7.206 19.718 7.206 17.19 0 35.222-10.598 54.098-31.791V257.31c-10.112 8.477-16.937 13.638-20.476 15.472-2.024.99-4.386 1.484-7.08 1.484-2.527 0-4.762-.706-6.698-2.12-1.94-1.41-3.33-4.201-4.171-8.371-.845-4.167-1.265-15.505-1.265-34.016v-65.914c0-18.79-1.517-31.225-4.55-37.302-4.72-9.325-12.05-16.177-21.994-20.558-13.145-5.792-29.999-8.69-50.558-8.69-26.796 0-47.613 5.087-62.44 15.26-14.832 10.174-22.246 21.338-22.246 33.487 0 6.359 1.979 11.376 5.94 15.048 3.958 3.675 9.058 5.51 15.294 5.51 6.403 0 11.585-1.765 15.547-5.298 3.957-3.53 5.94-8.547 5.94-15.048l-.505-12.292c0-6.216 3.199-11.726 9.606-16.531 6.233-4.802 14.663-7.207 25.28-7.207 13.987 0 24.647 3.603 31.978 10.81 7.332 7.205 10.997 20.489 10.997 39.844v7.63c-39.776 12.154-68.215 22.467-85.319 30.944-17.107 8.478-29.115 17.522-36.023 27.129-5.056 6.924-7.584 15.12-7.584 24.585.003 14.976 5.185 27.057 15.55 36.24zm35.518-68.456c5.727-6.784 15.25-13.28 28.566-19.5 7.414-3.53 23.845-9.537 49.295-18.014v73.967c-20.899 14.13-37.753 21.194-50.56 21.194-9.44 0-17.782-3.356-25.026-10.068-7.247-6.71-10.87-15.153-10.87-25.327 0-8.051 2.863-15.47 8.595-22.252z" fill="#1a1a1a"/><path d="M135.804 199.45c-13.315 6.22-22.838 12.717-28.566 19.5-5.731 6.782-8.595 14.199-8.595 22.253 0 10.173 3.622 18.618 10.87 25.328 7.245 6.711 15.587 10.066 25.027 10.066 12.806 0 29.66-7.062 50.56-21.193v-73.968c-25.45 8.477-41.881 14.484-49.296 18.015zm-23.285 23.39c5.08-6.017 13.927-11.996 26.294-17.773l.047-.022c6.246-2.974 19.518-7.903 39.513-14.677v61.804c-18.333 12.045-33.069 18.146-43.833 18.146-7.665 0-14.302-2.697-20.289-8.245-5.978-5.533-8.882-12.359-8.882-20.87 0-6.664 2.339-12.67 7.15-18.362zm69.217 30.954c-19.574 13.05-35.446 19.664-47.196 19.664-8.597 0-16.009-2.995-22.658-9.156-6.645-6.151-9.876-13.707-9.876-23.097 0 9.39 3.23 16.944 9.876 23.096 6.65 6.163 14.061 9.156 22.658 9.156 11.749 0 27.622-6.615 47.196-19.663z" fill="#b3b3b3"/><path d="M269.238 251.576a7.129 7.129 0 00-2.738-.544c-1.63 0-3.236.552-4.495 1.608-12.536 10.508-17.38 13.668-19.172 14.614-1.029.487-2.336.734-3.89.734-1.022 0-1.81-.243-2.553-.785.001 0-.963-.899-1.708-4.59-.523-2.582-1.146-10.374-1.146-32.853v-65.915c0-20.179-1.646-32.874-5.18-39.954-5.396-10.661-13.876-18.585-25.22-23.583-13.99-6.165-31.966-9.291-53.429-9.291-28.136 0-50.485 5.544-66.423 16.479-16.581 11.373-24.988 24.342-24.988 38.547 0 8.066 2.667 14.627 7.927 19.504 5.238 4.864 11.98 7.334 20.033 7.334 8.162 0 14.956-2.368 20.192-7.037 5.322-4.748 8.02-11.338 8.02-19.589 0-.08 0-.16-.004-.24l-.5-12.16c.04-4.207 2.36-7.98 7.092-11.529l.068-.052c4.97-3.83 12.035-5.77 21-5.77 12.175 0 21.04 2.897 27.101 8.855 5.984 5.882 9.148 18.165 9.148 35.52v3.085c-37.585 11.61-65.072 21.676-81.746 29.942-18.005 8.923-30.939 18.733-38.441 29.158-5.799 7.95-8.738 17.405-8.738 28.102 0 16.698 5.936 30.424 17.643 40.796 11.604 10.286 26.473 15.5 44.191 15.5 11.117 0 21.767-1.943 31.652-5.777l.045-.018c5.65-2.235 17.599-9.186 36.398-21.179 1.377 7.61 4.168 13.418 8.43 17.605 6.183 6.076 14.458 9.158 24.594 9.158 9.842 0 19.935-3 30-8.913 9.573-5.626 19.422-14.085 29.27-25.142a6.028 6.028 0 001.555-4.015v-11.87c0-2.479-1.564-4.726-3.988-5.735zm-56.837 49.394c-8.26 0-14.832-2.404-19.719-7.206-4.889-4.803-7.417-12.999-7.583-24.585-23.762 15.401-38.677 24.303-44.744 26.704-9.1 3.53-18.794 5.299-29.071 5.299-16.013 0-29.198-4.59-39.562-13.776-10.365-9.184-15.547-21.264-15.547-36.242 0-9.464 2.528-17.66 7.584-24.585 6.909-9.607 18.916-18.651 36.023-27.128 17.104-8.478 45.543-18.79 85.319-30.944v-7.63c0-19.356-3.665-32.64-10.997-39.845-7.33-7.206-17.992-10.81-31.978-10.81-10.617 0-19.047 2.405-25.28 7.207-6.406 4.806-9.606 10.316-9.606 16.532l.505 12.292c0 6.5-1.983 11.518-5.94 15.047-3.962 3.533-9.145 5.299-15.547 5.299-6.237 0-11.336-1.835-15.294-5.51-3.961-3.674-5.94-8.69-5.94-15.048 0-12.15 7.414-23.314 22.245-33.487 14.83-10.173 35.645-15.26 62.44-15.26 20.56 0 37.414 2.898 50.559 8.69 9.942 4.38 17.273 11.232 21.993 20.558 3.034 6.076 4.551 18.512 4.551 37.301v65.914c0 18.511.419 29.851 1.265 34.017.84 4.169 2.23 6.96 4.171 8.37 1.935 1.415 4.17 2.12 6.699 2.12 2.693 0 5.056-.493 7.079-1.483 3.539-1.835 10.363-6.995 20.476-15.472v11.868c-18.88 21.197-36.91 31.793-54.1 31.793z" fill="#b3b3b3"/><path fill="#1a1a1a" d="M7.937 313.771h314.055v33.077H7.937z"/><path d="M321.992 308.03H7.937c-3.048 0-5.518 2.571-5.518 5.741v33.077c0 3.169 2.47 5.74 5.518 5.74h314.055c3.047 0 5.518-2.571 5.518-5.74V313.77c0-3.17-2.47-5.74-5.518-5.74zM7.937 313.772h314.055v33.077H7.937V313.77z" fill="#b3b3b3"/></g></svg>