<svg xmlns="http://www.w3.org/2000/svg" width="489.309" height="494.244"><path fill="#1A1A1A" d="M251.395 190.363c-5.979-9.876-14.865-17.992-26.667-24.343-11.802-6.35-25.043-9.525-39.718-9.525-28.597 0-53.187 14.024-73.763 42.071V55.949H47.47v387.896h63.776V303.081c0-23.636 1.929-41.496 5.788-53.581 3.858-12.08 9.947-21.122 18.271-27.121 8.32-5.995 17.777-8.996 28.37-8.996 9.228 0 16.909 2.34 23.037 7.012 6.128 4.676 10.401 10.981 12.824 18.918 2.418 7.938 3.631 26.637 3.631 56.094v148.438h63.776V279.003c0-25.224-1.1-43.832-3.291-55.83-2.195-11.993-6.28-22.928-12.257-32.81z"/><path fill="#B3B3B3" d="M272.017 221.646c-2.372-12.958-6.861-24.963-13.346-35.684-6.752-11.154-16.816-20.382-29.915-27.43-12.999-6.994-27.718-10.541-43.748-10.541-24.426 0-46.297 9.316-65.259 27.75V55.949a8.504 8.504 0 00-8.504-8.504H47.47a8.504 8.504 0 00-8.504 8.504v387.896a8.504 8.504 0 008.504 8.504h63.776a8.504 8.504 0 008.504-8.504V303.081c0-22.646 1.812-39.804 5.385-50.994 3.275-10.253 8.369-17.927 15.142-22.809 6.902-4.973 14.556-7.391 23.398-7.391 7.38 0 13.229 1.724 17.881 5.271 4.717 3.599 7.938 8.388 9.846 14.638 1.487 4.88 3.261 18.147 3.261 53.611v148.438a8.504 8.504 0 008.504 8.504h63.776a8.505 8.505 0 008.504-8.504V279.003c0-25.962-1.122-44.724-3.43-57.357zm-72.482 17.667c-2.422-7.938-6.696-14.243-12.824-18.918-6.128-4.672-13.809-7.012-23.037-7.012-10.593 0-20.05 3.001-28.37 8.996-8.323 5.999-14.412 15.041-18.271 27.121-3.858 12.085-5.788 29.945-5.788 53.581v140.765H47.47V55.949h63.776v142.617c20.576-28.047 45.166-42.071 73.763-42.071 14.675 0 27.917 3.175 39.718 9.525 11.802 6.351 20.689 14.466 26.667 24.343 5.977 9.881 10.062 20.816 12.257 32.81 2.191 11.998 3.291 30.606 3.291 55.83v164.843h-63.776V295.407c.001-29.457-1.212-48.156-3.631-56.094z"/><path fill="#1A1A1A" d="M432.384 355.585c-5.104-8.133-11.913-13.369-20.429-15.706 14.26-9.95 21.392-23.276 21.392-39.979 0-11.767-3.482-22.325-10.442-31.671-8.45-11.423-19.669-17.134-33.659-17.134-8.179 0-15.563 1.97-22.152 5.906-6.59 3.938-11.728 9.346-15.411 16.225-3.685 6.88-6.438 16.075-8.263 27.583l26.259 5.711c.743-8.308 2.839-14.623 6.286-18.951 3.446-4.325 7.604-6.489 12.47-6.489 4.934 0 8.887 1.904 11.862 5.711 2.974 3.809 4.461 8.913 4.461 15.316 0 7.528-2.028 13.563-6.083 18.107-3.836 4.297-9.305 6.446-16.407 6.446-.406 0-.817-.008-1.234-.021l-3.143 29.725c5.069-1.817 9.429-2.727 13.079-2.727 5.541 0 10.239 2.684 14.092 8.048 3.853 5.366 5.779 12.636 5.779 21.807 0 9.692-2.012 17.394-6.032 23.104-4.022 5.711-8.973 8.566-14.854 8.566-5.475 0-10.138-2.379-13.99-7.139-3.853-4.758-6.22-11.638-7.098-20.639l-27.576 4.284c1.42 16.01 6.556 28.968 15.41 38.875 8.854 9.909 20.006 14.862 33.457 14.862 14.193 0 26.056-5.884 35.586-17.653 9.529-11.767 14.295-26.002 14.295-42.704 0-11.506-2.552-21.328-7.655-29.463z"/><path fill="#B3B3B3" d="M439.588 351.066c-3.419-5.447-7.523-9.867-12.273-13.229 9.656-10.333 14.536-23.043 14.536-37.938 0-13.581-4.08-25.946-12.126-36.75-10.086-13.635-23.711-20.559-40.479-20.559-9.695 0-18.616 2.392-26.514 7.109-7.903 4.725-14.144 11.288-18.547 19.511-4.172 7.791-7.17 17.691-9.165 30.266a8.505 8.505 0 006.592 9.642l26.259 5.711a8.5 8.5 0 0010.278-7.552c.581-6.486 2.126-11.47 4.468-14.411 2.306-2.893 4.235-3.283 5.818-3.283 2.31 0 3.806.708 5.162 2.444 1.763 2.257 2.657 5.649 2.657 10.079 0 5.415-1.284 9.486-3.924 12.445-1.381 1.547-3.927 3.604-10.063 3.604-.312 0-.628-.006-.948-.017a8.504 8.504 0 00-8.743 7.604l-3.143 29.725a8.503 8.503 0 0011.327 8.899c5.136-1.841 8.387-2.228 10.209-2.228 1.839 0 4.317.512 7.185 4.505 2.775 3.865 4.183 9.533 4.183 16.846 0 7.858-1.508 13.984-4.482 18.209-3.095 4.395-5.848 4.958-7.899 4.958-1.935 0-4.521-.453-7.38-3.985-2.771-3.421-4.535-8.843-5.244-16.113a8.507 8.507 0 00-9.77-7.578l-27.576 4.284a8.504 8.504 0 00-7.165 9.154c1.579 17.802 7.48 32.535 17.54 43.791 10.494 11.744 23.885 17.699 39.798 17.699 16.819 0 31.016-7 42.194-20.806 10.743-13.265 16.19-29.434 16.19-48.056-.001-13.073-3.013-24.507-8.955-33.98zm-49.43 94.341c-13.451 0-24.603-4.953-33.457-14.862-8.854-9.907-13.99-22.865-15.41-38.875l27.576-4.284c.878 9.001 3.245 15.881 7.098 20.639 3.853 4.76 8.516 7.139 13.99 7.139 5.881 0 10.831-2.855 14.854-8.566 4.021-5.711 6.032-13.412 6.032-23.104 0-9.171-1.927-16.44-5.779-21.807-3.853-5.364-8.551-8.048-14.092-8.048-3.65 0-8.01.909-13.079 2.727l3.143-29.725c.417.014.828.021 1.234.021 7.103 0 12.571-2.149 16.407-6.446 4.055-4.544 6.083-10.579 6.083-18.107 0-6.403-1.487-11.508-4.461-15.316-2.976-3.807-6.929-5.711-11.862-5.711-4.866 0-9.023 2.164-12.47 6.489-3.447 4.328-5.543 10.644-6.286 18.951l-26.259-5.711c1.825-11.508 4.578-20.703 8.263-27.583 3.684-6.879 8.821-12.286 15.411-16.225 6.59-3.937 13.974-5.906 22.152-5.906 13.99 0 25.209 5.711 33.659 17.134 6.96 9.346 10.442 19.904 10.442 31.671 0 16.702-7.132 30.028-21.392 39.979 8.516 2.337 15.324 7.573 20.429 15.706 5.103 8.135 7.654 17.957 7.654 29.465 0 16.702-4.766 30.938-14.295 42.704-9.53 11.767-21.392 17.651-35.585 17.651z"/></svg>