<svg xmlns="http://www.w3.org/2000/svg" width="489.309" height="494.244"><path fill="#1A1A1A" d="M251.395 190.363c-5.979-9.876-14.865-17.992-26.667-24.343-11.802-6.35-25.043-9.525-39.718-9.525-28.597 0-53.187 14.024-73.763 42.071V55.949H47.47v387.896h63.776V303.081c0-23.636 1.929-41.496 5.788-53.581 3.858-12.08 9.947-21.122 18.271-27.121 8.32-5.995 17.777-8.996 28.37-8.996 9.228 0 16.909 2.34 23.037 7.012 6.128 4.676 10.401 10.981 12.824 18.918 2.418 7.938 3.631 26.637 3.631 56.094v148.438h63.776V279.003c0-25.224-1.1-43.832-3.291-55.83-2.195-11.993-6.28-22.928-12.257-32.81z"/><path fill="#B3B3B3" d="M272.017 221.646c-2.372-12.958-6.861-24.963-13.346-35.684-6.752-11.154-16.816-20.382-29.915-27.43-12.999-6.994-27.718-10.541-43.748-10.541-24.426 0-46.297 9.316-65.259 27.75V55.949a8.504 8.504 0 00-8.504-8.504H47.47a8.504 8.504 0 00-8.504 8.504v387.896a8.504 8.504 0 008.504 8.504h63.776a8.504 8.504 0 008.504-8.504V303.081c0-22.646 1.812-39.804 5.385-50.994 3.275-10.253 8.369-17.927 15.142-22.809 6.902-4.973 14.556-7.391 23.398-7.391 7.38 0 13.229 1.724 17.881 5.271 4.717 3.599 7.938 8.388 9.846 14.638 1.487 4.88 3.261 18.147 3.261 53.611v148.438a8.504 8.504 0 008.504 8.504h63.776a8.505 8.505 0 008.504-8.504V279.003c0-25.962-1.122-44.724-3.43-57.357zm-72.482 17.667c-2.422-7.938-6.696-14.243-12.824-18.918-6.128-4.672-13.809-7.012-23.037-7.012-10.593 0-20.05 3.001-28.37 8.996-8.323 5.999-14.412 15.041-18.271 27.121-3.858 12.085-5.788 29.945-5.788 53.581v140.765H47.47V55.949h63.776v142.617c20.576-28.047 45.166-42.071 73.763-42.071 14.675 0 27.917 3.175 39.718 9.525 11.802 6.351 20.689 14.466 26.667 24.343 5.977 9.881 10.062 20.816 12.257 32.81 2.191 11.998 3.291 30.606 3.291 55.83v164.843h-63.776V295.407c.001-29.457-1.212-48.156-3.631-56.094z"/><path fill="#1A1A1A" d="M385.205 398.02c2.271-3.521 7.665-10.655 16.179-21.402 8.513-10.745 14.403-18.979 17.668-24.705 4.928-8.631 8.529-16.889 10.802-24.771 2.271-7.882 3.409-16.185 3.409-24.904 0-15.325-3.971-28.14-11.907-38.445-7.938-10.305-18.853-15.457-32.742-15.457-12.675 0-23.236 4.448-31.687 13.344-8.449 8.896-13.476 23.562-15.075 43.994l26.886 3.699c.512-10.834 2.432-18.583 5.762-23.252 3.327-4.668 7.809-7.003 13.442-7.003 5.696 0 10.161 2.226 13.395 6.672 3.231 4.449 4.849 10.813 4.849 19.091 0 7.487-1.857 15.061-5.568 22.724-2.753 5.549-10.211 16.118-22.373 31.708-15.107 19.288-25.222 34.769-30.342 46.438-5.122 11.672-8.194 24.024-9.218 37.059h94.579v-34.482h-53.579c1.405-3.349 3.246-6.784 5.52-10.308z"/><path fill="#B3B3B3" d="M433.262 399.82h-38.975c2.269-3.161 6.371-8.593 13.762-17.923 8.868-11.193 14.883-19.624 18.39-25.773 5.238-9.175 9.137-18.136 11.585-26.628 2.483-8.616 3.742-17.787 3.742-27.26 0-17.172-4.601-31.853-13.674-43.634-9.595-12.457-22.878-18.772-39.479-18.772-15.037 0-27.772 5.38-37.853 15.991-9.927 10.452-15.614 26.542-17.387 49.187a8.504 8.504 0 007.318 9.089l26.886 3.699a8.51 8.51 0 006.595-1.885 8.506 8.506 0 003.059-6.139c.565-11.964 2.868-16.861 4.191-18.715 1.74-2.442 3.628-3.438 6.519-3.438 2.991 0 4.88.918 6.517 3.17 2.107 2.9 3.223 7.774 3.223 14.089 0 6.142-1.582 12.527-4.7 18.979-1.726 3.464-6.852 11.518-21.442 30.222-15.683 20.022-25.965 35.811-31.424 48.251-5.481 12.49-8.815 25.885-9.908 39.81a8.505 8.505 0 008.477 9.169h94.579a8.505 8.505 0 008.504-8.504v-34.482a8.506 8.506 0 00-8.505-8.503zm-27.078-94.941c0-8.277-1.617-14.642-4.849-19.091-3.233-4.446-7.698-6.672-13.395-6.672-5.634 0-10.115 2.335-13.442 7.003-3.33 4.669-5.25 12.418-5.762 23.252l-26.886-3.699c1.6-20.433 6.626-35.098 15.075-43.994 8.45-8.896 19.012-13.344 31.687-13.344 13.89 0 24.805 5.152 32.742 15.457 7.937 10.306 11.907 23.12 11.907 38.445 0 8.72-1.138 17.022-3.409 24.904-2.272 7.883-5.874 16.141-10.802 24.771-3.265 5.726-9.155 13.96-17.668 24.705-8.514 10.747-13.907 17.881-16.179 21.402-2.273 3.524-4.114 6.959-5.521 10.305h53.579v34.482h-94.579c1.023-13.034 4.096-25.387 9.218-37.059 5.12-11.669 15.234-27.149 30.342-46.438 12.162-15.59 19.62-26.159 22.373-31.708 3.712-7.661 5.569-15.234 5.569-22.721z"/></svg>