<svg xmlns="http://www.w3.org/2000/svg" width="489.309" height="494.244"><path d="M201.167 339.094c15.827 0 37.493-9.328 64.447-27.735v-94.462c-29.399 10.354-48.912 17.887-58.095 22.432l-.069.034c-18.183 8.83-31.19 17.966-38.66 27.165-7.073 8.7-10.511 17.882-10.511 28.066 0 13.007 4.27 23.442 13.058 31.899 8.804 8.477 18.561 12.6 29.83 12.6z" fill="none"/><path d="M108.807 365.21c15.238 14.04 34.623 21.056 58.166 21.056 15.111 0 29.363-2.704 42.743-8.098 8.92-3.671 30.848-17.276 65.786-40.817.244 17.71 3.96 30.237 11.15 37.577 7.183 7.34 16.845 11.014 28.991 11.014 25.273 0 51.785-16.198 79.538-48.59v-18.14c-14.867 12.956-24.902 20.843-30.106 23.647-2.975 1.513-6.448 2.267-10.408 2.267-3.715 0-7.002-1.078-9.848-3.239-2.853-2.155-4.897-6.422-6.133-12.795-1.242-6.368-1.86-23.698-1.86-51.991V176.356c0-28.718-2.23-47.725-6.69-57.012-6.94-14.253-17.717-24.726-32.337-31.422-19.326-8.852-44.106-13.281-74.334-13.281-39.397 0-70.003 7.775-91.804 23.324-21.807 15.548-32.707 32.612-32.707 51.182 0 9.718 2.91 17.386 8.734 22.998 5.819 5.619 13.317 8.423 22.486 8.423 9.414 0 17.033-2.698 22.858-8.099 5.819-5.396 8.734-13.063 8.734-22.998l-.743-18.788c0-9.5 4.703-17.922 14.124-25.267 9.164-7.339 21.558-11.014 37.167-11.014 20.565 0 36.24 5.506 47.018 16.52 10.779 11.014 16.168 31.317 16.168 60.9v11.662c-58.482 18.576-100.295 34.338-125.442 47.296-25.152 12.957-42.807 26.78-52.963 41.463-7.434 10.584-11.15 23.112-11.15 37.577.004 22.89 7.623 41.356 22.862 55.39zm52.22-104.63c8.42-10.368 22.422-20.296 42-29.803 10.901-5.395 35.06-14.577 72.477-27.534v113.053c-30.727 21.598-55.507 32.393-74.335 32.393-13.88 0-26.146-5.128-36.796-15.387-10.656-10.256-15.982-23.16-15.982-38.711-.001-12.305 4.21-23.644 12.636-34.01z" fill="#1a1a1a"/><path d="M203.026 230.777c-19.577 9.506-33.578 19.436-42 29.803-8.427 10.367-12.637 21.702-12.637 34.013 0 15.549 5.325 28.456 15.982 38.711 10.652 10.258 22.917 15.386 36.796 15.386 18.828 0 43.608-10.795 74.336-32.393V203.243c-37.417 12.957-61.576 22.139-72.477 27.534zm-34.235 35.75c7.47-9.197 20.476-18.335 38.66-27.165l.068-.034c9.183-4.545 28.696-12.08 58.095-22.432v94.461c-26.954 18.41-48.62 27.736-64.447 27.736-11.269 0-21.027-4.122-29.83-12.602-8.789-8.457-13.058-18.89-13.058-31.899 0-10.184 3.438-19.365 10.512-28.065zm101.768 47.31c-28.78 19.947-52.116 30.056-69.392 30.056-12.64 0-23.537-4.579-33.314-13.995-9.769-9.402-14.519-20.95-14.519-35.303 0 14.353 4.75 25.899 14.52 35.3 9.776 9.42 20.673 13.996 33.313 13.996 17.274 0 40.611-10.11 69.392-30.054z" fill="#b3b3b3"/><path d="M399.21 310.447a10.136 10.136 0 00-4.025-.831c-2.397 0-4.759.843-6.61 2.457-18.43 16.061-25.553 20.89-28.187 22.337-1.513.744-3.435 1.12-5.719 1.12-1.503 0-2.662-.37-3.755-1.199.002 0-1.415-1.373-2.51-7.014-.77-3.948-1.685-15.857-1.685-50.214V176.357c0-30.842-2.421-50.246-7.618-61.067-7.933-16.295-20.4-28.406-37.078-36.046-20.57-9.422-47-14.2-78.556-14.2-41.368 0-74.226 8.474-97.66 25.187-24.379 17.383-36.74 37.206-36.74 58.917 0 12.328 3.923 22.356 11.656 29.81 7.701 7.435 17.613 11.209 29.453 11.209 12.002 0 21.99-3.62 29.689-10.756 7.824-7.257 11.792-17.328 11.792-29.94a9.03 9.03 0 00-.007-.367l-.735-18.585c.058-6.43 3.47-12.196 10.427-17.62.034-.027.068-.053.1-.08 7.308-5.854 17.695-8.819 30.875-8.819 17.902 0 30.936 4.427 39.847 13.533 8.798 8.99 13.45 27.765 13.45 54.29v4.716c-55.26 17.744-95.673 33.13-120.19 45.764-26.472 13.638-45.487 28.631-56.518 44.566-8.525 12.15-12.846 26.601-12.846 42.951 0 25.522 8.727 46.5 25.939 62.354 17.061 15.722 38.922 23.692 64.974 23.692 16.344 0 32.002-2.972 46.536-8.831l.065-.027c8.309-3.417 25.876-14.04 53.515-32.371 2.025 11.63 6.129 20.508 12.396 26.907 9.09 9.287 21.257 13.998 36.159 13.998 14.47 0 29.31-4.584 44.109-13.622 14.075-8.599 28.555-21.528 43.035-38.428a9.421 9.421 0 002.285-6.137v-18.141c0-3.79-2.299-7.225-5.863-8.767zm-83.566 75.495c-12.143 0-21.808-3.675-28.992-11.014-7.188-7.34-10.905-19.868-11.149-37.577-34.937 23.54-56.866 37.146-65.786 40.816-13.38 5.395-27.632 8.1-42.743 8.1-23.543 0-42.928-7.017-58.166-21.056-15.24-14.038-22.858-32.5-22.858-55.393 0-14.465 3.716-26.993 11.15-37.577 10.158-14.684 27.812-28.507 52.964-41.464 25.147-12.957 66.96-28.72 125.441-47.295V171.82c0-29.584-5.388-49.886-16.168-60.9C248.56 99.906 232.884 94.4 212.32 94.4c-15.61 0-28.003 3.674-37.168 11.013-9.419 7.345-14.123 15.767-14.123 25.268l.743 18.787c0 9.935-2.916 17.604-8.734 23-5.825 5.4-13.445 8.098-22.858 8.098-9.17 0-16.667-2.805-22.486-8.423-5.825-5.614-8.734-13.281-8.734-22.999 0-18.57 10.9-35.633 32.707-51.182 21.802-15.548 52.407-23.323 91.804-23.323 30.228 0 55.008 4.428 74.334 13.281 14.617 6.696 25.397 17.168 32.336 31.421 4.461 9.288 6.691 28.295 6.691 57.013v100.745c0 28.293.616 45.625 1.86 51.991 1.236 6.372 3.28 10.64 6.133 12.795 2.844 2.161 6.13 3.239 9.849 3.239 3.96 0 7.434-.754 10.407-2.267 5.204-2.804 15.238-10.692 30.106-23.648v18.14c-27.758 32.398-54.268 48.593-79.543 48.593z" fill="#b3b3b3"/><path fill="#1a1a1a" d="M15.027 405.508h461.745v50.555H15.027z"/><path d="M476.772 396.734H15.027c-4.481 0-8.113 3.929-8.113 8.774v50.554c0 4.844 3.632 8.774 8.113 8.774h461.745c4.48 0 8.113-3.93 8.113-8.774v-50.554c0-4.845-3.632-8.774-8.113-8.774zm-461.745 8.774h461.745v50.554H15.027v-50.554z" fill="#b3b3b3"/></svg>