<svg xmlns="http://www.w3.org/2000/svg" width="489.309" height="494.244"><path d="M196.225 362.563l.071.066c4.51 4.225 11.033 6.28 19.939 6.28 9.66 0 21.453-4.765 35.097-14.17v-85.354c-22.546 12.978-39.935 26.666-51.807 40.797-8.79 10.55-13.246 21.141-13.246 31.477 0 7.914 3.253 14.752 9.946 20.904z" fill="none"/><path d="M389.467 392.397c-3.43 0-6.466-.91-9.098-2.742-2.638-1.827-4.616-4.628-5.933-8.4-1.322-3.77-1.977-12.968-1.977-27.599V229.21c0-34.509-1.848-56.568-5.537-66.167-6.068-15.085-19.318-29.082-39.75-41.997-20.436-12.91-48.189-19.37-83.253-19.37-29.008 0-56.953 4-83.847 12-26.894 8.002-47.857 19.487-62.887 34.453-15.028 14.972-22.543 30.684-22.543 47.14 0 11.657 5.6 21.829 16.81 30.511 11.203 8.69 25.115 13.028 41.726 13.028 15.554 0 28.143-3.943 37.77-11.827 9.622-7.885 14.436-17.426 14.436-28.627 0-9.138-5.012-18.626-15.029-28.454-7.385-7.082-11.074-13.028-11.074-17.828 0-5.484 3.423-10.285 10.283-14.398 11.074-6.627 25.176-9.942 42.319-9.942 10.541 0 20.035 2.346 28.476 7.028 8.435 4.687 14.17 10.173 17.204 16.456 3.03 6.29 4.55 21.545 4.55 45.768v32.227c-81.475 32.456-134.343 58.453-158.599 77.994-24.26 19.543-36.386 41.543-36.386 65.996 0 18.058 6.983 33.083 20.962 45.083 13.973 11.999 31.504 17.999 52.602 17.999 35.855 0 76.333-17.255 121.42-51.768 2.632 17.372 9.888 30.341 21.754 38.912 11.864 8.571 28.34 12.857 49.437 12.857 17.928 0 33.946-3.83 48.054-11.485 14.102-7.654 27.748-19.938 40.935-36.855l-11.865-8.227c-7.118 8.455-14.107 12.681-20.96 12.681zm-127.353-32.911c-17.403 12.802-32.698 19.197-45.879 19.197-11.866 0-21.098-3.085-27.685-9.256-8.701-7.997-13.051-17.255-13.051-27.77 0-12.566 5.142-25.026 15.425-37.37 15.555-18.511 39.285-35.879 71.19-52.11v107.309z" fill="#1a1a1a"/><path d="M190.923 304.288c-10.283 12.343-15.426 24.803-15.426 37.37 0 10.514 4.352 19.772 13.051 27.77 6.588 6.17 15.821 9.255 27.686 9.255 13.181 0 28.476-6.395 45.878-19.197V252.179c-31.904 16.23-55.634 33.597-71.19 52.109zm60.41 50.45c-13.644 9.406-25.436 14.17-35.097 14.17-8.906 0-15.428-2.055-19.939-6.28a3.529 3.529 0 01-.07-.066c-6.694-6.152-9.947-12.99-9.947-20.906 0-10.335 4.457-20.926 13.246-31.477 11.872-14.13 29.262-27.819 51.807-40.796v85.354z" fill="#b3b3b3"/><path d="M428.844 380.175l-11.865-8.227c-1.89-1.312-4.197-2.01-6.55-2.01-.475 0-.953.027-1.43.086-2.836.343-5.404 1.696-7.14 3.759-4.729 5.618-9.245 8.839-12.39 8.839-1.315 0-1.995-.347-2.534-.721-.826-.574-1.607-1.845-2.218-3.598-.25-.71-1.473-5.186-1.473-24.645v-124.45c0-47.875-3.505-62.528-6.14-69.383l-.051-.133c-6.814-16.937-21.52-32.638-43.712-46.666-22.193-14.019-52.277-21.127-89.42-21.127-30.006 0-59.347 4.2-87.206 12.486-28.56 8.5-51.27 21.002-67.498 37.162-16.824 16.76-25.352 34.834-25.352 53.721 0 14.597 6.926 27.363 20.586 37.944 13.152 10.2 29.547 15.371 48.73 15.371 18.233 0 33.372-4.828 44.998-14.349 11.939-9.783 17.99-21.855 17.99-35.88 0-11.634-6.02-23.44-17.891-35.09l-.085-.082c-8.034-7.703-8.127-10.976-8.127-11.112 0-.737 0-2.977 5.45-6.245 9.223-5.52 21.462-8.32 36.37-8.32 8.592 0 16.066 1.828 22.85 5.59 6.474 3.598 10.835 7.649 12.954 12.038 1.092 2.269 3.643 10.907 3.643 41.848v25.853c-79.574 31.955-130.307 57.185-154.978 77.06-26.546 21.383-40.006 46.046-40.006 73.304 0 20.765 8.186 38.322 24.33 52.182 15.975 13.72 36.168 20.675 60.015 20.675 19.442 0 40.247-4.667 61.836-13.87 16.86-7.189 34.616-17.325 52.949-30.22 4.446 12.15 11.7 21.901 21.67 29.104 13.766 9.944 32.66 14.986 56.156 14.986 19.819 0 37.85-4.332 53.592-12.873 15.335-8.322 30.206-21.646 44.203-39.598 3.346-4.293 2.35-10.216-2.256-13.409zm-95.54 56.105c-21.098 0-37.573-4.285-49.437-12.856-11.866-8.571-19.121-21.54-21.753-38.912-45.088 34.512-85.566 51.767-121.42 51.767-21.099 0-38.63-6-52.603-17.998-13.979-12-20.962-27.025-20.962-45.083 0-24.454 12.124-46.454 36.387-65.996 24.256-19.541 77.124-45.537 158.598-77.995v-32.226c0-24.223-1.52-39.48-4.55-45.768-3.033-6.284-8.769-11.77-17.204-16.456-8.44-4.682-17.934-7.028-28.476-7.028-17.142 0-31.246 3.315-42.319 9.942-6.86 4.114-10.283 8.914-10.283 14.398 0 4.8 3.69 10.746 11.074 17.827 10.017 9.83 15.03 19.317 15.03 28.455 0 11.201-4.815 20.741-14.436 28.626-9.628 7.885-22.216 11.828-37.771 11.828-16.611 0-30.522-4.338-41.727-13.028-11.21-8.684-16.808-18.856-16.808-30.511 0-16.456 7.514-32.168 22.543-47.14 15.028-14.967 35.99-26.45 62.886-34.454 26.894-7.999 54.838-12 83.847-12 35.064 0 62.817 6.461 83.254 19.37 20.43 12.916 33.68 26.913 39.749 41.997 3.69 9.6 5.538 31.659 5.538 66.167v124.45c0 14.63.654 23.827 1.976 27.598 1.318 3.77 3.295 6.573 5.934 8.4 2.632 1.832 5.667 2.742 9.098 2.742 6.852 0 13.842-4.227 20.96-12.684l11.866 8.228c-13.188 16.916-26.834 29.2-40.935 36.854-14.109 7.656-30.128 11.486-48.056 11.486z" fill="#b3b3b3"/></svg>