<svg xmlns="http://www.w3.org/2000/svg" width="489.309" height="494.244"><path d="M112.856 341.718c0 13.577 4.198 24.427 12.835 33.178 8.364 8.482 17.542 12.605 28.06 12.605 10.442 0 29.55-4.985 61.849-28.202v-96.92c-27.736 10.306-46.177 17.815-54.917 22.37l-.074.036c-17.577 8.984-30.156 18.294-37.391 27.671-6.974 9.03-10.362 18.6-10.362 29.262z" fill="none"/><path d="M472.094 103.209c-5.31-6.204-12.624-10.933-21.945-14.186-9.323-3.251-25.773-7.431-49.354-12.535-16.297-3.603-26.112-5.904-29.445-6.905-5.805-1.9-10.064-4.302-12.778-7.206-2.718-2.801-4.074-5.953-4.074-9.458 0-5.502 3.27-10.306 9.815-14.411 6.542-4.102 17.469-6.154 32.778-6.154 12.964 0 22.993 2.303 30.094 6.905 7.099 4.604 11.39 11.01 12.871 19.215l32.594-3.603c-2.101-10.306-5.926-18.539-11.481-24.694-5.555-6.155-14.167-11.034-25.835-14.637-11.667-3.603-25.218-5.404-40.649-5.404-10.249 0-19.848 1.077-28.798 3.228-8.952 2.153-16.019 4.78-21.204 7.881-6.916 4.004-12.379 9.033-16.39 15.087-4.014 6.056-6.019 12.635-6.019 19.74 0 7.806 2.437 14.937 7.315 21.392 4.875 6.455 12.037 11.509 21.482 15.162 9.444 3.654 26.39 7.982 50.835 12.985 18.148 3.704 29.507 6.755 34.075 9.157 6.543 3.504 9.815 8.308 9.815 14.411 0 6.807-3.704 12.736-11.111 17.789-7.408 5.055-18.769 7.581-34.076 7.581-15.186 0-27.009-2.853-35.464-8.557-8.458-5.705-13.611-13.909-15.464-24.619l-32.964 4.203c3.704 16.914 12.252 29.674 25.649 38.28 13.395 8.608 32.871 12.91 58.428 12.91 15.432 0 29.261-2.177 41.483-6.53 12.222-4.353 21.575-10.508 28.057-18.464 6.482-7.956 9.723-16.438 9.723-25.445.001-9.206-2.655-16.911-7.963-23.118z" fill="#1a1a1a"/><path d="M478.557 97.682c-6.277-7.334-14.892-12.948-25.605-16.688-9.757-3.402-26.228-7.594-50.357-12.817-19.633-4.34-26.462-6.046-28.701-6.709-5.41-1.784-7.939-3.646-9.108-4.896l-.11-.115c-1.474-1.52-1.673-2.64-1.673-3.536 0-2.356 1.961-4.781 5.829-7.207 3.532-2.215 11.303-4.855 28.261-4.855 11.23 0 19.8 1.863 25.469 5.538 5.156 3.344 8.058 7.663 9.128 13.589a8.505 8.505 0 009.302 6.942l32.594-3.603a8.508 8.508 0 007.399-10.151c-2.4-11.773-6.942-21.427-13.502-28.694-6.57-7.278-16.542-13.02-29.639-17.064-12.426-3.837-26.946-5.782-43.158-5.782-10.865 0-21.223 1.165-30.785 3.463-9.853 2.37-17.55 5.255-23.528 8.82-8.006 4.644-14.454 10.605-19.167 17.72-4.933 7.442-7.434 15.664-7.434 24.437 0 9.665 3.04 18.587 9.035 26.519 5.819 7.705 14.299 13.75 25.199 17.966 9.975 3.859 27.049 8.238 52.197 13.384 22.57 4.606 29.608 7.198 31.797 8.339 5.295 2.847 5.295 5.582 5.295 6.898 0 2.454-.768 6.24-7.399 10.763-5.935 4.05-15.787 6.103-29.284 6.103-13.391 0-23.723-2.39-30.708-7.103-6.514-4.393-10.387-10.614-11.84-19.019a8.508 8.508 0 00-9.455-6.987l-32.964 4.203a8.506 8.506 0 00-7.232 10.255c4.187 19.116 14.065 33.79 29.361 43.615 14.93 9.595 35.545 14.259 63.023 14.259 16.336 0 31.253-2.363 44.337-7.023 13.651-4.862 24.35-11.963 31.796-21.104 7.72-9.476 11.634-19.844 11.634-30.816-.002-11.243-3.368-20.881-10.007-28.644zm-77.762 79.084c-25.557 0-45.033-4.302-58.428-12.91-13.397-8.606-21.945-21.366-25.649-38.28l32.964-4.203c1.853 10.71 7.006 18.915 15.464 24.619 8.455 5.704 20.278 8.557 35.464 8.557 15.308 0 26.668-2.526 34.076-7.581 7.407-5.052 11.111-10.982 11.111-17.789 0-6.103-3.272-10.907-9.815-14.411-4.568-2.402-15.927-5.454-34.075-9.157-24.445-5.003-41.391-9.331-50.835-12.985-9.445-3.652-16.607-8.707-21.482-15.162-4.879-6.455-7.315-13.586-7.315-21.392 0-7.105 2.005-13.684 6.019-19.74 4.011-6.054 9.474-11.083 16.39-15.087 5.186-3.101 12.252-5.728 21.204-7.881 8.95-2.151 18.549-3.228 28.798-3.228 15.432 0 28.982 1.801 40.649 5.404 11.668 3.603 20.279 8.482 25.835 14.637 5.556 6.155 9.381 14.388 11.481 24.694l-32.594 3.603c-1.481-8.205-5.772-14.611-12.871-19.215-7.101-4.602-17.13-6.905-30.094-6.905-15.31 0-26.236 2.052-32.778 6.154-6.546 4.105-9.815 8.909-9.815 14.411 0 3.504 1.356 6.657 4.074 9.458 2.714 2.904 6.974 5.306 12.778 7.206 3.333 1.001 13.148 3.303 29.445 6.905 23.58 5.104 40.03 9.284 49.354 12.535 9.321 3.253 16.636 7.982 21.945 14.186 5.308 6.207 7.964 13.912 7.964 23.118 0 9.007-3.241 17.489-9.723 25.445-6.482 7.956-15.834 14.111-28.057 18.464-12.223 4.353-26.052 6.53-41.484 6.53z" fill="#b3b3b3"/><path d="M302.946 393.425c-3.612 0-6.806-1.103-9.573-3.314-2.77-2.206-4.758-6.572-5.96-13.092-1.208-6.516-1.807-24.25-1.807-53.202V220.733c0-29.386-2.168-48.834-6.503-58.338-6.745-14.585-17.221-25.3-31.429-32.152-18.784-9.058-42.87-13.59-72.25-13.59-38.291 0-68.038 7.956-89.228 23.866-21.195 15.91-31.79 33.37-31.79 52.372 0 9.944 2.829 17.79 8.49 23.533 5.656 5.75 12.942 8.618 21.856 8.618 9.15 0 16.556-2.76 22.217-8.286 5.656-5.52 8.489-13.366 8.489-23.533l-.722-19.225c0-9.721 4.572-18.34 13.727-25.855 8.907-7.51 20.952-11.27 36.124-11.27 19.987 0 35.222 5.635 45.698 16.906 10.476 11.27 15.714 32.042 15.714 62.314v11.933c-56.84 19.007-97.48 35.135-121.92 48.393-24.448 13.259-41.607 27.403-51.48 42.428-7.223 10.83-10.837 23.648-10.837 38.449 0 23.426 7.406 42.32 22.217 56.68 14.81 14.368 33.653 21.546 56.535 21.546 14.687 0 28.539-2.765 41.544-8.286 8.67-3.756 29.984-17.676 63.941-41.765.237 18.123 3.85 30.94 10.838 38.45 6.982 7.51 16.375 11.27 28.177 11.27 24.566 0 50.332-16.573 77.308-49.72v-18.56c-14.45 13.257-24.204 21.327-29.262 24.196-2.889 1.547-6.264 2.318-10.114 2.318zM226 363.925c-29.865 22.1-53.95 33.146-72.249 33.146-13.49 0-25.41-5.246-35.764-15.744-10.358-10.492-15.533-23.7-15.533-39.61 0-12.595 4.093-24.196 12.283-34.804 8.185-10.607 21.793-20.768 40.82-30.495 10.596-5.52 34.077-14.915 70.445-28.174v115.681z" fill="#1a1a1a"/><path d="M155.558 276.418c-19.028 9.727-32.636 19.888-40.82 30.495-8.191 10.608-12.284 22.208-12.284 34.805 0 15.91 5.175 29.117 15.533 39.609 10.352 10.498 22.273 15.744 35.764 15.744 18.3 0 42.385-11.046 72.25-33.146V248.244c-36.367 13.259-59.85 22.655-70.443 28.174zm60.04 82.881c-32.298 23.217-51.406 28.202-61.848 28.202-10.518 0-19.696-4.123-28.06-12.605-8.639-8.75-12.835-19.601-12.835-33.178 0-10.661 3.39-20.233 10.36-29.262 7.237-9.376 19.816-18.687 37.392-27.67l.073-.038c8.74-4.554 27.181-12.063 54.917-22.368v96.92z" fill="#b3b3b3"/><path d="M346.31 358.068a11.155 11.155 0 00-3.986-.73c-2.702 0-5.358.968-7.348 2.793-17.839 16.368-24.712 21.284-27.253 22.757-1.262.65-2.828.966-4.777.966-1.091 0-1.856-.264-2.711-.938-.166-.187-1.529-1.87-2.567-7.5-.759-4.088-1.66-16.35-1.66-51.599V220.733c0-30.96-2.392-51.254-7.313-62.042-7.696-16.643-19.867-29.052-36.19-36.925-20.206-9.744-46.14-14.684-77.079-14.684-40.576 0-72.808 8.754-95.804 26.021-23.633 17.74-35.615 37.856-35.615 59.788 0 12.352 3.764 22.434 11.186 29.965 7.674 7.8 17.621 11.758 29.561 11.758 12.088 0 22.11-3.799 29.786-11.292 7.513-7.335 11.322-17.462 11.322-30.1 0-.11-.002-.22-.006-.331l-.715-19.046c.048-6.868 3.402-12.94 10.249-18.56a7.32 7.32 0 00.102-.086c6.987-5.89 16.506-8.755 29.098-8.755 16.952 0 29.315 4.433 37.793 13.555 6.03 6.486 13.218 21.482 13.218 56.093v5.24c-53.672 18.15-92.945 33.9-116.802 46.842-25.812 13.999-44.342 29.371-55.075 45.686-8.201 12.305-12.36 26.918-12.36 43.436 0 25.851 8.435 47.137 25.074 63.269 16.779 16.275 38.339 24.529 64.081 24.529 16.13 0 31.573-3.084 45.9-9.168l.074-.03c5.309-2.3 16.332-8.228 50.666-32.154 1.992 11.363 5.894 20.077 11.78 26.405 9.017 9.696 21.156 14.615 36.079 14.615 14.398 0 29.104-4.763 43.708-14.156 13.732-8.832 27.838-22.087 41.924-39.398 1.348-1.657 2.076-3.67 2.076-5.738v-18.56c-.002-3.87-2.533-7.357-6.417-8.842zm-81.294 77.122c-11.803 0-21.196-3.76-28.178-11.27-6.988-7.51-10.6-20.328-10.838-38.45-33.957 24.089-55.271 38.01-63.941 41.765-13.005 5.52-26.857 8.286-41.543 8.286-22.884 0-41.725-7.179-56.535-21.546-14.812-14.362-22.217-33.255-22.217-56.68 0-14.8 3.613-27.62 10.837-38.45 9.873-15.025 27.032-29.168 51.478-42.427 24.441-13.257 65.082-29.385 121.921-48.393v-11.933c0-30.272-5.237-51.046-15.714-62.314-10.475-11.27-25.71-16.906-45.697-16.906-15.173 0-27.218 3.76-36.125 11.27-9.155 7.515-13.727 16.133-13.727 25.855l.722 19.225c0 10.167-2.833 18.013-8.49 23.533-5.66 5.527-13.067 8.286-22.216 8.286-8.914 0-16.2-2.869-21.856-8.618-5.661-5.743-8.49-13.59-8.49-23.533 0-19.003 10.595-36.462 31.79-52.372 21.19-15.91 50.937-23.866 89.23-23.866 29.38 0 53.464 4.532 72.248 13.59 14.208 6.852 24.685 17.567 31.43 32.152 4.334 9.504 6.502 28.95 6.502 58.338v103.084c0 28.952.598 46.686 1.806 53.201 1.203 6.52 3.19 10.886 5.961 13.093 2.767 2.211 5.96 3.314 9.573 3.314 3.85 0 7.225-.772 10.116-2.32 5.058-2.87 14.81-10.94 29.261-24.197v18.56c-26.976 33.15-52.744 49.723-77.308 49.723z" fill="#b3b3b3"/></svg>