<svg xmlns="http://www.w3.org/2000/svg" xmlns:xlink="http://www.w3.org/1999/xlink" version="1.0" width="48" height="48"><defs><linearGradient id="c"><stop offset="0" stop-color="#59a40f"/><stop offset="1" stop-color="#306102"/></linearGradient><linearGradient id="b"><stop offset="0" stop-color="#fff"/><stop offset="1" stop-color="#fff" stop-opacity="0"/></linearGradient><linearGradient id="e"><stop offset="0"/><stop offset="1" stop-opacity="0"/></linearGradient><linearGradient id="a"><stop offset="0" stop-color="#d50f0f"/><stop offset="1" stop-color="#860000"/></linearGradient><linearGradient id="d"><stop offset="0"/><stop offset="1" stop-opacity="0"/></linearGradient><linearGradient x1="42.551" y1="46.026" x2="22.734" y2="23.323" id="A" xlink:href="#a" gradientUnits="userSpaceOnUse"/><linearGradient x1="25.128" y1="38.802" x2="7.213" y2="18.548" id="w" xlink:href="#a" gradientUnits="userSpaceOnUse" gradientTransform="matrix(.94565 .04095 -.04171 .94937 3.271 -2.809)"/><linearGradient id="f"><stop offset="0" stop-color="#fff" stop-opacity=".643"/><stop offset="1" stop-color="#fff" stop-opacity="0"/></linearGradient><linearGradient id="g"><stop offset="0" stop-color="#7ea8ce"/><stop offset=".763" stop-color="#568dc0" stop-opacity=".816"/><stop offset="1" stop-color="#c9e1f8" stop-opacity="0"/></linearGradient><linearGradient id="h"><stop offset="0" stop-color="#2c79c0"/><stop offset=".797" stop-color="#2970b3" stop-opacity=".498"/><stop offset="1" stop-color="#236098" stop-opacity="0"/></linearGradient><linearGradient id="i"><stop offset="0" stop-color="#fefefe"/><stop offset="1" stop-color="#cbcbcb"/></linearGradient><linearGradient id="j"><stop offset="0" stop-color="#fff"/><stop offset="1" stop-color="#fff" stop-opacity="0"/></linearGradient><linearGradient id="l"><stop offset="0" stop-color="#f4f4f4"/><stop offset="1" stop-color="#dbdbdb"/></linearGradient><linearGradient id="m"><stop offset="0" stop-color="#aaa"/><stop offset="1" stop-color="#c8c8c8"/></linearGradient><linearGradient id="n"><stop offset="0"/><stop offset="1" stop-opacity="0"/></linearGradient><linearGradient id="o"><stop offset="0" stop-opacity="0"/><stop offset=".5"/><stop offset="1" stop-opacity="0"/></linearGradient><linearGradient y2="50.93" x2="45.964" y1="10.692" x1="22.04" gradientTransform="rotate(90 32.524 30.524)" gradientUnits="userSpaceOnUse" id="D" xlink:href="#p"/><linearGradient y2="48.499" x2="1.753" y1="16.376" x1="1.63" gradientTransform="rotate(90 13 43.438)" gradientUnits="userSpaceOnUse" id="F" xlink:href="#q"/><linearGradient id="p"><stop offset="0" stop-color="#3c44dc"/><stop offset="1" stop-color="#0d1f6a"/></linearGradient><linearGradient id="r"><stop offset="0" stop-color="#d2d0f3"/><stop offset="1" stop-color="#1c3db8"/></linearGradient><linearGradient id="q"><stop offset="0" stop-color="#ced1f2"/><stop offset="1" stop-color="#1d42c9" stop-opacity="0"/></linearGradient><radialGradient cx="33.921" cy="32.026" r="12.011" fx="33.921" fy="32.026" id="y" xlink:href="#a" gradientUnits="userSpaceOnUse" gradientTransform="matrix(1.09718 -.0604 .05996 1.07242 -4.799 -.44)"/><radialGradient cx="25.346" cy="30.31" r="12.011" fx="22.506" fy="25.064" id="z" xlink:href="#b" gradientUnits="userSpaceOnUse" gradientTransform="matrix(.7893 .49308 -.2597 .41573 13.25 5.189)"/><radialGradient cx="41.247" cy="11.365" r="4.918" fx="41.772" fy="11.681" id="C" xlink:href="#c" gradientUnits="userSpaceOnUse" gradientTransform="matrix(.36505 -.56094 1.44215 .93854 10.519 23.383)"/><radialGradient cx="15.116" cy="63.965" r="12.289" fx="13.292" fy="60.044" id="t" xlink:href="#d" gradientUnits="userSpaceOnUse" gradientTransform="matrix(.9024 .03799 -.02527 .55901 22.049 .277)"/><radialGradient cx="15.116" cy="63.965" r="12.289" fx="15.116" fy="63.965" id="s" xlink:href="#d" gradientUnits="userSpaceOnUse" gradientTransform="matrix(.88555 .03728 -.02527 .55901 9.833 -5.76)"/><radialGradient cx="23.261" cy="33.479" r="11.057" fx="23.261" fy="33.479" id="x" xlink:href="#e" gradientUnits="userSpaceOnUse" gradientTransform="matrix(1.09454 .00512 -.00497 .94337 -.772 -1.48)"/><radialGradient cx="9.796" cy="24.748" r="11.057" fx="9.623" fy="19.022" id="v" xlink:href="#b" gradientUnits="userSpaceOnUse" gradientTransform="matrix(.60566 .55109 -.31326 .34954 13.582 6.089)"/><radialGradient cx="16.357" cy="27.468" r="11.057" fx="16.357" fy="27.468" id="u" xlink:href="#a" gradientUnits="userSpaceOnUse" gradientTransform="matrix(1.02496 .00839 -.00872 .9898 1.275 -3.434)"/><radialGradient cx="29.496" cy="-3.597" r="9.75" fx="29.496" fy="-3.597" id="B" xlink:href="#c" gradientUnits="userSpaceOnUse" gradientTransform="matrix(-.79883 .07668 -.032 -.33344 53.947 1.611)"/><radialGradient gradientUnits="userSpaceOnUse" id="k" r="139.559" cy="112.305" cx="102"><stop offset="0" stop-color="#b7b8b9"/><stop offset=".189" stop-color="#ececec"/><stop offset=".257" stop-color="#fafafa" stop-opacity="0"/><stop offset=".301" stop-color="#fff" stop-opacity="0"/><stop offset=".531" stop-color="#fafafa" stop-opacity="0"/><stop offset=".845" stop-color="#ebecec" stop-opacity="0"/><stop offset="1" stop-color="#e1e2e3" stop-opacity="0"/></radialGradient><radialGradient r="17.1" fy="7.098" fx="-15.475" cy="7.098" cx="-15.475" gradientTransform="matrix(-.1316 1.11695 -1.05762 -.12462 33.357 39.585)" gradientUnits="userSpaceOnUse" id="E" xlink:href="#r"/></defs><path d="M32.484 31.019c-.17 3.795-5.182 6.666-11.193 6.413-6.011-.253-10.745-3.535-10.572-7.33.17-3.794 5.182-6.665 11.193-6.412 6.011.253 10.745 3.534 10.572 7.329z" fill="url(#s)"/><path d="M45.162 37.076c-.17 3.794-5.275 6.662-11.4 6.404-6.126-.258-10.952-3.543-10.78-7.338.171-3.795 5.275-6.662 11.4-6.404 6.126.258 10.953 3.543 10.78 7.338z" fill="url(#t)"/><path d="M23.836 30.313c-3.51 4.432-10.086 7.114-14.631 3.714-5.27-2.203-6.055-9.086-3.773-14.219 2.564-5.764 8.135-6.618 14.27-3.116 6.134 3.502 8.075 8.643 4.134 13.621h0z" fill="url(#u)" stroke="#520000" transform="matrix(.81932 0 0 .79635 9.689 5.668)"/><path d="M23.836 30.313c-3.51 4.432-10.086 7.114-14.631 3.714-5.27-2.203-6.055-9.086-3.773-14.219 2.564-5.764 8.135-6.618 14.27-3.116 6.134 3.502 8.075 8.643 4.134 13.621h0z" opacity=".66" fill="url(#v)" stroke="#520000" transform="matrix(.81932 0 0 .79635 9.689 5.668)"/><path d="M12.678 15.596c-4.296.128-6.404 3.738-7.133 6.981-1.058 4.704.464 9.229 4.227 10.624 3.364 2.686 8.691 1.057 11.903-2.018 3.106-2.974 4.225-6.053 2.266-9.345-1.656-2.908-6.897-6.262-11.263-6.242h0z" fill="none" stroke="url(#w)" transform="matrix(.81932 0 0 .79635 9.689 5.668)"/><path d="M15.81 16.255c-.41 2.183 2.73 4.455 5.521 3.06" fill="none" stroke="#520000" transform="matrix(.81932 0 0 .79635 9.689 5.668)"/><path d="M24.555 30.152c-4.224 5.64-11.132 7.647-15.678 4.248-5.27-2.204-5.727-9.46-3.445-14.592 2.564-5.764 8.373-7.016 14.53-3.555 6.465 3.625 8.163 9.154 4.593 13.899z" fill="url(#x)" transform="matrix(.81932 0 0 .79635 9.689 5.668)"/><path d="M41.738 37.156c-2.28 6.289-8.637 11.67-14.977 9.41-6.706-.641-10.134-8.2-9.485-14.851.729-7.471 6.64-10.416 14.793-8.603 8.154 1.814 12.229 6.98 9.669 14.044h0z" fill="url(#y)" stroke="#520000" transform="matrix(.75383 .03173 -.03338 .73842 12.803 3.842)"/><path d="M41.711 37.145c-2.277 6.296-8.627 11.684-14.96 9.421-6.7-.642-10.123-8.21-9.475-14.868.728-7.48 6.632-10.428 14.777-8.612 8.145 1.816 12.216 6.987 9.658 14.059z" opacity=".66" fill="url(#z)" stroke="#520000" transform="matrix(.75383 .03173 -.03338 .73842 12.803 3.842)"/><path d="M26.576 23.697c-3.072.156-5.787 1.526-7.161 4.253-2.537 5.036-.535 11.522 1.706 14.3 2.677 3.323 4.934 3.043 6.227 3.377 4.357 1.42 8.868-1.072 11.727-5.605 4.784-7.585 1.767-12.682-4.479-15.088-2.496-.962-5.266-1.376-8.02-1.237h0z" fill="none" stroke="url(#A)" transform="matrix(.75383 .03173 -.03338 .73842 12.803 3.842)"/><path d="M27.84 23.747c-.6 3.336 4.889 5.213 6.336 2" fill="none" stroke="#520000" transform="matrix(.75383 .03173 -.03338 .73842 12.803 3.842)"/><g><path d="M24.613 3.422c4.38-2.747 13.961.236 13.961.236s-7.194 6.715-10.797 5.984c-3.083-.63-11.581-5.233-11.581-5.233s4.59 1.403 8.417-.987h0z" fill="url(#B)" stroke="#2d5a00" transform="matrix(.75383 .03173 -.0382 .84504 12.813 3.619)"/><path d="M20.414 5.558c3.252 1.651 6.39 2.92 6.97 3.112 2.692.892 7.756-3.333 9.324-4.625-2.066-.512-8.082-1.651-11.075-.16-1.05.523-3.02 1.552-5.22 1.673z" fill="none" stroke="#59aa0a" stroke-miterlimit="9" transform="matrix(.75383 .03173 -.0382 .84504 12.813 3.619)"/></g><path d="M42.046 7.49l-1.363.914C26.728 12.99 25.316 19.62 23.444 19.574c.47.908 1.394 1.085 2.627 1.164-1.517-1.6 4.461-7.738 13.545-11.021-3.493 4.822-4.344 13.885-5.572 13.983.984.647 1.57.904 2.602.388-.984-1.05.75-9.597 4.024-14.394l2.233-1.312-.857-.893z" fill="#4e9a06" stroke="#275000" stroke-width=".808"/><g><path d="M39.15 3.43c-.23 1.172-.737 2.146 5.652 5.621 2.957 1.608.965 5.096.41 9.718-5.077-4.748-10.408-10.07-6.061-15.34z" fill="url(#C)" stroke="#2d5a00" transform="matrix(.75383 .03173 -.03342 .7392 12.805 3.805)"/><path d="M38.776 5.96c-.125.25-.788 2.06.715 4.79.988 1.946 3.284 4.337 5.05 6.02.726-3.732 1.518-5.79-.051-6.75-.667-.408-2.44-1.33-3.675-2.197-1.65-1.159-2.04-1.862-2.04-1.862z" fill="none" stroke="#59aa0a" transform="matrix(.75383 .03173 -.03342 .7392 12.805 3.805)"/></g><g><path d="M50 22c0-1-1-1-1-1H32c-.049-1 0-5 0-5-.01-.447-.11-.846-.523-1.016a1.123 1.123 0 00-1.21.235l-16 16a1.123 1.123 0 000 1.562l16 16c.32.312.796.405 1.21.235.414-.17.514-.569.523-1.016v-5h17.049s1 0 1-1c0-6-.049-14-.049-20z" fill="url(#D)" transform="matrix(.7859 0 0 .66102 -10.03 14.271)"/><path transform="matrix(0 .66102 -.7859 0 40.267 14.271)" d="M41.781 15.156c-5.903.002-13.643.061-19.562.063V32a1.218 1.218 0 01-1.157 1.219c-1.093.053-4.057.008-4.625 0L32 48.78 47.531 33.22H43A1.218 1.218 0 0141.781 32V15.156z" fill="url(#E)"/><path d="M41.969 23.219c-4.118 0-9.206.037-9.75 0C29 23 31 19 29 20c-2 1-12 12-12 12l11.063 10.938C31 35 35.276 27.637 41.968 23.218z" fill="url(#F)" transform="matrix(.7859 0 0 .66102 -10.03 14.271)"/></g></svg>