<svg xmlns="http://www.w3.org/2000/svg"  width="512" height="512"><defs><linearGradient id="d"><stop offset="0" stop-color="#59a40f"/><stop offset="1" stop-color="#306102"/></linearGradient><linearGradient id="a"><stop offset="0" stop-color="#d50f0f"/><stop offset="1" stop-color="#860000"/></linearGradient><linearGradient id="b"><stop offset="0" stop-color="#fff"/><stop offset="1" stop-color="#fff" stop-opacity="0"/></linearGradient><linearGradient y2="23.323" x2="22.734" y1="46.026" x1="42.551" gradientTransform="translate(.284 1.58)" gradientUnits="userSpaceOnUse" id="o" xlink:href="#a"/><linearGradient id="c"><stop offset="0"/><stop offset="1" stop-opacity="0"/></linearGradient><linearGradient id="e"><stop offset="0" stop-color="#fcaf3e"/><stop offset="1" stop-color="#fcaf3e" stop-opacity="0"/></linearGradient><linearGradient id="f"><stop offset="0" stop-color="#ce5c00"/><stop offset="1" stop-color="#ce5c00" stop-opacity="0"/></linearGradient><linearGradient id="i"><stop offset="0" stop-color="#f9f9f9"/><stop offset="1" stop-color="#f9f9f9" stop-opacity="0"/></linearGradient><linearGradient id="j"><stop offset="0" stop-color="#729fcf"/><stop offset="1" stop-color="#3465a4"/></linearGradient><linearGradient id="h"><stop offset="0" stop-color="#888a85"/><stop offset=".34" stop-color="#babdb6"/><stop offset="1" stop-color="#555753"/></linearGradient><linearGradient id="g"><stop offset="0" stop-color="#888a85"/><stop offset="1" stop-color="#555753"/></linearGradient><linearGradient gradientTransform="matrix(6.29868 0 0 7.08076 -520.473 -90.213)" y2="22" x2="15.5" y1="13.591" x1="18.25" gradientUnits="userSpaceOnUse" id="p" xlink:href="#e"/><linearGradient gradientTransform="matrix(6.29868 0 0 7.08076 -520.473 -90.213)" y2="22" x2="13.25" y1="14.875" x1="15" gradientUnits="userSpaceOnUse" id="q" xlink:href="#f"/><linearGradient gradientTransform="matrix(6.29868 0 0 7.08076 -520.473 -90.213)" y2="16.25" x2="37.75" y1="18.875" x1="37.625" gradientUnits="userSpaceOnUse" id="r" xlink:href="#e"/><linearGradient y2="36.954" x2="19.663" y1="29.184" x1="17.819" gradientTransform="rotate(45 39.027 27.243)" gradientUnits="userSpaceOnUse" id="s" xlink:href="#b"/><linearGradient y2="11.625" x2="22.313" y1="9.438" x1="18.313" gradientTransform="scale(-1 1) rotate(-45 -.407 77.802)" gradientUnits="userSpaceOnUse" id="t" xlink:href="#b"/><linearGradient y2="4.897" x2="7.564" y1="4.897" x1="6.276" gradientTransform="translate(68 -1)" gradientUnits="userSpaceOnUse" id="M" xlink:href="#g"/><linearGradient y2="4.897" x2="7.564" y1="4.897" x1="6.276" gradientTransform="translate(60 -1)" gradientUnits="userSpaceOnUse" id="N" xlink:href="#g"/><linearGradient y2="17.531" x2="5.289" y1="17.531" x1=".973" gradientTransform="translate(60 -1)" gradientUnits="userSpaceOnUse" id="O" xlink:href="#h"/><linearGradient y2="19.182" x2="6.346" y1="17.428" x1="-.201" gradientUnits="userSpaceOnUse" id="z" xlink:href="#b"/><linearGradient y2="17.531" x2="5.289" y1="17.531" x1=".973" gradientTransform="translate(74 -1)" gradientUnits="userSpaceOnUse" id="Q" xlink:href="#h"/><linearGradient y2="19.182" x2="6.346" y1="17.428" x1="-.201" gradientUnits="userSpaceOnUse" id="B" xlink:href="#b"/><linearGradient y2="17.453" x2="8.547" y1="17.453" x1="1.484" gradientTransform="translate(60 -1)" gradientUnits="userSpaceOnUse" id="C" xlink:href="#b"/><linearGradient y2="17.453" x2="8.547" y1="17.453" x1="1.484" gradientTransform="translate(74 -1)" gradientUnits="userSpaceOnUse" id="D" xlink:href="#b"/><linearGradient y2="10.531" x2="6.826" y1="10.531" x1="2.281" gradientTransform="translate(60 -1)" gradientUnits="userSpaceOnUse" id="U" xlink:href="#h"/><linearGradient y2="15.5" x2="-.781" y1="8.625" x1="-6.5" gradientUnits="userSpaceOnUse" id="F" xlink:href="#b"/><linearGradient y2="10.531" x2="6.826" y1="10.531" x1="2.281" gradientTransform="translate(71 -1)" gradientUnits="userSpaceOnUse" id="W" xlink:href="#h"/><linearGradient y2="15.5" x2="-.781" y1="8.625" x1="-6.5" gradientTransform="matrix(-1 0 0 1 -8.969 0)" gradientUnits="userSpaceOnUse" id="H" xlink:href="#b"/><linearGradient y2="9.559" x2="12.946" y1="9.559" x1="8.516" gradientTransform="matrix(.6 0 0 1 64.4 -1)" gradientUnits="userSpaceOnUse" id="Y" xlink:href="#h"/><linearGradient y2="10.719" x2="-19" y1="6.375" x1="-19.406" gradientUnits="userSpaceOnUse" id="J" xlink:href="#b"/><linearGradient y2="19.182" x2="6.346" y1="17.428" x1="-.201" gradientUnits="userSpaceOnUse" id="P" xlink:href="#b"/><linearGradient y2="19.182" x2="6.346" y1="17.428" x1="-.201" gradientUnits="userSpaceOnUse" id="R" xlink:href="#b"/><linearGradient y2="17.453" x2="8.547" y1="17.453" x1="1.484" gradientTransform="translate(60 -1)" gradientUnits="userSpaceOnUse" id="S" xlink:href="#b"/><linearGradient y2="17.453" x2="8.547" y1="17.453" x1="1.484" gradientTransform="translate(74 -1)" gradientUnits="userSpaceOnUse" id="T" xlink:href="#b"/><linearGradient y2="15.5" x2="-.781" y1="8.625" x1="-6.5" gradientUnits="userSpaceOnUse" id="V" xlink:href="#b"/><linearGradient y2="15.5" x2="-.781" y1="8.625" x1="-6.5" gradientTransform="matrix(-1 0 0 1 -8.969 0)" gradientUnits="userSpaceOnUse" id="X" xlink:href="#b"/><linearGradient y2="10.719" x2="-19" y1="6.375" x1="-19.406" gradientUnits="userSpaceOnUse" id="Z" xlink:href="#b"/><linearGradient y2="6.192" x2="20.43" y1="6.192" x1="16.484" gradientUnits="userSpaceOnUse" id="aa" xlink:href="#h"/><linearGradient y2="81.853" x2="16.234" y1="81.853" x1="3.446" gradientTransform="translate(0 90.281)" gradientUnits="userSpaceOnUse" id="ac" xlink:href="#h"/><linearGradient y2="32.92" x2="17.465" y1="17.796" x1="11.444" gradientUnits="userSpaceOnUse" id="ad" xlink:href="#b"/><linearGradient y2="32.347" x2="12.72" y1="20.32" x1="10.537" gradientUnits="userSpaceOnUse" id="af" xlink:href="#b"/><linearGradient y2="81.853" x2="16.234" y1="81.853" x1="3.446" gradientTransform="translate(29 90.281)" gradientUnits="userSpaceOnUse" id="ag" xlink:href="#h"/><linearGradient y2="32.92" x2="17.465" y1="17.796" x1="11.444" gradientUnits="userSpaceOnUse" id="ah" xlink:href="#b"/><linearGradient y2="32.347" x2="12.72" y1="20.32" x1="10.537" gradientUnits="userSpaceOnUse" id="aj" xlink:href="#b"/><linearGradient xlink:href="#g" id="w" gradientUnits="userSpaceOnUse" gradientTransform="translate(68 -1)" x1="6.276" y1="4.897" x2="7.564" y2="4.897"/><linearGradient xlink:href="#g" id="x" gradientUnits="userSpaceOnUse" gradientTransform="translate(60 -1)" x1="6.276" y1="4.897" x2="7.564" y2="4.897"/><linearGradient xlink:href="#h" id="y" gradientUnits="userSpaceOnUse" gradientTransform="translate(60 -1)" x1=".973" y1="17.531" x2="5.289" y2="17.531"/><linearGradient xlink:href="#h" id="A" gradientUnits="userSpaceOnUse" gradientTransform="translate(74 -1)" x1=".973" y1="17.531" x2="5.289" y2="17.531"/><linearGradient xlink:href="#h" id="E" gradientUnits="userSpaceOnUse" gradientTransform="translate(60 -1)" x1="2.281" y1="10.531" x2="6.826" y2="10.531"/><linearGradient xlink:href="#h" id="G" gradientUnits="userSpaceOnUse" gradientTransform="translate(71 -1)" x1="2.281" y1="10.531" x2="6.826" y2="10.531"/><linearGradient xlink:href="#h" id="I" gradientUnits="userSpaceOnUse" gradientTransform="matrix(.6 0 0 1 64.4 -1)" x1="8.516" y1="9.559" x2="12.946" y2="9.559"/><radialGradient r="12.011" fy="32.026" fx="33.921" cy="32.026" cx="33.921" gradientTransform="matrix(1.09718 -.0604 .05996 1.07242 -4.515 1.14)" gradientUnits="userSpaceOnUse" id="m" xlink:href="#a"/><radialGradient r="12.011" fy="25.064" fx="22.506" cy="30.31" cx="25.346" gradientTransform="matrix(.7893 .49308 -.2597 .41573 13.533 6.768)" gradientUnits="userSpaceOnUse" id="n" xlink:href="#b"/><radialGradient r="12.289" fy="60.044" fx="13.292" cy="63.965" cx="15.116" gradientTransform="matrix(1.15623 .05007 -.03238 .7369 5.71 995.06)" gradientUnits="userSpaceOnUse" id="l" xlink:href="#c"/><radialGradient xlink:href="#c" id="k" gradientUnits="userSpaceOnUse" gradientTransform="matrix(1.13465 .04914 -.03238 .7369 2.406 994.13)" cx="15.116" cy="63.965" fx="15.116" fy="63.965" r="12.289"/><radialGradient r="7.778" fy="11.195" fx="10.607" cy="11.195" cx="10.607" gradientTransform="matrix(1 0 0 .82102 0 2.004)" gradientUnits="userSpaceOnUse" id="u" xlink:href="#c"/><radialGradient r="7.778" fy="11.195" fx="10.607" cy="11.195" cx="10.607" gradientTransform="matrix(1 0 0 .82102 0 2.004)" gradientUnits="userSpaceOnUse" id="v" xlink:href="#c"/><radialGradient r="7.778" fy="11.195" fx="10.607" cy="11.195" cx="10.607" gradientTransform="matrix(1 0 0 .82102 0 2.004)" gradientUnits="userSpaceOnUse" id="K" xlink:href="#c"/><radialGradient r="7.778" fy="11.195" fx="10.607" cy="11.195" cx="10.607" gradientTransform="matrix(1 0 0 .82102 0 2.004)" gradientUnits="userSpaceOnUse" id="L" xlink:href="#c"/><radialGradient r="2.5" fy="5.004" fx="17.344" cy="5.004" cx="17.344" gradientTransform="matrix(2.03765 0 0 2.85271 -17.997 -9.87)" gradientUnits="userSpaceOnUse" id="ab" xlink:href="#i"/><radialGradient r="8.143" fy="30.995" fx="16.037" cy="30.995" cx="16.037" gradientTransform="matrix(1.41322 0 0 1.41322 -7.05 -15.819)" gradientUnits="userSpaceOnUse" id="ae" xlink:href="#j"/><radialGradient r="8.143" fy="30.995" fx="16.037" cy="30.995" cx="16.037" gradientTransform="matrix(1.41322 0 0 1.41322 -7.05 -15.819)" gradientUnits="userSpaceOnUse" id="ai" xlink:href="#j"/></defs><path d="M183.504 53.754c-69.75 0-126.496 56.746-126.496 126.496s56.746 126.496 126.496 126.496S310.001 250 310.001 180.25 253.254 53.754 183.504 53.754z" fill="none"/><path d="M497.368 450.74L390.014 343.387a15.135 15.135 0 00-10.735-4.446 15.135 15.135 0 00-10.735 4.446l-.588.587-53.623-53.623c25.061-29.749 40.171-68.158 40.171-110.101 0-94.441-76.56-171-171-171-94.441 0-171 76.559-171 171 0 94.44 76.559 171 171 171 39.527 0 75.917-13.418 104.877-35.939L342.5 369.43l-.795.795c-5.929 5.931-5.929 15.542 0 21.472L449.057 499.05a15.143 15.143 0 0010.737 4.446c3.885 0 7.771-1.482 10.735-4.446l26.838-26.838c5.93-5.929 5.93-15.544.001-21.472zM183.504 315.25c-74.559 0-135-60.441-135-135s60.441-135 135-135 135 60.441 135 135-60.441 135-135 135z"/><path d="M503.379 444.726L396.028 337.374a23.53 23.53 0 00-16.749-6.938c-3.676 0-7.224.831-10.429 2.405l-43.103-43.103a178.694 178.694 0 0026.039-46.899c7.446-20.004 11.222-41.063 11.222-62.59 0-24.229-4.747-47.738-14.11-69.874-9.041-21.376-21.983-40.572-38.466-57.055-16.482-16.482-35.679-29.424-57.055-38.465C231.242 5.493 207.733.746 183.504.746c-24.229 0-47.738 4.747-69.874 14.11-21.376 9.041-40.572 21.983-57.055 38.465C40.093 69.804 27.151 89 18.11 110.376 8.747 132.512 4 156.021 4 180.25c0 24.229 4.747 47.738 14.11 69.874 9.041 21.376 21.983 40.573 38.465 57.055 16.483 16.482 35.679 29.424 57.055 38.466 22.135 9.362 45.645 14.109 69.874 14.109 20.294 0 40.214-3.364 59.207-10a178.652 178.652 0 0044.854-23.233l43.742 43.742c-4.489 8.887-3.027 20.033 4.385 27.446l107.352 107.353c4.478 4.475 10.426 6.938 16.751 6.938a23.535 23.535 0 0016.747-6.936l26.84-26.84a23.528 23.528 0 006.938-16.748 23.529 23.529 0 00-6.941-16.75zm-43.584 58.769a15.141 15.141 0 01-10.737-4.446L341.706 391.696c-5.929-5.93-5.929-15.541 0-21.472l.795-.795-54.119-54.119c-28.961 22.522-65.351 35.94-104.878 35.94-94.441 0-171-76.56-171-171 0-94.441 76.559-171 171-171 94.44 0 171 76.559 171 171 0 41.943-15.11 80.352-40.172 110.101l53.623 53.623.588-.587a15.135 15.135 0 0110.735-4.446c3.885 0 7.771 1.482 10.735 4.446L497.368 450.74c5.93 5.928 5.93 15.543 0 21.471l-26.838 26.838a15.137 15.137 0 01-10.735 4.446z" fill="#b3b3b3"/><path d="M183.504 45.25c-74.559 0-135 60.441-135 135s60.441 135 135 135 135-60.441 135-135-60.441-135-135-135zm0 261.496c-69.75 0-126.496-56.746-126.496-126.496S113.754 53.754 183.504 53.754 310.001 110.5 310.001 180.25s-56.747 126.496-126.497 126.496z" fill="#b3b3b3"/><path d="M31.43 1042.614c-.22 5.002-6.64 8.787-14.343 8.454-7.702-.334-13.767-4.66-13.545-9.662.218-5.002 6.64-8.787 14.341-8.453 7.702.333 13.767 4.659 13.546 9.661z" fill="url(#k)" transform="matrix(3.78527 0 0 3.38453 100.128 -3309.467)"/><path d="M35.326 1043.568c-.219 5.002-6.759 8.782-14.607 8.442-7.849-.34-14.033-4.67-13.811-9.673.218-5.002 6.758-8.782 14.607-8.442 7.848.34 14.032 4.671 13.81 9.673z" fill="url(#l)" transform="matrix(3.78527 0 0 3.38453 100.128 -3309.467)"/><path d="M42.021 38.735c-2.28 6.29-8.636 11.671-14.976 9.411-6.706-.642-10.134-8.2-9.485-14.852.729-7.47 6.64-10.416 14.793-8.602 8.154 1.813 12.229 6.98 9.668 14.043z" fill="url(#m)" stroke="#520000" transform="matrix(4.8628 .1883 -.21534 4.38196 42.128 24.096)"/><path d="M41.995 38.724c-2.277 6.296-8.627 11.684-14.96 9.422-6.7-.643-10.124-8.21-9.475-14.869.728-7.479 6.632-10.427 14.777-8.612 8.145 1.816 12.216 6.988 9.658 14.06z" opacity=".66" fill="url(#n)" stroke="#520000" transform="matrix(4.8628 .1883 -.21534 4.38196 42.128 24.096)"/><path d="M26.86 25.277c-3.072.156-5.788 1.525-7.161 4.253-2.537 5.036-.535 11.521 1.706 14.299 2.676 3.324 4.934 3.044 6.227 3.377 4.357 1.42 8.868-1.071 11.727-5.605 4.784-7.584 1.767-12.681-4.479-15.087-2.496-.962-5.267-1.377-8.02-1.237z" fill="none" stroke="url(#o)" transform="matrix(4.8628 .1883 -.21534 4.38196 42.128 24.096)"/><path d="M28.224 26.012c-.601 3.336 4.889 5.213 6.336 2" fill="none" stroke="#520000" transform="matrix(4.8628 .1883 -.21534 4.38196 42.128 24.096)"/><path d="M38.31 1005.936c-.242-.016-.518-.037-.795-.032-4.953 5.883-10.589 11.126-16.251 16.341.426.91 1.247 1.083 2.352 1.13l6.536-6.543c3.163-2.87 6.022-5.14 7.279-6.921a28.768 28.768 0 012.506-3.029c-.36-.663-.903-.882-1.627-.946h0z" fill="#4e9a06" stroke="#275000" stroke-width=".771" transform="matrix(3.78527 0 0 3.38453 100.128 -3309.467)"/><path d="M-2021.928 143.862c-69.75 0-126.496 56.746-126.496 126.496s56.746 126.496 126.496 126.496 126.497-56.746 126.497-126.496-56.747-126.496-126.497-126.496z" fill="none"/><g><path style="marker:none" d="M-436.12 67.883c-34.25-133.143 97.963-185.12 170.691-101.786l35.927-40.388 8.994 150.886-137.271-6.68 38.877-43.706c-43.734-53.322-98.023-37.424-85.227 38.008 3.662 21.59-23.97 34.845-31.99 3.666z" color="#000" display="block" overflow="visible" fill="url(#p)" stroke="url(#q)" stroke-width="6.678" transform="translate(728.39 85.992)"/><path style="marker:none" d="M-265.429-33.903l35.927-40.388 8.994 150.886-137.271-6.68 38.877-43.706" color="#000" display="block" overflow="visible" fill="url(#r)" stroke="#ce5c00" stroke-width="6.678" transform="translate(728.39 85.992)"/><path d="M45.367 4.513l-4.155 4.154a1.016 1.016 0 01-1.414 0c-5.484-5.589-13.197-6.576-18.805-4.043-5.607 2.533-9.24 8.424-6.629 17.456.27.933.672 1.402 1.017 1.636a1.19 1.19 0 001.016.176c.669-.17 1.278-.853 1.083-1.878-.534-2.8-.394-5.133.331-6.96.726-1.828 2.074-3.12 3.735-3.69 3.322-1.141 7.555.44 11.203 4.397a1.016 1.016 0 01-.022 1.392l-4.552 4.552 18.385.795-1.193-17.987z" style="marker:none" color="#000" display="block" overflow="visible" opacity=".85" fill="none" stroke="url(#s)" transform="matrix(6.29868 0 0 7.08076 207.918 -4.22)"/><path d="M46.996 22.997C36.093 7.667 25.045 4.085 16.428 7.187c8.83-9.049 20.706-2.374 24.057 1.525l5.297-5.319 1.214 19.604z" opacity=".55" fill="url(#t)" fill-rule="evenodd" transform="matrix(6.29868 0 0 7.08076 207.918 -4.22)"/></g></svg>