<?xml version="1.0" encoding="utf-8"?>
<!-- Generator: Adobe Illustrator 23.0.1, SVG Export Plug-In . SVG Version: 6.00 Build 0)  -->
<svg version="1.1" id="Layer_1" xmlns="http://www.w3.org/2000/svg" xmlns:xlink="http://www.w3.org/1999/xlink" x="0px" y="0px"
	 viewBox="0 0 48 48" style="enable-background:new 0 0 48 48;" xml:space="preserve">
<style type="text/css">
	.st0{fill:#FFF13F;}
</style>
<path class="st0" d="M24,2.5c2.7,0,5.8,10.9,8,12.5c2.2,1.6,13.6,1.2,14.4,3.8c0.9,2.6-8.6,8.9-9.4,11.5c-0.8,2.6,3,13.3,0.8,14.9
	c-2.2,1.6-11.1-5.4-13.8-5.4c-2.7,0-11.7,7-13.9,5.4C7.9,43.7,11.8,33,11,30.4c-0.8-2.6-10.3-9-9.4-11.6c0.8-2.6,12.1-2.2,14.3-3.8
	C18.1,13.5,21.3,2.5,24,2.5z"/>
</svg>
