<svg xmlns="http://www.w3.org/2000/svg" xmlns:xlink="http://www.w3.org/1999/xlink" width="48" height="48"><defs><linearGradient id="a"><stop offset="0" stop-color="#fff"/><stop offset="1" stop-color="#fff" stop-opacity="0"/></linearGradient><linearGradient xlink:href="#a" id="h" x1="11" y1="-7.062" x2="11" y2="20.587" gradientUnits="userSpaceOnUse"/><linearGradient id="b"><stop offset="0" stop-color="#c4a000"/><stop offset="1" stop-color="#ce5c00"/></linearGradient><linearGradient xlink:href="#b" id="g" x1="11.001" y1="-7.577" x2="11.001" y2="21.047" gradientUnits="userSpaceOnUse"/><linearGradient id="c"><stop offset="0" stop-color="#fff6aa"/><stop offset=".564" stop-color="#fce94f"/><stop offset="1" stop-color="#fcaf3e"/></linearGradient><linearGradient id="d"><stop offset="0"/><stop offset="1" stop-opacity="0"/></linearGradient><radialGradient xlink:href="#c" id="f" cx="6.484" cy="-3.123" fx="6.484" fy="-3.123" r="15.177" gradientTransform="matrix(-.9907 .98387 -.98737 -.99119 14.34 -13.78)" gradientUnits="userSpaceOnUse"/><radialGradient xlink:href="#d" id="e" gradientUnits="userSpaceOnUse" gradientTransform="matrix(1 0 0 .48893 0 8.048)" cx="11.026" cy="15.747" fx="11.026" fy="15.747" r="10.982"/></defs><path d="M22.009 15.747a10.982 5.37 0 11-21.965 0 10.982 5.37 0 1121.965 0z" transform="matrix(1.91218 0 0 1.86234 2.915 8.675)" opacity=".2" fill="url(#e)"/><path d="M11-7.252c1.773-.008 3.778 7.09 5.212 8.132 1.446 1.05 8.852.796 9.412 2.493.556 1.683-5.575 5.784-6.123 7.47-.552 1.7 1.978 8.665.537 9.722-1.429 1.049-7.223-3.515-8.996-3.515-1.787 0-7.63 4.559-9.08 3.515-1.44-1.035 1.11-7.956.563-9.642-.553-1.7-6.694-5.848-6.15-7.55.54-1.688 7.91-1.402 9.345-2.444C7.166-.121 9.213-7.244 11-7.252z" transform="matrix(1.53487 0 0 1.53721 7.116 12.648)" fill="url(#f)" stroke="url(#g)" stroke-width=".651"/><path d="M11-6.094a3.116 3.116 0 00-.469.563c-.396.59-.868 1.494-1.312 2.437-.444.944-.874 1.955-1.313 2.813-.438.857-.766 1.56-1.5 2.094-.734.533-1.517.628-2.468.78-.952.153-2.027.244-3.063.376-1.036.131-2.034.305-2.719.5-.33.093-.553.204-.687.281.067.143.206.369.406.625.438.56 1.148 1.254 1.906 1.969.758.715 1.572 1.442 2.25 2.125.679.682 1.252 1.201 1.531 2.062.28.86.116 1.643-.03 2.594-.147.951-.371 2.007-.563 3.031-.192 1.024-.351 2.008-.375 2.719-.012.341.03.598.062.75a3.5 3.5 0 00.719-.188c.667-.242 1.555-.688 2.469-1.187.913-.5 1.86-1.035 2.718-1.469.859-.433 1.533-.812 2.438-.812.905 0 1.579.379 2.438.812.858.434 1.805.97 2.718 1.469.914.5 1.802.945 2.469 1.188a3.5 3.5 0 00.719.187c.032-.152.074-.409.062-.75-.024-.71-.183-1.695-.375-2.719-.192-1.024-.416-2.08-.562-3.031-.147-.951-.311-1.734-.032-2.594.28-.86.853-1.38 1.532-2.062.678-.683 1.492-1.41 2.25-2.125.758-.715 1.468-1.409 1.906-1.969.2-.256.34-.482.406-.625a3.021 3.021 0 00-.687-.281c-.685-.195-1.683-.369-2.719-.5-1.036-.132-2.11-.223-3.063-.375-.951-.153-1.734-.248-2.468-.781-.734-.534-1.062-1.237-1.5-2.094-.439-.858-.869-1.87-1.313-2.813-.444-.943-.916-1.847-1.312-2.437A3.116 3.116 0 0011-6.094z" transform="matrix(1.5889 0 0 1.59416 6.522 12.215)" fill="none" stroke="url(#h)" stroke-width=".628" stroke-linejoin="round"/></svg>