<svg xmlns="http://www.w3.org/2000/svg"  viewBox="0 0 60 60" version="1.0"><defs><radialGradient xlink:href="#a" id="b" gradientUnits="userSpaceOnUse" cx="38.659" cy="9.341" fx="38.659" fy="9.341" r="8.342"/><linearGradient id="a"><stop offset="0" stop-color="#fff"/><stop offset=".25" stop-color="#fefede" stop-opacity=".918"/><stop offset=".5" stop-color="#f5f328"/><stop offset="1" stop-color="#f5f32d" stop-opacity=".122"/></linearGradient></defs><g transform="matrix(1.24887 0 0 1.57945 -15.946 -7.764)"><rect x="18.676" y="11.336" width="36.425" height="26.289" rx="1.893" fill="#ccc" fill-rule="evenodd"/><path d="M18.881 20.182h36.053M36.721 11.712v25.692M18.881 28.798h36.053" fill="none" stroke="#333" stroke-width="1.875" stroke-linecap="round" stroke-linejoin="round"/><rect x="18.676" y="11.336" width="36.425" height="26.289" rx="1.988" fill="none" stroke="#333" stroke-width="2.5" stroke-linecap="round" stroke-linejoin="round"/></g><g transform="matrix(1.44995 0 0 1.44876 -7.42 -1.33)" fill-rule="evenodd"><circle r="8.342" cy="9.341" cx="38.659" transform="translate(-7.595 .49) scale(1.14985)" fill="url(#b)"/><path style="marker:none" d="M40.832 16.595c-.606.44-3.05-1.484-3.798-1.484-.748 0-3.19 1.929-3.795 1.49-.606-.44.47-3.36.238-4.07-.232-.712-2.82-2.438-2.59-3.15.231-.712 3.34-.59 3.945-1.031.605-.44 1.447-3.436 2.195-3.436.748 0 1.594 2.993 2.2 3.433.605.44 3.714.314 3.946 1.026.232.711-2.355 2.44-2.585 3.152-.231.712.849 3.63.244 4.07z" color="#000" overflow="visible" fill="#fff"/></g></svg>