<svg xmlns="http://www.w3.org/2000/svg" xmlns:xlink="http://www.w3.org/1999/xlink" version="1.0" width="48" height="48"><defs><linearGradient id="b"><stop offset="0" stop-color="#f8cd70"/><stop offset="1" stop-color="#cc9110"/></linearGradient><linearGradient id="a"><stop offset="0" stop-color="#fff"/><stop offset="1" stop-color="#fff" stop-opacity="0"/></linearGradient><linearGradient id="c"><stop offset="0" stop-color="#fff"/><stop offset="1" stop-color="#fff" stop-opacity="0"/></linearGradient><linearGradient id="j"><stop offset="0" stop-color="#969696"/><stop offset="1" stop-color="#b4b4b4"/></linearGradient><linearGradient id="i"><stop offset="0" stop-color="#e6e6e6"/><stop offset="1" stop-color="#c8c8c8"/></linearGradient><linearGradient id="f"><stop offset="0" stop-color="#eee"/><stop offset="1" stop-color="#eee" stop-opacity="0"/></linearGradient><linearGradient id="h"><stop offset="0" stop-color="#fff"/><stop offset=".47" stop-color="#e7e7e7"/><stop offset=".672" stop-color="#8c8c8c"/><stop offset=".835" stop-color="#ddd"/><stop offset="1" stop-color="#a8a8a8"/></linearGradient><linearGradient id="k"><stop offset="0" stop-color="#7a7a7a"/><stop offset="1" stop-color="#474747"/></linearGradient><linearGradient id="l"><stop offset="0" stop-opacity="0"/><stop offset=".5"/><stop offset="1" stop-opacity="0"/></linearGradient><linearGradient id="g"><stop offset="0"/><stop offset="1" stop-opacity="0"/></linearGradient><linearGradient id="e"><stop offset="0" stop-color="#f5f5f5"/><stop offset=".47" stop-color="#e7e7e7"/><stop offset=".693" stop-color="#8c8c8c"/><stop offset=".835" stop-color="#ddd"/><stop offset="1" stop-color="#a8a8a8"/></linearGradient><linearGradient x1="12.277" y1="37.206" x2="12.222" y2="33.759" id="aB" xlink:href="#f" gradientUnits="userSpaceOnUse" gradientTransform="matrix(1.02128 0 0 .89888 -.025 12.978)"/><linearGradient x1="7.063" y1="35.281" x2="24.688" y2="35.281" id="aA" xlink:href="#g" gradientUnits="userSpaceOnUse" gradientTransform="matrix(1.02128 0 0 .89888 .787 11.787)"/><linearGradient x1="17.814" y1="29.797" x2="18.073" y2="10" id="au" xlink:href="#j" gradientUnits="userSpaceOnUse" gradientTransform="translate(0 3)"/><linearGradient x1="29.938" y1="41" x2="30" y2="50" id="as" xlink:href="#k" gradientUnits="userSpaceOnUse" gradientTransform="matrix(1.00175 0 0 .75964 -5.05 8.936)"/><linearGradient x1="302.857" y1="366.648" x2="302.857" y2="609.505" id="ap" xlink:href="#l" gradientUnits="userSpaceOnUse" gradientTransform="matrix(.07636 0 0 .02059 -3.597 36.451)"/><linearGradient id="r"><stop offset="0" stop-color="#f5f5f5"/><stop offset=".47" stop-color="#e7e7e7"/><stop offset=".693" stop-color="#8c8c8c"/><stop offset=".835" stop-color="#ddd"/><stop offset="1" stop-color="#a8a8a8"/></linearGradient><linearGradient id="n"><stop offset="0"/><stop offset="1" stop-opacity="0"/></linearGradient><linearGradient id="m"><stop offset="0" stop-opacity="0"/><stop offset=".5"/><stop offset="1" stop-opacity="0"/></linearGradient><linearGradient id="o"><stop offset="0" stop-color="#7a7a7a"/><stop offset="1" stop-color="#474747"/></linearGradient><linearGradient id="s"><stop offset="0" stop-color="#fff"/><stop offset=".47" stop-color="#e7e7e7"/><stop offset=".672" stop-color="#8c8c8c"/><stop offset=".835" stop-color="#ddd"/><stop offset="1" stop-color="#a8a8a8"/></linearGradient><linearGradient id="u"><stop offset="0" stop-color="#eee"/><stop offset="1" stop-color="#eee" stop-opacity="0"/></linearGradient><linearGradient id="q"><stop offset="0" stop-color="#e6e6e6"/><stop offset="1" stop-color="#c8c8c8"/></linearGradient><linearGradient id="p"><stop offset="0" stop-color="#969696"/><stop offset="1" stop-color="#b4b4b4"/></linearGradient><linearGradient id="v"><stop offset="0" stop-color="#fff"/><stop offset="1" stop-color="#fff" stop-opacity="0"/></linearGradient><linearGradient gradientTransform="matrix(0 -.44837 -.3705 0 106.445 58.36)" gradientUnits="userSpaceOnUse" xlink:href="#w" id="aF" y2="23.891" x2="1.31" y1="23.891" x1="28.671"/><linearGradient gradientTransform="matrix(0 .50058 -.36513 0 107.29 35.815)" gradientUnits="userSpaceOnUse" xlink:href="#x" id="aG" y2="33.332" x2="57.411" y1="33.332" x1="8.527"/><linearGradient id="x"><stop offset="0" stop-color="#fff"/><stop offset="1" stop-color="#fff" stop-opacity="0"/></linearGradient><linearGradient id="w"><stop offset="0" stop-color="#f8cd70"/><stop offset="1" stop-color="#cc9110"/></linearGradient><linearGradient id="z"><stop offset="0" stop-color="#fff"/><stop offset="1" stop-color="#fff" stop-opacity="0"/></linearGradient><linearGradient id="y"><stop offset="0" stop-color="#d50f0f"/><stop offset="1" stop-color="#860000"/></linearGradient><linearGradient id="B"><stop offset="0" stop-color="#fff"/><stop offset="1" stop-color="#fff" stop-opacity="0"/></linearGradient><linearGradient id="A"><stop offset="0" stop-color="#d50f0f"/><stop offset="1" stop-color="#860000"/></linearGradient><linearGradient id="C"><stop offset="0" stop-color="#429fe4"/><stop offset="1" stop-color="#3653ba"/></linearGradient><linearGradient id="D"><stop offset="0" stop-color="#fff"/><stop offset="1" stop-color="#fff" stop-opacity="0"/></linearGradient><linearGradient id="F"><stop offset="0"/><stop offset="1" stop-opacity="0"/></linearGradient><linearGradient id="G"><stop offset="0" stop-color="#d50f0f"/><stop offset="1" stop-color="#860000"/></linearGradient><linearGradient id="E"><stop offset="0"/><stop offset="1" stop-opacity="0"/></linearGradient><linearGradient id="H"><stop offset="0" stop-color="#59a40f"/><stop offset="1" stop-color="#306102"/></linearGradient><linearGradient id="I"><stop offset="0" stop-color="#fff"/><stop offset="1" stop-color="#fff" stop-opacity="0"/></linearGradient><linearGradient id="J"><stop offset="0" stop-color="#d491fa"/><stop offset="1" stop-color="#600261"/></linearGradient><linearGradient id="K"><stop offset="0" stop-color="#fff"/><stop offset="1" stop-color="#fff" stop-opacity="0"/></linearGradient><linearGradient id="L"><stop offset="0" stop-color="#59a40f"/><stop offset="1" stop-color="#306102"/></linearGradient><linearGradient id="M"><stop offset="0" stop-color="#429fe4"/><stop offset="1" stop-color="#3653ba"/></linearGradient><linearGradient id="N"><stop offset="0" stop-color="#fff"/><stop offset="1" stop-color="#fff" stop-opacity="0"/></linearGradient><linearGradient id="O"><stop offset="0" stop-color="#59a40f"/><stop offset="1" stop-color="#306102"/></linearGradient><linearGradient id="P"><stop offset="0" stop-color="#fff"/><stop offset="1" stop-color="#fff" stop-opacity="0"/></linearGradient><linearGradient id="R"><stop offset="0" stop-color="#fff"/><stop offset="1" stop-color="#fff" stop-opacity="0"/></linearGradient><linearGradient id="Q"><stop offset="0" stop-color="#d50f0f"/><stop offset="1" stop-color="#860000"/></linearGradient><linearGradient id="S"><stop offset="0" stop-color="#429fe4"/><stop offset="1" stop-color="#3653ba"/></linearGradient><linearGradient id="T"><stop offset="0" stop-color="#fff"/><stop offset="1" stop-color="#fff" stop-opacity="0"/></linearGradient><linearGradient id="V"><stop offset="0"/><stop offset="1" stop-opacity="0"/></linearGradient><linearGradient id="W"><stop offset="0" stop-color="#d50f0f"/><stop offset="1" stop-color="#860000"/></linearGradient><linearGradient id="U"><stop offset="0"/><stop offset="1" stop-opacity="0"/></linearGradient><linearGradient id="X"><stop offset="0" stop-color="#59a40f"/><stop offset="1" stop-color="#306102"/></linearGradient><linearGradient id="Y"><stop offset="0" stop-color="#fff"/><stop offset="1" stop-color="#fff" stop-opacity="0"/></linearGradient><linearGradient id="Z"><stop offset="0" stop-color="#d491fa"/><stop offset="1" stop-color="#600261"/></linearGradient><linearGradient id="aa"><stop offset="0" stop-color="#fff"/><stop offset="1" stop-color="#fff" stop-opacity="0"/></linearGradient><linearGradient id="ab"><stop offset="0" stop-color="#59a40f"/><stop offset="1" stop-color="#306102"/></linearGradient><linearGradient id="ac"><stop offset="0" stop-color="#429fe4"/><stop offset="1" stop-color="#3653ba"/></linearGradient><linearGradient id="ad"><stop offset="0" stop-color="#fff"/><stop offset="1" stop-color="#fff" stop-opacity="0"/></linearGradient><linearGradient id="ae"><stop offset="0" stop-color="#f39690"/><stop offset="1" stop-color="#e62e5a"/></linearGradient><linearGradient id="af"><stop offset="0" stop-color="#fff"/><stop offset="1" stop-color="#fff" stop-opacity="0"/></linearGradient><linearGradient id="ag"><stop offset="0" stop-color="#d50f0f"/><stop offset="1" stop-color="#860000"/></linearGradient><linearGradient id="ah"><stop offset="0" stop-color="#fff"/><stop offset="1" stop-color="#fff" stop-opacity="0"/></linearGradient><linearGradient id="ai"><stop offset="0"/><stop offset="1" stop-opacity="0"/></linearGradient><linearGradient id="aj"><stop offset="0" stop-color="#d50f0f"/><stop offset="1" stop-color="#860000"/></linearGradient><linearGradient id="ak"><stop offset="0" stop-color="#fff"/><stop offset="1" stop-color="#fff" stop-opacity="0"/></linearGradient><linearGradient id="ao"><stop offset="0" stop-color="#73d216"/><stop offset="1" stop-color="#8ae234"/></linearGradient><linearGradient id="an"><stop offset="0" stop-color="#fff"/><stop offset="1" stop-color="#fff" stop-opacity="0"/></linearGradient><linearGradient id="am"><stop offset="0" stop-color="#fff"/><stop offset="1" stop-color="#fff" stop-opacity="0"/></linearGradient><linearGradient id="al"><stop offset="0"/><stop offset="1" stop-opacity="0"/></linearGradient><radialGradient cx="113.065" cy="97.588" r="2.563" fx="113.667" fy="98" id="d" gradientUnits="userSpaceOnUse"><stop offset="0" stop-color="#eee"/><stop offset=".16" stop-color="#cecece"/><stop offset=".468" stop-color="#888"/><stop offset="1" stop-color="#555"/></radialGradient><radialGradient cx="24" cy="42" r="21" fx="24" fy="42" id="aE" xlink:href="#c" gradientUnits="userSpaceOnUse" gradientTransform="matrix(1 0 0 .35714 0 28.5)"/><radialGradient cx="113.065" cy="97.588" r="2.563" fx="113.667" fy="98" id="aD" xlink:href="#d" gradientUnits="userSpaceOnUse" gradientTransform="matrix(.32949 0 0 .34975 6.055 4.494)"/><radialGradient cx="127.317" cy="143.828" r="78.728" fx="127.317" fy="143.828" id="aC" xlink:href="#e" gradientUnits="userSpaceOnUse" gradientTransform="matrix(.19054 -.02506 .0062 .10073 -7.437 8.429)"/><radialGradient cx="113.065" cy="97.588" r="2.563" fx="113.667" fy="98" id="az" xlink:href="#d" gradientUnits="userSpaceOnUse" gradientTransform="matrix(.22333 .0344 -.023 .14939 14.791 -3.632)"/><radialGradient cx="113.065" cy="97.588" r="2.563" fx="113.667" fy="98" id="ay" xlink:href="#d" gradientUnits="userSpaceOnUse" gradientTransform="matrix(.22283 -.03752 .0251 .14905 -18.146 4.532)"/><radialGradient cx="113.065" cy="97.588" r="2.563" fx="113.667" fy="98" id="ax" xlink:href="#d" gradientUnits="userSpaceOnUse" gradientTransform="matrix(-.32949 0 0 .34975 41.963 4.494)"/><radialGradient cx="142.622" cy="191.854" r="78.728" fx="142.622" fy="191.854" id="aw" xlink:href="#h" gradientUnits="userSpaceOnUse" gradientTransform="matrix(.18495 0 0 -.13074 -3.111 50.048)"/><radialGradient cx="141.747" cy="206.426" r="78.728" fx="141.747" fy="206.426" id="av" xlink:href="#e" gradientUnits="userSpaceOnUse" gradientTransform="matrix(.3516 -.00502 .0026 .2891 -27.024 -21.218)"/><radialGradient cx="11.734" cy="8.49" r="23.048" fx="11.734" fy="8.49" id="at" xlink:href="#i" gradientUnits="userSpaceOnUse" gradientTransform="matrix(1.3767 .6972 -.4681 .92435 -.05 1.061)"/><radialGradient cx="605.714" cy="486.648" r="117.143" fx="605.714" fy="486.648" id="ar" xlink:href="#g" gradientUnits="userSpaceOnUse" gradientTransform="matrix(-.04485 0 0 .02059 32.611 36.451)"/><radialGradient cx="605.714" cy="486.648" r="117.143" fx="605.714" fy="486.648" id="aq" xlink:href="#g" gradientUnits="userSpaceOnUse" gradientTransform="matrix(.04485 0 0 .02059 15.389 36.451)"/><radialGradient gradientUnits="userSpaceOnUse" id="t" fy="98" fx="113.667" r="2.563" cy="97.588" cx="113.065"><stop offset="0" stop-color="#eee"/><stop offset=".16" stop-color="#cecece"/><stop offset=".468" stop-color="#888"/><stop offset="1" stop-color="#555"/></radialGradient></defs><path style="marker:none" opacity=".3" fill="url(#ap)" overflow="visible" d="M5.565 44h36.869v5H5.565z"/><path d="M42.417 44v5c2.31.01 5.583-1.12 5.583-2.5S45.423 44 42.417 44z" style="marker:none" opacity=".3" fill="url(#aq)" overflow="visible"/><path d="M5.583 44v5C3.273 49.01 0 47.88 0 46.5S2.577 44 5.583 44z" style="marker:none" opacity=".3" fill="url(#ar)" overflow="visible"/><path d="M1.464 40.464h45.072l-.901 6.072H2.465l-1.001-6.072z" fill="url(#as)" fill-rule="evenodd" stroke="#353537" stroke-width=".928" stroke-linecap="round" stroke-linejoin="round"/><path fill="#d2d2d3" fill-rule="evenodd" d="M1.5 40h45v1h-45z"/><path d="M46.55 40.602l-6.81-25.774c-.192-.734-1.2-1.33-2.049-1.33H10.074c-1.303 0-2.05.198-2.324 1.33l-6.3 25.749" style="marker:none" fill="url(#at)" stroke="url(#au)" stroke-width=".996" stroke-linecap="round" stroke-linejoin="round" overflow="visible"/><path d="M45.5 40.5l-43-.024" style="marker:none" opacity=".4" fill="none" stroke="#fff" stroke-linecap="round" overflow="visible"/><path d="M40.971 29.374c-.217-1.998-1.676-3.903-4.1-5.407l-.67-7.97c-.048-.568-.772-.997-1.685-.997h-5.731c-.92 0-1.631.435-1.654 1.01-.106 2.604-3.312 3.963-8.096 5.2-1.676.29-6.046 1.655-7.049 2.254-2.952 1.573-4.713 3.671-4.957 5.91-.222 2.036.845 4.073 3.004 5.737C13.193 37.546 18.414 39 24 39s10.807-1.454 13.968-3.889c1.971-1.52 3.032-3.35 3.032-5.208 0-.176-.01-.353-.029-.53zM24 37.99c-9.304 0-16.428-4.08-15.912-8.81.222-2.04 1.854-4.216 4.557-5.65.506-.382 5.077-1.866 6.717-2.127 4.544-1.172 8.7-2.693 8.83-5.898.006-.154.268-.276.593-.276h5.73c.332 0 .612.128.625.285l.696 8.282c2.409 1.396 3.868 3.48 4.076 5.384.515 4.73-6.609 8.81-15.912 8.81z" fill="url(#av)"/><path d="M24 33c-3.365 0-5.945-1.267-6-2.948v-.054c0-.608.338-1.186.98-1.676C20.068 27.494 21.945 27 24 27c2.056 0 3.933.494 5.02 1.322.66.503 1 1.102.98 1.73-.056 1.68-2.636 2.948-6 2.948zm0-5.06c-3.162 0-4.773 1.256-4.735 2.403.037 1.128 2.156 2.03 4.735 2.03 2.578 0 4.698-.902 4.734-2.03.038-1.147-1.572-2.403-4.734-2.403z" style="marker:none" fill="url(#aw)" overflow="visible"/><path d="M6.016 38.62c-.042.595-.663 1.08-1.388 1.08-.725 0-1.273-.485-1.225-1.08.048-.593.67-1.07 1.387-1.07.718 0 1.267.477 1.226 1.07z" fill="#e1e1e1"/><path d="M5.547 38.2a.542.542 0 01.142.358l-.001.035c-.029.41-.514.757-1.06.757-.31 0-.595-.113-.76-.304a.534.534 0 01-.137-.397c.034-.406.518-.75 1.06-.75.308 0 .59.113.756.302z" fill="url(#ax)"/><path d="M8.614 14.982c.07.249.526.385 1.016.302.49-.082.826-.352.75-.6-.074-.247-.529-.38-1.014-.298-.486.082-.823.348-.752.596z" fill="#f0f0f0"/><path d="M8.9 14.75c-.039.04-.081.1-.07.168l.004.015c.048.172.402.264.77.202.21-.035.395-.116.492-.216.042-.043.087-.11.065-.185-.052-.17-.405-.26-.77-.199-.209.035-.392.116-.49.215z" fill="url(#ay)"/><path d="M36.912 14.697c-.01.258.379.53.87.606.491.076.895-.074.901-.334.007-.258-.383-.527-.87-.602-.486-.074-.89.072-.9.33z" fill="#e1e1e1"/><path d="M37.258 14.567c-.05.025-.11.069-.12.138l-.002.015c-.007.178.299.377.669.434.21.032.41.013.535-.051.053-.028.117-.077.119-.155.004-.177-.302-.375-.669-.431-.209-.032-.408-.014-.532.05z" fill="url(#az)"/><path d="M7.5 41H26v5H8l-.5-5z" style="marker:none" fill="url(#aA)" fill-rule="evenodd" overflow="visible"/><path d="M8 46l-.4-3.606C9.475 45.252 16.473 46 21.213 46H8z" opacity=".811" fill="url(#aB)" fill-rule="evenodd"/><path d="M10.907 15l-.104.381-1.541 5.67L9 22l.764-.204 12.995-3.544.041-.018.034-.018c.689-.354 1.056-1.07 1.143-1.727.043-.33.03-.65-.083-.948-.106-.281-.384-.531-.674-.523V15H10.906zm.44.35h11.976c.006.048.019.075.007.165-.038.285-.2 1.305-.606 1.528L10.128 20.48l1.218-5.13z" style="marker:none" fill="url(#aC)" overflow="visible"/><path d="M42.002 38.62c.042.595.663 1.08 1.388 1.08.725 0 1.273-.485 1.225-1.08-.048-.593-.67-1.07-1.387-1.07-.718 0-1.267.477-1.226 1.07z" fill="#e1e1e1"/><path d="M42.471 38.2a.542.542 0 00-.142.358l.001.035c.029.41.514.757 1.06.757.31 0 .595-.113.76-.304a.534.534 0 00.136-.397c-.033-.406-.517-.75-1.059-.75-.308 0-.59.113-.756.302z" fill="url(#aD)"/><path opacity=".3" fill="url(#aE)" d="M3 41h42v5H3z"/><path style="marker:none" d="M104.896 47.764l-7.321 9.776-7.284-9.776h3.248v-8.473h8.108v8.473h3.249z" fill="url(#aF)" stroke="#bf8407" stroke-width=".582" stroke-linecap="round" stroke-linejoin="round" overflow="visible" transform="matrix(1.5129 0 0 .68325 -132.362 -.97)"/><path style="marker:none" d="M102.822 48.424l-5.17 7.836-5.246-7.836h2.246v-8.15h5.999v8.15h2.17z" opacity=".354" fill="none" stroke="url(#aG)" stroke-width=".527" overflow="visible" transform="matrix(1.5129 0 0 .68325 -132.362 -.97)"/><g transform="matrix(.82149 0 0 .83098 -12.914 -7.631)"><rect x="18.676" y="11.336" width="36.425" height="26.289" rx="1.893" fill="#ccc" fill-rule="evenodd"/><path d="M18.881 20.182h36.053M36.721 11.712v25.692M18.881 28.798h36.053" fill="none" stroke="#333" stroke-width="1.875" stroke-linecap="round" stroke-linejoin="round"/><rect x="18.676" y="11.336" width="36.425" height="26.289" rx="1.988" fill="none" stroke="#333" stroke-width="2.5" stroke-linecap="round" stroke-linejoin="round"/></g></svg>