<svg xmlns="http://www.w3.org/2000/svg" xmlns:xlink="http://www.w3.org/1999/xlink" width="48" height="48"><defs><linearGradient id="a"><stop offset="0" stop-color="#eeeeec"/><stop offset="1" stop-color="#888a85"/></linearGradient><linearGradient xlink:href="#a" id="q" gradientUnits="userSpaceOnUse" x1="25.063" y1="36.451" x2="24.978" y2="4.725" gradientTransform="matrix(.9991 0 0 1.05223 -.061 2.015)"/><linearGradient id="b"><stop offset="0" stop-color="#fff"/><stop offset="1" stop-color="#fff" stop-opacity="0"/></linearGradient><linearGradient xlink:href="#b" id="p" gradientUnits="userSpaceOnUse" gradientTransform="matrix(.95282 0 0 .97281 1.063 .973)" x1="25.286" y1="-1.146" x2="25.123" y2="48.519"/><linearGradient id="c"><stop offset="0" stop-color="#540000"/><stop offset="1" stop-color="#7c0000"/></linearGradient><linearGradient xlink:href="#c" id="o" x1="16.071" y1="39" x2="15.857" y2="8" gradientUnits="userSpaceOnUse"/><linearGradient id="d"><stop offset="0" stop-color="#720000"/><stop offset="1" stop-color="#a40000"/></linearGradient><linearGradient xlink:href="#d" id="n" gradientUnits="userSpaceOnUse" x1="28.005" y1="34.083" x2="28.065" y2="6.644" gradientTransform="matrix(.9998 0 0 1.05232 -.066 2.014)"/><linearGradient id="e"><stop offset="0" stop-color="#9c9c9c"/><stop offset="1" stop-color="gray"/></linearGradient><linearGradient xlink:href="#e" id="m" gradientUnits="userSpaceOnUse" gradientTransform="matrix(.95267 0 0 .97723 1.074 -.03)" x1="24.065" y1="3.101" x2="24.065" y2="45.056"/><linearGradient id="f"><stop offset="0" stop-color="#bababa"/><stop offset="1" stop-color="#eeeeec"/></linearGradient><linearGradient xlink:href="#f" id="l" gradientUnits="userSpaceOnUse" gradientTransform="matrix(.95267 0 0 .97723 1.074 -.03)" x1="28.41" y1="45.056" x2="22.049" y2="3.926"/><linearGradient id="g"><stop offset="0"/><stop offset="1" stop-opacity="0"/></linearGradient><linearGradient id="h"><stop offset="0" stop-opacity="0"/><stop offset=".5"/><stop offset="1" stop-opacity="0"/></linearGradient><linearGradient xlink:href="#h" id="i" gradientUnits="userSpaceOnUse" gradientTransform="matrix(2.77439 0 0 1.9697 -1892.179 -872.885)" x1="302.857" y1="366.648" x2="302.857" y2="609.505"/><radialGradient xlink:href="#g" id="k" gradientUnits="userSpaceOnUse" gradientTransform="matrix(-2.77439 0 0 1.9697 112.762 -872.885)" cx="605.714" cy="486.648" fx="605.714" fy="486.648" r="117.143"/><radialGradient xlink:href="#g" id="j" gradientUnits="userSpaceOnUse" gradientTransform="matrix(2.77439 0 0 1.9697 -1891.633 -872.885)" cx="605.714" cy="486.648" fx="605.714" fy="486.648" r="117.143"/></defs><path style="marker:none" opacity=".402" fill="url(#i)" overflow="visible" d="M-1559.252-150.697h1339.633V327.66h-1339.633z" transform="matrix(.02364 0 0 .0209 45.026 40.15)"/><path d="M-219.619-150.68v478.33c142.874.9 345.4-107.17 345.4-239.196S-33.655-150.68-219.619-150.68z" style="marker:none" opacity=".402" fill="url(#j)" overflow="visible" transform="matrix(.02364 0 0 .0209 45.026 40.15)"/><path d="M-1559.252-150.68v478.33c-142.875.9-345.4-107.17-345.4-239.196s159.436-239.134 345.4-239.134z" style="marker:none" opacity=".402" fill="url(#k)" overflow="visible" transform="matrix(.02364 0 0 .0209 45.026 40.15)"/><rect x="1.5" y="3.5" width="45" height="40" ry="4.515" rx="4.501" fill="url(#l)" fill-rule="evenodd" stroke="url(#m)" stroke-linecap="round" stroke-linejoin="round"/><rect x="5.5" y="8.5" width="37" height="30" ry="1.505" rx="1.497" fill="url(#n)" fill-rule="evenodd" stroke="url(#o)" stroke-linecap="round" stroke-linejoin="round"/><rect x="2.5" y="4.5" width="43" height="38" ry="3.53" rx="3.505" fill="none" stroke="url(#p)" stroke-linecap="round" stroke-linejoin="round"/><rect x="4.5" y="7.5" width="39" height="32" ry="2.505" rx="2.497" opacity=".574" fill="none" stroke="url(#q)" stroke-linecap="round" stroke-linejoin="round"/><text x="-2.635" y="25.951" font-size="40" font-weight="400" font-family="Bitstream Vera Sans"/><path style="text-align:start;line-height:125%" d="M10 21v-3l9 5v2l-9 5v-3l7-3-7-3zm20 11v2H20v-2h10" font-size="18.585" font-weight="700" fill="#eeeeec" font-family="Bitstream Vera Sans Mono"/></svg>