<svg xmlns="http://www.w3.org/2000/svg" height="48" width="48" version="1.0"><defs><radialGradient id="h" gradientUnits="userSpaceOnUse" cy="24" cx="24" r="17"><stop offset="0" stop-color="#fff" stop-opacity="0"/><stop offset=".7" stop-color="#fff" stop-opacity="0"/><stop offset="1"/></radialGradient><radialGradient id="e" gradientUnits="userSpaceOnUse" cy="12.08" cx="27.412" gradientTransform="matrix(0 1.7731 -2.6591 0 59.48 -17.999)" r="18"><stop offset="0" stop-color="#fff"/><stop offset="1" stop-color="#d8d8d8"/></radialGradient><radialGradient id="c" gradientUnits="userSpaceOnUse" cy="24.003" cx="24.012" gradientTransform="translate(1.124 1.123) scale(.95321)" r="21"><stop offset="0" stop-color="gray"/><stop offset=".873" stop-color="#6d6d6d"/><stop offset="1" stop-color="#4f5053"/></radialGradient><radialGradient id="a" gradientUnits="userSpaceOnUse" cy="4.625" cx="62.625" gradientTransform="matrix(2.1647 0 0 .75294 -111.56 36.518)" r="10.625"><stop offset="0"/><stop offset="1" stop-opacity="0"/></radialGradient><linearGradient id="g" y2="26.494" gradientUnits="userSpaceOnUse" x2="29.05" gradientTransform="matrix(1 0 0 -1 0 48)" y1="7.028" x1="29.05"><stop offset="0"/><stop offset="1"/></linearGradient><linearGradient id="f" y2="26.091" gradientUnits="userSpaceOnUse" x2="24.398" gradientTransform="translate(-.398 .398)" y1="3.602" x1="24.398"><stop offset="0" stop-color="#fff"/><stop offset="1" stop-color="#fff" stop-opacity="0"/></linearGradient><linearGradient id="d" y2="40.32" gradientUnits="userSpaceOnUse" x2="29.05" gradientTransform="translate(-1.454 -1.454) scale(1.0606)" y1="7.028" x1="29.05"><stop offset="0" stop-color="#3d3e40"/><stop offset="1" stop-color="#4e4e4e"/></linearGradient><linearGradient id="b" y2="45.184" gradientUnits="userSpaceOnUse" x2="7.554" y1="3" x1="7.554"><stop offset="0" stop-color="#4d4d4d"/><stop offset="1" stop-color="#333"/></linearGradient></defs><path d="M47 40c0 4.418-10.297 8-23 8S1 44.418 1 40s10.297-8 23-8 23 3.582 23 8z" opacity=".3" fill-rule="evenodd" fill="url(#a)"/><path d="M44.5 23.999C44.5 35.321 35.321 44.5 24 44.5c-11.322 0-20.5-9.179-20.5-20.501C3.5 12.678 12.678 3.5 24 3.5c11.321 0 20.5 9.178 20.5 20.499z" stroke="url(#b)" fill="url(#c)"/><path d="M41.5 23.999C41.5 33.664 33.664 41.5 24 41.5c-9.665 0-17.5-7.835-17.5-17.501C6.5 14.334 14.335 6.5 24 6.5c9.664 0 17.5 7.835 17.5 17.499z" stroke="url(#d)" fill="url(#e)"/><path d="M43.5 23.999C43.5 34.769 34.769 43.5 24 43.5c-10.77 0-19.5-8.73-19.5-19.501C4.5 13.23 13.23 4.5 24 4.5s19.5 8.73 19.5 19.499z" opacity=".4" stroke="url(#f)" fill="none"/><path d="M9.862 24.537c2.766 0 3.116-.08 3.116-.08M35.022 24.537c2.766 0 3.117-.08 3.117-.08" opacity=".5" stroke="#000" stroke-linecap="round" fill="none"/><path d="M23.543 38.033c0-2.766-.08-3.117-.08-3.117" opacity=".6" stroke="#000" stroke-linecap="round" fill="none"/><path d="M23.543 13.083c0-2.766-.08-3.117-.08-3.117" opacity=".4" stroke="#000" stroke-linecap="round" fill="none"/><path d="M23.103 25.537L33.89 14.545M24.75 25.537l-7.287-7.287" stroke="#000" stroke-linecap="round" stroke-width=".9" fill="none"/><path d="M24.672 24.653l10.973-3.089" fill-rule="evenodd" stroke="red" stroke-linecap="round" stroke-width=".9" fill="red"/><path d="M40.5 24.001C40.5 14.888 33.112 7.5 24 7.5c-9.113 0-16.5 7.388-16.5 16.501C7.5 33.113 14.887 40.5 24 40.5c9.112 0 16.5-7.387 16.5-16.499z" opacity=".2" stroke="url(#g)" fill="url(#h)"/></svg>