<svg xmlns="http://www.w3.org/2000/svg"  version="1.0" width="48" height="48"><defs><linearGradient id="c"><stop offset="0" stop-color="#59a40f"/><stop offset="1" stop-color="#306102"/></linearGradient><linearGradient id="b"><stop offset="0" stop-color="#fff"/><stop offset="1" stop-color="#fff" stop-opacity="0"/></linearGradient><linearGradient id="e"><stop offset="0"/><stop offset="1" stop-opacity="0"/></linearGradient><linearGradient id="a"><stop offset="0" stop-color="#d50f0f"/><stop offset="1" stop-color="#860000"/></linearGradient><linearGradient id="d"><stop offset="0"/><stop offset="1" stop-opacity="0"/></linearGradient><linearGradient x1="42.551" y1="46.026" x2="22.734" y2="23.323" id="aI" xlink:href="#a" gradientUnits="userSpaceOnUse"/><linearGradient x1="25.128" y1="38.802" x2="7.213" y2="18.548" id="aE" xlink:href="#a" gradientUnits="userSpaceOnUse" gradientTransform="matrix(.94565 .04095 -.04171 .94937 3.271 -2.809)"/><linearGradient id="f"><stop offset="0" stop-color="#fff" stop-opacity=".643"/><stop offset="1" stop-color="#fff" stop-opacity="0"/></linearGradient><linearGradient id="g"><stop offset="0" stop-color="#7ea8ce"/><stop offset=".763" stop-color="#568dc0" stop-opacity=".816"/><stop offset="1" stop-color="#c9e1f8" stop-opacity="0"/></linearGradient><linearGradient id="h"><stop offset="0" stop-color="#2c79c0"/><stop offset=".797" stop-color="#2970b3" stop-opacity=".498"/><stop offset="1" stop-color="#236098" stop-opacity="0"/></linearGradient><linearGradient id="i"><stop offset="0" stop-color="#fefefe"/><stop offset="1" stop-color="#cbcbcb"/></linearGradient><linearGradient id="j"><stop offset="0" stop-color="#fff"/><stop offset="1" stop-color="#fff" stop-opacity="0"/></linearGradient><linearGradient id="l"><stop offset="0" stop-color="#f4f4f4"/><stop offset="1" stop-color="#dbdbdb"/></linearGradient><linearGradient id="m"><stop offset="0" stop-color="#aaa"/><stop offset="1" stop-color="#c8c8c8"/></linearGradient><linearGradient id="n"><stop offset="0"/><stop offset="1" stop-opacity="0"/></linearGradient><linearGradient id="o"><stop offset="0" stop-opacity="0"/><stop offset=".5"/><stop offset="1" stop-opacity="0"/></linearGradient><linearGradient id="v"><stop offset="0" stop-color="#59a40f"/><stop offset="1" stop-color="#306102"/></linearGradient><linearGradient id="u"><stop offset="0" stop-color="#fff"/><stop offset="1" stop-color="#fff" stop-opacity="0"/></linearGradient><linearGradient id="w"><stop offset="0"/><stop offset="1" stop-opacity="0"/></linearGradient><linearGradient id="t"><stop offset="0" stop-color="#d50f0f"/><stop offset="1" stop-color="#860000"/></linearGradient><linearGradient id="s"><stop offset="0"/><stop offset="1" stop-opacity="0"/></linearGradient><linearGradient id="x"><stop offset="0" stop-color="#fff" stop-opacity=".643"/><stop offset="1" stop-color="#fff" stop-opacity="0"/></linearGradient><linearGradient id="y"><stop offset="0" stop-color="#7ea8ce"/><stop offset=".763" stop-color="#568dc0" stop-opacity=".816"/><stop offset="1" stop-color="#c9e1f8" stop-opacity="0"/></linearGradient><linearGradient id="z"><stop offset="0" stop-color="#2c79c0"/><stop offset=".797" stop-color="#2970b3" stop-opacity=".498"/><stop offset="1" stop-color="#236098" stop-opacity="0"/></linearGradient><linearGradient id="A"><stop offset="0" stop-color="#fefefe"/><stop offset="1" stop-color="#cbcbcb"/></linearGradient><linearGradient id="B"><stop offset="0" stop-color="#fff"/><stop offset="1" stop-color="#fff" stop-opacity="0"/></linearGradient><linearGradient id="D"><stop offset="0" stop-color="#f4f4f4"/><stop offset="1" stop-color="#dbdbdb"/></linearGradient><linearGradient id="E"><stop offset="0" stop-color="#aaa"/><stop offset="1" stop-color="#c8c8c8"/></linearGradient><linearGradient id="F"><stop offset="0"/><stop offset="1" stop-opacity="0"/></linearGradient><linearGradient id="G"><stop offset="0" stop-opacity="0"/><stop offset=".5"/><stop offset="1" stop-opacity="0"/></linearGradient><linearGradient id="r"><stop offset="0" stop-color="#3c44dc"/><stop offset="1" stop-color="#0d1f6a"/></linearGradient><linearGradient id="q"><stop offset="0" stop-color="#d2d0f3"/><stop offset="1" stop-color="#1c3db8"/></linearGradient><linearGradient id="p"><stop offset="0" stop-color="#ced1f2"/><stop offset="1" stop-color="#1d42c9" stop-opacity="0"/></linearGradient><linearGradient id="N"><stop offset="0" stop-color="#59a40f"/><stop offset="1" stop-color="#306102"/></linearGradient><linearGradient id="M"><stop offset="0" stop-color="#fff"/><stop offset="1" stop-color="#fff" stop-opacity="0"/></linearGradient><linearGradient id="O"><stop offset="0"/><stop offset="1" stop-opacity="0"/></linearGradient><linearGradient id="L"><stop offset="0" stop-color="#d50f0f"/><stop offset="1" stop-color="#860000"/></linearGradient><linearGradient id="K"><stop offset="0"/><stop offset="1" stop-opacity="0"/></linearGradient><linearGradient id="H"><stop offset="0" stop-color="#fff" stop-opacity=".643"/><stop offset="1" stop-color="#fff" stop-opacity="0"/></linearGradient><linearGradient id="J"><stop offset="0" stop-color="#7ea8ce"/><stop offset=".763" stop-color="#568dc0" stop-opacity=".816"/><stop offset="1" stop-color="#c9e1f8" stop-opacity="0"/></linearGradient><linearGradient id="I"><stop offset="0" stop-color="#2c79c0"/><stop offset=".797" stop-color="#2970b3" stop-opacity=".498"/><stop offset="1" stop-color="#236098" stop-opacity="0"/></linearGradient><linearGradient id="P"><stop offset="0" stop-color="#fefefe"/><stop offset="1" stop-color="#cbcbcb"/></linearGradient><linearGradient id="Q"><stop offset="0" stop-color="#fff"/><stop offset="1" stop-color="#fff" stop-opacity="0"/></linearGradient><linearGradient id="S"><stop offset="0" stop-color="#f4f4f4"/><stop offset="1" stop-color="#dbdbdb"/></linearGradient><linearGradient id="T"><stop offset="0" stop-color="#aaa"/><stop offset="1" stop-color="#c8c8c8"/></linearGradient><linearGradient id="U"><stop offset="0"/><stop offset="1" stop-opacity="0"/></linearGradient><linearGradient id="V"><stop offset="0" stop-opacity="0"/><stop offset=".5"/><stop offset="1" stop-opacity="0"/></linearGradient><linearGradient id="W"><stop offset="0" stop-color="#fff"/><stop offset="1" stop-color="#fff" stop-opacity="0"/></linearGradient><linearGradient id="X"><stop offset="0" stop-opacity=".413"/><stop offset="1" stop-opacity="0"/></linearGradient><linearGradient id="Y"><stop offset="0" stop-color="#fff"/><stop offset=".475" stop-color="#fff"/><stop offset="1" stop-color="#fff" stop-opacity="0"/></linearGradient><linearGradient id="Z"><stop offset="0" stop-color="#fff"/><stop offset="1" stop-color="#fff" stop-opacity="0"/></linearGradient><linearGradient id="aa"><stop offset="0" stop-color="#888a85"/><stop offset="1" stop-color="#babdb6"/></linearGradient><linearGradient id="ab"><stop offset="0" stop-color="#f6f6f5"/><stop offset="1" stop-color="#d3d7cf"/></linearGradient><linearGradient id="ah"><stop offset="0" stop-color="#cee14b"/><stop offset="1" stop-color="#9db029"/></linearGradient><linearGradient id="ai"><stop offset="0" stop-color="#cee14b"/><stop offset="1" stop-color="#9db029"/></linearGradient><linearGradient id="af"><stop offset="0" stop-color="#cee14b"/><stop offset="1" stop-color="#9db029"/></linearGradient><linearGradient id="ag"><stop offset="0" stop-color="#cee14b"/><stop offset="1" stop-color="#9db029"/></linearGradient><linearGradient id="ak"><stop offset="0"/><stop offset="1" stop-opacity="0"/></linearGradient><linearGradient id="ae"><stop offset="0" stop-color="#fff"/><stop offset="1" stop-color="#fff" stop-opacity="0"/></linearGradient><linearGradient id="aj"><stop offset="0" stop-color="#8fb1dc"/><stop offset="1" stop-color="#3465a4"/></linearGradient><linearGradient id="ad"><stop offset="0"/><stop offset="1" stop-opacity="0"/></linearGradient><linearGradient id="ac"><stop offset="0" stop-opacity="0"/><stop offset=".5"/><stop offset="1" stop-opacity="0"/></linearGradient><linearGradient id="al"><stop offset="0" stop-opacity="0"/><stop offset=".5"/><stop offset="1" stop-opacity="0"/></linearGradient><linearGradient id="am"><stop offset="0"/><stop offset="1" stop-opacity="0"/></linearGradient><linearGradient id="an"><stop offset="0" stop-color="#aaa"/><stop offset="1" stop-color="#c8c8c8"/></linearGradient><linearGradient id="ao"><stop offset="0" stop-color="#f4f4f4"/><stop offset="1" stop-color="#dbdbdb"/></linearGradient><linearGradient id="aq"><stop offset="0" stop-color="#fff"/><stop offset="1" stop-color="#fff" stop-opacity="0"/></linearGradient><linearGradient id="ar"><stop offset="0" stop-color="#fefefe"/><stop offset="1" stop-color="#cbcbcb"/></linearGradient><linearGradient id="as"><stop offset="0" stop-color="#2c79c0"/><stop offset=".797" stop-color="#2970b3" stop-opacity=".498"/><stop offset="1" stop-color="#236098" stop-opacity="0"/></linearGradient><linearGradient id="at"><stop offset="0" stop-color="#7ea8ce"/><stop offset=".763" stop-color="#568dc0" stop-opacity=".816"/><stop offset="1" stop-color="#c9e1f8" stop-opacity="0"/></linearGradient><linearGradient id="au"><stop offset="0" stop-color="#fff" stop-opacity=".643"/><stop offset="1" stop-color="#fff" stop-opacity="0"/></linearGradient><linearGradient id="az"><stop offset="0"/><stop offset="1" stop-opacity="0"/></linearGradient><linearGradient id="aw"><stop offset="0" stop-color="#d50f0f"/><stop offset="1" stop-color="#860000"/></linearGradient><linearGradient id="ay"><stop offset="0"/><stop offset="1" stop-opacity="0"/></linearGradient><linearGradient id="ax"><stop offset="0" stop-color="#fff"/><stop offset="1" stop-color="#fff" stop-opacity="0"/></linearGradient><linearGradient id="av"><stop offset="0" stop-color="#59a40f"/><stop offset="1" stop-color="#306102"/></linearGradient><linearGradient xlink:href="#r" id="aL" gradientUnits="userSpaceOnUse" gradientTransform="rotate(90 32.524 30.524)" x1="22.04" y1="10.692" x2="45.964" y2="50.93"/><linearGradient xlink:href="#p" id="aN" gradientUnits="userSpaceOnUse" gradientTransform="rotate(90 13 43.438)" x1="1.63" y1="16.376" x2="1.753" y2="48.499"/><radialGradient cx="33.921" cy="32.026" r="12.011" fx="33.921" fy="32.026" id="aG" xlink:href="#a" gradientUnits="userSpaceOnUse" gradientTransform="matrix(1.09718 -.0604 .05996 1.07242 -4.799 -.44)"/><radialGradient cx="25.346" cy="30.31" r="12.011" fx="22.506" fy="25.064" id="aH" xlink:href="#b" gradientUnits="userSpaceOnUse" gradientTransform="matrix(.7893 .49308 -.2597 .41573 13.25 5.189)"/><radialGradient cx="41.247" cy="11.365" r="4.918" fx="41.772" fy="11.681" id="aK" xlink:href="#c" gradientUnits="userSpaceOnUse" gradientTransform="matrix(.36505 -.56094 1.44215 .93854 10.519 23.383)"/><radialGradient cx="15.116" cy="63.965" r="12.289" fx="13.292" fy="60.044" id="aB" xlink:href="#d" gradientUnits="userSpaceOnUse" gradientTransform="matrix(.9024 .03799 -.02527 .55901 22.625 .277)"/><radialGradient cx="15.116" cy="63.965" r="12.289" fx="15.116" fy="63.965" id="aA" xlink:href="#d" gradientUnits="userSpaceOnUse" gradientTransform="matrix(.88555 .03728 -.02527 .55901 10.612 -5.76)"/><radialGradient cx="23.261" cy="33.479" r="11.057" fx="23.261" fy="33.479" id="aF" xlink:href="#e" gradientUnits="userSpaceOnUse" gradientTransform="matrix(1.09454 .00512 -.00497 .94337 -.772 -1.48)"/><radialGradient cx="9.796" cy="24.748" r="11.057" fx="9.623" fy="19.022" id="aD" xlink:href="#b" gradientUnits="userSpaceOnUse" gradientTransform="matrix(.60566 .55109 -.31326 .34954 13.582 6.089)"/><radialGradient cx="16.357" cy="27.468" r="11.057" fx="16.357" fy="27.468" id="aC" xlink:href="#a" gradientUnits="userSpaceOnUse" gradientTransform="matrix(1.02496 .00839 -.00872 .9898 1.275 -3.434)"/><radialGradient cx="29.496" cy="-3.597" r="9.75" fx="29.496" fy="-3.597" id="aJ" xlink:href="#c" gradientUnits="userSpaceOnUse" gradientTransform="matrix(-.79883 .07668 -.032 -.33344 53.947 1.611)"/><radialGradient gradientUnits="userSpaceOnUse" id="k" r="139.559" cy="112.305" cx="102"><stop offset="0" stop-color="#b7b8b9"/><stop offset=".189" stop-color="#ececec"/><stop offset=".257" stop-color="#fafafa" stop-opacity="0"/><stop offset=".301" stop-color="#fff" stop-opacity="0"/><stop offset=".531" stop-color="#fafafa" stop-opacity="0"/><stop offset=".845" stop-color="#ebecec" stop-opacity="0"/><stop offset="1" stop-color="#e1e2e3" stop-opacity="0"/></radialGradient><radialGradient gradientUnits="userSpaceOnUse" id="C" r="139.559" cy="112.305" cx="102"><stop offset="0" stop-color="#b7b8b9"/><stop offset=".189" stop-color="#ececec"/><stop offset=".257" stop-color="#fafafa" stop-opacity="0"/><stop offset=".301" stop-color="#fff" stop-opacity="0"/><stop offset=".531" stop-color="#fafafa" stop-opacity="0"/><stop offset=".845" stop-color="#ebecec" stop-opacity="0"/><stop offset="1" stop-color="#e1e2e3" stop-opacity="0"/></radialGradient><radialGradient gradientUnits="userSpaceOnUse" id="R" r="139.559" cy="112.305" cx="102"><stop offset="0" stop-color="#b7b8b9"/><stop offset=".189" stop-color="#ececec"/><stop offset=".257" stop-color="#fafafa" stop-opacity="0"/><stop offset=".301" stop-color="#fff" stop-opacity="0"/><stop offset=".531" stop-color="#fafafa" stop-opacity="0"/><stop offset=".845" stop-color="#ebecec" stop-opacity="0"/><stop offset="1" stop-color="#e1e2e3" stop-opacity="0"/></radialGradient><radialGradient cx="102" cy="112.305" r="139.559" id="ap" gradientUnits="userSpaceOnUse"><stop offset="0" stop-color="#b7b8b9"/><stop offset=".189" stop-color="#ececec"/><stop offset=".257" stop-color="#fafafa" stop-opacity="0"/><stop offset=".301" stop-color="#fff" stop-opacity="0"/><stop offset=".531" stop-color="#fafafa" stop-opacity="0"/><stop offset=".845" stop-color="#ebecec" stop-opacity="0"/><stop offset="1" stop-color="#e1e2e3" stop-opacity="0"/></radialGradient><radialGradient xlink:href="#q" id="aM" gradientUnits="userSpaceOnUse" gradientTransform="matrix(-.1316 1.11695 -1.05762 -.12462 33.357 39.585)" cx="-15.475" cy="7.098" fx="-15.475" fy="7.098" r="17.1"/></defs><path d="M33.264 31.019c-.17 3.795-5.182 6.666-11.193 6.413-6.011-.253-10.745-3.535-10.572-7.33.17-3.794 5.182-6.665 11.193-6.412 6.011.253 10.745 3.534 10.572 7.329z" fill="url(#aA)"/><path d="M45.738 37.076c-.17 3.794-5.275 6.662-11.4 6.404-6.126-.258-10.952-3.543-10.78-7.338.171-3.795 5.276-6.662 11.401-6.404 6.126.258 10.952 3.543 10.78 7.338z" fill="url(#aB)"/><path d="M23.836 30.313c-3.51 4.432-10.086 7.114-14.631 3.714-5.27-2.203-6.055-9.086-3.773-14.219 2.564-5.764 8.135-6.618 14.27-3.116 6.134 3.502 8.075 8.643 4.134 13.621z" fill="url(#aC)" stroke="#520000" transform="matrix(.81932 0 0 .79635 10.265 5.668)"/><path d="M23.836 30.313c-3.51 4.432-10.086 7.114-14.631 3.714-5.27-2.203-6.055-9.086-3.773-14.219 2.564-5.764 8.135-6.618 14.27-3.116 6.134 3.502 8.075 8.643 4.134 13.621z" opacity=".66" fill="url(#aD)" stroke="#520000" transform="matrix(.81932 0 0 .79635 10.265 5.668)"/><path d="M12.678 15.596c-4.296.128-6.404 3.738-7.133 6.981-1.058 4.704.464 9.229 4.227 10.624 3.364 2.686 8.691 1.057 11.903-2.018 3.106-2.974 4.225-6.053 2.266-9.345-1.656-2.908-6.897-6.262-11.263-6.242z" fill="none" stroke="url(#aE)" transform="matrix(.81932 0 0 .79635 10.265 5.668)"/><path d="M15.81 16.255c-.41 2.183 2.73 4.455 5.521 3.06" fill="none" stroke="#520000" transform="matrix(.81932 0 0 .79635 10.265 5.668)"/><path d="M24.555 30.152c-4.224 5.64-11.132 7.647-15.678 4.248-5.27-2.204-5.727-9.46-3.445-14.592 2.564-5.764 8.373-7.016 14.53-3.555 6.465 3.625 8.163 9.154 4.593 13.899z" fill="url(#aF)" transform="matrix(.81932 0 0 .79635 10.265 5.668)"/><path d="M41.738 37.156c-2.28 6.289-8.637 11.67-14.977 9.41-6.706-.641-10.134-8.2-9.485-14.851.729-7.471 6.64-10.416 14.793-8.603 8.154 1.814 12.229 6.98 9.669 14.044z" fill="url(#aG)" stroke="#520000" transform="matrix(.75383 .03173 -.03338 .73842 13.38 3.842)"/><path d="M41.711 37.145c-2.277 6.296-8.627 11.684-14.96 9.421-6.7-.642-10.123-8.21-9.475-14.868.728-7.48 6.632-10.428 14.777-8.612 8.145 1.816 12.216 6.987 9.658 14.059z" opacity=".66" fill="url(#aH)" stroke="#520000" transform="matrix(.75383 .03173 -.03338 .73842 13.38 3.842)"/><path d="M26.576 23.697c-3.072.156-5.787 1.526-7.161 4.253-2.537 5.036-.535 11.522 1.706 14.3 2.677 3.323 4.934 3.043 6.227 3.377 4.357 1.42 8.868-1.072 11.727-5.605 4.784-7.585 1.767-12.682-4.479-15.088-2.496-.962-5.266-1.376-8.02-1.237z" fill="none" stroke="url(#aI)" transform="matrix(.75383 .03173 -.03338 .73842 13.38 3.842)"/><path d="M27.84 23.747c-.6 3.336 4.889 5.213 6.336 2" fill="none" stroke="#520000" transform="matrix(.75383 .03173 -.03338 .73842 13.38 3.842)"/><g><path d="M24.613 3.422c4.38-2.747 13.961.236 13.961.236s-7.194 6.715-10.797 5.984c-3.083-.63-11.581-5.233-11.581-5.233s4.59 1.403 8.417-.987z" fill="url(#aJ)" stroke="#2d5a00" transform="matrix(.75383 .03173 -.0382 .84504 13.39 3.619)"/><path d="M20.414 5.558c3.252 1.651 6.39 2.92 6.97 3.112 2.692.892 7.756-3.333 9.324-4.625-2.066-.512-8.082-1.651-11.075-.16-1.05.523-3.02 1.552-5.22 1.673z" fill="none" stroke="#59aa0a" stroke-miterlimit="9" transform="matrix(.75383 .03173 -.0382 .84504 13.39 3.619)"/></g><path d="M42.622 7.49l-1.363.914C27.304 12.99 25.892 19.62 24.021 19.574c.47.908 1.393 1.085 2.626 1.164-1.516-1.6 4.461-7.738 13.546-11.021C36.7 14.539 35.848 23.602 34.62 23.7c.984.647 1.57.904 2.603.388-.985-1.05.75-9.597 4.023-14.394l2.233-1.312-.857-.893z" fill="#4e9a06" stroke="#275000" stroke-width=".808"/><g><path d="M39.15 3.43c-.23 1.172-.737 2.146 5.652 5.621 2.957 1.608.965 5.096.41 9.718-5.077-4.748-10.408-10.07-6.061-15.34z" fill="url(#aK)" stroke="#2d5a00" transform="matrix(.75383 .03173 -.03342 .7392 13.381 3.805)"/><path d="M38.776 5.96c-.125.25-.788 2.06.715 4.79.988 1.946 3.284 4.337 5.05 6.02.726-3.732 1.518-5.79-.051-6.75-.667-.408-2.44-1.33-3.675-2.197-1.65-1.159-2.04-1.862-2.04-1.862z" fill="none" stroke="#59aa0a" transform="matrix(.75383 .03173 -.03342 .7392 13.381 3.805)"/></g><g><path d="M50 22c0-1-1-1-1-1H32c-.049-1 0-5 0-5-.01-.447-.11-.846-.523-1.016a1.123 1.123 0 00-1.21.235l-16 16a1.123 1.123 0 000 1.562l16 16c.32.312.796.405 1.21.235.414-.17.514-.569.523-1.016v-5h17.049s1 0 1-1c0-6-.049-14-.049-20z" fill="url(#aL)" transform="matrix(-.78589 .00203 -.0017 -.66101 40.078 33.596)"/><path d="M41.781 15.156c-5.903.002-13.643.061-19.562.063V32a1.218 1.218 0 01-1.157 1.219c-1.093.053-4.057.008-4.625 0L32 48.78 47.531 33.22H43A1.218 1.218 0 0141.781 32V15.156z" transform="matrix(-.0017 -.66101 .78589 -.00203 -10.219 33.726)" fill="url(#aM)"/><path d="M41.969 23.219c-4.118 0-9.206.037-9.75 0C29 23 31 19 29 20c-2 1-12 12-12 12l11.063 10.938C31 35 35.276 27.637 41.968 23.218z" fill="url(#aN)" transform="matrix(-.78589 .00203 -.0017 -.66101 40.078 33.596)"/></g></svg>