<svg xmlns="http://www.w3.org/2000/svg" xmlns:xlink="http://www.w3.org/1999/xlink" version="1.0" width="48" height="48"><defs><linearGradient id="c"><stop offset="0" stop-color="#59a40f"/><stop offset="1" stop-color="#306102"/></linearGradient><linearGradient id="b"><stop offset="0" stop-color="#fff"/><stop offset="1" stop-color="#fff" stop-opacity="0"/></linearGradient><linearGradient id="e"><stop offset="0"/><stop offset="1" stop-opacity="0"/></linearGradient><linearGradient id="a"><stop offset="0" stop-color="#d50f0f"/><stop offset="1" stop-color="#860000"/></linearGradient><linearGradient id="d"><stop offset="0"/><stop offset="1" stop-opacity="0"/></linearGradient><linearGradient id="f"><stop offset="0" stop-color="#fff" stop-opacity=".643"/><stop offset="1" stop-color="#fff" stop-opacity="0"/></linearGradient><linearGradient id="g"><stop offset="0" stop-color="#7ea8ce"/><stop offset=".763" stop-color="#568dc0" stop-opacity=".816"/><stop offset="1" stop-color="#c9e1f8" stop-opacity="0"/></linearGradient><linearGradient id="h"><stop offset="0" stop-color="#2c79c0"/><stop offset=".797" stop-color="#2970b3" stop-opacity=".498"/><stop offset="1" stop-color="#236098" stop-opacity="0"/></linearGradient><linearGradient id="i"><stop offset="0" stop-color="#fefefe"/><stop offset="1" stop-color="#cbcbcb"/></linearGradient><linearGradient id="j"><stop offset="0" stop-color="#fff"/><stop offset="1" stop-color="#fff" stop-opacity="0"/></linearGradient><linearGradient id="l"><stop offset="0" stop-color="#f4f4f4"/><stop offset="1" stop-color="#dbdbdb"/></linearGradient><linearGradient id="m"><stop offset="0" stop-color="#aaa"/><stop offset="1" stop-color="#c8c8c8"/></linearGradient><linearGradient id="n"><stop offset="0"/><stop offset="1" stop-opacity="0"/></linearGradient><linearGradient id="o"><stop offset="0" stop-opacity="0"/><stop offset=".5"/><stop offset="1" stop-opacity="0"/></linearGradient><linearGradient id="x"><stop offset="0" stop-opacity="0"/><stop offset=".5"/><stop offset="1" stop-opacity="0"/></linearGradient><linearGradient id="w"><stop offset="0"/><stop offset="1" stop-opacity="0"/></linearGradient><linearGradient id="v"><stop offset="0" stop-color="#8fb1dc"/><stop offset="1" stop-color="#3465a4"/></linearGradient><linearGradient id="p"><stop offset="0" stop-color="#fff"/><stop offset="1" stop-color="#fff" stop-opacity="0"/></linearGradient><linearGradient id="u"><stop offset="0"/><stop offset="1" stop-opacity="0"/></linearGradient><linearGradient id="s"><stop offset="0" stop-color="#cee14b"/><stop offset="1" stop-color="#9db029"/></linearGradient><linearGradient id="t"><stop offset="0" stop-color="#cee14b"/><stop offset="1" stop-color="#9db029"/></linearGradient><linearGradient id="q"><stop offset="0" stop-color="#cee14b"/><stop offset="1" stop-color="#9db029"/></linearGradient><linearGradient id="r"><stop offset="0" stop-color="#cee14b"/><stop offset="1" stop-color="#9db029"/></linearGradient><linearGradient id="y"><stop offset="0" stop-color="#f6f6f5"/><stop offset="1" stop-color="#d3d7cf"/></linearGradient><linearGradient id="z"><stop offset="0" stop-color="#888a85"/><stop offset="1" stop-color="#babdb6"/></linearGradient><linearGradient id="A"><stop offset="0" stop-color="#fff"/><stop offset="1" stop-color="#fff" stop-opacity="0"/></linearGradient><linearGradient id="B"><stop offset="0" stop-color="#fff"/><stop offset=".475" stop-color="#fff"/><stop offset="1" stop-color="#fff" stop-opacity="0"/></linearGradient><linearGradient id="C"><stop offset="0" stop-opacity=".413"/><stop offset="1" stop-opacity="0"/></linearGradient><linearGradient id="D"><stop offset="0" stop-color="#fff"/><stop offset="1" stop-color="#fff" stop-opacity="0"/></linearGradient><linearGradient id="E"><stop offset="0" stop-opacity="0"/><stop offset=".5"/><stop offset="1" stop-opacity="0"/></linearGradient><linearGradient id="F"><stop offset="0"/><stop offset="1" stop-opacity="0"/></linearGradient><linearGradient id="G"><stop offset="0" stop-color="#aaa"/><stop offset="1" stop-color="#c8c8c8"/></linearGradient><linearGradient id="H"><stop offset="0" stop-color="#f4f4f4"/><stop offset="1" stop-color="#dbdbdb"/></linearGradient><linearGradient id="J"><stop offset="0" stop-color="#fff"/><stop offset="1" stop-color="#fff" stop-opacity="0"/></linearGradient><linearGradient id="K"><stop offset="0" stop-color="#fefefe"/><stop offset="1" stop-color="#cbcbcb"/></linearGradient><linearGradient id="L"><stop offset="0" stop-color="#2c79c0"/><stop offset=".797" stop-color="#2970b3" stop-opacity=".498"/><stop offset="1" stop-color="#236098" stop-opacity="0"/></linearGradient><linearGradient id="M"><stop offset="0" stop-color="#7ea8ce"/><stop offset=".763" stop-color="#568dc0" stop-opacity=".816"/><stop offset="1" stop-color="#c9e1f8" stop-opacity="0"/></linearGradient><linearGradient id="N"><stop offset="0" stop-color="#fff" stop-opacity=".643"/><stop offset="1" stop-color="#fff" stop-opacity="0"/></linearGradient><linearGradient id="S"><stop offset="0"/><stop offset="1" stop-opacity="0"/></linearGradient><linearGradient id="P"><stop offset="0" stop-color="#d50f0f"/><stop offset="1" stop-color="#860000"/></linearGradient><linearGradient id="R"><stop offset="0"/><stop offset="1" stop-opacity="0"/></linearGradient><linearGradient id="Q"><stop offset="0" stop-color="#fff"/><stop offset="1" stop-color="#fff" stop-opacity="0"/></linearGradient><linearGradient id="O"><stop offset="0" stop-color="#59a40f"/><stop offset="1" stop-color="#306102"/></linearGradient><linearGradient id="U"><stop offset="0" stop-color="#ced1f2"/><stop offset="1" stop-color="#1d42c9" stop-opacity="0"/></linearGradient><linearGradient id="T"><stop offset="0" stop-color="#d2d0f3"/><stop offset="1" stop-color="#1c3db8"/></linearGradient><linearGradient id="V"><stop offset="0" stop-color="#3c44dc"/><stop offset="1" stop-color="#0d1f6a"/></linearGradient><linearGradient id="W"><stop offset="0" stop-opacity="0"/><stop offset=".5"/><stop offset="1" stop-opacity="0"/></linearGradient><linearGradient id="X"><stop offset="0"/><stop offset="1" stop-opacity="0"/></linearGradient><linearGradient id="Y"><stop offset="0" stop-color="#aaa"/><stop offset="1" stop-color="#c8c8c8"/></linearGradient><linearGradient id="Z"><stop offset="0" stop-color="#f4f4f4"/><stop offset="1" stop-color="#dbdbdb"/></linearGradient><linearGradient id="ab"><stop offset="0" stop-color="#fff"/><stop offset="1" stop-color="#fff" stop-opacity="0"/></linearGradient><linearGradient id="ac"><stop offset="0" stop-color="#fefefe"/><stop offset="1" stop-color="#cbcbcb"/></linearGradient><linearGradient id="ad"><stop offset="0" stop-color="#2c79c0"/><stop offset=".797" stop-color="#2970b3" stop-opacity=".498"/><stop offset="1" stop-color="#236098" stop-opacity="0"/></linearGradient><linearGradient id="ae"><stop offset="0" stop-color="#7ea8ce"/><stop offset=".763" stop-color="#568dc0" stop-opacity=".816"/><stop offset="1" stop-color="#c9e1f8" stop-opacity="0"/></linearGradient><linearGradient id="af"><stop offset="0" stop-color="#fff" stop-opacity=".643"/><stop offset="1" stop-color="#fff" stop-opacity="0"/></linearGradient><linearGradient id="ak"><stop offset="0"/><stop offset="1" stop-opacity="0"/></linearGradient><linearGradient id="ah"><stop offset="0" stop-color="#d50f0f"/><stop offset="1" stop-color="#860000"/></linearGradient><linearGradient id="aj"><stop offset="0"/><stop offset="1" stop-opacity="0"/></linearGradient><linearGradient id="ai"><stop offset="0" stop-color="#fff"/><stop offset="1" stop-color="#fff" stop-opacity="0"/></linearGradient><linearGradient id="ag"><stop offset="0" stop-color="#59a40f"/><stop offset="1" stop-color="#306102"/></linearGradient><linearGradient xlink:href="#V" id="bj" gradientUnits="userSpaceOnUse" gradientTransform="rotate(90 32.524 30.524)" x1="22.04" y1="10.692" x2="45.964" y2="50.93"/><linearGradient xlink:href="#U" id="bl" gradientUnits="userSpaceOnUse" gradientTransform="rotate(90 13 43.438)" x1="1.63" y1="16.376" x2="1.753" y2="48.499"/><radialGradient gradientUnits="userSpaceOnUse" id="k" r="139.559" cy="112.305" cx="102"><stop offset="0" stop-color="#b7b8b9"/><stop offset=".189" stop-color="#ececec"/><stop offset=".257" stop-color="#fafafa" stop-opacity="0"/><stop offset=".301" stop-color="#fff" stop-opacity="0"/><stop offset=".531" stop-color="#fafafa" stop-opacity="0"/><stop offset=".845" stop-color="#ebecec" stop-opacity="0"/><stop offset="1" stop-color="#e1e2e3" stop-opacity="0"/></radialGradient><radialGradient xlink:href="#u" id="al" gradientUnits="userSpaceOnUse" gradientTransform="matrix(1 0 0 .34118 0 3.047)" cx="62.625" cy="4.625" fx="62.625" fy="4.625" r="10.625"/><radialGradient xlink:href="#v" id="am" gradientUnits="userSpaceOnUse" gradientTransform="matrix(1.12235 0 0 1.12238 -7.61 1.068)" cx="62.2" cy="-8.726" fx="62.2" fy="-8.726" r="9.755"/><radialGradient xlink:href="#p" id="an" gradientUnits="userSpaceOnUse" gradientTransform="matrix(1 0 0 .93023 0 -.24)" cx="62.225" cy="-3.442" fx="62.225" fy="-3.442" r="10.081"/><radialGradient xlink:href="#p" id="ao" gradientUnits="userSpaceOnUse" gradientTransform="matrix(1 0 0 .93023 0 -.24)" cx="62.225" cy="-3.442" fx="62.225" fy="-3.442" r="10.081"/><radialGradient xlink:href="#p" id="aq" gradientUnits="userSpaceOnUse" gradientTransform="matrix(1 0 0 .93023 0 -.24)" cx="62.225" cy="-3.442" fx="62.225" fy="-3.442" r="10.081"/><radialGradient xlink:href="#p" id="ap" gradientUnits="userSpaceOnUse" gradientTransform="matrix(1 0 0 .93023 0 -.24)" cx="62.225" cy="-3.442" fx="62.225" fy="-3.442" r="10.081"/><radialGradient xlink:href="#p" id="ar" gradientUnits="userSpaceOnUse" gradientTransform="matrix(1 0 0 .93023 0 -.24)" cx="62.225" cy="-3.442" fx="62.225" fy="-3.442" r="10.081"/><radialGradient xlink:href="#p" id="as" gradientUnits="userSpaceOnUse" gradientTransform="matrix(1 0 0 .93023 0 -.24)" cx="62.225" cy="-3.442" fx="62.225" fy="-3.442" r="10.081"/><radialGradient xlink:href="#p" id="au" gradientUnits="userSpaceOnUse" gradientTransform="matrix(1 0 0 .93023 0 -.24)" cx="62.225" cy="-3.442" fx="62.225" fy="-3.442" r="10.081"/><radialGradient xlink:href="#p" id="at" gradientUnits="userSpaceOnUse" gradientTransform="matrix(1 0 0 .93023 0 -.24)" cx="62.225" cy="-3.442" fx="62.225" fy="-3.442" r="10.081"/><radialGradient xlink:href="#p" id="av" gradientUnits="userSpaceOnUse" gradientTransform="matrix(1 0 0 .93023 0 -.24)" cx="62.225" cy="-3.442" fx="62.225" fy="-3.442" r="10.081"/><radialGradient xlink:href="#p" id="ax" gradientUnits="userSpaceOnUse" gradientTransform="matrix(1 0 0 .93023 0 -.24)" cx="62.225" cy="-3.442" fx="62.225" fy="-3.442" r="10.081"/><radialGradient xlink:href="#p" id="aw" gradientUnits="userSpaceOnUse" gradientTransform="matrix(1 0 0 .93023 0 -.24)" cx="62.225" cy="-3.442" fx="62.225" fy="-3.442" r="10.081"/><radialGradient xlink:href="#p" id="ay" gradientUnits="userSpaceOnUse" gradientTransform="matrix(1 0 0 .93023 0 -.24)" cx="62.225" cy="-3.442" fx="62.225" fy="-3.442" r="10.081"/><radialGradient xlink:href="#p" id="az" gradientUnits="userSpaceOnUse" gradientTransform="matrix(1 0 0 .93023 0 -.24)" cx="62.225" cy="-3.442" fx="62.225" fy="-3.442" r="10.081"/><radialGradient xlink:href="#p" id="aB" gradientUnits="userSpaceOnUse" gradientTransform="matrix(1 0 0 .93023 0 -.24)" cx="62.225" cy="-3.442" fx="62.225" fy="-3.442" r="10.081"/><radialGradient xlink:href="#p" id="aA" gradientUnits="userSpaceOnUse" gradientTransform="matrix(1 0 0 .93023 0 -.24)" cx="62.225" cy="-3.442" fx="62.225" fy="-3.442" r="10.081"/><radialGradient xlink:href="#p" id="aC" gradientUnits="userSpaceOnUse" gradientTransform="matrix(1 0 0 .93023 0 -.24)" cx="62.225" cy="-3.442" fx="62.225" fy="-3.442" r="10.081"/><radialGradient xlink:href="#p" id="aD" gradientUnits="userSpaceOnUse" gradientTransform="matrix(1 0 0 .93023 0 -.24)" cx="62.225" cy="-3.442" fx="62.225" fy="-3.442" r="10.081"/><radialGradient xlink:href="#p" id="aF" gradientUnits="userSpaceOnUse" gradientTransform="matrix(1 0 0 .93023 0 -.24)" cx="62.225" cy="-3.442" fx="62.225" fy="-3.442" r="10.081"/><radialGradient xlink:href="#p" id="aE" gradientUnits="userSpaceOnUse" gradientTransform="matrix(1 0 0 .93023 0 -.24)" cx="62.225" cy="-3.442" fx="62.225" fy="-3.442" r="10.081"/><radialGradient xlink:href="#p" id="aG" gradientUnits="userSpaceOnUse" gradientTransform="matrix(1 0 0 .93023 0 -.24)" cx="62.225" cy="-3.442" fx="62.225" fy="-3.442" r="10.081"/><radialGradient xlink:href="#p" id="aI" gradientUnits="userSpaceOnUse" gradientTransform="matrix(1 0 0 .93023 0 -.24)" cx="62.225" cy="-3.442" fx="62.225" fy="-3.442" r="10.081"/><radialGradient xlink:href="#p" id="aH" gradientUnits="userSpaceOnUse" gradientTransform="matrix(1 0 0 .93023 0 -.24)" cx="62.225" cy="-3.442" fx="62.225" fy="-3.442" r="10.081"/><radialGradient xlink:href="#p" id="aJ" gradientUnits="userSpaceOnUse" gradientTransform="matrix(1 0 0 .93023 0 -.24)" cx="62.225" cy="-3.442" fx="62.225" fy="-3.442" r="10.081"/><radialGradient xlink:href="#p" id="aK" gradientUnits="userSpaceOnUse" gradientTransform="matrix(1 0 0 .93023 0 -.24)" cx="62.225" cy="-3.442" fx="62.225" fy="-3.442" r="10.081"/><radialGradient xlink:href="#p" id="aL" gradientUnits="userSpaceOnUse" gradientTransform="matrix(1 0 0 .93023 0 -.24)" cx="62.225" cy="-3.442" fx="62.225" fy="-3.442" r="10.081"/><radialGradient xlink:href="#p" id="aM" gradientUnits="userSpaceOnUse" gradientTransform="matrix(1 0 0 .93023 0 -.24)" cx="62.225" cy="-3.442" fx="62.225" fy="-3.442" r="10.081"/><radialGradient xlink:href="#p" id="aN" gradientUnits="userSpaceOnUse" gradientTransform="matrix(1 0 0 .93023 0 -.24)" cx="62.225" cy="-3.442" fx="62.225" fy="-3.442" r="10.081"/><radialGradient xlink:href="#p" id="aO" gradientUnits="userSpaceOnUse" gradientTransform="matrix(1 0 0 .93023 0 -.24)" cx="62.225" cy="-3.442" fx="62.225" fy="-3.442" r="10.081"/><radialGradient xlink:href="#p" id="aP" gradientUnits="userSpaceOnUse" gradientTransform="matrix(1 0 0 .93023 0 -.24)" cx="62.225" cy="-3.442" fx="62.225" fy="-3.442" r="10.081"/><radialGradient xlink:href="#p" id="aQ" gradientUnits="userSpaceOnUse" gradientTransform="matrix(1 0 0 .93023 0 -.24)" cx="62.225" cy="-3.442" fx="62.225" fy="-3.442" r="10.081"/><radialGradient xlink:href="#p" id="aR" gradientUnits="userSpaceOnUse" gradientTransform="matrix(1 0 0 .93023 0 -.24)" cx="62.225" cy="-3.442" fx="62.225" fy="-3.442" r="10.081"/><radialGradient xlink:href="#p" id="aS" gradientUnits="userSpaceOnUse" gradientTransform="matrix(1 0 0 .93023 0 -.24)" cx="62.225" cy="-3.442" fx="62.225" fy="-3.442" r="10.081"/><radialGradient xlink:href="#q" id="aV" gradientUnits="userSpaceOnUse" gradientTransform="matrix(.07657 2.76052 -1.96955 .05464 60.099 -55.472)" cx="24.653" cy="18.944" fx="24.652" fy="18.944" r="8.617"/><radialGradient xlink:href="#p" id="aW" gradientUnits="userSpaceOnUse" gradientTransform="matrix(1 0 0 .93023 0 -.24)" cx="62.225" cy="-3.442" fx="62.225" fy="-3.442" r="10.081"/><radialGradient xlink:href="#q" id="aT" gradientUnits="userSpaceOnUse" gradientTransform="matrix(.07657 2.76052 -1.96955 .05464 60.099 -55.472)" cx="24.653" cy="18.944" fx="24.652" fy="18.944" r="8.617"/><radialGradient xlink:href="#p" id="aU" gradientUnits="userSpaceOnUse" gradientTransform="matrix(1 0 0 .93023 0 -.24)" cx="62.225" cy="-3.442" fx="62.225" fy="-3.442" r="10.081"/><radialGradient xlink:href="#r" id="aZ" gradientUnits="userSpaceOnUse" gradientTransform="matrix(.1596 5.75333 -.8072 .02237 32.873 -131.697)" cx="25.135" cy="14.542" fx="25.135" fy="14.542" r="4.135"/><radialGradient xlink:href="#p" id="ba" gradientUnits="userSpaceOnUse" gradientTransform="matrix(1 0 0 .93023 0 -.24)" cx="62.225" cy="-3.442" fx="62.225" fy="-3.442" r="10.081"/><radialGradient xlink:href="#r" id="aX" gradientUnits="userSpaceOnUse" gradientTransform="matrix(.1596 5.75333 -.8072 .02237 32.873 -131.697)" cx="25.135" cy="14.542" fx="25.135" fy="14.542" r="4.135"/><radialGradient xlink:href="#p" id="aY" gradientUnits="userSpaceOnUse" gradientTransform="matrix(1 0 0 .93023 0 -.24)" cx="62.225" cy="-3.442" fx="62.225" fy="-3.442" r="10.081"/><radialGradient xlink:href="#s" id="bd" gradientUnits="userSpaceOnUse" gradientTransform="matrix(.22203 8.00438 -.59716 .01656 29.545 -182.327)" cx="24.479" cy="17.574" fx="24.479" fy="17.574" r="2.972"/><radialGradient xlink:href="#p" id="be" gradientUnits="userSpaceOnUse" gradientTransform="matrix(1 0 0 .93023 0 -.24)" cx="62.225" cy="-3.442" fx="62.225" fy="-3.442" r="10.081"/><radialGradient xlink:href="#s" id="bb" gradientUnits="userSpaceOnUse" gradientTransform="matrix(.22203 8.00438 -.59716 .01656 29.545 -182.327)" cx="24.479" cy="17.574" fx="24.479" fy="17.574" r="2.972"/><radialGradient xlink:href="#p" id="bc" gradientUnits="userSpaceOnUse" gradientTransform="matrix(1 0 0 .93023 0 -.24)" cx="62.225" cy="-3.442" fx="62.225" fy="-3.442" r="10.081"/><radialGradient xlink:href="#t" id="bh" gradientUnits="userSpaceOnUse" gradientTransform="matrix(.06718 2.42191 -1.62936 .04518 52.369 -50.34)" cx="25.969" cy="17.258" fx="25.969" fy="17.258" r="9.822"/><radialGradient xlink:href="#p" id="bi" gradientUnits="userSpaceOnUse" gradientTransform="matrix(1 0 0 .93023 0 -.24)" cx="62.225" cy="-3.442" fx="62.225" fy="-3.442" r="10.081"/><radialGradient xlink:href="#t" id="bf" gradientUnits="userSpaceOnUse" gradientTransform="matrix(.06718 2.42191 -1.62936 .04518 52.369 -50.34)" cx="25.969" cy="17.258" fx="25.969" fy="17.258" r="9.822"/><radialGradient xlink:href="#p" id="bg" gradientUnits="userSpaceOnUse" gradientTransform="matrix(1 0 0 .93023 0 -.24)" cx="62.225" cy="-3.442" fx="62.225" fy="-3.442" r="10.081"/><radialGradient cx="102" cy="112.305" r="139.559" id="I" gradientUnits="userSpaceOnUse"><stop offset="0" stop-color="#b7b8b9"/><stop offset=".189" stop-color="#ececec"/><stop offset=".257" stop-color="#fafafa" stop-opacity="0"/><stop offset=".301" stop-color="#fff" stop-opacity="0"/><stop offset=".531" stop-color="#fafafa" stop-opacity="0"/><stop offset=".845" stop-color="#ebecec" stop-opacity="0"/><stop offset="1" stop-color="#e1e2e3" stop-opacity="0"/></radialGradient><radialGradient cx="102" cy="112.305" r="139.559" id="aa" gradientUnits="userSpaceOnUse"><stop offset="0" stop-color="#b7b8b9"/><stop offset=".189" stop-color="#ececec"/><stop offset=".257" stop-color="#fafafa" stop-opacity="0"/><stop offset=".301" stop-color="#fff" stop-opacity="0"/><stop offset=".531" stop-color="#fafafa" stop-opacity="0"/><stop offset=".845" stop-color="#ebecec" stop-opacity="0"/><stop offset="1" stop-color="#e1e2e3" stop-opacity="0"/></radialGradient><radialGradient xlink:href="#T" id="bk" gradientUnits="userSpaceOnUse" gradientTransform="matrix(-.1316 1.11695 -1.05762 -.12462 33.357 39.585)" cx="-15.475" cy="7.098" fx="-15.475" fy="7.098" r="17.1"/></defs><g transform="matrix(2.04327 0 0 1.82014 -99.438 30.418)"><path transform="translate(-.707 -.442)" d="M73.25 4.625c0 2.002-4.757 3.625-10.625 3.625S52 6.627 52 4.625 56.757 1 62.625 1 73.25 2.623 73.25 4.625z" style="marker:none" opacity=".45" fill="url(#al)" fill-rule="evenodd" overflow="visible"/><path d="M71.456-3.511a9.256 9.256 0 11-18.512 0 9.256 9.256 0 0118.512 0h0z" fill="url(#am)" stroke="#204a87"/><path d="M70.491-3.511a8.291 8.291 0 11-16.582 0 8.291 8.291 0 0116.582 0h0z" opacity=".357" fill="none" stroke="#fff"/><image y="-11.413" x="61.522" href="62169F0D.png" height="16.411" width="10.785" opacity=".75" fill="#fff" stroke="url(#an)"/><image y="-10.944" x="61.991" href="62169F0E.png" height="2.344" width="2.344" opacity=".75" fill="#fff" stroke="url(#ao)"/><path d="M26.07 9.236l-.073.493.51.33.871-.576-.436-.494-.582.33-.29-.083" stroke="url(#aq)" transform="matrix(.4689 0 0 .4689 50.39 -14.574)" fill="#9db029"/><image y="-12.82" x="58.709" href="62169F0F.png" height="4.689" width="5.627" opacity=".75" fill="#fff" stroke="url(#ar)"/><image y="-9.538" x="62.929" href="62169F10.png" height="2.344" width="2.344" opacity=".75" fill="#fff" stroke="url(#as)"/><path d="M28.833 12.775l-.291-.741-.51.165.147.904.654-.328" stroke="url(#au)" transform="matrix(.4689 0 0 .4689 49.772 -14.574)" fill="#9db029"/><image y="-10.007" x="63.398" href="62169F11.png" height="3.282" width="2.344" opacity=".75" fill="#fff" stroke="url(#av)"/><path d="M29.123 12.609l-.145.988.8-.165.58-.575-.508-.494c-.171-.455-.368-.88-.582-1.316h-.435v.493l.29.329v.74" stroke="url(#ax)" transform="matrix(.4689 0 0 .4689 49.948 -14.574)" fill="#9db029"/><image y="-11.413" x="52.144" href="62169F12.png" height="17.349" width="9.847" opacity=".75" fill="#fff" stroke="url(#ay)"/><image y="-10.944" x="57.771" href="62169F13.png" height="2.344" width="2.344" opacity=".75" fill="#fff" stroke="url(#az)"/><path d="M16.766 9.565l.726.494h.582v-.576l-.726-.33-.582.412" stroke="url(#aB)" transform="matrix(.4689 0 0 .4689 50.39 -14.574)" fill="#9db029"/><image y="-11.882" x="56.364" href="62169F14.png" height="3.282" width="4.22" opacity=".75" fill="#fff" stroke="url(#aC)"/><image y="-12.82" x="57.302" href="2D44FCEC.png" height="2.813" width="3.751" opacity=".75" fill="#fff" stroke="url(#aD)"/><path d="M17.492 6.85l.364-.329.727-.165c.498-.242.998-.405 1.527-.576l-.29-.494-.939.135-.443.442-.731.106-.65.305-.316.153-.193.259.944.164" stroke="url(#aF)" transform="matrix(.4689 0 0 .4689 50.965 -14.53)" fill="#9db029"/><image y="-8.6" x="58.24" href="2D44FCED.png" height="2.344" width="2.344" opacity=".75" fill="#fff" stroke="url(#aG)"/><path d="M18.729 14.666l.436-.658-.655-.493.218 1.151" stroke="url(#aI)" transform="matrix(.4689 0 0 .4689 50.567 -14.309)" fill="#9db029"/><image y="-11.413" x="61.522" href="2D44FCEE.png" height="16.411" width="10.785" opacity=".158" fill="#fff" stroke="url(#aJ)"/><image y="-10.944" x="61.991" href="2D44FCEF.png" height="2.344" width="2.344" opacity=".158" fill="#fff" stroke="url(#aK)"/><image y="-12.82" x="58.709" href="2D44FCF0.png" height="4.689" width="5.627" opacity=".158" fill="#fff" stroke="url(#aL)"/><image y="-9.538" x="62.929" href="2D44FCF1.png" height="2.344" width="2.344" opacity=".158" fill="#fff" stroke="url(#aM)"/><image y="-10.007" x="63.398" href="2D44FCF2.png" height="3.282" width="2.344" opacity=".158" fill="#fff" stroke="url(#aN)"/><image y="-11.413" x="52.144" href="2D44FCF3.png" height="17.349" width="9.847" opacity=".158" fill="#fff" stroke="url(#aO)"/><image y="-10.944" x="57.771" href="2D44FCF4.png" height="2.344" width="2.344" opacity=".158" fill="#fff" stroke="url(#aP)"/><image y="-11.882" x="56.364" href="2D44FCF5.png" height="3.282" width="4.22" opacity=".158" fill="#fff" stroke="url(#aQ)"/><image y="-12.82" x="57.302" href="2D44FD11.png" height="2.813" width="3.751" opacity=".158" fill="#fff" stroke="url(#aR)"/><image y="-8.6" x="58.24" href="2D44FD12.png" height="2.344" width="2.344" opacity=".158" fill="#fff" stroke="url(#aS)"/><path d="M18.365 28.242l-.582-1.152-1.09-.247-.582-1.562-1.453.164-1.236-.904-1.309 1.151v.182c-.396-.115-.882-.13-1.235-.347l-.291-.822v-.906l-.872.082.218-1.727h-.51l-.507.658-.51.246-.727-.41-.073-.905.146-.988 1.09-.822h.873l.145-.494 1.09.246.8.988.145-1.646 1.382-1.152.508-1.234 1.018-.411.582-.822 1.308-.248.654-.987h-1.962l1.235-.576h.872l1.236-.412.146-.492-.437-.412-.509-.165.146-.493-.363-.74-.873.327.146-.657-1.018-.577-.8 1.398.073.494-.8.33-.509 1.07-.217-.987-1.382-.577-.218-.74 1.817-1.07.8-.74.073-.905-.436-.247-.582-.083-.363.906s-.608.119-.764.157c-1.996 1.84-6.03 5.81-6.966 13.307.037.173.679 1.181.679 1.181l1.526.904 1.527.413.654.823 1.018.74.581-.082.436.196v.133l-.581 1.563-.437.658.146.33-.363 1.233 1.308 2.386 1.308 1.153.582.822-.073 1.728.437.987-.437 1.892s-.034-.011.022.178c.056.19 2.329 1.451 2.473 1.344l.267-.205-.145-.41.581-.577.219-.576.945-.33.727-1.81-.218-.493.508-.74 1.09-.248.582-1.316-.145-1.645.872-1.234.146-1.235c-1.194-.591-2.378-1.2-3.562-1.81" fill="url(#aV)" stroke="url(#aW)" transform="matrix(.4689 0 0 .4689 50.744 -14.618)"/><path d="M26.87 5.863l-1.89-.74-2.18.246-2.69.74-.51.494 1.672 1.152v.658l-.654.658.873 1.73.58-.33.729-1.152c1.123-.347 2.13-.74 3.197-1.235l.873-2.22" fill="url(#aZ)" stroke="url(#ba)" transform="matrix(.4689 0 0 .4689 50.523 -14.441)"/><path d="M14.876 8.907l-.364.905h.727l.364-.823c.314-.222.626-.445.945-.658l.727.247c.484.33.969.658 1.454.987l.727-.658-.8-.329-.364-.74-1.38-.165-.074-.412-.654.165-.29.576-.364-.74-.145.328.073.823-.582.494" fill="url(#bd)" stroke="url(#be)" transform="matrix(.4689 0 0 .4689 50.832 -14.75)"/><path d="M44.071 20.714c0 .263 0 0 0 0l-.545.618c-.334-.394-.709-.725-1.09-1.07l-.835.122-.764-.863v1.068l.654.496.436.493.582-.658.436.823v.822l-.655.74-1.2.823-.907.907-.582-.66.29-.74-.58-.659-.982-2.098-.836-.945-.219.246.328 1.194.618.699c.352 1.017.7 1.99 1.164 2.963.718 0 1.394-.076 2.107-.166v.576l-.872 2.14-.8.903-.654 1.4v2.304l.219.906-.364.41-.8.494-.836.7.691.78-.945.825.181.533-1.418 1.606h-.944l-.8.494h-.51v-.659l-.216-1.318c-.282-.826-.574-1.646-.872-2.467 0-.605.036-1.205.072-1.81l.364-.823-.51-.988.038-1.357-.692-.782.346-1.13-.563-.639h-.982l-.327-.37-.982.618-.399-.454-.91.782c-.616-.7-1.235-1.399-1.853-2.098l-.726-1.729.654-.986-.363-.411.799-1.894c.656-.816 1.341-1.6 2.035-2.385l1.236-.33 1.381-.163.945.247 1.345 1.356.473-.534.653-.082 1.236.41h.946l.654-.575.29-.411-.654-.411-1.091-.082c-.303-.42-.584-.862-.944-1.235l-.364.164-.145 1.07-.655-.74-.144-.824-.727-.574h-.292l.728.822-.291.74-.581.165.363-.74-.655-.329-.58-.658-1.092.246-.145.328-.654.412-.363.906-.909.452-.4-.452h-.435v-1.482l.945-.494h.726l-.146-.575-.58-.576.98-.206.545-.617.436-.74h.8l-.218-.576.51-.33v.66l1.09.245 1.09-.904.072-.412.945-.658c-.342.043-.684.074-1.018.165v-.741l.363-.823h-.363l-.798.74-.22.412.22.576-.365.987-.58-.33-.509-.575-.8.576-.291-1.316 1.38-.905v-.494l.873-.576 1.381-.33.946.33 1.744.33-.436.492h-.945l.945.988.727-.823.22-.361s2.788 2.498 4.38 5.23c1.593 2.733 2.341 5.955 2.341 6.61z" fill="url(#bh)" stroke="url(#bi)" transform="matrix(.4689 0 0 .4689 50.125 -14.485)"/></g><path d="M50 22c0-1-1-1-1-1H32c-.049-1 0-5 0-5-.01-.447-.11-.846-.523-1.016a1.123 1.123 0 00-1.21.235l-16 16a1.123 1.123 0 000 1.562l16 16c.32.312.796.405 1.21.235.414-.17.514-.569.523-1.016v-5h17.049s1 0 1-1c0-6-.049-14-.049-20z" fill="url(#bj)" transform="matrix(-.78589 .00203 -.0017 -.66101 39.979 34.578)"/><path transform="matrix(-.0017 -.66101 .78589 -.00203 -10.318 34.708)" d="M41.781 15.156c-5.903.002-13.643.061-19.562.063V32a1.218 1.218 0 01-1.157 1.219c-1.093.053-4.057.008-4.625 0L32 48.78 47.531 33.22H43A1.218 1.218 0 0141.781 32V15.156z" fill="url(#bk)"/><path d="M41.969 23.219c-4.118 0-9.206.037-9.75 0C29 23 31 19 29 20c-2 1-12 12-12 12l11.063 10.938C31 35 35.276 27.637 41.968 23.218z" fill="url(#bl)" transform="matrix(-.78589 .00203 -.0017 -.66101 39.979 34.578)"/></svg>