<svg xmlns="http://www.w3.org/2000/svg"  version="1.0" width="48" height="48"><defs><linearGradient id="c"><stop offset="0" stop-color="#59a40f"/><stop offset="1" stop-color="#306102"/></linearGradient><linearGradient id="b"><stop offset="0" stop-color="#fff"/><stop offset="1" stop-color="#fff" stop-opacity="0"/></linearGradient><linearGradient id="e"><stop offset="0"/><stop offset="1" stop-opacity="0"/></linearGradient><linearGradient id="a"><stop offset="0" stop-color="#d50f0f"/><stop offset="1" stop-color="#860000"/></linearGradient><linearGradient id="d"><stop offset="0"/><stop offset="1" stop-opacity="0"/></linearGradient><linearGradient id="f"><stop offset="0" stop-color="#fff" stop-opacity=".643"/><stop offset="1" stop-color="#fff" stop-opacity="0"/></linearGradient><linearGradient id="g"><stop offset="0" stop-color="#7ea8ce"/><stop offset=".763" stop-color="#568dc0" stop-opacity=".816"/><stop offset="1" stop-color="#c9e1f8" stop-opacity="0"/></linearGradient><linearGradient id="h"><stop offset="0" stop-color="#2c79c0"/><stop offset=".797" stop-color="#2970b3" stop-opacity=".498"/><stop offset="1" stop-color="#236098" stop-opacity="0"/></linearGradient><linearGradient id="i"><stop offset="0" stop-color="#fefefe"/><stop offset="1" stop-color="#cbcbcb"/></linearGradient><linearGradient id="j"><stop offset="0" stop-color="#fff"/><stop offset="1" stop-color="#fff" stop-opacity="0"/></linearGradient><linearGradient id="l"><stop offset="0" stop-color="#f4f4f4"/><stop offset="1" stop-color="#dbdbdb"/></linearGradient><linearGradient id="m"><stop offset="0" stop-color="#aaa"/><stop offset="1" stop-color="#c8c8c8"/></linearGradient><linearGradient id="n"><stop offset="0"/><stop offset="1" stop-opacity="0"/></linearGradient><linearGradient id="o"><stop offset="0" stop-opacity="0"/><stop offset=".5"/><stop offset="1" stop-opacity="0"/></linearGradient><linearGradient id="x"><stop offset="0" stop-opacity="0"/><stop offset=".5"/><stop offset="1" stop-opacity="0"/></linearGradient><linearGradient id="w"><stop offset="0"/><stop offset="1" stop-opacity="0"/></linearGradient><linearGradient id="v"><stop offset="0" stop-color="#8fb1dc"/><stop offset="1" stop-color="#3465a4"/></linearGradient><linearGradient id="p"><stop offset="0" stop-color="#fff"/><stop offset="1" stop-color="#fff" stop-opacity="0"/></linearGradient><linearGradient id="u"><stop offset="0"/><stop offset="1" stop-opacity="0"/></linearGradient><linearGradient id="s"><stop offset="0" stop-color="#cee14b"/><stop offset="1" stop-color="#9db029"/></linearGradient><linearGradient id="t"><stop offset="0" stop-color="#cee14b"/><stop offset="1" stop-color="#9db029"/></linearGradient><linearGradient id="q"><stop offset="0" stop-color="#cee14b"/><stop offset="1" stop-color="#9db029"/></linearGradient><linearGradient id="r"><stop offset="0" stop-color="#cee14b"/><stop offset="1" stop-color="#9db029"/></linearGradient><linearGradient id="y"><stop offset="0" stop-color="#f6f6f5"/><stop offset="1" stop-color="#d3d7cf"/></linearGradient><linearGradient id="z"><stop offset="0" stop-color="#888a85"/><stop offset="1" stop-color="#babdb6"/></linearGradient><linearGradient id="A"><stop offset="0" stop-color="#fff"/><stop offset="1" stop-color="#fff" stop-opacity="0"/></linearGradient><linearGradient id="B"><stop offset="0" stop-color="#fff"/><stop offset=".475" stop-color="#fff"/><stop offset="1" stop-color="#fff" stop-opacity="0"/></linearGradient><linearGradient id="C"><stop offset="0" stop-opacity=".413"/><stop offset="1" stop-opacity="0"/></linearGradient><linearGradient id="D"><stop offset="0" stop-color="#fff"/><stop offset="1" stop-color="#fff" stop-opacity="0"/></linearGradient><linearGradient id="E"><stop offset="0" stop-opacity="0"/><stop offset=".5"/><stop offset="1" stop-opacity="0"/></linearGradient><linearGradient id="F"><stop offset="0"/><stop offset="1" stop-opacity="0"/></linearGradient><linearGradient id="G"><stop offset="0" stop-color="#aaa"/><stop offset="1" stop-color="#c8c8c8"/></linearGradient><linearGradient id="H"><stop offset="0" stop-color="#f4f4f4"/><stop offset="1" stop-color="#dbdbdb"/></linearGradient><linearGradient id="J"><stop offset="0" stop-color="#fff"/><stop offset="1" stop-color="#fff" stop-opacity="0"/></linearGradient><linearGradient id="K"><stop offset="0" stop-color="#fefefe"/><stop offset="1" stop-color="#cbcbcb"/></linearGradient><linearGradient id="L"><stop offset="0" stop-color="#2c79c0"/><stop offset=".797" stop-color="#2970b3" stop-opacity=".498"/><stop offset="1" stop-color="#236098" stop-opacity="0"/></linearGradient><linearGradient id="M"><stop offset="0" stop-color="#7ea8ce"/><stop offset=".763" stop-color="#568dc0" stop-opacity=".816"/><stop offset="1" stop-color="#c9e1f8" stop-opacity="0"/></linearGradient><linearGradient id="N"><stop offset="0" stop-color="#fff" stop-opacity=".643"/><stop offset="1" stop-color="#fff" stop-opacity="0"/></linearGradient><linearGradient id="S"><stop offset="0"/><stop offset="1" stop-opacity="0"/></linearGradient><linearGradient id="P"><stop offset="0" stop-color="#d50f0f"/><stop offset="1" stop-color="#860000"/></linearGradient><linearGradient id="R"><stop offset="0"/><stop offset="1" stop-opacity="0"/></linearGradient><linearGradient id="Q"><stop offset="0" stop-color="#fff"/><stop offset="1" stop-color="#fff" stop-opacity="0"/></linearGradient><linearGradient id="O"><stop offset="0" stop-color="#59a40f"/><stop offset="1" stop-color="#306102"/></linearGradient><linearGradient y2="39.999" x2="25.058" y1="47.028" x1="25.058" gradientUnits="userSpaceOnUse" id="bh" xlink:href="#x"/><linearGradient y2="39.999" x2="25.058" y1="47.028" x1="25.058" gradientUnits="userSpaceOnUse" id="bk" xlink:href="#x"/><linearGradient y2="-22.502" x2="-62.75" y1="49.021" x1="-47.5" gradientTransform="translate(-90 60)" gradientUnits="userSpaceOnUse" id="bm" xlink:href="#z"/><linearGradient gradientTransform="translate(-180)" gradientUnits="userSpaceOnUse" y2="67.799" x2="61.181" y1="70.752" x1="58.282" id="bo" xlink:href="#T"/><linearGradient id="T"><stop offset="0"/><stop offset="1" stop-opacity="0"/></linearGradient><linearGradient y2="14.07" x2="-28.789" y1="11.053" x1="-18.589" gradientTransform="matrix(.9223 0 0 .91858 -92.447 61.326)" gradientUnits="userSpaceOnUse" id="bq" xlink:href="#C"/><linearGradient y2="9.688" x2="-24.75" y1="11.566" x1="-26.754" gradientUnits="userSpaceOnUse" id="br" xlink:href="#D"/><linearGradient id="aa"><stop offset="0" stop-color="#59a40f"/><stop offset="1" stop-color="#306102"/></linearGradient><linearGradient id="Z"><stop offset="0" stop-color="#fff"/><stop offset="1" stop-color="#fff" stop-opacity="0"/></linearGradient><linearGradient id="ab"><stop offset="0"/><stop offset="1" stop-opacity="0"/></linearGradient><linearGradient id="Y"><stop offset="0" stop-color="#d50f0f"/><stop offset="1" stop-color="#860000"/></linearGradient><linearGradient id="X"><stop offset="0"/><stop offset="1" stop-opacity="0"/></linearGradient><linearGradient id="ac"><stop offset="0" stop-color="#fff" stop-opacity=".643"/><stop offset="1" stop-color="#fff" stop-opacity="0"/></linearGradient><linearGradient id="ad"><stop offset="0" stop-color="#7ea8ce"/><stop offset=".763" stop-color="#568dc0" stop-opacity=".816"/><stop offset="1" stop-color="#c9e1f8" stop-opacity="0"/></linearGradient><linearGradient id="ae"><stop offset="0" stop-color="#2c79c0"/><stop offset=".797" stop-color="#2970b3" stop-opacity=".498"/><stop offset="1" stop-color="#236098" stop-opacity="0"/></linearGradient><linearGradient id="af"><stop offset="0" stop-color="#fefefe"/><stop offset="1" stop-color="#cbcbcb"/></linearGradient><linearGradient id="ag"><stop offset="0" stop-color="#fff"/><stop offset="1" stop-color="#fff" stop-opacity="0"/></linearGradient><linearGradient id="ai"><stop offset="0" stop-color="#f4f4f4"/><stop offset="1" stop-color="#dbdbdb"/></linearGradient><linearGradient id="aj"><stop offset="0" stop-color="#aaa"/><stop offset="1" stop-color="#c8c8c8"/></linearGradient><linearGradient id="ak"><stop offset="0"/><stop offset="1" stop-opacity="0"/></linearGradient><linearGradient id="al"><stop offset="0" stop-opacity="0"/><stop offset=".5"/><stop offset="1" stop-opacity="0"/></linearGradient><linearGradient id="W"><stop offset="0" stop-color="#3c44dc"/><stop offset="1" stop-color="#0d1f6a"/></linearGradient><linearGradient id="V"><stop offset="0" stop-color="#d2d0f3"/><stop offset="1" stop-color="#1c3db8"/></linearGradient><linearGradient id="U"><stop offset="0" stop-color="#ced1f2"/><stop offset="1" stop-color="#1d42c9" stop-opacity="0"/></linearGradient><linearGradient id="as"><stop offset="0" stop-color="#59a40f"/><stop offset="1" stop-color="#306102"/></linearGradient><linearGradient id="ar"><stop offset="0" stop-color="#fff"/><stop offset="1" stop-color="#fff" stop-opacity="0"/></linearGradient><linearGradient id="at"><stop offset="0"/><stop offset="1" stop-opacity="0"/></linearGradient><linearGradient id="aq"><stop offset="0" stop-color="#d50f0f"/><stop offset="1" stop-color="#860000"/></linearGradient><linearGradient id="ap"><stop offset="0"/><stop offset="1" stop-opacity="0"/></linearGradient><linearGradient id="am"><stop offset="0" stop-color="#fff" stop-opacity=".643"/><stop offset="1" stop-color="#fff" stop-opacity="0"/></linearGradient><linearGradient id="ao"><stop offset="0" stop-color="#7ea8ce"/><stop offset=".763" stop-color="#568dc0" stop-opacity=".816"/><stop offset="1" stop-color="#c9e1f8" stop-opacity="0"/></linearGradient><linearGradient id="an"><stop offset="0" stop-color="#2c79c0"/><stop offset=".797" stop-color="#2970b3" stop-opacity=".498"/><stop offset="1" stop-color="#236098" stop-opacity="0"/></linearGradient><linearGradient id="au"><stop offset="0" stop-color="#fefefe"/><stop offset="1" stop-color="#cbcbcb"/></linearGradient><linearGradient id="av"><stop offset="0" stop-color="#fff"/><stop offset="1" stop-color="#fff" stop-opacity="0"/></linearGradient><linearGradient id="ax"><stop offset="0" stop-color="#f4f4f4"/><stop offset="1" stop-color="#dbdbdb"/></linearGradient><linearGradient id="ay"><stop offset="0" stop-color="#aaa"/><stop offset="1" stop-color="#c8c8c8"/></linearGradient><linearGradient id="az"><stop offset="0"/><stop offset="1" stop-opacity="0"/></linearGradient><linearGradient id="aA"><stop offset="0" stop-opacity="0"/><stop offset=".5"/><stop offset="1" stop-opacity="0"/></linearGradient><linearGradient id="aB"><stop offset="0" stop-color="#fff"/><stop offset="1" stop-color="#fff" stop-opacity="0"/></linearGradient><linearGradient id="aC"><stop offset="0" stop-opacity=".413"/><stop offset="1" stop-opacity="0"/></linearGradient><linearGradient id="aD"><stop offset="0" stop-color="#fff"/><stop offset=".475" stop-color="#fff"/><stop offset="1" stop-color="#fff" stop-opacity="0"/></linearGradient><linearGradient id="aE"><stop offset="0" stop-color="#fff"/><stop offset="1" stop-color="#fff" stop-opacity="0"/></linearGradient><linearGradient id="aF"><stop offset="0" stop-color="#888a85"/><stop offset="1" stop-color="#babdb6"/></linearGradient><linearGradient id="aG"><stop offset="0" stop-color="#f6f6f5"/><stop offset="1" stop-color="#d3d7cf"/></linearGradient><linearGradient id="aM"><stop offset="0" stop-color="#cee14b"/><stop offset="1" stop-color="#9db029"/></linearGradient><linearGradient id="aN"><stop offset="0" stop-color="#cee14b"/><stop offset="1" stop-color="#9db029"/></linearGradient><linearGradient id="aK"><stop offset="0" stop-color="#cee14b"/><stop offset="1" stop-color="#9db029"/></linearGradient><linearGradient id="aL"><stop offset="0" stop-color="#cee14b"/><stop offset="1" stop-color="#9db029"/></linearGradient><linearGradient id="aP"><stop offset="0"/><stop offset="1" stop-opacity="0"/></linearGradient><linearGradient id="aJ"><stop offset="0" stop-color="#fff"/><stop offset="1" stop-color="#fff" stop-opacity="0"/></linearGradient><linearGradient id="aO"><stop offset="0" stop-color="#8fb1dc"/><stop offset="1" stop-color="#3465a4"/></linearGradient><linearGradient id="aI"><stop offset="0"/><stop offset="1" stop-opacity="0"/></linearGradient><linearGradient id="aH"><stop offset="0" stop-opacity="0"/><stop offset=".5"/><stop offset="1" stop-opacity="0"/></linearGradient><linearGradient id="aQ"><stop offset="0" stop-opacity="0"/><stop offset=".5"/><stop offset="1" stop-opacity="0"/></linearGradient><linearGradient id="aR"><stop offset="0"/><stop offset="1" stop-opacity="0"/></linearGradient><linearGradient id="aS"><stop offset="0" stop-color="#aaa"/><stop offset="1" stop-color="#c8c8c8"/></linearGradient><linearGradient id="aT"><stop offset="0" stop-color="#f4f4f4"/><stop offset="1" stop-color="#dbdbdb"/></linearGradient><linearGradient id="aV"><stop offset="0" stop-color="#fff"/><stop offset="1" stop-color="#fff" stop-opacity="0"/></linearGradient><linearGradient id="aW"><stop offset="0" stop-color="#fefefe"/><stop offset="1" stop-color="#cbcbcb"/></linearGradient><linearGradient id="aX"><stop offset="0" stop-color="#2c79c0"/><stop offset=".797" stop-color="#2970b3" stop-opacity=".498"/><stop offset="1" stop-color="#236098" stop-opacity="0"/></linearGradient><linearGradient id="aY"><stop offset="0" stop-color="#7ea8ce"/><stop offset=".763" stop-color="#568dc0" stop-opacity=".816"/><stop offset="1" stop-color="#c9e1f8" stop-opacity="0"/></linearGradient><linearGradient id="aZ"><stop offset="0" stop-color="#fff" stop-opacity=".643"/><stop offset="1" stop-color="#fff" stop-opacity="0"/></linearGradient><linearGradient id="be"><stop offset="0"/><stop offset="1" stop-opacity="0"/></linearGradient><linearGradient id="bb"><stop offset="0" stop-color="#d50f0f"/><stop offset="1" stop-color="#860000"/></linearGradient><linearGradient id="bd"><stop offset="0"/><stop offset="1" stop-opacity="0"/></linearGradient><linearGradient id="bc"><stop offset="0" stop-color="#fff"/><stop offset="1" stop-color="#fff" stop-opacity="0"/></linearGradient><linearGradient id="ba"><stop offset="0" stop-color="#59a40f"/><stop offset="1" stop-color="#306102"/></linearGradient><linearGradient xlink:href="#W" id="bs" gradientUnits="userSpaceOnUse" gradientTransform="rotate(90 32.524 30.524)" x1="22.04" y1="10.692" x2="45.964" y2="50.93"/><linearGradient xlink:href="#U" id="bu" gradientUnits="userSpaceOnUse" gradientTransform="rotate(90 13 43.438)" x1="1.63" y1="16.376" x2="1.753" y2="48.499"/><radialGradient gradientUnits="userSpaceOnUse" id="k" r="139.559" cy="112.305" cx="102"><stop offset="0" stop-color="#b7b8b9"/><stop offset=".189" stop-color="#ececec"/><stop offset=".257" stop-color="#fafafa" stop-opacity="0"/><stop offset=".301" stop-color="#fff" stop-opacity="0"/><stop offset=".531" stop-color="#fafafa" stop-opacity="0"/><stop offset=".845" stop-color="#ebecec" stop-opacity="0"/><stop offset="1" stop-color="#e1e2e3" stop-opacity="0"/></radialGradient><radialGradient cx="102" cy="112.305" r="139.559" id="I" gradientUnits="userSpaceOnUse"><stop offset="0" stop-color="#b7b8b9"/><stop offset=".189" stop-color="#ececec"/><stop offset=".257" stop-color="#fafafa" stop-opacity="0"/><stop offset=".301" stop-color="#fff" stop-opacity="0"/><stop offset=".531" stop-color="#fafafa" stop-opacity="0"/><stop offset=".845" stop-color="#ebecec" stop-opacity="0"/><stop offset="1" stop-color="#e1e2e3" stop-opacity="0"/></radialGradient><radialGradient r="2.5" fy="43.5" fx="4.993" cy="43.5" cx="4.993" gradientTransform="matrix(2.00378 0 0 1.4 27.988 -17.4)" gradientUnits="userSpaceOnUse" id="bf" xlink:href="#w"/><radialGradient r="2.5" fy="43.5" fx="4.993" cy="43.5" cx="4.993" gradientTransform="matrix(2.00378 0 0 1.4 -20.012 -104.4)" gradientUnits="userSpaceOnUse" id="bg" xlink:href="#w"/><radialGradient r="2.5" fy="43.5" fx="4.993" cy="43.5" cx="4.993" gradientTransform="matrix(2.00378 0 0 1.4 27.988 -17.4)" gradientUnits="userSpaceOnUse" id="bi" xlink:href="#w"/><radialGradient r="2.5" fy="43.5" fx="4.993" cy="43.5" cx="4.993" gradientTransform="matrix(2.00378 0 0 1.4 -20.012 -104.4)" gradientUnits="userSpaceOnUse" id="bj" xlink:href="#w"/><radialGradient r="18" fy="35.357" fx="-30.25" cy="35.357" cx="-30.25" gradientTransform="matrix(3.99575 0 0 1.93504 .621 28.833)" gradientUnits="userSpaceOnUse" id="bl" xlink:href="#y"/><radialGradient r="17" fy="5.3" fx="4" cy="5.3" cx="4" gradientTransform="matrix(1.88603 0 0 1.17647 -3.544 -4.235)" gradientUnits="userSpaceOnUse" id="bn" xlink:href="#A"/><radialGradient r="7.042" fy="10.108" fx="-26.305" cy="10.108" cx="-26.305" gradientTransform="matrix(.40734 -.27983 .75103 1.09325 -115.185 51.562)" gradientUnits="userSpaceOnUse" id="bp" xlink:href="#B"/><radialGradient gradientUnits="userSpaceOnUse" id="ah" r="139.559" cy="112.305" cx="102"><stop offset="0" stop-color="#b7b8b9"/><stop offset=".189" stop-color="#ececec"/><stop offset=".257" stop-color="#fafafa" stop-opacity="0"/><stop offset=".301" stop-color="#fff" stop-opacity="0"/><stop offset=".531" stop-color="#fafafa" stop-opacity="0"/><stop offset=".845" stop-color="#ebecec" stop-opacity="0"/><stop offset="1" stop-color="#e1e2e3" stop-opacity="0"/></radialGradient><radialGradient gradientUnits="userSpaceOnUse" id="aw" r="139.559" cy="112.305" cx="102"><stop offset="0" stop-color="#b7b8b9"/><stop offset=".189" stop-color="#ececec"/><stop offset=".257" stop-color="#fafafa" stop-opacity="0"/><stop offset=".301" stop-color="#fff" stop-opacity="0"/><stop offset=".531" stop-color="#fafafa" stop-opacity="0"/><stop offset=".845" stop-color="#ebecec" stop-opacity="0"/><stop offset="1" stop-color="#e1e2e3" stop-opacity="0"/></radialGradient><radialGradient cx="102" cy="112.305" r="139.559" id="aU" gradientUnits="userSpaceOnUse"><stop offset="0" stop-color="#b7b8b9"/><stop offset=".189" stop-color="#ececec"/><stop offset=".257" stop-color="#fafafa" stop-opacity="0"/><stop offset=".301" stop-color="#fff" stop-opacity="0"/><stop offset=".531" stop-color="#fafafa" stop-opacity="0"/><stop offset=".845" stop-color="#ebecec" stop-opacity="0"/><stop offset="1" stop-color="#e1e2e3" stop-opacity="0"/></radialGradient><radialGradient xlink:href="#V" id="bt" gradientUnits="userSpaceOnUse" gradientTransform="matrix(-.1316 1.11695 -1.05762 -.12462 33.357 39.585)" cx="-15.475" cy="7.098" fx="-15.475" fy="7.098" r="17.1"/></defs><g opacity=".656"><g opacity=".4"><path fill="url(#bf)" d="M38 40h5v7h-5z" transform="matrix(1.1015 0 0 1.14286 2.069 -5.435)"/><path transform="matrix(-1.1015 0 0 -1.14286 2.069 -5.435)" fill="url(#bg)" d="M-10-47h5v7h-5z"/><path fill="url(#bh)" d="M10 40h28v7H10z" transform="matrix(1.1015 0 0 1.14286 2.069 -5.435)"/></g></g><g opacity=".4"><path fill="url(#bi)" d="M38 40h5v7h-5z" transform="matrix(1.0051 0 0 .71429 4.382 13.208)"/><path transform="matrix(-1.0051 0 0 -.71429 4.382 13.208)" fill="url(#bj)" d="M-10-47h5v7h-5z"/><path fill="url(#bk)" d="M10 40h28v7H10z" transform="matrix(1.0051 0 0 .71429 4.382 13.208)"/></g><path d="M-141.476 63.5h18.976c3.877.073 6.5 2.5 9 5s4.608 5.253 5 9v24.976a2.02 2.02 0 01-2.024 2.024h-30.952a2.02 2.02 0 01-2.024-2.024V65.524a2.02 2.02 0 012.024-2.024z" fill="url(#bl)" stroke="url(#bm)" transform="translate(154.576 -59.22)"/><path d="M8.531 4C7.673 4 7 4.673 7 5.531V42.47C7 43.327 7.673 44 8.531 44H39.47c.858 0 1.531-.673 1.531-1.531V17.5c0-1.392-.487-4.3-2.344-6.156l-5-5C31.8 4.487 28.892 4 27.5 4H8.531z" transform="translate(4.576 .78)" opacity=".68" fill="url(#bn)"/><path style="marker:none" d="M-138.594 69.125a.414.414 0 00-.406.406c0 .219.188.406.406.406h21.188a.414.414 0 00.406-.406.414.414 0 00-.406-.406h-21.188zm.063 1.938a.468.468 0 100 .937h22.062a.468.468 0 100-.938h-22.062zm0 2a.468.468 0 100 .937h25.187a.468.468 0 100-.938h-25.187zm0 2a.468.468 0 100 .937h25.187a.468.468 0 100-.938h-25.187zm0 2a.468.468 0 100 .937h25.187a.468.468 0 100-.938h-25.187z" opacity=".15" fill="url(#bo)" fill-rule="evenodd" overflow="visible" transform="translate(154.576 -59.22)"/><path d="M-122.5 64c-1.389 0-.042.497 1.344 1.125 1.386.628 4.973 3.215 4.156 6.875 4.323-.43 6.68 3.122 7 4.281.32 1.16 1 2.608 1 1.219.028-3.806-2.845-6.432-4.844-8.656-1.998-2.225-5.002-4.367-8.656-4.844z" fill="url(#bp)" transform="translate(154.576 -59.22)"/><path d="M-121.4 65.014c.923 0 3.01 6.196 2.087 10.33 4.295-.428 8.853.088 9.313.937-.32-1.159-2.677-4.712-7-4.281.865-3.875-3.187-6.617-4.4-6.986z" opacity=".879" fill="url(#bq)" transform="translate(154.576 -59.22)"/><path d="M-51.469 4.5c-.583 0-1.031.448-1.031 1.031V42.47c0 .583.448 1.031 1.031 1.031h30.938c.583 0 1.031-.448 1.031-1.031V17.5c0-1.279-.48-4.105-2.188-5.813l-5-5C-28.395 4.98-31.22 4.5-32.5 4.5h-18.969z" transform="translate(64.576 .78)" fill="none" stroke="url(#br)"/><g transform="matrix(.92889 0 0 1 6.287 .78)" opacity=".15" fill-rule="evenodd"><rect style="marker:none" width="28.125" height=".938" x="10" y="19.063" rx=".505" ry=".469" overflow="visible"/><rect ry=".469" rx=".505" y="21.063" x="10" height=".938" width="28.125" style="marker:none" overflow="visible"/><rect ry=".469" rx=".505" y="23.063" x="10" height=".938" width="28.125" style="marker:none" overflow="visible"/><rect style="marker:none" width="28.125" height=".938" x="10" y="25.063" rx=".505" ry=".469" overflow="visible"/><rect style="marker:none" width="28.125" height=".938" x="10" y="27.063" rx=".505" ry=".469" overflow="visible"/><rect ry=".469" rx=".505" y="29.063" x="10" height=".938" width="28.125" style="marker:none" overflow="visible"/><rect ry=".469" rx=".505" y="31.063" x="10" height=".938" width="28.125" style="marker:none" overflow="visible"/><rect style="marker:none" width="28.125" height=".938" x="10" y="33.063" rx=".505" ry=".469" overflow="visible"/><rect style="marker:none" width="28.125" height=".938" x="10" y="35.063" rx=".505" ry=".469" overflow="visible"/><rect style="marker:none" width="13.813" height=".938" x="10" y="37.063" rx=".505" ry=".469" overflow="visible"/></g><g><path d="M50 22c0-1-1-1-1-1H32c-.049-1 0-5 0-5-.01-.447-.11-.846-.523-1.016a1.123 1.123 0 00-1.21.235l-16 16a1.123 1.123 0 000 1.562l16 16c.32.312.796.405 1.21.235.414-.17.514-.569.523-1.016v-5h17.049s1 0 1-1c0-6-.049-14-.049-20z" fill="url(#bs)" transform="matrix(-.78589 .00203 -.0017 -.66101 39.976 34.07)"/><path transform="matrix(-.0017 -.66101 .78589 -.00203 -10.32 34.2)" d="M41.781 15.156c-5.903.002-13.643.061-19.562.063V32a1.218 1.218 0 01-1.157 1.219c-1.093.053-4.057.008-4.625 0L32 48.78 47.531 33.22H43A1.218 1.218 0 0141.781 32V15.156z" fill="url(#bt)"/><path d="M41.969 23.219c-4.118 0-9.206.037-9.75 0C29 23 31 19 29 20c-2 1-12 12-12 12l11.063 10.938C31 35 35.276 27.637 41.968 23.218z" fill="url(#bu)" transform="matrix(-.78589 .00203 -.0017 -.66101 39.976 34.07)"/></g></svg>