<svg xmlns="http://www.w3.org/2000/svg"  width="48" height="48"><defs><linearGradient id="a"><stop offset="0" stop-color="#fff"/><stop offset="1" stop-color="#fff" stop-opacity="0"/></linearGradient><linearGradient id="b"><stop offset="0"/><stop offset="1" stop-opacity="0"/></linearGradient><linearGradient xlink:href="#b" id="y" x1="33.95" y1="14.007" x2="39.619" y2="9.522" gradientUnits="userSpaceOnUse" gradientTransform="translate(1.682 1.125)"/><linearGradient id="c"><stop offset="0" stop-opacity=".598"/><stop offset="1" stop-opacity="0"/></linearGradient><linearGradient xlink:href="#c" id="w" gradientUnits="userSpaceOnUse" gradientTransform="translate(-19.533 1.744)" x1="35.005" y1="24.3" x2="30.28" y2="9.13"/><linearGradient id="d"><stop offset="0" stop-color="#cad0c6"/><stop offset=".5" stop-color="#eaece9"/><stop offset="1" stop-color="#c5cbc0"/></linearGradient><linearGradient y2="17.47" x2="27.192" y1="2.914" x1="10.651" gradientTransform="translate(0 -1.926)" gradientUnits="userSpaceOnUse" id="v" xlink:href="#d"/><linearGradient id="e"><stop offset="0"/><stop offset="1" stop-opacity="0"/></linearGradient><linearGradient xlink:href="#e" id="u" x1="31.375" y1="20.438" x2="38.25" y2="20.438" gradientUnits="userSpaceOnUse"/><linearGradient id="f"><stop offset="0"/><stop offset=".5" stop-opacity=".172"/><stop offset="1"/></linearGradient><linearGradient xlink:href="#f" id="s" x1="17.188" y1="20.094" x2="34" y2="20.094" gradientUnits="userSpaceOnUse" gradientTransform="translate(0 -.5)"/><linearGradient id="g"><stop offset="0"/><stop offset="1" stop-opacity="0"/></linearGradient><linearGradient id="h"><stop offset="0" stop-color="#fff"/><stop offset="1" stop-color="#fff" stop-opacity="0"/></linearGradient><linearGradient xlink:href="#h" id="p" gradientUnits="userSpaceOnUse" gradientTransform="matrix(.9698 0 0 .95192 -2.773 2.034)" x1="21.942" y1="21.551" x2="21.942" y2="18.038"/><linearGradient id="i"><stop offset="0" stop-color="#fffac7"/><stop offset="1" stop-color="#fff8b2"/></linearGradient><linearGradient xlink:href="#i" id="o" x1="24.875" y1="21" x2="24.75" y2="17" gradientUnits="userSpaceOnUse" gradientTransform="matrix(.97068 0 0 1.5 -2.795 -9.5)"/><linearGradient id="j"><stop offset="0" stop-color="#fff"/><stop offset="1" stop-color="#fff" stop-opacity=".495"/></linearGradient><linearGradient xlink:href="#j" id="n" gradientUnits="userSpaceOnUse" gradientTransform="matrix(.96893 0 0 1.11761 -2.738 -6.095)" x1="10.907" y1="25.002" x2="30.875" y2="36.127"/><linearGradient id="k"><stop offset="0" stop-color="#ead200"/><stop offset=".21" stop-color="#fff16a"/><stop offset=".84" stop-color="#b5a300"/><stop offset="1" stop-color="#e8d000"/></linearGradient><linearGradient xlink:href="#k" id="m" gradientUnits="userSpaceOnUse" gradientTransform="matrix(.97151 0 0 1.12986 -2.815 -7.939)" x1="6.727" y1="32.162" x2="40.938" y2="32.162"/><filter x="-.085" width="1.17" y="-.414" height="1.827" id="C"><feGaussianBlur stdDeviation=".425"/></filter><filter id="A"><feGaussianBlur stdDeviation=".528"/></filter><filter x="-.242" width="1.485" y="-.048" height="1.095" id="z"><feGaussianBlur stdDeviation=".244"/></filter><filter x="-.493" width="1.987" y="-.114" height="1.228" id="x"><feGaussianBlur stdDeviation=".689"/></filter><filter x="-.141" width="1.283" y="-1.522" height="4.044" id="t"><feGaussianBlur stdDeviation="1.189"/></filter><filter x="-.494" width="1.988" y="-.082" height="1.165" id="q"><feGaussianBlur stdDeviation=".699"/></filter><filter x="-.075" width="1.15" y="-.472" height="1.944" id="l"><feGaussianBlur stdDeviation="1.415"/></filter><radialGradient xlink:href="#a" id="B" gradientUnits="userSpaceOnUse" cx="18.031" cy="6.281" fx="18.031" fy="6.281" r="3.182"/><radialGradient xlink:href="#g" id="r" gradientUnits="userSpaceOnUse" gradientTransform="matrix(1 0 0 .5849 0 8.432)" cx="15.938" cy="20.313" fx="15.938" fy="20.313" r="3.313"/></defs><rect style="marker:none" width="37.75" height="6" x="6.25" y="39.75" rx="3.171" ry="1.975" transform="matrix(1.02649 0 0 1 -5.166 -2)" opacity=".459" fill-rule="evenodd" overflow="visible" filter="url(#l)" enable-background="accumulate"/><path d="M5.671 15.5c9.795-1.443 19.694-1.22 29.655 0 1.202 0 2.17 1.044 2.17 2.34v23.32c0 1.297-1.03 2.153-2.17 2.34-10.328 1.209-19.182 1.2-29.655 0-1.39-.437-2.171-1.043-2.171-2.34V17.84c0-1.296.968-2.34 2.171-2.34z" fill="url(#m)" fill-rule="evenodd" stroke="#7d6400" stroke-linecap="round" stroke-linejoin="round"/><g fill-rule="evenodd"><path d="M36.94 22.445c-.398 1.33-4.534 1.67-5.302 1.773l-16.309.48 16.264.16c.825-.097 5.218.103 5.436-1.706l-.089-.707z" style="marker:none" opacity=".141" overflow="visible" enable-background="accumulate"/><path style="marker:none" d="M36.94 24.445c-.398 1.33-4.534 1.67-5.302 1.773l-19.059.48 19.014.16c.825-.097 5.218.103 5.436-1.706l-.089-.707z" opacity=".141" overflow="visible" enable-background="accumulate"/><path d="M36.94 26.445c-.398 1.33-4.534 1.67-5.302 1.773l-16.309.48 16.264.16c.825-.097 5.218.103 5.436-1.706l-.089-.707z" style="marker:none" opacity=".141" overflow="visible" enable-background="accumulate"/><path style="marker:none" d="M36.94 28.445c-.398 1.33-4.534 1.67-5.302 1.773l-11.059.48 11.014.16c.825-.097 5.218.103 5.436-1.706l-.089-.707z" opacity=".141" overflow="visible" enable-background="accumulate"/><path d="M36.94 30.445c-.398 1.33-4.534 1.67-5.302 1.773l-16.309.48 16.264.16c.825-.097 5.218.103 5.436-1.706l-.089-.707z" style="marker:none" opacity=".141" overflow="visible" enable-background="accumulate"/><path style="marker:none" d="M36.94 32.445c-.398 1.33-4.534 1.67-5.302 1.773l-18.746.48 18.7.16c.826-.097 5.22.103 5.437-1.706l-.089-.707z" opacity=".141" overflow="visible" enable-background="accumulate"/><path d="M36.94 34.445c-.398 1.33-4.534 1.67-5.302 1.773l-13.996.48 13.95.16c.826-.097 5.22.103 5.437-1.706l-.089-.707z" style="marker:none" opacity=".141" overflow="visible" enable-background="accumulate"/><path style="marker:none" d="M36.94 36.445c-.398 1.33-4.534 1.67-5.302 1.773l-8.434.48 8.389.16c.825-.097 5.218.103 5.436-1.706l-.089-.707z" opacity=".141" overflow="visible" enable-background="accumulate"/><path d="M36.94 38.445c-.398 1.33-4.534 1.67-5.302 1.773l-16.309.48 16.264.16c.825-.097 5.218.103 5.436-1.706l-.089-.707z" style="marker:none" opacity=".141" overflow="visible" enable-background="accumulate"/></g><path d="M5.75 16.995h29.504c.693 0 1.25.587 1.25 1.315v22.876c0 .728-.495 1.064-1.25 1.314-9.647 1.204-19.17 1.2-29.504 0-.693-.25-1.25-.586-1.25-1.314V18.31c0-.728.557-1.315 1.25-1.315z" fill="none" stroke="url(#n)" stroke-linecap="round" stroke-linejoin="round" stroke-opacity=".601"/><path style="marker:none" d="M5.608 16c9.929-1.46 19.858-1.2 29.787 0 .891 0 1.608.717 1.608 1.608v2.784c0 .891-.717 1.608-1.608 1.608-10.361.69-19.895.444-29.787 0C4.717 22 4 21.283 4 20.392v-2.784C4 16.718 4.717 16 5.608 16z" fill="url(#o)" fill-rule="evenodd" overflow="visible"/><path style="marker:none" d="M5.664 18.693h29.675c.645 0 1.164.489 1.164 1.096v.663c0 .607-.519 1.096-1.164 1.096-9.8 1.2-19.71 1.274-29.675 0-.645 0-1.164-.489-1.164-1.096v-.663c0-.607.52-1.096 1.164-1.096z" fill="none" stroke="url(#p)" stroke-linecap="round" stroke-linejoin="round" overflow="visible"/><rect style="marker:none" width="2.828" height="16.971" x="14.594" y="23.226" rx="1.608" ry="1.608" transform="matrix(1.97227 0 0 1.24166 -20.564 -7.839)" opacity=".294" fill="#fff" fill-rule="evenodd" overflow="visible" filter="url(#q)" enable-background="accumulate"/><path transform="matrix(1.75565 .01868 -.25669 1.45405 6.677 -11.232)" d="M19.25 20.313a3.313 1.938 0 11-6.625 0 3.313 1.938 0 116.625 0z" style="marker:none" opacity=".626" fill="url(#r)" fill-rule="evenodd" overflow="visible" enable-background="accumulate"/><rect style="marker:none" width="16.813" height="1.563" x="17.188" y="18.813" rx=".781" ry=".781" transform="matrix(-1 -.19425 0 1 63.819 3.453)" opacity=".482" fill="url(#s)" fill-rule="evenodd" overflow="visible" filter="url(#t)" enable-background="accumulate"/><path style="marker:none" d="M38.25 20.438a3.438 1.563 0 11-6.875 0 3.438 1.563 0 116.875 0z" transform="translate(-24.125 -2)" opacity=".547" fill="url(#u)" fill-rule="evenodd" overflow="visible" enable-background="accumulate"/><g fill-rule="evenodd"><path d="M12.743 25.824v-1.63l1.052-.444-1.122-1.444.07-2.217c0-14.448 4.064-16.374 11.277-17.011 7.148-.632 13.334 3.434 13.334 11.397v7.985c0 1.954-7.094.987-7.094-1.216V15.26c0-3.77-.6-6.55-4.795-6.284-5.793.366-5.879 6.536-5.879 14.311v3.777c0 2.354-6.843 1.138-6.843-1.24z" fill="url(#v)" stroke="#888a85" stroke-width="1.08" transform="matrix(-.85752 -.17319 0 1 58.48 2.176)"/><path d="M12.122 14.371l.372.17c2.74.377 2.978 11.622 2.978 11.622-.063 1.125-2.031 3.713-2 3.182 0 0 .594-12.724-1.35-14.974z" transform="matrix(.85752 .17319 0 1 33.815 -8.47)" opacity=".626" fill="url(#w)" filter="url(#x)"/><path d="M43.424 11.814c-5.32-1.904-6.629.078-6.858 2.988l.121 7.67c-.027 1.133-2.031.532-2 0l-.057-7.963c.049-2.957 2.089-6.31 8.794-2.695z" transform="matrix(.85752 -.17319 0 1 .653 2)" opacity=".103" fill="url(#y)" filter="url(#z)"/></g><path style="marker:none" d="M18.5 27.17l.75-15.254c0-8.064 14.938-9.217 14.938 2.334v7.625" transform="matrix(-1 -.19425 0 1 62.319 2.578)" fill="none" stroke="#fff" stroke-width="2" stroke-linecap="round" overflow="visible" filter="url(#A)" enable-background="accumulate"/><g fill-rule="evenodd"><path d="M21.213 6.28a3.182 3.182 0 11-6.364 0 3.182 3.182 0 116.364 0z" style="marker:none" fill="url(#B)" overflow="visible" enable-background="accumulate" transform="matrix(-1 -.01372 0 1 50.63 -3.926)"/><path style="marker:none" d="M31.216 2.088a1.373 1.392-44.803 102.764.038 1.373 1.392-44.803 10-2.764-.038z" fill="#fff" overflow="visible" enable-background="accumulate"/></g><path style="marker:none" d="M21.716 3.956c2.327-1.052 5.115-1.303 7.613 0 1.605.839 1.233 1.89 0 1.544-2.533-.71-5.097-.52-7.613 0-1.78.367-1.502-.865 0-1.544z" transform="matrix(-1 -.19425 0 1 61.252 3.41)" fill="#fff" fill-rule="evenodd" overflow="visible" filter="url(#C)" enable-background="accumulate"/><path style="marker:none" d="M47.288 24.326l-3 1s1.375-1.688 2.125-1.938.875.938.875.938z" fill="#999b97" fill-rule="evenodd" overflow="visible" enable-background="accumulate"/></svg>