<?xml version="1.0" encoding="utf-8"?>
<!-- Generator: Adobe Illustrator 23.0.1, SVG Export Plug-In . SVG Version: 6.00 Build 0)  -->
<svg version="1.1" id="Layer_1" xmlns="http://www.w3.org/2000/svg" xmlns:xlink="http://www.w3.org/1999/xlink" x="0px" y="0px"
	 viewBox="0 0 48 48" style="enable-background:new 0 0 48 48;" xml:space="preserve">
<style type="text/css">
	.st0{fill-rule:evenodd;clip-rule:evenodd;fill:#C9C100;}
	.st1{fill-rule:evenodd;clip-rule:evenodd;fill:#FEFFBF;}
	.st2{display:none;fill-rule:evenodd;clip-rule:evenodd;fill:#969696;}
	.st3{fill-rule:evenodd;clip-rule:evenodd;fill:#969696;}
</style>
<path id="rect1314" class="st0" d="M4.5,17.1c9.8-1.4,19.7-1.2,29.7,0c1.2,0,2.2,1,2.2,2.3v23.3c0,1.3-1,2.2-2.2,2.3
	C23.9,46.2,15,46.2,4.5,45c-1.4-0.4-2.2-1-2.2-2.3V19.4C2.3,18.1,3.3,17.1,4.5,17.1z"/>
<path id="rect1460" class="st1" d="M4.4,17.6c9.9-1.5,19.9-1.2,29.8,0c0.9,0,1.6,0.7,1.6,1.6V22c0,0.9-0.7,1.6-1.6,1.6
	c-10.4,0.7-19.9,0.4-29.8,0c-0.9,0-1.6-0.7-1.6-1.6v-2.8C2.8,18.3,3.5,17.6,4.4,17.6z"/>
<path id="path2086" class="st2" d="M7.3,19.3v-5.7C7.3,5.7,12,2,19.2,2.1c7.3,0.1,12,3.5,12,11.5v6c0,2-4.9,2.2-4.9,0v-4
	c0-2,0.5-8.5-7.1-8.5c-7.5,0-7,6.5-6.9,8.5v3.8C12.4,21.7,7.3,21.7,7.3,19.3z"/>
<path class="st3" d="M46.3,27.2v-1.6l-0.9-0.6l1-1.2l-0.1-2.2c0-14.4-3.5-17.1-9.7-19c-6.1-1.9-11.4,1.1-11.4,9.1v8
	c0,2,6.1,2.2,6.1,0v-6c0-3.8,0.5-6.4,4.1-5.5c5,1.4,5,7.6,5,15.3v3.8C40.4,29.6,46.3,29.6,46.3,27.2z"/>
</svg>
