<svg xmlns="http://www.w3.org/2000/svg"  width="48" height="48"><defs><linearGradient id="a"><stop offset="0" stop-color="#fff"/><stop offset="1" stop-color="#fff" stop-opacity="0"/></linearGradient><linearGradient xlink:href="#a" id="k" gradientUnits="userSpaceOnUse" gradientTransform="matrix(.18288 0 0 .18288 -2.234 -5.128)" x1="132.25" y1="93" x2="34" y2="207"/><linearGradient id="b"><stop offset="0" stop-color="#fff"/><stop offset="1" stop-color="#fff" stop-opacity="0"/></linearGradient><linearGradient xlink:href="#b" id="j" gradientUnits="userSpaceOnUse" x1="22.109" y1="11.344" x2="22.109" y2="49.613"/><linearGradient id="c"><stop offset="0" stop-color="#a40000"/><stop offset="1" stop-color="#7c0000"/></linearGradient><linearGradient xlink:href="#c" id="i" gradientUnits="userSpaceOnUse" x1="22.097" y1="19.875" x2="22.097" y2="39.53"/><linearGradient id="d"><stop offset="0" stop-color="#ef2929"/><stop offset=".644" stop-color="#c00"/><stop offset="1" stop-color="#ef2929"/></linearGradient><linearGradient xlink:href="#d" id="h" gradientUnits="userSpaceOnUse" x1="22.097" y1="8.008" x2="24.238" y2="38.437"/><linearGradient id="e"><stop offset="0"/><stop offset="1" stop-opacity="0"/></linearGradient><radialGradient xlink:href="#e" id="f" gradientUnits="userSpaceOnUse" gradientTransform="matrix(1 0 0 .5 0 19.25)" cx="22" cy="38.5" fx="22" fy="38.5" r="13"/><filter id="g" height="1.67" y="-.335" width="1.335" x="-.168"><feGaussianBlur stdDeviation="1.815"/></filter></defs><path transform="matrix(1.32572 0 0 1.306 -4.144 -13.758)" d="M35 38.5a13 6.5 0 11-26 0 13 6.5 0 1126 0z" style="marker:none" opacity=".434" fill="url(#f)" overflow="visible" filter="url(#g)" enable-background="accumulate"/><path transform="matrix(1.12093 0 0 1.10427 -.648 -2.335)" d="M35.1 35.723l-8.397-1.882-4.606 7.268-4.606-7.268-8.396 1.882 1.882-8.396L3.71 22.72l7.268-4.606-1.882-8.396L17.49 11.6l4.606-7.268 4.606 7.268 8.396-1.882-1.882 8.396 7.268 4.606-7.268 4.606 1.882 8.396z" style="marker:none" fill="url(#h)" stroke="url(#i)" overflow="visible" enable-background="accumulate"/><path transform="matrix(1.12637 0 0 1.12637 -.745 -2.77)" d="M22.094 6.281l-3.719 5.875c-.23.37-.667.557-1.094.469l-6.812-1.531L12 17.906c.088.427-.1.863-.469 1.094l-5.875 3.719 5.875 3.718c.37.231.557.668.469 1.094l-1.531 6.813 6.812-1.532c.427-.087.863.1 1.094.47l3.719 5.874 3.718-5.875c.231-.37.668-.556 1.094-.468l6.813 1.53-1.532-6.812c-.087-.426.1-.863.47-1.093l5.906-3.72L32.656 19a1.042 1.042 0 01-.468-1.094l1.53-6.812-6.812 1.531c-.426.088-.863-.1-1.093-.469l-3.72-5.875z" style="marker:none" xlink:href="#path4547-2" opacity=".337" fill="none" stroke="url(#j)" overflow="visible" enable-background="accumulate"/><path d="M24.04 30.379c-1.145 0-2.025-.895-2.025-2.057 0-1.252.792-2.057 2.024-2.057s1.936.805 2.024 2.057c0 1.162-.792 2.057-2.024 2.057zm-.645-6.648l-1.116-8.914h3.52L24.684 25.2l-1.29-1.47z" fill="#eeeeec" enable-background="new"/><path style="marker:none" d="M12.58 29.893c7.419-5.328 15.92-8.176 23.773-11.338l2.103-8.23-9.052 1.738-4.755-7.315-4.846 7.132-8.87-1.829 2.195 8.778-7.681 4.938 7.415 4.603-.283 1.523z" opacity=".25" fill="url(#k)" overflow="visible" enable-background="accumulate" transform="translate(-.45 -.961)"/></svg>