<svg xmlns="http://www.w3.org/2000/svg" xmlns:xlink="http://www.w3.org/1999/xlink" width="48" height="48"><defs><linearGradient y2="56.052" x2="47.32" y1="11.113" x1="4.191" gradientUnits="userSpaceOnUse" id="a"><stop offset="0" stop-color="#fff"/><stop offset="1" stop-color="#fff" stop-opacity="0"/></linearGradient><linearGradient xlink:href="#a" id="g" gradientUnits="userSpaceOnUse" gradientTransform="matrix(.64615 0 -.00281 .671 2.32 4.636)" x1="22.858" y1="27.427" x2="23.075" y2="77.316"/><linearGradient id="b"><stop offset="0" stop-color="#fed496"/><stop offset="1" stop-color="#fcaf3e"/></linearGradient><linearGradient id="c"><stop offset="0" stop-color="#fff"/><stop offset="1" stop-color="#fff" stop-opacity="0"/></linearGradient><radialGradient xlink:href="#b" id="f" cx="21.081" cy="27.926" fx="21.081" fy="27.926" r="8.803" gradientTransform="matrix(2.79463 0 0 2.63422 -37.832 -46.947)" gradientUnits="userSpaceOnUse"/><radialGradient xlink:href="#c" id="h" gradientUnits="userSpaceOnUse" gradientTransform="matrix(.51118 0 0 .49161 -18.446 -11.688)" cx="79.377" cy="44.534" fx="79.377" fy="44.534" r="50.668"/><filter id="d" x="-.028" width="1.057" y="-.416" height="1.831"><feGaussianBlur stdDeviation=".52"/></filter><filter id="e" x="-.085" width="1.17" y="-1.247" height="3.494"><feGaussianBlur stdDeviation="1.559"/></filter></defs><rect width="44" height="3" x="298" y="91" rx="3.25" ry="1.5" transform="matrix(1 0 0 1.33333 -296 -80.833)" opacity=".3" filter="url(#d)" enable-background="new"/><rect width="44" height="3" x="298" y="91" rx="3.25" ry="1.5" transform="matrix(1 0 0 1.58333 -296 -103.958)" opacity=".5" filter="url(#e)" enable-background="new"/><path d="M45.388 39.21L26.658 4.055c-.537-.977-1.512-1.52-2.596-1.52-1.085 0-2.064.652-2.61 1.628L2.861 39.32c-.438.868-.443 2.061.096 2.93.538.868 1.404 1.302 2.49 1.302h37.318c1.085 0 2.064-.543 2.501-1.411.546-.868.551-1.953.121-2.93z" fill="#f57900" stroke="#ce5c00" stroke-width=".99953546"/><path d="M12.35 39.644c-.18.297-.002.535.297.535h16.865c.3 0 .48-.238.301-.535L21.33 23.807c-.178-.298-.418-.298-.538 0l-8.44 15.837z" fill="url(#f)" transform="matrix(1.56667 0 0 1.56667 -8.915 -24.84)"/><path d="M33.59 40.372L22.406 19.41c-.476-.904-.647-1.193-1.37-1.193-.623 0-.949.422-1.399 1.274L8.578 40.437c-.642 1.176-.71 1.483-.401 2 .309.518.706.49 2.172.524h21.736c1.365.016 1.672-.088 1.924-.605.313-.518.18-.928-.42-1.984z" opacity=".5" fill="none" stroke="url(#g)" stroke-width=".638" transform="matrix(1.56667 0 0 1.56667 -8.915 -24.84)"/><path d="M24.039 35.379c-1.144 0-2.024-.895-2.024-2.057 0-1.252.792-2.057 2.024-2.057s1.936.805 2.024 2.057c0 1.162-.792 2.057-2.024 2.057zm-.645-6.648l-1.115-8.914h3.52L24.683 30.2l-1.289-1.47z" stroke="none" fill="#121312" stroke-width=".98"/><path d="M23.982 3.064c-.998 0-1.897.6-2.4 1.5L6.95 32.261l30.36-7.245L26.372 4.46c-.495-.9-1.391-1.396-2.39-1.396z" opacity=".471" fill="url(#h)" enable-background="new"/></svg>