<?xml version="1.0" encoding="utf-8"?>
<!-- Generator: Adobe Illustrator 23.0.1, SVG Export Plug-In . SVG Version: 6.00 Build 0)  -->
<svg version="1.1" id="Layer_1" xmlns="http://www.w3.org/2000/svg" xmlns:xlink="http://www.w3.org/1999/xlink" x="0px" y="0px"
	 viewBox="0 0 177 177" style="enable-background:new 0 0 177 177;" xml:space="preserve">
<style type="text/css">
	.st0{fill:#E9E9E0;}
	.st1{fill:#D9D7CA;}
	.st2{fill:#F29C1F;}
	.st3{fill:#FFFFFF;}
</style>
<g>
	<path class="st0" d="M111.4,10.4H31.1c-2.2,0-4.1,1.8-4.1,5.3v147c0,1,1.8,2.8,4.1,2.8h111c2.2,0,4.1-1.8,4.1-2.8V46.4
		c0-1.9-0.3-2.5-0.7-3l-32.2-32.2C112.7,10.7,112.1,10.4,111.4,10.4z"/>
	<polygon class="st1" points="112.9,10.9 112.9,43.7 145.7,43.7 	"/>
	<path class="st2" d="M142.1,165.6h-111c-2.2,0-4.1-1.8-4.1-4.1v-43h119.1v43C146.1,163.7,144.3,165.6,142.1,165.6z"/>
	<g>
		<path class="st3" d="M62.7,143.7l7.1,13.6h-5.3l-4.4-10.5h-0.4l-4.8,10.5h-5.3l7.1-13.6l-7.5-14.4h5.2l4.9,11.4h0.4l5.3-11.4h5.2
			L62.7,143.7z"/>
		<path class="st3" d="M97.6,129.3h4.6v27.9h-4.6V138l-6.2,15.5h-4L81.1,138v19.2h-4.6v-27.9h4.6l8.3,19.1L97.6,129.3z"/>
		<path class="st3" d="M113.9,129.3v24.5h12.8v3.4h-17.5v-27.9H113.9z"/>
	</g>
	<path class="st2" d="M51.9,76.9c-0.7,0-1.4-0.3-2-0.8c-1.1-1.1-1.1-2.8,0-3.9l16.6-16.6c1.1-1.1,2.8-1.1,3.9,0
		c1.1,1.1,1.1,2.8,0,3.9L53.9,76.1C53.4,76.6,52.6,76.9,51.9,76.9z"/>
	<path class="st2" d="M68.6,93.5c-0.7,0-1.4-0.3-2-0.8L50,76.1c-1.1-1.1-1.1-2.8,0-3.9c1.1-1.1,2.8-1.1,3.9,0l16.6,16.6
		c1.1,1.1,1.1,2.8,0,3.9C70,93.3,69.3,93.5,68.6,93.5z"/>
	<path class="st2" d="M101.8,93.5c-0.7,0-1.4-0.3-2-0.8c-1.1-1.1-1.1-2.8,0-3.9l16.6-16.6c1.1-1.1,2.8-1.1,3.9,0s1.1,2.8,0,3.9
		l-16.6,16.6C103.2,93.3,102.5,93.5,101.8,93.5z"/>
	<path class="st2" d="M118.4,76.9c-0.7,0-1.4-0.3-2-0.8L99.8,59.5c-1.1-1.1-1.1-2.8,0-3.9c1.1-1.1,2.8-1.1,3.9,0l16.6,16.6
		c1.1,1.1,1.1,2.8,0,3.9C119.8,76.6,119.1,76.9,118.4,76.9z"/>
	<path class="st2" d="M76.9,99.1c-0.3,0-0.6-0.1-0.9-0.2c-1.4-0.5-2.2-2.1-1.7-3.5l16.6-47.1c0.5-1.4,2.1-2.2,3.5-1.7
		c1.4,0.5,2.2,2.1,1.7,3.5L79.5,97.2C79.1,98.4,78,99.1,76.9,99.1z"/>
</g>
</svg>
